<svg xmlns="http://www.w3.org/2000/svg" xmlns:xlink="http://www.w3.org/1999/xlink" width="482.15" height="66.965" viewBox="0 0 482.15 66.965"><defs><linearGradient id="a" x1="0.215" y1="-1.54" x2="0.785" y2="2.54" gradientUnits="objectBoundingBox"><stop offset="0.22" stop-color="#002d75"/><stop offset="0.818" stop-color="#14807b"/></linearGradient></defs><g transform="translate(0 0)"><rect width="479.453" height="64.269" transform="translate(1.348 1.348)" fill="#fff"/><path d="M1478.412,1189.943H996.262v-66.965h482.15Zm-479.456-2.679h476.763v-61.608H998.956Z" transform="translate(-996.262 -1122.977)" fill="url(#a)"/></g><g transform="translate(160.816 24.163)"><path d="M1305.9,1182.721h-2.472a.613.613,0,0,1-.347.115v6.375c0,1.455-.716,1.5-3,1.5a4.3,4.3,0,0,0-.439-1.224c2.125.046,2.125.023,2.125-.277v-6.49h-2.725v-8.477h2.194c.162-.763.37-1.733.485-2.5h-3.95v7.045c0,3.419-.231,8.246-1.64,11.479a5.8,5.8,0,0,0-1.177-.785c1.339-3.072,1.432-7.46,1.432-10.671v-8.454h9.631v1.386h-2.425a.5.5,0,0,1-.485.231c-.116.624-.324,1.5-.532,2.264h3.326Zm-4.989,1.547c-.046.162-.185.231-.439.231a15.21,15.21,0,0,1-1.663,4.366,6.347,6.347,0,0,0-1.04-.578,14.857,14.857,0,0,0,1.548-4.435Zm-.578-8.846v2.471h4.251v-2.471Zm0,3.6v2.495h4.251v-2.495Zm4.851,4.85a22.885,22.885,0,0,1,1.478,3.765l-1.178.462a22.846,22.846,0,0,0-1.409-3.88Zm5.612,3.812a.6.6,0,0,1-.439.185,12.894,12.894,0,0,1-4.064,2.887,10.541,10.541,0,0,0-1.016-1.016,12.9,12.9,0,0,0,4.065-2.795Zm-3.441-13.535h2.911c.185-.74.347-1.617.462-2.379h-4.181v-1.385H1316.7v1.385h-4.5c-.139.693-.324,1.594-.532,2.379h4.2v12.218h-8.523Zm7.114,3.672v-2.448h-5.752v2.448Zm0,3.627V1179h-5.752v2.448Zm0,3.673v-2.495h-5.752v2.495Zm1.34,5.636a23.084,23.084,0,0,0-3.327-3.049l1.155-.739a24.633,24.633,0,0,1,3.372,2.957Z" transform="translate(-1294.947 -1169.209)" fill="#1a1311"/><path d="M1349.908,1180.188h9.793v1.177h-20.9v-1.177h9.562v-1.5h-7.946V1177.6h7.946v-1.409h-7.23v-1.062h7.23v-1.5h-9.494v-1.178h9.494v-1.456h-6.976v-1.086h6.976v-1.686l2.009.139c-.022.162-.138.254-.462.3v1.247h6.675v2.541h3v1.178h-3v2.563h-6.675v1.409h8.13v1.086h-8.13Zm-8.061,9.608v-7.253h14.967v7.207h-1.548v-.763h-11.919v.808Zm13.419-6.121h-11.919v1.524h11.919Zm-11.919,4.181h11.919v-1.594h-11.919Zm6.56-16.861v1.456h5.127v-1.456Zm0,2.634v1.5h5.127v-1.5Z" transform="translate(-1315.148 -1168.223)" fill="#1a1311"/><path d="M1401.282,1186.148a2.379,2.379,0,1,1-2.379-2.379A2.376,2.376,0,0,1,1401.282,1186.148Z" transform="translate(-1341.741 -1175.385)" fill="#1a1311"/><path d="M1424.144,1175.033c1.686-.438,4.134-1.155,6.582-1.848l.185,1.248c-2.125.693-4.342,1.409-5.751,1.825a.471.471,0,0,1-.277.37Zm8.754,12.149a.511.511,0,0,1-.508.139,38.338,38.338,0,0,1-6.952,2.471c-.277-.3-.763-.854-1.063-1.131a28.505,28.505,0,0,0,6.86-2.31Zm-6.86-18.339a27.9,27.9,0,0,1,4.92,1.825l-.692,1.224a29.782,29.782,0,0,0-4.92-1.986Zm1.247,17.185v-9.47h15.175v9.47Zm1.5-8.362v1.686h12.126v-1.686Zm0,2.749v1.709h12.126v-1.709Zm0,2.772v1.756h12.126v-1.756Zm9.863-11.941c.553,1.894,1.894,3.649,6.721,4.389a4.633,4.633,0,0,0-.832,1.27c-4.065-.716-5.775-2.309-6.629-4.065-.832,1.755-2.495,2.933-6.075,3.649a3.816,3.816,0,0,0-.716-1.108c3.857-.693,5.312-1.917,5.867-4.135h-2.657a12.87,12.87,0,0,1-2.125,2.055,4.041,4.041,0,0,0-1.177-.785,10.387,10.387,0,0,0,3.579-4.25l1.733.254c-.024.162-.162.254-.439.277a9.6,9.6,0,0,1-.693,1.224h8.408l.277-.023.924.115a12.553,12.553,0,0,1-2.426,3.488l-1.247-.462a11.8,11.8,0,0,0,1.5-1.894Zm4.8,18.547a50.149,50.149,0,0,0-6.652-2.564l1.271-.808a70.489,70.489,0,0,1,7.092,2.541Z" transform="translate(-1354.465 -1168.243)" fill="#1a1311"/><path d="M1472.527,1177.894v1.132c.808.647,3.256,2.98,3.811,3.557l-.947,1.271a33.6,33.6,0,0,0-2.863-3.257v9.147h-1.5v-9.47a24.8,24.8,0,0,1-3.742,6.352,7.165,7.165,0,0,0-.831-1.478,22.72,22.72,0,0,0,4.249-7.252h-3.949v-1.478h4.273v-8.107l1.94.139c-.024.161-.139.254-.439.3v7.668h4.088v1.478Zm-4.343-7.969a20.1,20.1,0,0,1,1.64,4.966l-1.316.37a21.868,21.868,0,0,0-1.548-4.989Zm8.754.485a.484.484,0,0,1-.462.231,42.717,42.717,0,0,1-2.147,4.8c-.255-.092-.855-.369-1.085-.438a33.137,33.137,0,0,0,1.94-5.2Zm11.18,12.565-3.164.554v6.237h-1.525v-5.959l-6.721,1.2-.278-1.455,7-1.224v-13.974l1.986.139c-.023.161-.138.277-.461.323v13.235l2.91-.508Zm-9.7-6.907a19.113,19.113,0,0,1,3.95,3.4,10.164,10.164,0,0,0-1.131.97,19.743,19.743,0,0,0-3.9-3.488Zm.6-6.143a17.329,17.329,0,0,1,3.557,3.372l-1.155.923a16.662,16.662,0,0,0-3.511-3.464Z" transform="translate(-1373.956 -1168.263)" fill="#1a1311"/><path d="M1518.108,1172.193v1.293h-8.662v-1.293Zm-.74,9.424v6.791h-5.5v1.086h-1.364v-7.876Zm-.046-6.283v1.271h-6.791v-1.271Zm-6.791,4.412v-1.271h6.791v1.271Zm6.721-10.625v1.27h-6.629v-1.27Zm-1.269,13.812h-4.111v4.158h4.111Zm9.261-6.791h5.705v1.293h-13.119v-1.293h5.867v-1.8h-4.388v-1.224h4.388v-1.663h-4.921v-1.247h4.921v-1.94l2.009.115c-.023.162-.161.277-.462.323v1.5h5.174v1.247h-5.174v1.663H1530v1.224h-4.758Zm4.135,2.679v9.354c0,1.64-.9,1.64-3.9,1.64a5.434,5.434,0,0,0-.462-1.293c.669.023,1.293.047,1.754.047.971,0,1.109-.023,1.109-.393v-2.194h-6.49v3.788h-1.478v-10.948Zm-1.5,1.27h-6.49v1.732h6.49Zm-6.49,4.689h6.49v-1.755h-6.49Z" transform="translate(-1393.762 -1168.243)" fill="#1a1311"/><path d="M1552.226,1186.111c1.987-.993,5.058-2.726,7.923-4.366l.485,1.386c-2.541,1.547-5.29,3.164-7.068,4.157a.552.552,0,0,1-.208.462Zm11.549-11.965a26.094,26.094,0,0,0,2.587,5.567,37.514,37.514,0,0,0,4.481-4.782l1.571,1.178a.5.5,0,0,1-.508.116,41.585,41.585,0,0,1-4.781,4.642,16.641,16.641,0,0,0,6.814,5.844,5.824,5.824,0,0,0-1.132,1.34c-3.949-1.917-7-5.728-9.031-10.3v9.863c0,2.125-1.016,2.24-5.265,2.24a6.675,6.675,0,0,0-.578-1.64c.693.023,1.363.023,1.963.023,2.287,0,2.287,0,2.287-.623v-13.743h-9.331v-1.524h9.331V1168.4l2.032.139c-.022.161-.138.277-.438.323v3.488h9.493v1.524h-9.493Zm-8.407,1.224a21.028,21.028,0,0,1,3.88,4.3l-1.247.9a21.414,21.414,0,0,0-3.811-4.412Zm11.687-6.906a33.019,33.019,0,0,1,4.343,2.656l-.993,1.132a27.725,27.725,0,0,0-4.3-2.818Z" transform="translate(-1413.469 -1168.302)" fill="#1a1311"/></g><path d="M1013.391,1139.64v49.707h50.157V1139.64Zm13.912,4.847,2.333,5.632-2.621,1.066-2.333-5.632Zm-5.913.44,2.333,5.632-2.621,1.066-2.333-5.632Zm12.824,40.028-2.774-.566,2.263-10.892h-7.126l-4.969,11.014-2.586-1.146,4.452-9.868h-4.208v-2.807h5.475l1.689-3.743,2.586,1.146-1.171,2.6h3.375l-1.343-2.159,2.144-1.31,2.158,3.469h3Zm1.635-14.936-2.215-3.559,2.143-1.31,2.215,3.56Zm-5.3-6.881-2.583-1.151,7.694-16.97,2.583,1.151Zm19.567,22.108-2.584-1.149,6.7-14.809h-9.051l-1.769,3.9-2.584-1.15,2.519-5.558h15.26Zm0-22.109-2.584-1.149,6.7-14.808h-9.051l-1.769,3.9-2.584-1.15,2.519-5.559h15.26Z" transform="translate(-1004.153 -1130.653)" fill="#002d7f"/></svg>