<svg xmlns="http://www.w3.org/2000/svg" width="93.51" height="27.317" viewBox="0 0 93.51 27.317"><g transform="translate(0.5 0.5)"><path d="M-21.57-11.565a.579.579,0,0,0,.09-.3.742.742,0,0,0-.765-.63.566.566,0,0,0-.525.315A6.741,6.741,0,0,1-24.51-9.9a.642.642,0,0,0-.255.48.643.643,0,0,0,.69.585c.285,0,.69-.15,1.62-1.395.6-.015,1.4-.015,2.13-.015.75,0,1.425,0,1.755.015.195,0,.27.075.27.165,0,.105-.12.5-.885,1.08a.437.437,0,0,0-.18.33c0,.3.39.6.8.6.63,0,1.875-1.59,1.875-2.325,0-.555-.45-1.005-1.23-1.02-.285-.015-.63-.015-1.02-.015-.855,0-1.86.015-2.73.03ZM-25.695-9.6a.754.754,0,0,0,.7-.75.745.745,0,0,0-.42-.66,7.332,7.332,0,0,0-2.265-.765.726.726,0,0,0-.72.705.489.489,0,0,0,.405.495,7.371,7.371,0,0,1,1.875.84A.811.811,0,0,0-25.695-9.6ZM-19.905-1c.945-.015,1.545-.525,1.575-1.14.03-.585.045-1.14.045-1.7s-.015-1.11-.045-1.68c-.03-.525-.63-.96-1.5-.975-.825-.015-1.605-.03-2.37-.03-.54,0-1.065.015-1.59.015a4.463,4.463,0,0,0,2.535-1.575c1.32,1.92,4.335,2.25,4.56,2.25a.7.7,0,0,0,.765-.675.644.644,0,0,0-.585-.645c-2.805-.39-3.93-1.155-4.14-2.265l.015-.045v-.06c0-.285-.375-.465-.735-.465-.3,0-.585.135-.6.45-.045,1.32-1.2,2.025-3.285,2.235a.524.524,0,0,0-.48.54.487.487,0,0,0,.12.345,1.128,1.128,0,0,0-.93.99c-.03.54-.045,1.14-.045,1.755,0,.54.015,1.08.045,1.605.03.6.585,1.05,1.6,1.065h.15A8.23,8.23,0,0,1-28-.21a.7.7,0,0,0-.735.675.711.711,0,0,0,.78.675A10.882,10.882,0,0,0-23.925.03a.6.6,0,0,0,.36-.555.747.747,0,0,0-.18-.465H-21.3a.707.707,0,0,0-.18.45A.618.618,0,0,0-21.1.015a12.063,12.063,0,0,0,3.99,1.065.719.719,0,0,0,.765-.7.689.689,0,0,0-.705-.69A9.8,9.8,0,0,1-20.19-1Zm-5.085-6.84a.644.644,0,0,0,.33-.555.642.642,0,0,0-.6-.645.622.622,0,0,0-.3.09,11.262,11.262,0,0,1-2.91,1.17.648.648,0,0,0-.51.645.694.694,0,0,0,.7.705A10.506,10.506,0,0,0-24.99-7.845Zm5.325,2.895H-25.26v-.18c.015-.225.24-.435.675-.45.69-.015,1.41-.03,2.13-.03,2.61,0,2.76,0,2.79.48Zm.03,1.485h-5.64V-4.14h5.64Zm-.03.99c-.015.345-.24.51-.66.525-.7.015-1.425.015-2.145.015s-1.425,0-2.1-.015c-.405-.015-.675-.135-.69-.465v-.24h5.595ZM-5.46-8.19a.73.73,0,0,0,.675-.75.815.815,0,0,0-.225-.57,4.477,4.477,0,0,0-1.86-1.1.724.724,0,0,0-.735.645.457.457,0,0,0,.27.42,6.014,6.014,0,0,1,1.38,1.095A.669.669,0,0,0-5.46-8.19ZM-4.125.42c0,.39.36.585.72.585s.72-.195.72-.585l-.03-3.87,1.77-.5a.611.611,0,0,0,.48-.6A.665.665,0,0,0-1.11-5.22a1.177,1.177,0,0,0-.21.03l-1.4.39.03-6.705a.68.68,0,0,0-.735-.645.645.645,0,0,0-.7.645l.03,7.1-4.17,1.155a.671.671,0,0,0-.51.645.627.627,0,0,0,.63.645A.7.7,0,0,0-7.905-2L-4.1-3.06ZM-5.6-5.2a.714.714,0,0,0,.66-.735.807.807,0,0,0-.3-.615,4.347,4.347,0,0,0-1.89-.885.707.707,0,0,0-.75.615.544.544,0,0,0,.345.48A8.134,8.134,0,0,1-6.06-5.4.7.7,0,0,0-5.6-5.2Zm-6.9-2.865a.7.7,0,0,0,.69-.7c0-.345-.75-1.845-1.425-1.845-.345,0-.7.24-.7.555a.518.518,0,0,0,.135.315,6.4,6.4,0,0,1,.81,1.335A.533.533,0,0,0-12.495-8.07Zm2.22,8.5s-.06-2.715-.075-4.905a6.106,6.106,0,0,1,.87.96A.6.6,0,0,0-9-3.255a.736.736,0,0,0,.69-.72c0-.57-1.38-1.53-1.74-1.53a.683.683,0,0,0-.3.075v-.765l1.605.03h.015a.611.611,0,0,0,.6-.645.6.6,0,0,0-.615-.63h-1.59l.015-.96a.6.6,0,0,0,.555.345A.627.627,0,0,0-9.3-8.28a5.178,5.178,0,0,0,1.1-1.755.715.715,0,0,0-.7-.645.506.506,0,0,0-.48.315,10.954,10.954,0,0,1-.855,1.455.608.608,0,0,0-.075.135c.015-1.455.045-2.7.045-2.7v-.015a.669.669,0,0,0-.72-.66.669.669,0,0,0-.72.66v.015l.045,4.035h-1.68a.649.649,0,0,0-.66.675.587.587,0,0,0,.645.6h.015l1.7-.03v.045a12.886,12.886,0,0,1-2.58,3.24.619.619,0,0,0-.255.48.726.726,0,0,0,.735.675c.24,0,.735-.105,2.1-2.325l-.06,4.515V.45a.653.653,0,0,0,.72.615.653.653,0,0,0,.72-.615ZM13.89-6.555a.519.519,0,0,0,.54-.54.519.519,0,0,0-.54-.54l-3.03.015V-8.3L12.7-8.28a.5.5,0,0,0,.54-.51.5.5,0,0,0-.54-.495L10.86-9.27v-.645L13.4-9.9a.531.531,0,0,0,.57-.555.527.527,0,0,0-.57-.54l-2.535.015v-.735a.665.665,0,0,0-.7-.66.644.644,0,0,0-.69.66v.735l-2.31-.015a.543.543,0,0,0-.585.555.54.54,0,0,0,.585.54l2.31-.015.015.645L7.59-9.285a.5.5,0,0,0-.54.495.5.5,0,0,0,.54.51L9.48-8.3v.675L6.69-7.635a.536.536,0,0,0-.57.54.536.536,0,0,0,.57.54Zm-8.7-4.02a.586.586,0,0,0,.615-.6.586.586,0,0,0-.615-.6H2.055a.574.574,0,0,0-.6.6.574.574,0,0,0,.6.6ZM5.8-8.52a.606.606,0,0,0,.645-.615A.6.6,0,0,0,5.8-9.75H1.44A.606.606,0,0,0,.8-9.135a.6.6,0,0,0,.645.615Zm6.06,7.545c-.015.555-.3.69-.645.69a3.133,3.133,0,0,1-.63-.075.415.415,0,0,0-.135-.015.6.6,0,0,0-.585.63c0,.465.285.75,1.41.75A1.678,1.678,0,0,0,13.2-.66V-.69s-.06-3.54-.06-4.02c-.015-.78-.465-1.245-1.44-1.275-.525-.015-1.05-.03-1.56-.03S9.12-6,8.6-5.985c-1.065.03-1.41.525-1.425,1.35,0,.795-.015,1.665-.015,2.55S7.17-.315,7.17.51a.654.654,0,0,0,.675.645A.609.609,0,0,0,8.49.525V.51c-.015-.615-.03-1.32-.03-2.025h3.4ZM5.22-6.57a.586.586,0,0,0,.615-.6.586.586,0,0,0-.615-.6H2.085a.574.574,0,0,0-.6.6.574.574,0,0,0,.6.6Zm0,1.935a.586.586,0,0,0,.615-.6.586.586,0,0,0-.615-.6H2.085a.574.574,0,0,0-.6.6.574.574,0,0,0,.6.6Zm.615,4.08c.015-.33.015-.72.015-1.11s0-.8-.015-1.14a1.191,1.191,0,0,0-1.2-1.065c-.345-.015-.78-.03-1.215-.03-.36,0-.705.015-.99.03a1.117,1.117,0,0,0-1.1,1.14c0,.33-.015.69-.015,1.05s.015.75.015,1.14A1.143,1.143,0,0,0,2.445.645c.3.015.675.03,1.05.03.39,0,.78-.015,1.1-.03A1.214,1.214,0,0,0,5.835-.555Zm6-3.645H8.49v-.3c.03-.45.3-.465,1.6-.465,1.575,0,1.7.03,1.725.465Zm.03,1.71H8.46v-.735h3.4ZM4.59-.87C4.575-.63,4.455-.5,3.525-.5c-.675,0-.96-.045-.975-.36,0-.225-.015-.51-.015-.78,0-.855,0-1.11.42-1.14.165-.015.39-.015.615-.015.66,0,.99.015,1.02.4.015.21.015.5.015.765S4.605-1.08,4.59-.87ZM26.16-9.645a.727.727,0,0,0,.7-.72.781.781,0,0,0-.27-.555,5.18,5.18,0,0,0-2.025-.975.67.67,0,0,0-.69.645.606.606,0,0,0,.42.555,4.643,4.643,0,0,1,1.35.825A.709.709,0,0,0,26.16-9.645ZM21.81-1.53v.03c0,.765-.405.99-.96.99a4.85,4.85,0,0,1-1.08-.165.73.73,0,0,0-.18-.015.655.655,0,0,0-.645.7c0,.57.45.915,1.935.915C22.845.93,23.3-.3,23.3-1.215V-1.29l-.06-1.785-.075-2.19c1.8,3.87,4.485,4.86,4.92,4.86a.891.891,0,0,0,.885-.855.6.6,0,0,0-.435-.585A8.252,8.252,0,0,1,25.05-4.53c2.235-1.26,2.76-1.7,2.76-2.145a.816.816,0,0,0-.78-.78.654.654,0,0,0-.435.18,13.819,13.819,0,0,1-2.25,1.7,10.079,10.079,0,0,1-1.08-2.535l4.8.03a.642.642,0,0,0,.69-.645.669.669,0,0,0-.69-.69l-4.89.03-.03-2.07a.692.692,0,0,0-.72-.72.688.688,0,0,0-.72.7v.015l.03,2.07L16.98-9.42a.645.645,0,0,0-.69.66.649.649,0,0,0,.69.675l4.77-.03ZM19.9-4.695a.777.777,0,0,0,.705-.8.835.835,0,0,0-.285-.6,5.936,5.936,0,0,0-2.52-1.1.765.765,0,0,0-.8.675c0,.21.135.42.465.54A6.04,6.04,0,0,1,19.425-4.9.662.662,0,0,0,19.9-4.695Zm1.14,1.6a.655.655,0,0,0,.3-.54.666.666,0,0,0-.615-.69.571.571,0,0,0-.33.105A23.027,23.027,0,0,1,16.59-2.22a.683.683,0,0,0-.465.645.778.778,0,0,0,.75.78A18.954,18.954,0,0,0,21.045-3.09Z" transform="translate(64.045 17.938)" fill="#fff"/><g transform="translate(0)"><path d="M537.681,289.495V270.434a3.629,3.629,0,0,0-3.629-3.628H519.371a3.628,3.628,0,0,0-3.628,3.628v19.061a3.628,3.628,0,0,0,3.628,3.628h14.681Z" transform="translate(-515.743 -266.806)" fill="none" stroke="#fff" stroke-miterlimit="10" stroke-width="1"/><line x2="10.411" transform="translate(6.06 5.389)" fill="none" stroke="#fff" stroke-miterlimit="10" stroke-width="1"/><line x2="10.411" transform="translate(6.06 9.24)" fill="none" stroke="#fff" stroke-miterlimit="10" stroke-width="1"/><line x2="10.411" transform="translate(6.06 13.233)" fill="none" stroke="#fff" stroke-miterlimit="10" stroke-width="1"/><line x2="10.411" transform="translate(6.06 16.941)" fill="none" stroke="#fff" stroke-miterlimit="10" stroke-width="1"/><line x2="10.411" transform="translate(6.06 20.507)" fill="none" stroke="#fff" stroke-miterlimit="10" stroke-width="1"/><path d="M539.037,299.9v-3.993h3.993Z" transform="translate(-521.139 -273.548)" fill="#fff"/></g></g></svg>