<svg xmlns="http://www.w3.org/2000/svg" width="146.582" height="27.903" viewBox="0 0 146.582 27.903"><g transform="translate(0 -0.73)"><path d="M-43.25-4.62c.55,0,1.1.02,1.62.04a.483.483,0,1,0,.03-.95c-.53-.01-1.09,0-1.66,0-.01-.57-.02-1.06-.02-1.34a.486.486,0,1,0-.97.04c.01.26.03.74.05,1.31-1.08.01-2.17.03-3.17.07a.465.465,0,1,0,.03.92c.84-.03,1.73-.06,2.62-.08A9.047,9.047,0,0,1-48.08-1.5c-.63.33-.14,1.28.69.75A11.575,11.575,0,0,0-44.14-3.8c.03,1.05.06,2.09.07,2.68.01.53-.52.47-.93.34-.63-.2-1,.83-.09.99,1.57.27,2-.36,1.98-1.13-.01-.27-.01-.44-.03-.75C-43.19-2.42-43.23-3.57-43.25-4.62ZM-31.33-3.3a.483.483,0,0,0,.51-.49.485.485,0,0,0-.51-.5h-6.28a.51.51,0,0,0-.53.51.482.482,0,0,0,.53.48Zm11.15-3.82a1.067,1.067,0,0,0-1.06-1.06,1.058,1.058,0,0,0-1.05,1.06,1.05,1.05,0,0,0,1.05,1.05A1.058,1.058,0,0,0-20.18-7.12ZM-26.72.15A7.652,7.652,0,0,0-22-4.86,1.052,1.052,0,0,0-23.09-6.3c-1.27-.02-3.14-.01-4.46.05a.5.5,0,1,0,.02.99c1.44-.05,3.02-.11,4-.08.37.01.4.26.32.53A6.188,6.188,0,0,1-27.18-.82C-27.94-.58-27.57.47-26.72.15Zm5.99-7.27a.5.5,0,0,1-.51.5.5.5,0,0,1-.51-.5.521.521,0,0,1,.51-.52A.521.521,0,0,1-20.73-7.12Zm9.49,1.99a.545.545,0,1,0-.91-.59c-1.01,1.96-3.03,4.03-5.04,4.54A.572.572,0,1,0-16.85-.1,10.629,10.629,0,0,0-11.24-5.13Zm-4.17.81a.591.591,0,0,0-.13-.83,6.342,6.342,0,0,0-1.76-.76c-.76-.21-1.01.8-.41.94a3.691,3.691,0,0,1,1.48.74A.53.53,0,0,0-15.41-4.32ZM-4.6-4.58c.57-.16,1.11-.33,1.56-.47a.463.463,0,1,0-.25-.89c-.47.15-1.01.33-1.58.49-.2-.66-.38-1.23-.48-1.59-.16-.55-1.18-.39-.95.29.12.37.31.92.51,1.56-.59.16-1.18.31-1.73.43-.66.15-.47,1.06.25.89.52-.12,1.13-.29,1.75-.46.1.33.21.68.32,1.03-.89.26-1.73.52-2.31.7-.75.23-.45,1.16.21.94.61-.21,1.48-.48,2.37-.75.32,1.04.6,2.02.76,2.64a.462.462,0,0,0,.63.36.562.562,0,0,0,.33-.73c-.19-.59-.48-1.53-.8-2.54.85-.25,1.67-.47,2.24-.6.62-.14.49-1.1-.29-.9-.61.16-1.42.39-2.23.62ZM6.59-3.53a2.63,2.63,0,0,1-.71.88c-.51.42.05,1.15.62.65A4.079,4.079,0,0,0,7.68-3.71c.21-.62-.41-.89-.91-.74-.67.21-1.36.44-2.02.66-.11-.39-.21-.72-.28-.95a.472.472,0,0,0-.55-.34.423.423,0,0,0-.29.6c.08.25.18.58.3.97-.43.15-.82.29-1.17.41a.429.429,0,1,0,.28.81c.32-.12.71-.27,1.13-.42.31,1.03.65,2.18.85,2.86.21.7,1.13.39.86-.34-.24-.66-.6-1.8-.9-2.81.62-.22,1.21-.42,1.62-.54Zm12.17-1.6a.545.545,0,1,0-.91-.59c-1.01,1.96-3.03,4.03-5.04,4.54A.572.572,0,1,0,13.15-.1,10.629,10.629,0,0,0,18.76-5.13Zm-4.17.81a.591.591,0,0,0-.13-.83,6.342,6.342,0,0,0-1.76-.76c-.76-.21-1.01.8-.41.94a3.691,3.691,0,0,1,1.48.74A.53.53,0,0,0,14.59-4.32ZM28.62-5.85a1.067,1.067,0,0,0-1.06-1.06,1.058,1.058,0,0,0-1.05,1.06A1.05,1.05,0,0,0,27.56-4.8,1.058,1.058,0,0,0,28.62-5.85Zm-.3,3.81a7.862,7.862,0,0,0-2.23-2.98c-.6-.53-1.27.19-.79.6a7.5,7.5,0,0,1,1.93,2.78C27.47-.86,28.52-1.27,28.32-2.04Zm-7.25.88a7.634,7.634,0,0,0,2.5-3.17.545.545,0,1,0-1.01-.4,5.61,5.61,0,0,1-2.12,2.67A.552.552,0,1,0,21.07-1.16Zm7.01-4.69a.521.521,0,0,1-.52.51.5.5,0,0,1-.5-.51.5.5,0,0,1,.5-.51A.521.521,0,0,1,28.08-5.85ZM34.7-2.49A10.4,10.4,0,0,1,37.04-.48c.47.59,1.22-.19.82-.75A10.4,10.4,0,0,0,35.3-3.21a16,16,0,0,0,1.11-1.7c.39-.68-.12-1.25-1.02-1.25-1.01,0-2.48.02-3.21.05a.485.485,0,0,0,0,.97c.88-.02,2.26-.07,2.89-.06.22,0,.26.16.17.33a8.13,8.13,0,0,1-4.19,3.72.516.516,0,1,0,.32.97A8.448,8.448,0,0,0,34.7-2.49ZM46.64-5.34a.459.459,0,0,0,.44-.45c0-.44-.72-.84-.91-.84a.387.387,0,0,0-.4.35.3.3,0,0,0,.14.25,1.5,1.5,0,0,1,.45.51A.312.312,0,0,0,46.64-5.34Zm1.52-1.35a.37.37,0,0,0,.39-.38.368.368,0,0,0-.39-.37H45.84a.585.585,0,0,0,.18-.38.476.476,0,0,0-.45-.45.327.327,0,0,0-.29.17,3.891,3.891,0,0,1-1.12,1.26.439.439,0,0,0,.07-.22.37.37,0,0,0-.39-.38H42.48c.02-.05.05-.09.07-.14a.406.406,0,0,0,.05-.21.492.492,0,0,0-.49-.46.358.358,0,0,0-.34.23A5.4,5.4,0,0,1,40.4-6.1a.448.448,0,0,0-.16.32.456.456,0,0,0,.47.43c.11,0,.47-.01,1.33-1.34h1.8a.5.5,0,0,0,.12-.02.379.379,0,0,0-.17.3.442.442,0,0,0,.45.41c.33,0,.93-.63.99-.69Zm-.08,3.64a.379.379,0,0,0,.42-.38.407.407,0,0,0-.42-.41h-3.1l.01-.64h2.2a.388.388,0,0,0,.43-.38.389.389,0,0,0-.43-.39h-2.2v-.2a.437.437,0,0,0-.46-.45.44.44,0,0,0-.47.45v.2H41.77a.4.4,0,0,0-.44.39.4.4,0,0,0,.44.38h2.29l.01.64H40.92a.4.4,0,0,0-.44.39.406.406,0,0,0,.44.4ZM42.89-5.33a.459.459,0,0,0,.44-.45c0-.44-.72-.84-.91-.84a.387.387,0,0,0-.4.35.3.3,0,0,0,.14.25,1.5,1.5,0,0,1,.45.51A.312.312,0,0,0,42.89-5.33Zm5.36,3.74A.4.4,0,0,0,48.66-2a.394.394,0,0,0-.42-.4l-1.8.01V-2.6a.426.426,0,0,0-.47-.41.407.407,0,0,0-.45.4v.22L40.78-2.4a.4.4,0,0,0-.41.41.391.391,0,0,0,.41.4l4.75-.03.01.88v.02c0,.39-.2.51-.49.51a2.485,2.485,0,0,1-.51-.07.277.277,0,0,0-.09-.01.42.42,0,0,0-.38.46c0,.49.49.52.95.52,1.1,0,1.44-.7,1.44-1.23v-.8l-.01-.28,1.79.03ZM43.57-.08a.521.521,0,0,0,.48-.51c0-.58-1.35-.9-1.49-.9a.47.47,0,0,0-.45.46.3.3,0,0,0,.2.29,2.582,2.582,0,0,1,.98.54A.413.413,0,0,0,43.57-.08Z" transform="translate(79.777 9)" fill="#fff"/><path d="M-53.775-6.96a.729.729,0,0,0-.015-1.065,4.6,4.6,0,0,0-3.12-.855.667.667,0,1,0,.075,1.32,2.8,2.8,0,0,1,1.98.615A.756.756,0,0,0-53.775-6.96ZM-60.96-3.945a7.623,7.623,0,0,1,1.575-.57,4.19,4.19,0,0,1,2.43.03A1.2,1.2,0,0,1-56.43-2.46c-.72.96-1.68.945-2.85.375A.715.715,0,1,0-59.925-.81a3.663,3.663,0,0,0,4.815-.9c.765-1.11,1.17-3.135-1.305-3.99a5.756,5.756,0,0,0-3.33-.015,9.234,9.234,0,0,0-1.26.465c-.015-.57-.015-1.125,0-1.59a8.671,8.671,0,0,0,1.41-.675c1.05-.63.135-1.815-.675-1.275a4.508,4.508,0,0,1-.6.345c.03-.45.045-.93.075-1.26a.76.76,0,1,0-1.515.015c.03.57.06,1.05.06,1.755a3.745,3.745,0,0,1-1.515.135c-1.245-.255-1.425,1.245-.315,1.38a5.624,5.624,0,0,0,1.8-.06c0,.6.015,1.245.03,1.875a9.661,9.661,0,0,0-2.115,1.59c-.8.87-1.29,1.935.495,2.805,1.23.6,3.15.63,3.03-1.515C-60.87-2.37-60.93-3.15-60.96-3.945Zm-1.275.75c.015.615.015,1.17,0,1.575-.015.585-.45.63-1.1.315-.345-.165-.345-.555-.03-.9A7.364,7.364,0,0,1-62.235-3.195ZM-45.75.42a.659.659,0,0,0,.735.615A.667.667,0,0,0-44.28.42V-2.925l2.6-.045a1.819,1.819,0,0,0,1.95-1.89c.015-.36.03-.81.03-1.29,0-.84-.03-1.755-.045-2.4a1.738,1.738,0,0,0-1.77-1.6c-.81-.015-1.77-.03-2.76-.03V-11.64a.687.687,0,0,0-.75-.66.669.669,0,0,0-.72.66v1.455c-.975,0-1.935.015-2.73.03a1.682,1.682,0,0,0-1.785,1.62c-.03.555-.045,1.26-.045,1.965s.015,1.41.045,1.995A1.655,1.655,0,0,0-48.48-2.97c.795.03,1.74.06,2.73.06Zm1.44-7.68V-8.94c.9,0,1.755.015,2.43.045.51.015.705.225.735.66.015.27.015.615.03.975Zm3.21,1.245c0,1.155-.075,1.77-.825,1.8s-1.56.06-2.385.06v-1.86ZM-45.72-7.26h-3.195c0-.96,0-1.605.765-1.635.675-.015,1.53-.03,2.43-.03Zm0,3.1c-.87-.015-1.68-.03-2.385-.06-.8-.03-.81-.51-.81-1.8h3.195ZM-25.29-1.38a.834.834,0,1,0-1.035-1.305c-2.61,2.055-5.28,2.205-5.37.015a41.6,41.6,0,0,1,.27-4.41c.075-1.005.18-2.43.21-3.375a.818.818,0,0,0-1.635.03c.03.93-.075,2.4-.12,3.375-.075,1.59-.24,2.865-.18,4.44C-33.015,1.44-28.215,1-25.29-1.38Zm11.1-8.88h.03c.18,0,.24.09.24.15a1.478,1.478,0,0,0,.03.255c-.195,2.6-1.14,5.325-3.375,6.8a.632.632,0,0,0-.315.525.816.816,0,0,0,.8.765.666.666,0,0,0,.42-.135,8.85,8.85,0,0,0,3.195-5c1.11,3.27,3.03,5.1,3.75,5.1a.882.882,0,0,0,.84-.855.675.675,0,0,0-.36-.585c-2.31-1.395-3.63-4.755-3.72-7.185-.03-.7-.66-1.08-1.395-1.08-.645,0-1.35.015-1.92.03a.637.637,0,0,0-.66.66.63.63,0,0,0,.645.645h.045Zm-4.245,1.68a.851.851,0,0,0,.8-.84c0-.87-2.01-2.01-2.4-2.01a.8.8,0,0,0-.795.72.531.531,0,0,0,.315.465,4.792,4.792,0,0,1,1.545,1.35A.673.673,0,0,0-18.435-8.58Zm-.09,7.68C-17.55.105-16.68.93-12.7.93-11.355.93-9.99.84-9.06.75A.76.76,0,0,0-8.3,0,.714.714,0,0,0-9.03-.72H-9.1c-1.17.09-2.745.255-4.215.255-2.1,0-3.555-.33-4.515-1.515,0-.96.03-1.995.03-2.865,0-.96-.45-1.38-1.425-1.41-.5-.015-.99-.015-1.53-.015a.679.679,0,0,0-.66.72c0,.615.54.63.855.63h.66c.54,0,.69.045.69.405V-3.9c0,.57-.015,1.155-.03,1.83a9.407,9.407,0,0,1-2.1,1.545.643.643,0,0,0-.375.57.9.9,0,0,0,.84.825C-20.475.87-19.695.3-18.525-.9ZM-.495-5.565c.54-1.125,1.14-2.34,1.77-3.39.675-1.1.075-1.98-1.29-1.71a19.792,19.792,0,0,1-2.16.375A.713.713,0,0,0-2.13-8.865a7.891,7.891,0,0,0,1.77-.36c.225-.06.18.06.09.27-.42.945-1.11,2.31-1.635,3.435a8.525,8.525,0,0,0-2.46.645C-6.09-4.11-6.645-2.55-5.88-1.59a2.1,2.1,0,0,0,2.865,0A7.144,7.144,0,0,0-1.1-4.335a9.368,9.368,0,0,1,3.5.75A6.41,6.41,0,0,1,.03-1.05C-.945-.45-.2.72.855.105A7.325,7.325,0,0,0,3.7-2.94,10.28,10.28,0,0,1,5.34-1.725c.855.78,1.875-.6.93-1.335A11.873,11.873,0,0,0,4.2-4.335a3.662,3.662,0,0,0-.15-2.49c-.495-.93-1.845-.36-1.425.345A2.425,2.425,0,0,1,2.835-4.9,11.217,11.217,0,0,0-.42-5.565ZM-2.55-4.215A5.221,5.221,0,0,1-3.8-2.61c-.27.21-.81.3-.99.045-.255-.375.45-1.005.84-1.2A4.767,4.767,0,0,1-2.55-4.215ZM18.885-1.2a6.909,6.909,0,0,1,.93.78c.75.8,1.815-.51.96-1.29a7.162,7.162,0,0,0-1.695-1.1c-.015-.48-.075-.975-.09-1.35-.03-.735-.075-1.905-.09-3.075.36-.075.72-.165,1.08-.255,1.29-.315.645-1.68-.33-1.38-.24.075-.51.135-.765.21,0-.735.015-1.365.045-1.785.06-.81-1.41-.945-1.44.03-.015.465,0,1.23.015,2.07A6.3,6.3,0,0,1,15.39-8.3a.734.734,0,1,0-.3,1.425,10.307,10.307,0,0,0,2.46-.105c.045,1.185.075,2.34.12,2.955.015.285.045.51.045.75a4.265,4.265,0,0,0-2.64.18A1.7,1.7,0,0,0,14.85.06,2.979,2.979,0,0,0,18.885-1.2ZM11.5.255c.375-.36.18-.78.3-1.2.06-.24.15-.57.27-.945a9.178,9.178,0,0,1,.465-1.185c.54-1.125-.6-1.635-.945-.915-.03.075-.135.345-.18.435-.15.3-.165.255-.195-.015A16.7,16.7,0,0,1,11.5-6.7c.2-1.275.45-2.58.555-3.255a.76.76,0,1,0-1.515-.03c-.075.975-.405,2.655-.6,4.47a13.569,13.569,0,0,0,.24,5.265C10.44.555,11.115.615,11.5.255Zm6.09-2.16a1.557,1.557,0,0,1-2.175.8A.5.5,0,0,1,15.51-2a2.707,2.707,0,0,1,2.07.09ZM32.145-7.68c1.215.255,1.545-1.29.285-1.56a15.925,15.925,0,0,0-4.785-.045c-1.335.195-1.14,1.785.045,1.56A11.4,11.4,0,0,1,32.145-7.68Zm1.47,7.305c1.215-.375.855-2-.39-1.65-2.265.645-4.695.75-5.97-.555a.791.791,0,0,0-1.245.975C27.045-.15,30.645.555,33.615-.375ZM44.085-7.74a17.3,17.3,0,0,0,1.695-.705c1.4-.645.45-2.145-.585-1.41a6.221,6.221,0,0,1-.795.48c.12-.555.225-1.05.33-1.395a.742.742,0,1,0-1.44-.36c-.1.465-.255,1.29-.405,2.25a3.767,3.767,0,0,1-1.425-.015c-1.2-.27-1.32,1.245-.21,1.425a5.616,5.616,0,0,0,1.41.045c-.225,1.47-.435,3-.555,3.855-.1.765.4,1.41,1.065,1.23.51-.135.585-.57.855-.855a4.492,4.492,0,0,1,2.64-1.38c2.04-.165,2.295,1.26,1.2,2.49a5.065,5.065,0,0,1-3.12,1.35C43.62-.6,43.695.9,45.135.7A6.612,6.612,0,0,0,49.17-1.26c1.89-2.25.465-5.025-2.685-4.605a6.737,6.737,0,0,0-2.97,1.29C43.62-5.1,43.845-6.42,44.085-7.74Zm16.29-1.125a.976.976,0,0,0,.945-1.05,1.6,1.6,0,0,0-.855-1.1c-.435-.285-.945-.51-1.215-.7-.75-.54-1.74.255-1.1.96a5.25,5.25,0,0,0,1.065.7c.1.075-.045.15-.12.195-.63.345-.09,1.305.63,1.125C59.97-8.79,60.18-8.835,60.375-8.865ZM62.355-.09c5.07-3.1,1.875-7.155-2.655-5.19-.705.3-1.41.69-1.71.855-.135.075-.21.075-.255-.045a3.939,3.939,0,0,1,.09-1.56c.12-.72.285-1.56.36-2.19.135-1.08-1.23-1.11-1.38-.15-.12.765-.315,1.92-.435,3.015a5.163,5.163,0,0,0,.12,2.55c.27.525.87.945,1.755.09A9.472,9.472,0,0,1,60.255-4c1.59-.72,2.685-.5,3,.1S63.12-2.265,61.47-1.3a7.035,7.035,0,0,1-2.01.645c-1.275.255-.885,1.74.33,1.5A8.121,8.121,0,0,0,62.355-.09Z" transform="translate(81.642 27.598)" fill="#fff"/><g transform="translate(0 2.19)"><rect width="3.936" height="26.354" transform="translate(0 0)" fill="#fff"/><path d="M204.614,277.973V265.138l11.808,6.823Z" transform="translate(-198.283 -264.796)" fill="#fff"/></g></g></svg>