<svg xmlns="http://www.w3.org/2000/svg" xmlns:xlink="http://www.w3.org/1999/xlink" width="482.15" height="66.965" viewBox="0 0 482.15 66.965"><defs><linearGradient id="a" y1="0.5" x2="1" y2="0.5" gradientUnits="objectBoundingBox"><stop offset="0.22" stop-color="#002d75"/><stop offset="0.818" stop-color="#14807b"/></linearGradient></defs><g transform="translate(0)"><g transform="translate(0 0)"><rect width="479.453" height="64.269" transform="translate(1.348 1.349)" fill="url(#a)"/><path d="M522.434,1194.619H40.284v-66.965h482.15Zm-479.456-2.679H519.74v-61.608H42.978Z" transform="translate(-40.284 -1127.654)" fill="#002c83"/></g><g transform="translate(154.832 25.405)"><path d="M344.676,1185.234c0,6.887-3.7,10.381-8.518,10.381-5.048,0-8.285-4.09-8.285-10.071,0-6.24,3.469-10.33,8.544-10.33C341.673,1175.214,344.676,1179.538,344.676,1185.234Zm-13.644.233c0,4.012,1.813,7.689,5.23,7.689,3.469,0,5.255-3.6,5.255-7.819,0-3.779-1.657-7.663-5.2-7.663C332.664,1177.673,331.032,1181.583,331.032,1185.467Z" transform="translate(-327.874 -1175.214)" fill="#fff"/><path d="M364.737,1175.891a27.805,27.805,0,0,1,4.816-.389c2.433,0,4.271.518,5.463,1.58a5.507,5.507,0,0,1,1.786,4.272c0,4.815-3.831,6.473-7.4,6.473a8.4,8.4,0,0,1-1.683-.13v7.767h-2.978Zm2.978,9.4a6.166,6.166,0,0,0,1.683.156c2.744,0,4.4-1.424,4.4-3.961,0-2.407-1.657-3.625-4.064-3.625a10.465,10.465,0,0,0-2.02.182Z" transform="translate(-344.856 -1175.347)" fill="#fff"/><path d="M403.614,1195.6h-10.8V1175.79h10.357v2.511h-7.353v5.722h6.938v2.485h-6.938v6.576h7.793Z" transform="translate(-357.792 -1175.479)" fill="#fff"/><path d="M432.685,1195.6h-3.029l-5.2-9.269a64.188,64.188,0,0,1-3.288-6.705l-.1.025c.155,2.512.207,5.075.207,8.544v7.4H418.5V1175.79h3.262l5.177,9.165a56.315,56.315,0,0,1,3.211,6.55l.077-.026c-.232-2.692-.311-5.23-.311-8.389v-7.3h2.77Z" transform="translate(-369.622 -1175.479)" fill="#fff"/><path d="M475.142,1194.809a11.376,11.376,0,0,1-4.66.828c-5.515,0-9.216-3.651-9.216-9.967,0-6.731,4.246-10.408,9.734-10.408a9.6,9.6,0,0,1,4.22.777l-.648,2.46a8.154,8.154,0,0,0-3.469-.725c-3.832,0-6.68,2.589-6.68,7.741,0,4.867,2.537,7.586,6.628,7.586a8.857,8.857,0,0,0,3.573-.7Z" transform="translate(-389.324 -1175.236)" fill="#fff"/><path d="M505.664,1195.6h-3.158l-1.787-5.825h-6.058l-1.709,5.825h-3.081l6.058-19.806h3.677Zm-5.437-8.13-1.553-5.178c-.362-1.294-.7-2.692-.984-3.909h-.052c-.285,1.217-.6,2.666-.932,3.883l-1.579,5.2Z" transform="translate(-402.503 -1175.479)" fill="#fff"/><path d="M542.749,1195.574h-2.9l-.44-8.337c-.13-2.693-.285-5.748-.259-8.207h-.078c-.6,2.33-1.372,4.867-2.2,7.378l-2.951,8.984h-2.253l-2.718-8.8c-.8-2.589-1.5-5.178-1.993-7.56h-.078c-.052,2.459-.207,5.592-.362,8.362l-.44,8.182h-2.8l1.347-19.832h3.728l2.8,8.725c.725,2.433,1.32,4.634,1.812,6.809h.078c.492-2.123,1.113-4.376,1.89-6.835l2.874-8.7h3.754Z" transform="translate(-417.893 -1175.457)" fill="#fff"/><path d="M566.048,1175.891a27.8,27.8,0,0,1,4.816-.389c2.433,0,4.271.518,5.462,1.58a5.505,5.505,0,0,1,1.786,4.272c0,4.815-3.832,6.473-7.4,6.473a8.4,8.4,0,0,1-1.683-.13v7.767h-2.977Zm2.977,9.4a6.171,6.171,0,0,0,1.683.156c2.744,0,4.4-1.424,4.4-3.961,0-2.407-1.657-3.625-4.065-3.625a10.468,10.468,0,0,0-2.02.182Z" transform="translate(-437.595 -1175.347)" fill="#fff"/><path d="M608.033,1187.518c0,5.877-2.926,8.362-7.146,8.362-4.064,0-6.809-2.382-6.809-8.285V1175.79h3v11.988c0,3.96,1.631,5.644,3.91,5.644,2.485,0,4.038-1.709,4.038-5.644V1175.79h3Z" transform="translate(-450.508 -1175.479)" fill="#fff"/><path d="M635.985,1178.606a7.315,7.315,0,0,0-3.521-.881c-2.356,0-3.34,1.373-3.34,2.641,0,1.683,1.113,2.511,3.625,3.6,3.184,1.4,4.712,3.133,4.712,5.851,0,3.314-2.459,5.8-6.912,5.8a9.634,9.634,0,0,1-4.79-1.191l.673-2.511a8.653,8.653,0,0,0,4.3,1.165c2.356,0,3.676-1.217,3.676-3,0-1.683-1.01-2.718-3.365-3.7-2.952-1.191-4.945-2.977-4.945-5.67,0-3.132,2.511-5.489,6.447-5.489a9.207,9.207,0,0,1,4.168.907Z" transform="translate(-465.103 -1175.214)" fill="#fff"/></g><g transform="translate(10.055 9.83)"><rect width="48.92" height="48.47" fill="#fff"/><g transform="translate(5.247 4.657)"><path d="M117.614,1172.983l-2.521-1.131,6.539-14.574H112.8l-1.725,3.84-2.52-1.132,2.457-5.471H125.9Z" transform="translate(-87.038 -1154.515)" fill="#002c83"/><path d="M117.614,1213.329l-2.521-1.131,6.539-14.574H112.8l-1.725,3.84-2.52-1.132,2.457-5.471H125.9Z" transform="translate(-87.038 -1173.552)" fill="#002c83"/><g transform="translate(0 0.113)"><rect width="2.763" height="5.992" transform="translate(0 1.482) rotate(-22.314)" fill="#002c83"/><rect width="2.763" height="5.992" transform="translate(5.767 1.049) rotate(-22.314)" fill="#002c83"/><rect width="18.31" height="2.763" transform="translate(8.97 17.223) rotate(-65.799)" fill="#002c83"/></g><g transform="translate(0.246 19.999)"><path d="M83.893,1199.395l-2.1-3.414L79.7,1197.27l1.31,2.125H77.715l1.143-2.556-2.522-1.128-1.647,3.683h-5.34v2.763h4.1l-4.342,9.712L71.633,1213l4.846-10.84h6.95l-2.207,10.719,2.706.557,2.891-14.039Z" transform="translate(-69.111 -1193.942)" fill="#002c83"/><rect width="2.456" height="4.116" transform="translate(14.252 1.289) rotate(-31.657)" fill="#002c83"/></g></g></g></g></svg>