<svg xmlns="http://www.w3.org/2000/svg" viewBox="0 0 200 50"><defs><style>.cls-1{fill:#fff;}.cls-2{fill:none;stroke:#fff;stroke-linecap:round;stroke-miterlimit:10;stroke-width:3px;}.cls-3{fill:#fb7417;}</style></defs><title>アセット 1</title><g id="レイヤー_2" data-name="レイヤー 2"><g id="レイヤー_1-2" data-name="レイヤー 1"><path class="cls-1" d="M53.8,17.17l-15.38-7c-.2-.11-.42.11-.42.43v14c0,.32.22.54.42.43L53.8,18A.56.56,0,0,0,53.8,17.17Z"/><line class="cls-2" x1="34" y1="10.22" x2="34" y2="40.56"/><rect class="cls-3" width="200" height="50"/><path class="cls-1" d="M51.58,18.14,38.09,12c-.18-.1-.37.09-.37.38V24.64c0,.28.19.48.37.38l13.49-6.13A.49.49,0,0,0,51.58,18.14Z"/><line class="cls-2" x1="34.21" y1="12.04" x2="34.21" y2="38.65"/><path class="cls-1" d="M60.66,14.59a8.77,8.77,0,0,1-1.48,1.62,11.36,11.36,0,0,1-2,1.47.42.42,0,0,1-.24.1.2.2,0,0,1-.18-.11,2.49,2.49,0,0,0-.86-.62,12.71,12.71,0,0,0,2.45-1.66,10.11,10.11,0,0,0,1.54-1.63H58.06c-.54,0-1.13,0-1.68.05-.1,0-.14-.06-.15-.18a9.84,9.84,0,0,1-.08-1c.63.05,1.25.06,1.88.06h2.5l0-.94a4.87,4.87,0,0,0-.17-1.24,9.79,9.79,0,0,1,1.33.11c.1,0,.14.07.14.13a.47.47,0,0,1,0,.16,3.11,3.11,0,0,0,0,1l0,.8h.92c.74,0,1.26,0,2-.06.11,0,.16.06.16.13,0,.29,0,.62,0,.91a.13.13,0,0,1-.15.15c-.77,0-1.37-.05-2-.05h-.85L62,17.7a1.11,1.11,0,0,1-.51,1.12,3.17,3.17,0,0,1-1.45.37c-.2,0-.27,0-.33-.18a2.08,2.08,0,0,0-.73-.94,7.89,7.89,0,0,0,1.48-.1c.24,0,.33-.16.31-.62Z"/><path class="cls-1" d="M68.74,15.59a8.06,8.06,0,0,0-1.55.13c-.13,0-.21-.07-.24-.22a9.68,9.68,0,0,1-.16-1.28,12.93,12.93,0,0,0,2.27.13h3.39l2.42,0c.16,0,.19,0,.19.14a8.17,8.17,0,0,1,0,1c0,.13,0,.17-.19.16l-2.35,0Z"/><path class="cls-1" d="M79.42,12.85c-.68,0-1.28,0-1.74.06-.13,0-.17-.07-.2-.21s-.07-.76-.09-1.07a16.31,16.31,0,0,0,2,.08h3.76a.92.92,0,0,0,.57-.11.38.38,0,0,1,.18-.06.24.24,0,0,1,.18.07,4.13,4.13,0,0,1,.72.73.37.37,0,0,1,.08.21.29.29,0,0,1-.1.2,1.21,1.21,0,0,0-.25.41,12.12,12.12,0,0,1-2,3.42,11.74,11.74,0,0,1-3,2.5.48.48,0,0,1-.29.1.35.35,0,0,1-.26-.12,3.18,3.18,0,0,0-1-.58,10.11,10.11,0,0,0,3.44-2.63,8.78,8.78,0,0,0,1.78-3Zm7.27-2a1.14,1.14,0,0,1-2.27,0,1.1,1.1,0,0,1,1.13-1.12A1.12,1.12,0,0,1,86.69,10.83Zm-1.76,0a.62.62,0,1,0,1.24,0,.62.62,0,1,0-1.24,0Z"/><path class="cls-1" d="M88.88,11.47a.2.2,0,0,1,.15-.09.3.3,0,0,1,.14,0,11.47,11.47,0,0,1,2,1.5c.06.06.09.1.09.15a.22.22,0,0,1-.06.13c-.16.21-.51.63-.65.79s-.09.09-.13.09-.08,0-.14-.09a11.24,11.24,0,0,0-2.14-1.71C88.38,12,88.68,11.68,88.88,11.47ZM89.8,17a15.15,15.15,0,0,0,3-2,15.61,15.61,0,0,0,2.88-2.86,4.7,4.7,0,0,0,.3,1.23.58.58,0,0,1,0,.2c0,.1,0,.18-.17.32a17.54,17.54,0,0,1-2.42,2.23,22.94,22.94,0,0,1-3.18,2.06,3.57,3.57,0,0,0-.7.48.27.27,0,0,1-.19.11.26.26,0,0,1-.18-.12,7.11,7.11,0,0,1-.84-1.16A6.69,6.69,0,0,0,89.8,17Z"/><path class="cls-1" d="M101.27,11.89a4.87,4.87,0,0,0-.42-1.32,10.45,10.45,0,0,1,1.37,0c.14,0,.21.05.21.16a2.41,2.41,0,0,0,0,.76l.16.88.86-.15c.6-.1,1.34-.23,1.88-.38.06,0,.1,0,.12.12a7.54,7.54,0,0,1,.21.9c0,.08-.05.11-.16.12l-1.75.29-.93.17.26,1.35,1.53-.26c.75-.13,1.26-.25,1.65-.35.14,0,.17,0,.18.11a6.34,6.34,0,0,1,.18.85.18.18,0,0,1-.16.18c-.32,0-1,.14-1.69.27l-1.46.25.25,1.17c.14.7.32,1.38.46,1.9,0,.06,0,.09-.14.12a7.41,7.41,0,0,1-1,.22c-.14,0-.2,0-.22-.13-.07-.39-.18-1.12-.33-1.8l-.27-1.24-1.43.26c-.71.12-1.3.25-1.7.35a.16.16,0,0,1-.24-.11c-.11-.31-.21-.71-.3-1,.64-.08,1.2-.16,2-.29l1.47-.24-.26-1.36-1,.16c-.58.1-1.28.24-1.57.32-.1,0-.15,0-.2-.11a9.37,9.37,0,0,1-.29-1.05c.57,0,1.15-.12,1.87-.23l1-.15Z"/><path class="cls-1" d="M111.35,15.66a10.83,10.83,0,0,0-1.16.41.49.49,0,0,1-.19.06q-.1,0-.18-.15a6.48,6.48,0,0,1-.37-.93,13.14,13.14,0,0,0,1.6-.34l.63-.17-.23-.89a4,4,0,0,0-.43-1.06c.43-.05,1-.11,1.23-.11s.24.06.22.21a1.66,1.66,0,0,0,.07.75l.19.79,2.29-.58a1,1,0,0,0,.52-.23.22.22,0,0,1,.13-.06.34.34,0,0,1,.18.09,6,6,0,0,1,.62.53.24.24,0,0,1,.08.16.31.31,0,0,1-.11.21.68.68,0,0,0-.17.22,12,12,0,0,1-1.19,2,.19.19,0,0,1-.16.09.34.34,0,0,1-.16-.05,2.59,2.59,0,0,0-.84-.32A7.38,7.38,0,0,0,115,14.66l-2,.54.48,1.91c.18.66.33,1.17.49,1.76a.21.21,0,0,1-.14.29,4.64,4.64,0,0,1-.69.21c-.14,0-.23,0-.27-.16-.12-.59-.27-1.17-.42-1.76L112,15.51Z"/><path class="cls-1" d="M120.46,11.47a.19.19,0,0,1,.15-.09.34.34,0,0,1,.14,0,11.47,11.47,0,0,1,2,1.5c.06.06.09.1.09.15a.22.22,0,0,1-.06.13c-.16.21-.51.63-.65.79s-.09.09-.13.09a.25.25,0,0,1-.14-.09,11.24,11.24,0,0,0-2.14-1.71C120,12,120.26,11.68,120.46,11.47Zm.92,5.54a15.44,15.44,0,0,0,3-2,15.61,15.61,0,0,0,2.88-2.86,4.33,4.33,0,0,0,.3,1.23.58.58,0,0,1,0,.2c0,.1,0,.18-.17.32a17.54,17.54,0,0,1-2.42,2.23,22.94,22.94,0,0,1-3.18,2.06,3.57,3.57,0,0,0-.7.48.29.29,0,0,1-.19.11.26.26,0,0,1-.18-.12,7.11,7.11,0,0,1-.84-1.16A6.89,6.89,0,0,0,121.38,17Z"/><path class="cls-1" d="M131.6,14a5.34,5.34,0,0,0,.47-1.55,9.19,9.19,0,0,1,1.31.53.18.18,0,0,1,.12.17.32.32,0,0,1-.1.21A2,2,0,0,0,133,14a11.68,11.68,0,0,1-2.25,3.54.43.43,0,0,1-.3.16.4.4,0,0,1-.24-.11,2.72,2.72,0,0,0-.92-.45A9.36,9.36,0,0,0,131.6,14Zm3.93-1.43a.29.29,0,0,1,.15-.06.22.22,0,0,1,.16.08,13.28,13.28,0,0,1,2.64,3.86.31.31,0,0,1,0,.15.21.21,0,0,1-.1.17,6.18,6.18,0,0,1-.88.56c-.13.06-.21,0-.25-.1a13.83,13.83,0,0,0-2.6-4.09Zm3.55-.71a1.14,1.14,0,0,1-2.27,0,1.1,1.1,0,0,1,1.13-1.13A1.13,1.13,0,0,1,139.08,11.88Zm-1.76,0a.62.62,0,1,0,1.24,0,.62.62,0,1,0-1.24,0Z"/><path class="cls-1" d="M145.9,11.53a1.48,1.48,0,0,0,.73-.1.17.17,0,0,1,.11,0,.28.28,0,0,1,.18.09,4,4,0,0,1,.69.73.34.34,0,0,1,0,.14.28.28,0,0,1-.14.21,2.29,2.29,0,0,0-.39.46,16.6,16.6,0,0,1-1.34,2,25.06,25.06,0,0,1,2.91,2.55.25.25,0,0,1,.09.14.27.27,0,0,1-.08.16,5.91,5.91,0,0,1-.7.72.22.22,0,0,1-.13.06s-.09,0-.15-.08A18.44,18.44,0,0,0,145,15.93a15.05,15.05,0,0,1-3.54,2.77.55.55,0,0,1-.24.09.22.22,0,0,1-.18-.1,2.88,2.88,0,0,0-.88-.68,12.79,12.79,0,0,0,3.7-2.68,12.9,12.9,0,0,0,2-2.64h-2.72c-.54,0-1.09,0-1.66.06-.08,0-.11-.06-.13-.18a5.4,5.4,0,0,1-.1-1.09c.57,0,1.1,0,1.78,0Z"/><path class="cls-1" d="M152.26,17.15c-1,0-1.31,0-1.38,0s-.11,0-.11-.12v-.69c0-.12,0-.13.11-.13s.4,0,1.38,0h4.33v-.71H152c-1,0-1.27,0-1.33,0s-.12,0-.12-.12v-.71c0-.11,0-.12.12-.12s.38,0,1.33,0h2.58v-.7h-1.42c-1,0-1.39,0-1.46,0s-.11,0-.11-.12v-.69c0-.11,0-.12.11-.12s.43,0,1.46,0h1.42a4,4,0,0,0-.06-.67c.31,0,.61,0,.85.06l-.07-.07a2.78,2.78,0,0,0-.58-.37c.11-.09.21-.2.3-.29h-.08c-.06,0-.33,0-1.12,0a5.32,5.32,0,0,1,.37.66c0,.09,0,.13-.11.15l-.74.13c-.15,0-.18,0-.21-.09a5,5,0,0,0-.34-.85h-.58a6.21,6.21,0,0,1-1,1.13c-.11.1-.17.15-.23.15s-.12-.06-.21-.21a2.54,2.54,0,0,0-.49-.53,4.82,4.82,0,0,0,1.4-1.72,1.88,1.88,0,0,0,.19-.51c.3,0,.67.09,1,.15.11,0,.15.07.15.13a.24.24,0,0,1-.1.17.55.55,0,0,0-.17.25.77.77,0,0,0-.07.16h1.06c.87,0,1.15,0,1.21,0s.13,0,.13.13v.69a3.7,3.7,0,0,0,.67-1.11,2,2,0,0,0,.17-.54c.33,0,.73.09,1,.14s.15.07.15.12a.21.21,0,0,1-.09.16,1.21,1.21,0,0,0-.16.25,1.07,1.07,0,0,0-.07.19h1.61c1,0,1.34,0,1.4,0s.12,0,.12.13v.63c0,.11,0,.12-.12.12s-.41,0-1.4,0H158a4,4,0,0,1,.39.67c.05.09,0,.13-.11.15l-.73.13c-.16,0-.18,0-.21-.09a3.88,3.88,0,0,0-.38-.86h-.67a4.89,4.89,0,0,1-.51.66,1.08,1.08,0,0,1-.14.15s.07,0,.07.08a.42.42,0,0,1,0,.16.93.93,0,0,0,0,.31h1.63c1,0,1.4,0,1.46,0s.1,0,.1.12v.69c0,.11,0,.12-.1.12s-.42,0-1.46,0h-1.63v.7h2.78c.95,0,1.28,0,1.34,0s.11,0,.11.12v.71c0,.11,0,.12-.11.12s-.39,0-1.34,0h-.72v.71h.43c1,0,1.33,0,1.39,0s.11,0,.11.13v.69c0,.11,0,.12-.11.12s-.4,0-1.39,0h-.43v.16c0,.36,0,.76,0,1.11a1,1,0,0,1-.35.92,2.44,2.44,0,0,1-1.41.26c-.32,0-.32,0-.4-.32a2.23,2.23,0,0,0-.35-.73,7.21,7.21,0,0,0,1,0c.3,0,.42-.11.42-.42v-1Zm.76.09c.06,0,.09-.06.13-.06s0,0,.09.05a6.8,6.8,0,0,1,1.18,1.21c.07.09.07.11,0,.19l-.69.45c-.14.1-.15.11-.21,0a7,7,0,0,0-1.13-1.29c-.09-.07-.08-.1.05-.18Z"/><path class="cls-1" d="M49.14,31.06c-.7.06-1.42.11-2.36.11-.24,0-.31-.08-.34-.29s-.09-.73-.15-1.22a8,8,0,0,0,1.09.07,17.93,17.93,0,0,0,1.79-.12c0-.46,0-1,0-1.6a4.8,4.8,0,0,0-.1-1.13,7.91,7.91,0,0,1,1.67.25c.17,0,.28.14.28.26a.45.45,0,0,1-.08.23,1.66,1.66,0,0,0-.2.55c0,.36,0,.71-.07,1.16a12.73,12.73,0,0,0,1.8-.52c.13,0,.23,0,.24.13A6.58,6.58,0,0,1,52.8,30c0,.14,0,.19-.18.23a15.06,15.06,0,0,1-2,.53c0,.68,0,1.36,0,2A8.75,8.75,0,0,1,54,32.06a2.77,2.77,0,0,1,3,2.8c0,1.8-1.15,2.85-3.05,2.85a5.57,5.57,0,0,1-1.15-.12.38.38,0,0,1-.31-.42A2.35,2.35,0,0,0,52.1,36a5.17,5.17,0,0,0,1.76.26,1.39,1.39,0,0,0,1.51-1.45,1.35,1.35,0,0,0-1.54-1.42,6.92,6.92,0,0,0-3.22,1c0,.59,0,1.06.06,1.68s.11,1.5.11,1.83,0,.4-.21.46a6.81,6.81,0,0,1-1,.17c-.15,0-.21-.1-.33-.28a8.5,8.5,0,0,0-2-1.8,2.77,2.77,0,0,0-.45.31.36.36,0,0,1-.24.1.39.39,0,0,1-.3-.23,14.16,14.16,0,0,1-.65-1.3,5.55,5.55,0,0,0,1.29-.49l2.29-1.31Zm-1.31,4.83c.4.21.87.45,1.32.63.12,0,.16,0,.14-.11,0-.37,0-1-.08-1.48C48.82,35.2,48.34,35.52,47.83,35.89Zm6.72-7.37c.09-.16.14-.2.23-.17a6.68,6.68,0,0,1,3,1.71c.06.06.09.1.09.14a.33.33,0,0,1-.06.14c-.18.28-.55.72-.76,1,0,.06-.24.07-.28,0a6.47,6.47,0,0,0-2.85-1.73A8,8,0,0,1,54.55,28.52Z"/><path class="cls-1" d="M64.86,27.82a10.08,10.08,0,0,0-.11-1.72c.53,0,1.06,0,1.54.1.13,0,.23.07.23.14a.78.78,0,0,1-.07.3,3.64,3.64,0,0,0-.1,1.15v.46h2.47c1.36,0,1.84,0,1.92,0s.16,0,.16.16,0,.6,0,2.16v2.05c0,2.61,0,3.1,0,3.19s0,.15-.16.15H69.56c-.14,0-.15,0-.15-.15V35.3H66.35v.91c0,1.67,0,2.53,0,2.6s0,.15-.14.15H65c-.12,0-.14,0-.14-.15s0-.93,0-2.58V35.3h-3v.53c0,.14,0,.16-.16.16H60.56c-.14,0-.15,0-.15-.16s0-.57,0-3.2V30.81c0-1.83,0-2.33,0-2.43s0-.16.15-.16.58,0,1.93,0h2.37Zm-3,3.28h3V29.53h-3Zm3,2.92V32.35h-3V34Zm1.49-4.49V31.1h3.06V29.53ZM69.41,34V32.35H66.35V34Z"/><path class="cls-1" d="M78.21,27c.24.06.33.13.33.27a1.29,1.29,0,0,1-.14.46,8.87,8.87,0,0,0-.19,1.72c-.14,2.16-.21,3.59-.21,5.43,0,1.42.16,1.74,1.29,1.74a7.41,7.41,0,0,0,4.91-2.58,5.08,5.08,0,0,0,.32,1.33.81.81,0,0,1,.12.34c0,.13-.06.24-.28.43A8,8,0,0,1,79,38.29c-1.79,0-2.63-.72-2.63-2.86,0-2.36.12-4.38.19-6.07a9.28,9.28,0,0,0-.14-2.57A15.14,15.14,0,0,1,78.21,27Z"/><path class="cls-1" d="M90.68,35.85A2.18,2.18,0,0,0,91.83,37a8,8,0,0,0,2.6.28,59.33,59.33,0,0,0,6-.31,2.66,2.66,0,0,0-.38,1.1c-.07.45-.07.45-.52.48-1.78.1-3.45.14-4.91.14a9.63,9.63,0,0,1-3.29-.41A2.74,2.74,0,0,1,90,37a18.06,18.06,0,0,1-1.45,1.24,1,1,0,0,0-.28.28c-.07.1-.13.14-.21.14s-.14-.07-.2-.19a12,12,0,0,1-.58-1.31,5.68,5.68,0,0,0,.83-.44,8.55,8.55,0,0,0,1.18-.9v-3.1h-.68c-.76,0-1,0-1,0s-.17,0-.17-.17V31.54c0-.14,0-.16.17-.16s.27,0,1,0h.89c.75,0,1,0,1.06,0s.15,0,.15.16,0,.47,0,1.33Zm-.87-6.29c-.1.07-.14.1-.18.1s-.07,0-.11-.1a10.52,10.52,0,0,0-1.73-2.19c-.11-.1-.08-.14.07-.24l.79-.52c.15-.1.18-.11.29,0a11,11,0,0,1,1.76,2.1c.08.12.08.15-.07.26Zm5-2.7c.65,0,1.1,0,1.28,0s.14.07.14.16a10.58,10.58,0,0,0,.17,2.06A8.87,8.87,0,0,0,100.32,35a5,5,0,0,0-.75,1.09c-.11.21-.17.31-.25.31A.6.6,0,0,1,99,36.2a10,10,0,0,1-3.41-5.34,9.9,9.9,0,0,1-3.2,5.23c-.16.12-.24.19-.31.19s-.14-.08-.3-.26a3.16,3.16,0,0,0-.87-.83,9,9,0,0,0,3.83-7H93.53c-.87,0-1.12,0-1.2,0s-.17,0-.17-.17V27c0-.14,0-.16.17-.16s.33,0,1.2,0Z"/><path class="cls-1" d="M110.59,30.82a3.83,3.83,0,0,0,0-.95,5.93,5.93,0,0,1,1.63.6.26.26,0,0,1,.1.38,2.43,2.43,0,0,0-.22.55c-.12.59-.26,1.2-.4,1.81a15,15,0,0,1,2.19,1.35c.14.08.13.15.09.29a11.38,11.38,0,0,1-.61,1.21c0,.07-.08.1-.12.1a.28.28,0,0,1-.17-.1,11.17,11.17,0,0,0-1.84-1.32,8.6,8.6,0,0,1-2.84,3.69c-.12.1-.19.16-.28.16a.42.42,0,0,1-.21-.1,2.94,2.94,0,0,0-1.22-.58,7.84,7.84,0,0,0,3.15-3.8,9.22,9.22,0,0,0-2.79-.86,9.76,9.76,0,0,1-1.71,2.81,2.29,2.29,0,0,1-1.79.77,1.7,1.7,0,0,1-1.68-1.92c0-1.74,1.8-3.11,4.15-3.11.46-1.16.81-2.14,1.16-3.32l-1.94.22a3.55,3.55,0,0,0-.63.15.71.71,0,0,1-.25.06.25.25,0,0,1-.23-.15,9.25,9.25,0,0,1-.4-1.53,5.66,5.66,0,0,0,1.23.08,16,16,0,0,0,2.18-.18,1.77,1.77,0,0,0,.69-.24.3.3,0,0,1,.18-.06.36.36,0,0,1,.2.06,4.78,4.78,0,0,1,1,.77.34.34,0,0,1,.13.24c0,.08-.06.15-.14.24a1.89,1.89,0,0,0-.38.73c-.37.95-.76,2.05-1.18,3.06a11.49,11.49,0,0,1,2.72.7A14.53,14.53,0,0,0,110.59,30.82Zm-7.42,3.92c0,.45.16.64.49.64a1.13,1.13,0,0,0,.82-.53,9.71,9.71,0,0,0,1-1.71C104.07,33.19,103.17,33.94,103.17,34.74Z"/><path class="cls-1" d="M118.94,27.41c.15.08.21.17.21.28a.8.8,0,0,1-.1.31,2.52,2.52,0,0,0-.25.77,27.51,27.51,0,0,0-.71,5.11c0,.56,0,1.21,0,1.8.28-.65.57-1.25.87-2a3.27,3.27,0,0,0,.49.88.34.34,0,0,1,.08.2.42.42,0,0,1-.08.22,8.61,8.61,0,0,0-.72,2.14,2.58,2.58,0,0,0,0,.74c0,.1,0,.14-.17.18a5.27,5.27,0,0,1-1,.24c-.16,0-.22,0-.29-.17a13.11,13.11,0,0,1-.6-4.28,29.93,29.93,0,0,1,.58-5.32,6.92,6.92,0,0,0,.09-1.66A11.1,11.1,0,0,1,118.94,27.41Zm4.83,3.75a28.05,28.05,0,0,1-2.9,0c-.18,0-.24,0-.25-.18a8.12,8.12,0,0,1-.1-1.28,20.14,20.14,0,0,0,3.2.05c0-.51,0-1,0-1.48a5.86,5.86,0,0,0-.18-1.37,8,8,0,0,1,1.7.26c.15,0,.25.11.25.24s0,.11-.09.24a2.09,2.09,0,0,0-.11.49c0,.48,0,.84,0,1.49.66-.06,1.39-.16,2-.25.17-.05.19,0,.22.16a5.39,5.39,0,0,1,.09,1c0,.13-.06.2-.16.21a15.63,15.63,0,0,1-2.16.3c0,1.57,0,2.55.1,3.76a9.26,9.26,0,0,1,2.33,1.35c.13.08.14.12.07.28a7.37,7.37,0,0,1-.65,1.08.14.14,0,0,1-.12.08.16.16,0,0,1-.13-.07,8.68,8.68,0,0,0-1.52-1.12c-.11,1.18-.91,1.83-2.57,1.83s-2.51-.76-2.51-2,1-2,2.46-2a5.91,5.91,0,0,1,1.12.11C123.79,33.29,123.78,32.27,123.77,31.16Zm-1.14,4.36c-.66,0-1,.24-1,.68s.3.7,1.13.7,1.15-.41,1.15-.91a2.72,2.72,0,0,0,0-.28A4,4,0,0,0,122.63,35.52Z"/><path class="cls-1" d="M133.15,33.56c.13.07.14.14.07.25a2.3,2.3,0,0,0-.36,1.07c0,.88.91,1.32,3.33,1.32a18,18,0,0,0,3.8-.41c.2,0,.27,0,.3.13a11.92,11.92,0,0,1,.22,1.37c0,.13-.07.19-.24.21a21,21,0,0,1-4.18.34c-3.15,0-4.76-1-4.76-2.84a3.72,3.72,0,0,1,.74-2C132.44,33.18,132.79,33.36,133.15,33.56Zm3.18-5.51c1,0,2.07-.07,3-.12.14,0,.2,0,.21.15a8.15,8.15,0,0,1,.07,1.2c0,.19-.07.28-.23.29A8.25,8.25,0,0,0,135.9,31a.54.54,0,0,1-.35.13.57.57,0,0,1-.29-.09,3.71,3.71,0,0,0-1-.45c.73-.47,1.34-.87,1.84-1.16a10.31,10.31,0,0,1-1.16,0,17.48,17.48,0,0,1-2.45-.24c-.13,0-.18-.08-.18-.25,0-.34,0-.75,0-1.25A18,18,0,0,0,136.33,28.05Z"/><path class="cls-1" d="M147.47,27.82a4.58,4.58,0,0,0,0-1.37,10,10,0,0,1,1.69.3c.18.05.28.14.28.25a.52.52,0,0,1-.1.23,1.38,1.38,0,0,0-.24.52c-.07.37-.13.66-.2,1.15a25.57,25.57,0,0,0,2.64-.52c.2-.06.27,0,.3.14a7,7,0,0,1,.1,1c0,.15,0,.19-.17.22-1.21.27-2,.42-3.15.58-.19,1.16-.39,2.1-.64,3.09A6,6,0,0,1,152,32a2.85,2.85,0,0,1,3.13,2.65,3.15,3.15,0,0,1-1.6,2.84,9.38,9.38,0,0,1-3.58,1.12,6.1,6.1,0,0,1-1,.1c-.14,0-.24-.07-.35-.34a2.71,2.71,0,0,0-.76-1,10.88,10.88,0,0,0,4-.78c1.08-.45,1.6-1.09,1.6-2,0-.73-.54-1.33-1.6-1.33A4.64,4.64,0,0,0,148.12,35l-.4.53c-.1.17-.14.23-.27.21a3.93,3.93,0,0,1-1-.3c-.22-.1-.31-.16-.31-.28a1.13,1.13,0,0,1,.06-.29q.1-.34.18-.66c.31-1.23.51-2.27.75-3.67-.76,0-1.65.12-2.36.12a.24.24,0,0,1-.27-.19c0-.17-.14-.76-.2-1.23,1.1,0,2,0,3.05-.12C147.37,28.62,147.43,28.15,147.47,27.82Z"/><path class="cls-1" d="M161.55,30c.15.07.22.16.22.27a.44.44,0,0,1-.07.21,2.64,2.64,0,0,0-.28.74,24.75,24.75,0,0,0-.34,2.56,6.83,6.83,0,0,1,4.69-2.22c2,0,3.27,1.19,3.27,3a3.43,3.43,0,0,1-2.12,3.14,12.21,12.21,0,0,1-3.59,1c-.31,0-.44,0-.56-.18a3.62,3.62,0,0,0-1-1.2,11.44,11.44,0,0,0,3.86-.78,2.3,2.3,0,0,0,1.66-2.12c0-.76-.48-1.45-1.68-1.45a6.26,6.26,0,0,0-4.05,2.13,4.28,4.28,0,0,0-.6.78c-.09.14-.14.14-.32.1-.33-.12-.66-.24-1-.38-.14-.06-.2-.09-.2-.28.09-1.63.27-3.29.44-4.54a8.26,8.26,0,0,0,.13-1.26A8.18,8.18,0,0,1,161.55,30Zm.35-3.55a.23.23,0,0,1,.26-.07A9.39,9.39,0,0,1,164.92,28c.07.06.09.1.09.15a.29.29,0,0,1-.07.17,8.2,8.2,0,0,1-.71,1c-.06.07-.11.11-.16.11s-.09,0-.16-.1a11.47,11.47,0,0,0-2.84-1.83A7.44,7.44,0,0,1,161.9,26.44Z"/></g></g></svg>