<svg xmlns="http://www.w3.org/2000/svg" viewBox="0 0 200 50"><defs><style>.cls-1{fill:#17bb88;}.cls-2,.cls-3{fill:none;stroke:#fff;stroke-miterlimit:10;}.cls-3{stroke-linecap:round;}.cls-4{fill:#fff;}</style></defs><title>アセット 2</title><g id="レイヤー_2" data-name="レイヤー 2"><g id="レイヤー_1-2" data-name="レイヤー 1"><rect class="cls-1" width="200" height="50"/><path class="cls-2" d="M71,36.84H56.56a1.74,1.74,0,0,1-1.74-1.73V14.89a1.74,1.74,0,0,1,1.74-1.73H72.11a2.24,2.24,0,0,1,2,1.73V33.66Z"/><line class="cls-3" x1="59.21" y1="17.54" x2="69.74" y2="17.54"/><line class="cls-3" x1="59.21" y1="21.05" x2="69.74" y2="21.05"/><line class="cls-3" x1="59.21" y1="24.56" x2="69.74" y2="24.56"/><line class="cls-3" x1="59.21" y1="28.07" x2="69.74" y2="28.07"/><line class="cls-3" x1="59.21" y1="31.58" x2="69.74" y2="31.58"/><polygon class="cls-4" points="71.11 33.83 72.92 33.83 71.11 35.63 71.11 33.83"/><path class="cls-4" d="M71.71,34.33l-.1.1v-.1h.1m2.41-1H70.61v3.51l3.51-3.51Z"/><path class="cls-4" d="M95.72,28.4a11.17,11.17,0,0,0,3.83.94,4.24,4.24,0,0,0-.68.87c-.14.21-.2.27-.33.27a1.91,1.91,0,0,1-.33,0,10.84,10.84,0,0,1-3.84-1.38c-.12-.08-.12-.14.07-.21l1.07-.5H90.79a13,13,0,0,1,1.2.52c.14,0,.19.11.19.19s-.08.14-.21.17a2.53,2.53,0,0,0-.57.25,11,11,0,0,1-3.21,1l-.28,0c-.17,0-.21-.05-.35-.29a3.08,3.08,0,0,0-.63-.81,12.17,12.17,0,0,0,3.16-.69,3.36,3.36,0,0,0,.63-.35c-1.16,0-1.61,0-1.7,0s-.15,0-.15-.16,0-.48,0-1.38v-2.4c0-.91,0-1.29,0-1.39s0-.16.15-.16.56,0,1.84,0a.86.86,0,0,1-.12-.22,2.71,2.71,0,0,0-.5-.65c2-.35,3.16-.95,3.64-2.24H92.7a5.78,5.78,0,0,1-.9.88c-.17.13-.25.2-.32.2s-.17-.1-.32-.28a2.21,2.21,0,0,0-.62-.47,6.19,6.19,0,0,0,1.84-2,3.06,3.06,0,0,0,.27-.63c.43.07.78.14,1.1.22s.24.08.24.15,0,.13-.12.2a.74.74,0,0,0-.28.38l-.16.27h4.16a.7.7,0,0,0,.35-.06.39.39,0,0,1,.2-.06c.09,0,.18.05.52.29s.46.37.46.49a.2.2,0,0,1-.11.18.68.68,0,0,0-.26.25c-.24.39-.45.68-.69,1s-.22.28-.33.28a.93.93,0,0,1-.38-.13,4,4,0,0,0-.79-.28,6.31,6.31,0,0,0,.8-.92H95.29c.61,1.62,2.55,2.2,4.43,2.37a2.78,2.78,0,0,0-.39.91c-.13.44-.14.44-.56.35a8.57,8.57,0,0,1-1.11-.28c0,.18,0,.58,0,1.28v2.4c0,.9,0,1.29,0,1.38s0,.16-.16.16-.57,0-1.88,0Zm-5-7.2c.1.46.1.46-.29.67a18.88,18.88,0,0,1-2.2.94,1.1,1.1,0,0,0-.37.2.29.29,0,0,1-.2.11c-.09,0-.14,0-.2-.16A8.19,8.19,0,0,1,87,21.77c.35-.07.67-.14,1-.25a14.66,14.66,0,0,0,2.61-1.12C90.67,20.63,90.71,20.91,90.75,21.2ZM88.14,18c.12-.12.15-.14.29-.08A10.87,10.87,0,0,1,90.37,19c.07.06.1.09.1.13s0,.07-.1.14l-.6.69c-.13.15-.19.17-.3.07a8.76,8.76,0,0,0-1.91-1.18c-.07,0-.11-.07-.11-.11s0-.09.1-.16Zm2.1,5.9v.59h6v-.59Zm6,2v-.59h-6v.59Zm0,.83h-6v.6h6Zm-.7-3.84H97A4.69,4.69,0,0,1,94.65,21a4.21,4.21,0,0,1-2.81,1.93Z"/><path class="cls-4" d="M103.51,19.58a12.25,12.25,0,0,0-.12-2c.52,0,1,0,1.42.1.14,0,.23.08.23.14a.53.53,0,0,1-.09.29,4.39,4.39,0,0,0-.09,1.42v2.64H105c1.08,0,1.43,0,1.51,0s.16,0,.16.16v1c0,.12,0,.14-.16.14s-.42,0-1.43,0a12.68,12.68,0,0,0,1.9,2.43,4.18,4.18,0,0,0-.56.92c-.09.17-.15.26-.2.26s-.13-.07-.23-.21a11.89,11.89,0,0,1-1.13-2c0,2.78.1,5.29.1,5.5s0,.16-.17.16h-1.15c-.14,0-.16,0-.16-.16s.07-2.53.1-5.15a12.94,12.94,0,0,1-1.7,3.2c-.11.14-.18.23-.25.23s-.11-.08-.17-.24a3.52,3.52,0,0,0-.51-1,11.63,11.63,0,0,0,2.26-3.9h-.25c-1.09,0-1.44,0-1.53,0s-.15,0-.15-.14v-1c0-.14,0-.16.15-.16s.44,0,1.53,0h.58Zm-1.35-.95c.17-.07.18-.06.25.08a11,11,0,0,1,.76,2.36c0,.14,0,.18-.18.25l-.61.23c-.21.08-.22.07-.25-.09a10.43,10.43,0,0,0-.71-2.34c-.06-.16,0-.18.15-.26Zm3.61.46a4.18,4.18,0,0,0,.08-.6,8,8,0,0,1,1.07.39c.11.06.15.1.15.17a.13.13,0,0,1-.08.14.48.48,0,0,0-.17.31,18,18,0,0,1-.65,1.78c-.08.21-.12.29-.21.29a.76.76,0,0,1-.28-.12,3.72,3.72,0,0,0-.56-.24A13.15,13.15,0,0,0,105.77,19.09Zm5.09,6.36V19.83a13.1,13.1,0,0,0-.11-2.13,14,14,0,0,1,1.49.1c.13,0,.21.07.21.15a.8.8,0,0,1-.08.28,5.65,5.65,0,0,0-.09,1.56v5.38c.82-.17,1.14-.27,1.27-.3s.12,0,.15.14l.17,1.1c0,.13,0,.14-.14.17s-.48.08-1.45.28v1.3c0,1.56,0,2.36,0,2.43s0,.16-.15.16H111c-.14,0-.15,0-.15-.16s0-.85,0-2.41v-1l-1.92.38-1.81.36c-.14,0-.17,0-.18-.11l-.19-1.11c0-.15,0-.15.13-.18s.6-.07,1.83-.31Zm-3.08-3.58c.07-.07.09-.1.12-.1s.07,0,.14.09A9.53,9.53,0,0,1,110,23.65c.1.13.1.16,0,.3l-.69.69c-.15.14-.18.14-.28,0a12.48,12.48,0,0,0-1.85-1.91c-.06-.05-.1-.08-.1-.11s0-.08.11-.15Zm.38-3.2c.12-.11.13-.14.26-.06a9.85,9.85,0,0,1,2,1.79c.09.09.09.15,0,.26l-.67.66c-.16.16-.19.17-.27,0a10.24,10.24,0,0,0-1.91-1.84c-.1-.07-.11-.14,0-.26Z"/><path class="cls-4" d="M118.39,20.09c1.06,0,1.41,0,1.5,0s.15,0,.15.15v1c0,.15,0,.17-.15.17s-.44,0-1.5,0H116.7c-1.07,0-1.42,0-1.5,0s-.14,0-.14-.17v-1c0-.14,0-.15.14-.15s.43,0,1.5,0Zm1.27,8c0,1.63,0,1.94,0,2s0,.16-.15.16h-1c-.14,0-.15,0-.15-.16V29.7h-1.47v.64c0,.14,0,.15-.15.15h-1c-.15,0-.17,0-.17-.15s0-.41,0-2.11v-.9c0-.88,0-1.22,0-1.32s0-.15.17-.15.38,0,1.28,0h1.19c.92,0,1.2,0,1.3,0s.15,0,.15.15,0,.42,0,1.08Zm-1.4-9.9c.91,0,1.18,0,1.26,0s.17,0,.17.16v.93c0,.14,0,.15-.17.15s-.35,0-1.26,0h-1.18c-.91,0-1.19,0-1.28,0s-.15,0-.15-.15v-.93c0-.14,0-.16.15-.16s.37,0,1.28,0Zm-.06,3.92c.86,0,1.11,0,1.18,0s.17,0,.17.16v.91c0,.14,0,.15-.17.15s-.32,0-1.18,0h-1.06c-.86,0-1.11,0-1.2,0s-.15,0-.15-.15v-.91c0-.14,0-.16.15-.16s.34,0,1.2,0Zm0,1.9c.86,0,1.11,0,1.18,0s.17,0,.17.15V25c0,.14,0,.16-.17.16s-.32,0-1.18,0h-1.06c-.86,0-1.11,0-1.2,0s-.15,0-.15-.16v-.9c0-.14,0-.15.15-.15s.34,0,1.2,0Zm-1.28,3.07v1.49h1.47V27.05Zm7.49-5.48v.66h1.43c1.33,0,1.78,0,1.87,0s.14,0,.14.17v.8c0,.12,0,.14-.14.14s-.54,0-1.87,0h-3.78c-1.33,0-1.79,0-1.88,0s-.15,0-.15-.14v-.8c0-.16,0-.17.15-.17s.55,0,1.88,0h1v-.66h-.49c-1.2,0-1.61,0-1.69,0s-.14,0-.14-.15v-.72c0-.14,0-.15.14-.15s.49,0,1.69,0h.49V20h-.69c-1.27,0-1.69,0-1.77,0s-.16,0-.16-.16v-.77c0-.14,0-.15.16-.15s.5,0,1.77,0h.69c0-.51,0-.92-.1-1.38a12.11,12.11,0,0,1,1.39.1c.14,0,.22.1.22.15a1.21,1.21,0,0,1-.08.34,3,3,0,0,0-.07.79h1.09c1.27,0,1.7,0,1.79,0s.15,0,.15.15v.77c0,.14,0,.16-.15.16s-.52,0-1.79,0h-1.09v.65h.7c1.21,0,1.6,0,1.69,0s.16,0,.16.15v.72c0,.14,0,.15-.16.15s-.48,0-1.68,0Zm2.43,5.33c0,.7,0,1.51,0,2a1.43,1.43,0,0,1-.35,1.16c-.24.21-.55.3-1.57.3-.44,0-.47,0-.54-.32a2.75,2.75,0,0,0-.36-.95c.31,0,.7,0,1,0,.47,0,.55-.16.55-.44v-.53h-3.41v.49c0,1.12,0,1.6,0,1.67s0,.16-.16.16h-1.06c-.14,0-.16,0-.16-.16s0-.5,0-1.64V25.55c0-1,0-1.43,0-1.53s0-.16.16-.16.5,0,1.68,0H125c1.19,0,1.58,0,1.67,0s.17,0,.17.16,0,.62,0,1.64ZM122.12,25v.64h3.41V25Zm3.41,2.27v-.7h-3.41v.7Z"/><path class="cls-4" d="M131.2,21.53c-1.28,0-1.71,0-1.8,0s-.14,0-.14-.15v-1.1c0-.15,0-.17.14-.17s.52,0,1.8,0h3.42v-.86a10,10,0,0,0-.09-1.69q.78,0,1.53.09c.14,0,.19.09.19.16a.92.92,0,0,1-.07.36,5,5,0,0,0-.07,1.06v.88h3.37c1.28,0,1.72,0,1.8,0s.15,0,.15.17v1.1c0,.14,0,.15-.15.15s-.52,0-1.8,0h-3.24a10.12,10.12,0,0,0,1.16,2.56,13.21,13.21,0,0,0,1.53-1.55,2.72,2.72,0,0,0,.45-.67,8.36,8.36,0,0,1,1.1.8c.14.13.17.2.17.28s-.09.17-.2.23a2.71,2.71,0,0,0-.72.57,14.7,14.7,0,0,1-1.57,1.41A11.54,11.54,0,0,0,141.78,28a4.57,4.57,0,0,0-.75,1c-.13.22-.19.32-.27.32a.82.82,0,0,1-.32-.17,10.22,10.22,0,0,1-4.4-5.56c0,1.78.1,3.55.1,5.15,0,.65-.11,1-.53,1.28a3.69,3.69,0,0,1-1.94.31c-.44,0-.41,0-.53-.42a3.29,3.29,0,0,0-.52-1.08c.45,0,.8.07,1.09.07.75,0,.91-.09.91-.54V21.53ZM134,25.94c.1.44.1.44-.25.7a28.32,28.32,0,0,1-3.06,2,3.68,3.68,0,0,0-.41.28.31.31,0,0,1-.23.14c-.08,0-.15-.07-.21-.18a10.42,10.42,0,0,1-.6-1.28,7,7,0,0,0,1.14-.46,21.86,21.86,0,0,0,3.48-2.18A6.47,6.47,0,0,0,134,25.94Zm-2.92-3.86c.13-.13.15-.14.28-.06a12.14,12.14,0,0,1,1.94,1.73c.05.06.08.1.08.14s0,.07-.08.14l-.77.79c-.14.14-.19.18-.28.05A10.5,10.5,0,0,0,130.4,23c-.07-.05-.1-.08-.1-.11s0-.08.13-.17Zm7-4.34c.13-.1.17-.08.32,0A10.18,10.18,0,0,1,140,19.09c.09.07.1.14-.08.28l-.68.56c-.07.06-.12.1-.16.1s-.09,0-.15-.11a9,9,0,0,0-1.48-1.41c-.12-.08-.12-.11,0-.23Z"/></g></g></svg>