<svg xmlns="http://www.w3.org/2000/svg" width="440.88" height="56.398" viewBox="0 0 440.88 56.398">
  <g id="グループ_153" data-name="グループ 153" transform="translate(-992.62 -2991.696)">
    <g id="グループ_147" data-name="グループ 147">
      <g id="グループ_145" data-name="グループ 145">
        <path id="パス_236" data-name="パス 236" d="M-112.032-2.574a1.234,1.234,0,0,0-1.206-1.152,1.048,1.048,0,0,0-.882.468,4.3,4.3,0,0,1-3.456,1.512c-3.8,0-4.68-3.384-4.68-4.9a4.756,4.756,0,0,1,4.662-5.022,3.794,3.794,0,0,1,2.97,1.278,1.153,1.153,0,0,0,.918.486,1.13,1.13,0,0,0,1.1-1.116c0-.972-1.944-2.628-4.806-2.628a6.877,6.877,0,0,0-6.966,7.128,6.613,6.613,0,0,0,6.894,6.84C-114.174.324-112.032-1.638-112.032-2.574Zm8.478,2.916a6.691,6.691,0,0,0,6.948-6.984,6.774,6.774,0,0,0-6.948-6.984,6.759,6.759,0,0,0-6.93,6.984A6.677,6.677,0,0,0-103.554.342Zm0-1.89a4.794,4.794,0,0,1-4.824-5.094,4.815,4.815,0,0,1,4.824-5.13,4.815,4.815,0,0,1,4.824,5.13A4.794,4.794,0,0,1-103.554-1.548Zm9.162.918a.855.855,0,0,0,.954.81.992.992,0,0,0,1.08-.9c.09-2.484.342-7.956.468-9.54.036-.378.108-.522.2-.522.072,0,.162.126.234.342.666,2.124,2.25,7.83,2.826,9.2a1.4,1.4,0,0,0,1.3,1.008,1.558,1.558,0,0,0,1.4-1.026c.738-1.926,2.592-7.776,2.988-9.27.054-.216.18-.378.27-.378s.162.126.162.432c0,0,.18,7.146.36,9.72a1.006,1.006,0,0,0,1.08.936.966.966,0,0,0,1.044-.936V-.828c-.144-2.556-.54-8.406-.594-10.728a1.856,1.856,0,0,0-1.8-1.962,1.988,1.988,0,0,0-1.854,1.476c-.7,2.052-2.142,7.056-2.826,8.712-.036.108-.108.162-.162.162-.072,0-.126-.054-.18-.162-.432-.882-2.016-6.462-2.7-8.622A1.968,1.968,0,0,0-91.962-13.5a1.878,1.878,0,0,0-1.746,2.016c-.144,2.61-.558,7.668-.684,10.818ZM-75.15-.846v-.7c0-1.188-.054-2.466-.054-3.582,0-.144.018-.2.108-.2a.351.351,0,0,1,.126.018,5.751,5.751,0,0,0,1.314.144,10.217,10.217,0,0,0,1.3-.09A4.249,4.249,0,0,0-68.454-9.54a4.04,4.04,0,0,0-4.158-4.05c-.27-.018-.63-.036-1.008-.036-3.528,0-3.546,1.188-3.546,3.4,0,1.26.036,3.024.036,4.878,0,1.53-.018,3.114-.09,4.518v.054a.957.957,0,0,0,1.026.918A.975.975,0,0,0-75.15-.846Zm2.358-10.872A2.062,2.062,0,0,1-70.47-9.63a2.5,2.5,0,0,1-2.2,2.52c-.378.036-.756.054-1.1.054-1.116,0-1.476-.126-1.476-.5v-.306c0-.63-.018-1.368-.018-2,0-1.674.162-1.872,1.6-1.872C-73.224-11.736-72.792-11.718-72.792-11.718ZM-59.436-2.07C-58.212.108-56.736.162-56.448.162A1.045,1.045,0,0,0-55.3-.9a1.035,1.035,0,0,0-.936-1.062,1.967,1.967,0,0,1-1.476-1.152,19.609,19.609,0,0,0-2.016-3.078c-.126-.144-.252-.234-.252-.306,0-.054.054-.072.18-.108A3.4,3.4,0,0,0-57.168-9.99c0-1.692-1.206-3.4-4.122-3.6-.27-.018-.684-.036-1.1-.036-1.512,0-3.564,0-3.618,2.3-.018.738-.018.81-.018,4.7,0,1.98,0,4.122-.054,5.8v.036a.907.907,0,0,0,.972.9,1,1,0,0,0,1.062-.99c0-.648-.054-3.6-.054-4.95,0-.324.252-.342.594-.342s.756.018.99.018C-61.65-6.138-60.588-4.068-59.436-2.07Zm-1.908-5.76c-.324.018-.792.036-1.242.036-1.26,0-1.494-.018-1.494-.378.018-1.044,0-2.322.036-2.754.054-.846.7-.9,1.674-.9.342,0,.666,0,.9.018,1.566.09,2.25.972,2.25,1.872A2.216,2.216,0,0,1-61.344-7.83Zm14.832-3.834a.991.991,0,0,0,1.062-.972.959.959,0,0,0-1.008-.954c-.27-.018-1.26-.036-2.286-.036-1.008,0-2.034.018-2.358.036a2.238,2.238,0,0,0-2.43,2.268c-.036,1.134-.054,3.582-.054,5.778,0,1.458,0,2.79.036,3.546.072,1.584,1.1,2.178,2.754,2.3.234.018,1.278.036,2.3.036,1.044,0,2.088-.018,2.322-.036A1.05,1.05,0,0,0-45.036-.7a.913.913,0,0,0-.972-.918h-.09c-.342.018-1.494.036-2.556.036-2.538,0-2.826-.036-2.916-.864-.036-.306-.054-.72-.054-3.4,0-.378.18-.4,2.412-.4.684,0,1.368.018,1.818.054h.09a.954.954,0,0,0,.954-1.026.906.906,0,0,0-1.008-.954c-.324.018-1.188.018-2.016.018-2.214,0-2.232,0-2.232-.36.018-1.044,0-1.926.036-2.358.054-.774.432-.81,2.232-.81C-48.114-11.682-46.512-11.664-46.512-11.664ZM-31.878-.72c-.036-1.512-.054-4.1-.054-6.624,0-1.962.018-3.888.054-5.2v-.036a.966.966,0,0,0-1.044-.936.965.965,0,0,0-1.044.972c.018.72.036,1.44.036,2.088,0,.99-.018,1.8-.036,2.232,0,.2-.072.324-.288.324-.648.018-2,.018-3.312.018-1.3,0-2.538,0-2.988-.018-.144,0-.288-.072-.288-.342-.018-.45-.036-1.26-.036-2.232,0-.63.018-1.35.036-2.07v-.036a.966.966,0,0,0-1.044-.936.932.932,0,0,0-1.026.972c.036,1.368.054,3.276.054,5.292,0,2.25-.018,4.626-.054,6.534V-.7a.934.934,0,0,0,1.044.864c.522,0,1.026-.27,1.026-.846V-.72c-.036-.828-.036-1.638-.036-2.358,0-1.188.018-2.142.036-2.61,0-.27.2-.288.342-.288.7-.018,2.088-.036,3.42-.036,1.08,0,2.142.018,2.772.036.27.018.342.054.342.342.018.486.036,1.422.036,2.556,0,.738-.018,1.548-.036,2.358v.036c0,.576.522.846,1.044.864A.947.947,0,0,0-31.878-.7ZM-21.69-11.664a.991.991,0,0,0,1.062-.972.959.959,0,0,0-1.008-.954c-.27-.018-1.26-.036-2.286-.036-1.008,0-2.034.018-2.358.036a2.238,2.238,0,0,0-2.43,2.268c-.036,1.134-.054,3.582-.054,5.778,0,1.458,0,2.79.036,3.546.072,1.584,1.1,2.178,2.754,2.3.234.018,1.278.036,2.3.036,1.044,0,2.088-.018,2.322-.036A1.05,1.05,0,0,0-20.214-.7a.913.913,0,0,0-.972-.918h-.09c-.342.018-1.494.036-2.556.036-2.538,0-2.826-.036-2.916-.864-.036-.306-.054-.72-.054-3.4,0-.378.18-.4,2.412-.4.684,0,1.368.018,1.818.054h.09a.954.954,0,0,0,.954-1.026.906.906,0,0,0-1.008-.954c-.324.018-1.188.018-2.016.018-2.214,0-2.232,0-2.232-.36.018-1.044,0-1.926.036-2.358.054-.774.432-.81,2.232-.81C-23.292-11.682-21.69-11.664-21.69-11.664ZM-18.09-.7a.934.934,0,0,0,1.044.864c.522,0,1.026-.27,1.026-.846V-.72c-.054-1.908-.108-7.218-.108-9.09,0-.828,0-1.008.108-1.008.09,0,.216.234.288.342.972,1.638,4.338,7.794,5.6,9.792a1.835,1.835,0,0,0,1.548.9,1.627,1.627,0,0,0,1.638-1.71V-1.53C-6.984-3.1-7-5.454-7-7.74c0-1.8.018-3.546.054-4.806v-.036a.966.966,0,0,0-1.044-.936.965.965,0,0,0-1.044.972c.054,1.656.108,7.272.108,8.964,0,.7-.072.756-.126.756s-.144-.09-.252-.252c-1.368-2.052-4.374-7.668-5.508-9.468a2.174,2.174,0,0,0-1.764-.972c-.792,0-1.494.5-1.494,1.764v.072c.018,1.35.036,3.06.036,4.86,0,2.07-.018,4.248-.054,6.1ZM4.194-3.582a4.272,4.272,0,0,0-2.556-3.69C.81-7.722-.432-8.3-1.17-8.694A1.849,1.849,0,0,1-2.3-10.278,1.66,1.66,0,0,1-.45-11.808a2.626,2.626,0,0,1,2.07.828,1.143,1.143,0,0,0,.846.432,1.05,1.05,0,0,0,1.008-1.044c0-.846-1.422-2.034-3.906-2.034a3.559,3.559,0,0,0-3.888,3.42,3.582,3.582,0,0,0,2.3,3.24C-1.062-6.534-.09-5.994.7-5.544A2.376,2.376,0,0,1,2.07-3.528C2.07-2.952,1.638-1.6-.342-1.6A3.1,3.1,0,0,1-2.97-2.808a.969.969,0,0,0-.792-.45A1.052,1.052,0,0,0-4.806-2.232C-4.806-1.35-3.294.324-.36.324,2.556.324,4.194-1.656,4.194-3.582ZM8.658-.828C8.622-3.042,8.6-5.382,8.6-7.632c0-1.746.018-3.438.054-4.932V-12.6A.952.952,0,0,0,7.6-13.482c-.324,0-1.134.2-1.1.954.054,1.458.09,3.1.09,4.806,0,2.322-.054,4.734-.09,6.894V-.81a.99.99,0,0,0,1.08.954A.99.99,0,0,0,8.658-.81Zm9.162-.288c.684-2.2,2.754-7.92,3.816-11.052a1.223,1.223,0,0,0,.054-.342,1.1,1.1,0,0,0-1.152-1.026,1,1,0,0,0-.99.72c-.792,2.358-2.628,8.334-3.132,9.846-.09.288-.18.4-.252.4-.09,0-.162-.126-.234-.342-.756-2.232-2.646-8.478-2.952-9.774a1.075,1.075,0,0,0-1.062-.846,1.048,1.048,0,0,0-1.08,1.08c0,.828,2.862,9.036,3.762,11.322A1.915,1.915,0,0,0,16.29.18,1.651,1.651,0,0,0,17.82-1.116ZM30.888-11.664a.991.991,0,0,0,1.062-.972.959.959,0,0,0-1.008-.954c-.27-.018-1.26-.036-2.286-.036-1.008,0-2.034.018-2.358.036a2.238,2.238,0,0,0-2.43,2.268c-.036,1.134-.054,3.582-.054,5.778,0,1.458,0,2.79.036,3.546C23.922-.414,24.948.18,26.6.306c.234.018,1.278.036,2.3.036C29.952.342,31,.324,31.23.306A1.05,1.05,0,0,0,32.364-.7a.913.913,0,0,0-.972-.918H31.3c-.342.018-1.494.036-2.556.036-2.538,0-2.826-.036-2.916-.864-.036-.306-.054-.72-.054-3.4,0-.378.18-.4,2.412-.4.684,0,1.368.018,1.818.054h.09a.954.954,0,0,0,.954-1.026.906.906,0,0,0-1.008-.954c-.324.018-1.188.018-2.016.018-2.214,0-2.232,0-2.232-.36.018-1.044,0-1.926.036-2.358.054-.774.432-.81,2.232-.81C29.286-11.682,30.888-11.664,30.888-11.664Zm30.744,9.09a1.234,1.234,0,0,0-1.206-1.152,1.048,1.048,0,0,0-.882.468,4.3,4.3,0,0,1-3.456,1.512c-3.8,0-4.68-3.384-4.68-4.9a4.756,4.756,0,0,1,4.662-5.022,3.794,3.794,0,0,1,2.97,1.278,1.153,1.153,0,0,0,.918.486,1.13,1.13,0,0,0,1.1-1.116c0-.972-1.944-2.628-4.806-2.628a6.877,6.877,0,0,0-6.966,7.128A6.613,6.613,0,0,0,56.178.324C59.49.324,61.632-1.638,61.632-2.574ZM70.11.342a6.691,6.691,0,0,0,6.948-6.984,6.774,6.774,0,0,0-6.948-6.984,6.759,6.759,0,0,0-6.93,6.984A6.677,6.677,0,0,0,70.11.342Zm0-1.89a4.794,4.794,0,0,1-4.824-5.094,4.815,4.815,0,0,1,4.824-5.13,4.815,4.815,0,0,1,4.824,5.13A4.794,4.794,0,0,1,70.11-1.548ZM84.906.324a5.349,5.349,0,0,0,5.436-5.8c-.018-1.134-.036-2.142-.036-3.168,0-1.17.018-2.394.054-3.888v-.036a.952.952,0,0,0-1.044-.918.931.931,0,0,0-1.044.954c.018.774.036,1.566.036,2.358,0,1.584-.036,3.186-.036,4.752a3.476,3.476,0,0,1-3.438,3.726,3.268,3.268,0,0,1-3.258-3.582v-.738c0-1.458-.036-2.934-.036-4.41,0-.7.018-1.4.036-2.106v-.036a.946.946,0,0,0-1.026-.918.915.915,0,0,0-1.044.954c.036,1.044.036,2.124.036,3.222,0,1.314,0,2.646-.018,3.906v.09A5.279,5.279,0,0,0,84.906.324ZM100.044-2.07c1.224,2.178,2.7,2.232,2.988,2.232A1.045,1.045,0,0,0,104.184-.9a1.035,1.035,0,0,0-.936-1.062,1.967,1.967,0,0,1-1.476-1.152,19.609,19.609,0,0,0-2.016-3.078c-.126-.144-.252-.234-.252-.306,0-.054.054-.072.18-.108a3.4,3.4,0,0,0,2.628-3.384c0-1.692-1.206-3.4-4.122-3.6-.27-.018-.684-.036-1.1-.036-1.512,0-3.564,0-3.618,2.3-.018.738-.018.81-.018,4.7,0,1.98,0,4.122-.054,5.8v.036a.907.907,0,0,0,.972.9,1,1,0,0,0,1.062-.99c0-.648-.054-3.6-.054-4.95,0-.324.252-.342.594-.342s.756.018.99.018C97.83-6.138,98.892-4.068,100.044-2.07ZM98.136-7.83c-.324.018-.792.036-1.242.036-1.26,0-1.494-.018-1.494-.378.018-1.044,0-2.322.036-2.754.054-.846.7-.9,1.674-.9.342,0,.666,0,.9.018,1.566.09,2.25.972,2.25,1.872A2.216,2.216,0,0,1,98.136-7.83Zm15.786,4.248a4.272,4.272,0,0,0-2.556-3.69c-.828-.45-2.07-1.026-2.808-1.422a1.849,1.849,0,0,1-1.134-1.584,1.66,1.66,0,0,1,1.854-1.53,2.626,2.626,0,0,1,2.07.828,1.143,1.143,0,0,0,.846.432,1.05,1.05,0,0,0,1.008-1.044c0-.846-1.422-2.034-3.906-2.034a3.559,3.559,0,0,0-3.888,3.42,3.582,3.582,0,0,0,2.3,3.24c.954.432,1.926.972,2.718,1.422A2.376,2.376,0,0,1,111.8-3.528c0,.576-.432,1.926-2.412,1.926a3.1,3.1,0,0,1-2.628-1.206.969.969,0,0,0-.792-.45,1.052,1.052,0,0,0-1.044,1.026c0,.882,1.512,2.556,4.446,2.556C112.284.324,113.922-1.656,113.922-3.582Zm9.324-8.082a.991.991,0,0,0,1.062-.972.959.959,0,0,0-1.008-.954c-.27-.018-1.26-.036-2.286-.036-1.008,0-2.034.018-2.358.036a2.238,2.238,0,0,0-2.43,2.268c-.036,1.134-.054,3.582-.054,5.778,0,1.458,0,2.79.036,3.546.072,1.584,1.1,2.178,2.754,2.3.234.018,1.278.036,2.3.036,1.044,0,2.088-.018,2.322-.036A1.05,1.05,0,0,0,124.722-.7a.913.913,0,0,0-.972-.918h-.09c-.342.018-1.494.036-2.556.036-2.538,0-2.826-.036-2.916-.864-.036-.306-.054-.72-.054-3.4,0-.378.18-.4,2.412-.4.684,0,1.368.018,1.818.054h.09a.954.954,0,0,0,.954-1.026.906.906,0,0,0-1.008-.954c-.324.018-1.188.018-2.016.018-2.214,0-2.232,0-2.232-.36.018-1.044,0-1.926.036-2.358.054-.774.432-.81,2.232-.81C121.644-11.682,123.246-11.664,123.246-11.664Z" transform="translate(1117 3047.752)" fill="#fff"/>
      </g>
      <path id="多角形_5" data-name="多角形 5" d="M8,0l8,9H0Z" transform="translate(1433.5 3014.752) rotate(90)" fill="#fff"/>
    </g>
    <path id="パス_243" data-name="パス 243" d="M-57.056-22.752c.512,0,.672.1.8.32,1.824,3.52,4.864,6.048,6.112,6.048a1.615,1.615,0,0,0,1.6-1.536,1.35,1.35,0,0,0-.768-1.184,10.994,10.994,0,0,1-4.672-4.768,2.68,2.68,0,0,0-2.56-1.312h-.16l-3.2.064A1.22,1.22,0,0,0-61.216-23.9,1.22,1.22,0,0,0-59.9-22.688h.064Zm4,11.264a1.345,1.345,0,0,0,1.216.9A1.528,1.528,0,0,0-50.4-12.16c0-1.312-3.1-5.12-4.48-5.12a1.256,1.256,0,0,0-1.344,1.088,1.214,1.214,0,0,0,.416.832,9.583,9.583,0,0,1,1.024,1.152c-1.216.224-2.656.416-4.128.576A19.437,19.437,0,0,0-57.056-18.3c0-.736-.832-1.248-1.6-1.248a1.224,1.224,0,0,0-1.248.928,37.062,37.062,0,0,1-1.76,5.216c-.672.032-1.312.1-1.92.1A1.248,1.248,0,0,0-64.864-12a1.24,1.24,0,0,0,1.312,1.312A57.8,57.8,0,0,0-53.44-12.256Zm-11.808-3.968c1.792,0,5.056-4.288,5.056-5.408a1.416,1.416,0,0,0-1.472-1.28,1.349,1.349,0,0,0-1.248.8,10.031,10.031,0,0,1-3.04,3.456,1.439,1.439,0,0,0-.672,1.152A1.328,1.328,0,0,0-64.864-15.456ZM-49.472-.96a1.622,1.622,0,0,0,1.536-1.632c0-1.5-3.232-4.32-4.576-4.32a1.419,1.419,0,0,0-1.472,1.28,1.268,1.268,0,0,0,.608.992,9.064,9.064,0,0,1,2.624,2.848A1.535,1.535,0,0,0-49.472-.96Zm-6.112-4.928a1.631,1.631,0,0,0,1.472-1.6c0-1.824-4.032-3.3-4.448-3.3A1.5,1.5,0,0,0-60.032-9.44a1.034,1.034,0,0,0,.64.928A7.909,7.909,0,0,1-56.48-6.4,1.108,1.108,0,0,0-55.584-5.888Zm-3.04-.576A1.342,1.342,0,0,0-60.1-7.648a1.269,1.269,0,0,0-1.376,1.216c-.032,1.408-.064,3.648-.064,4.8,0,3.008,1.824,3.328,3.936,3.328,2.816,0,5.5-.256,5.5-3.712a1.52,1.52,0,0,0-1.6-1.632,1.232,1.232,0,0,0-1.28,1.312c0,.928-.384,1.376-2.016,1.376-1.6,0-1.728-.352-1.728-2.048,0-1.12.064-2.464.1-3.424ZM-72.384.672a1.367,1.367,0,0,0,1.408,1.44A1.452,1.452,0,0,0-69.472.64l-.064-11.52c.736-.128,1.408-.224,1.888-.32.16.864.544,1.44,1.184,1.44A1.417,1.417,0,0,0-65.12-11.2c0-.768-1.472-4.256-2.976-4.256a1.054,1.054,0,0,0-1.152.928,1.126,1.126,0,0,0,.256.7c.128.192.288.384.416.608-.768.1-1.76.224-2.784.32,1.952-2.528,5.088-7.2,5.088-8.256a1.55,1.55,0,0,0-1.6-1.408,1.21,1.21,0,0,0-1.184.8,34.772,34.772,0,0,1-2.432,4.608c-.416-.384-.928-.864-1.44-1.28a22.008,22.008,0,0,0,3.264-6.56,1.5,1.5,0,0,0-1.6-1.312,1.21,1.21,0,0,0-1.28.9,22.887,22.887,0,0,1-2.464,5.472,2.121,2.121,0,0,0-.864-.288,1.277,1.277,0,0,0-1.28,1.248,1.282,1.282,0,0,0,.608,1.056,31.247,31.247,0,0,1,3.616,2.976c-.64.9-1.312,1.7-1.888,2.368-.544.032-1.024.064-1.408.1A1.107,1.107,0,0,0-77.248-11.3a1.2,1.2,0,0,0,1.184,1.28c.192,0,2.144-.224,3.776-.448l-.1,11.1Zm7.04-5.184c0-.32-.7-4.64-2.56-4.64a1.075,1.075,0,0,0-1.152.96,1.1,1.1,0,0,0,.128.512,9.581,9.581,0,0,1,.96,3.424,1.14,1.14,0,0,0,1.184,1.12A1.4,1.4,0,0,0-65.344-4.512ZM-65.568.48c2.08,0,3.52-4.864,3.52-5.824a1.354,1.354,0,0,0-1.408-1.28,1.185,1.185,0,0,0-1.216.992,9.818,9.818,0,0,1-1.92,4,1.526,1.526,0,0,0-.384.9A1.327,1.327,0,0,0-65.568.48ZM-75.168-.7a19.36,19.36,0,0,0,2.08-6.624A1.378,1.378,0,0,0-74.5-8.736a1.186,1.186,0,0,0-1.216,1.12A14.713,14.713,0,0,1-77.568-2.08a1.476,1.476,0,0,0-.256.832A1.35,1.35,0,0,0-76.416,0,1.508,1.508,0,0,0-75.168-.7Zm57.92-13.664a1.26,1.26,0,0,0-.7-1.152A46.307,46.307,0,0,1-28.16-23.872a4.244,4.244,0,0,0-3.072-1.472,3.512,3.512,0,0,0-2.848,1.5c-2.3,3.04-6.464,7.3-9.92,9.312a1.606,1.606,0,0,0-.864,1.376A1.711,1.711,0,0,0-43.1-11.52a2.389,2.389,0,0,0,1.44-.544A61.764,61.764,0,0,0-31.872-21.7c.32-.416.576-.64.864-.64s.576.224.928.64a59.107,59.107,0,0,0,9.792,8.9,2.07,2.07,0,0,0,1.056.352A2.05,2.05,0,0,0-17.248-14.368Zm-8.128.992A1.376,1.376,0,0,0-23.9-14.784a1.376,1.376,0,0,0-1.472-1.408H-36.128A1.376,1.376,0,0,0-37.6-14.784a1.376,1.376,0,0,0,1.472,1.408ZM-21.888-2.24c.032-.8.064-1.632.064-2.432,0-.832-.032-1.632-.064-2.3a3.313,3.313,0,0,0-3.392-2.88c-2.048-.032-4.32-.064-6.432-.064-1.728,0-3.36.032-4.7.064-2.56.1-3.488,1.664-3.552,3.168C-40-5.952-40-5.024-40-4.128c0,.672,0,1.344.032,1.92.1,1.856,1.28,3.168,3.616,3.264q2.688.1,5.376.1c1.824,0,3.68-.032,5.536-.1A3.478,3.478,0,0,0-21.888-2.24Zm-4.544.544c-1.472.032-3.04.064-4.608.064-1.536,0-3.04-.032-4.416-.064-1.248-.032-1.536-.352-1.536-2.72,0-1.792.032-2.784,1.5-2.816,1.5-.032,3.264-.064,4.992-.064,1.44,0,2.816.032,4,.064,1.472.032,1.536.608,1.536,3.008C-24.96-2.784-24.96-1.76-26.432-1.7ZM10.016-6.624c.064-2.848.032-6.24.032-8.192,0-2.144-1.12-4.032-4.288-4.1-3.2-.064-8.96,0-12.48.16-2.464.1-2.336,3.232.16,3.1,3.328-.16,8.384-.352,11.2-.256,1.216.032,1.984.608,2.016,1.664.064,1.664.064,4.928-.032,6.848A1.82,1.82,0,0,1,4.768-5.6c-2.368.16-8.192.16-11.616.032A1.668,1.668,0,1,0-6.816-2.24c3.3,0,8.576-.032,11.968-.224C7.584-2.592,9.952-3.552,10.016-6.624ZM43.1-10.56a1.545,1.545,0,0,0,1.632-1.568,1.552,1.552,0,0,0-1.632-1.6h-20.1a1.632,1.632,0,0,0-1.7,1.632,1.541,1.541,0,0,0,1.7,1.536ZM63.68-7.968a33.291,33.291,0,0,1,7.488,6.432c1.5,1.888,3.9-.608,2.624-2.4C72.32-5.984,68.256-8.672,65.6-10.272a51.208,51.208,0,0,0,3.552-5.44c1.248-2.176-.384-4-3.264-4-3.232,0-7.936.064-10.272.16-2.048.1-1.92,3.168,0,3.1,2.816-.064,7.232-.224,9.248-.192.7,0,.832.512.544,1.056C62.88-10.816,57.824-5.7,52-3.68c-2.4.832-1.312,3.968,1.024,3.1A27.033,27.033,0,0,0,63.68-7.968Z" transform="translate(1071 3018)" fill="#fff"/>
  </g>
</svg>
