<svg xmlns="http://www.w3.org/2000/svg" width="440.274" height="52.842" viewBox="0 0 440.274 52.842">
  <g id="グループ_146" data-name="グループ 146" transform="translate(-493.226 -2995.252)">
    <g id="グループ_144" data-name="グループ 144">
      <path id="パス_239" data-name="パス 239" d="M-61.245-1.38c-.06-3.69-.09-7.59-.09-11.34,0-2.91.03-5.73.09-8.22V-21a1.586,1.586,0,0,0-1.77-1.47c-.54,0-1.89.33-1.83,1.59.09,2.43.15,5.16.15,8.01,0,3.87-.09,7.89-.15,11.49v.03a1.65,1.65,0,0,0,1.8,1.59,1.65,1.65,0,0,0,1.8-1.59Zm5.49-19.29v.63c0,2.97-.12,9.54-.12,13.65,0,1.11,0,2.07.03,2.7.09,2.64,1.74,3.63,4.5,3.84.39.03,2.16.06,3.9.06,1.77,0,3.54-.03,3.93-.06a1.771,1.771,0,0,0,1.89-1.71,1.569,1.569,0,0,0-1.62-1.59h-.15c-.57.03-2.49.06-4.23.06-4.08,0-4.74,0-4.86-1.44-.03-.51-.06-1.86-.06-3.57,0-4.17.09-10.5.18-12.42v-.12a1.7,1.7,0,0,0-1.71-1.83,1.662,1.662,0,0,0-1.68,1.77Zm34.56,19.29a2.377,2.377,0,0,0-.18-.87c-.99-2.34-4.89-12.78-6.81-18.18a2.992,2.992,0,0,0-2.79-2.07,2.772,2.772,0,0,0-2.64,2.01c-6.57,18.48-6.66,18.72-6.66,19.26a1.611,1.611,0,0,0,1.71,1.5,1.706,1.706,0,0,0,1.68-1.23c.45-1.44,1.14-3.6,1.89-5.97a.377.377,0,0,1,.36-.27c.63-.03,2.64-.03,4.44-.03,1.35,0,2.58,0,3.06.03.18,0,.27.09.33.27.93,2.79,1.71,5.19,2.07,6.06A1.759,1.759,0,0,0-23.025.24,1.7,1.7,0,0,0-21.195-1.38ZM-28-10.5c0,.09-.06.12-.24.12-.42,0-1.47.03-2.55.03-1.05,0-2.16-.03-2.76-.03-.18,0-.24-.06-.24-.18,0-.27,1.95-5.88,2.4-7.08.21-.6.39-.87.54-.87.18,0,.33.3.51.84.48,1.47,1.38,4.2,2.31,7.02A.326.326,0,0,1-28-10.5ZM2.865-6.21c.06-2.67.03-5.85.03-7.68,0-2.01-1.05-3.78-4.02-3.84-3-.06-8.4,0-11.7.15-2.31.09-2.19,3.03.15,2.91,3.12-.15,7.86-.33,10.5-.24,1.14.03,1.86.57,1.89,1.56.06,1.56.06,4.62-.03,6.42a1.706,1.706,0,0,1-1.74,1.68c-2.22.15-7.68.15-10.89.03a1.564,1.564,0,1,0,.03,3.12c3.09,0,8.04-.03,11.22-.21C.585-2.43,2.805-3.33,2.865-6.21ZM33.885-9.9a1.448,1.448,0,0,0,1.53-1.47,1.455,1.455,0,0,0-1.53-1.5H15.045a1.53,1.53,0,0,0-1.59,1.53,1.445,1.445,0,0,0,1.59,1.44Zm19.29,2.43A31.21,31.21,0,0,1,60.2-1.44c1.41,1.77,3.66-.57,2.46-2.25-1.38-1.92-5.19-4.44-7.68-5.94a48.009,48.009,0,0,0,3.33-5.1c1.17-2.04-.36-3.75-3.06-3.75-3.03,0-7.44.06-9.63.15-1.92.09-1.8,2.97,0,2.91,2.64-.06,6.78-.21,8.67-.18.66,0,.78.48.51.99-2.37,4.47-7.11,9.27-12.57,11.16-2.25.78-1.23,3.72.96,2.91A25.344,25.344,0,0,0,53.175-7.47Z" transform="translate(560 3017.752)" fill="#fff"/>
      <path id="パス_237" data-name="パス 237" d="M-107.622,1.1a.482.482,0,0,0-.288-.45,8.414,8.414,0,0,1-4.446-7.506,8.081,8.081,0,0,1,4.428-7.326.507.507,0,0,0,.306-.45.488.488,0,0,0-.5-.486c-.576,0-5.148,2.592-5.148,8.262,0,5.706,4.608,8.334,5.256,8.334A.374.374,0,0,0-107.622,1.1ZM-90.27-1.494c.054-1.368.072-2.916.072-4.518,0-1.962-.036-3.978-.072-5.814a2.16,2.16,0,0,0-2.2-2.106c-1.692-.036-3.4-.054-5.094-.054s-3.348.018-4.914.054a2.047,2.047,0,0,0-2.25,1.962c-.036,1.764-.072,3.852-.072,5.886,0,1.674.018,3.294.072,4.644A2.134,2.134,0,0,0-102.33.738c1.62.036,3.276.054,4.932.054s3.312-.018,4.9-.054A2.22,2.22,0,0,0-90.27-1.494Zm-1.746-.648c-.018.774-.342,1.26-1.35,1.278-1.458.018-2.88.036-4.248.036s-2.682-.018-3.924-.036c-1.116-.018-1.476-.2-1.512-1.224-.036-1.35-.054-2.88-.054-4.446s.018-3.168.054-4.626c.018-.918.306-1.206,1.332-1.224,1.26-.018,2.682-.036,4.14-.036,1.44,0,2.934.018,4.284.036.882.018,1.242.2,1.278,1.224.054,1.458.072,3.078.072,4.7C-91.944-4.986-91.962-3.492-92.016-2.142ZM-94.158-3.96a.732.732,0,0,0,.684-.738c0-.792-1.836-1.368-1.944-1.368a.717.717,0,0,0-.738.648.539.539,0,0,0,.324.468,9.794,9.794,0,0,1,1.224.81A.688.688,0,0,0-94.158-3.96Zm.54,1.6a.69.69,0,0,0,.738-.7.686.686,0,0,0-.738-.684H-96.84V-6.372l2.178.018a.686.686,0,0,0,.738-.684.683.683,0,0,0-.738-.666l-2.178.018V-9.522h2.7a.69.69,0,0,0,.738-.7.686.686,0,0,0-.738-.684h-6.948a.724.724,0,0,0-.774.72.686.686,0,0,0,.774.666h2.646v1.836l-2.124-.018a.721.721,0,0,0-.774.7.667.667,0,0,0,.756.648h.018l2.124-.018v2.628h-3.114a.724.724,0,0,0-.774.72.686.686,0,0,0,.774.666ZM-72.7.108A.941.941,0,0,0-71.82-.81a.961.961,0,0,0-.288-.666,7.208,7.208,0,0,0-2.718-1.8.811.811,0,0,0-.792.792.691.691,0,0,0,.378.612A8.17,8.17,0,0,1-73.278-.18.749.749,0,0,0-72.7.108Zm-2.5-6.8a.633.633,0,0,0,.63-.7v-.126c.486.54,1.656,1.746,2.286,1.746A.882.882,0,0,0-71.46-6.7a.828.828,0,0,0-.5-.756,6.932,6.932,0,0,1-2.052-1.6c.234-.306,1.89-2.484,1.89-3.42,0-.558-.378-.972-1.4-.972h-1.908a.657.657,0,0,0-.684.666.623.623,0,0,0,.648.648h.018l1.17-.018c.162,0,.288.054.288.216a7,7,0,0,1-.918,1.746A13.944,13.944,0,0,1-76.05-12.15a.639.639,0,0,0-.594-.414.733.733,0,0,0-.324.09,1.306,1.306,0,0,0-1.206-.594c-.234,0-.63.018-1.026.036l.144-.54a.773.773,0,0,0-.81-.666.584.584,0,0,0-.594.4,9.509,9.509,0,0,1-2.394,4.176.729.729,0,0,0-.234.522.7.7,0,0,0,.72.666A.9.9,0,0,0-81.7-8.8a12.573,12.573,0,0,0,2-2.97c.342,0,.738-.018.972-.018s.378.054.378.234A4.185,4.185,0,0,1-78.7-10.53c-.648-.432-.774-.45-.882-.45a.8.8,0,0,0-.72.774.55.55,0,0,0,.342.5,3.032,3.032,0,0,1,.666.378c-.144.252-.306.5-.468.756a2.744,2.744,0,0,0-1.026-.522.779.779,0,0,0-.72.756.519.519,0,0,0,.306.486,5.194,5.194,0,0,1,.63.342,5.829,5.829,0,0,1-1.494,1.242c-.018.018-.054.036-.072.054a4.539,4.539,0,0,0-.846-2.448,1.294,1.294,0,0,1-.306-.72,1.823,1.823,0,0,1,.216-.72,7.28,7.28,0,0,0,.9-2.718,1.275,1.275,0,0,0-1.386-1.35c-.27-.018-.612-.018-.936-.018-1.35,0-2.3.072-2.34,1.71-.072,3.78-.072,9.72-.072,13a.783.783,0,0,0,.828.792.764.764,0,0,0,.792-.792v-4.1a.982.982,0,0,0,.972.432A2.226,2.226,0,0,0-82.17-5.094a.829.829,0,0,0,.486.2,5.369,5.369,0,0,0,2.556-2.142.618.618,0,0,0,.576.342Zm1.8,2.682a.671.671,0,0,0,.666-.738.665.665,0,0,0-.666-.72h-6.93a.668.668,0,0,0-.648.738.662.662,0,0,0,.648.72h2.376c.018.5.018,1.152.018,1.746,0,.576,0,1.1-.018,1.35-.018.36-.4.468-.774.468A2.008,2.008,0,0,1-79.218-.5a.738.738,0,0,0-.2-.018.69.69,0,0,0-.648.738c0,.306.162.954,1.6.954,1.314,0,2.142-.774,2.142-1.71V-.63c-.036-.5-.036-1.206-.036-1.6V-4.014Zm-5.85,1.944a.815.815,0,0,0,.18-.486.85.85,0,0,0-.828-.828.688.688,0,0,0-.558.306A6.17,6.17,0,0,1-82.584-1.26.7.7,0,0,0-83-.63.853.853,0,0,0-82.152.2C-81.522.2-80.136-.972-79.254-2.07Zm.864-6.048a15,15,0,0,0,1.4-2.988A16.341,16.341,0,0,0-75.06-8.1a.4.4,0,0,0-.144-.018Zm-6.894,3.726c0-2.88,0-5.742.036-7.866,0-.54.2-.63.792-.63.324,0,.612.018.612.342a6.908,6.908,0,0,1-.63,1.962,3.226,3.226,0,0,0-.27,1.152,2.247,2.247,0,0,0,.468,1.3,3.561,3.561,0,0,1,.666,2.142c0,.954-.4,1.314-.792,1.314a.912.912,0,0,1-.234-.036.5.5,0,0,0-.162-.018A.567.567,0,0,0-85.284-4.392ZM-63-5.85c.036-1.674.036-4.752-.054-6.372-.072-1.134-1.926-1.044-1.872.072.09,1.71.144,4.536.036,6.318a.883.883,0,0,0,.936.918A.931.931,0,0,0-63-5.85Zm.324,6.768a8.858,8.858,0,0,0,4.662-8.352c0-1.494-.09-3.51-.054-5.04.018-1.1-1.926-1.17-1.926,0,0,1.422.09,3.654.09,5.058A7.018,7.018,0,0,1-63.81-.558C-64.944.072-64.152,1.764-62.676.918ZM-38.2-9.576c.648.72,1.71-.468.954-1.224a6.051,6.051,0,0,0-1.926-1.08c-.882-.288-1.584.864-.612,1.242A6.423,6.423,0,0,1-38.2-9.576Zm-1.764,1.71c.63.738,1.728-.4.99-1.188a5.937,5.937,0,0,0-1.89-1.152c-.882-.324-1.6.81-.648,1.224A6.934,6.934,0,0,1-39.96-7.866ZM-36-1.854a.943.943,0,0,0-.18-1.386c-1.908-1.242-5.418-3.888-6.858-4.95a3.2,3.2,0,0,0-4.086-.126,18.012,18.012,0,0,1-2.79,1.71.988.988,0,1,0,.7,1.836,15.333,15.333,0,0,0,3.024-2.16,1.583,1.583,0,0,1,2.2.108c2.322,1.782,4.338,3.8,6.5,5.2A1.137,1.137,0,0,0-36-1.854Zm14.382-9.882a.879.879,0,0,0-.972-.828c-1.818.018-4.338.018-6.066,0-1.386-.018-1.314,1.638-.126,1.674,1.944.054,4.428,0,6.12,0C-21.924-10.89-21.618-11.3-21.618-11.736Zm1.152,5.292c.738-1.764-.144-2.772-1.944-2.79-2.448-.018-5.472,0-7.794.054a.858.858,0,1,0,.054,1.692c1.926-.072,5.274-.126,7.11-.09.684.018.774.306.594.792-.81,2.286-3.1,4.464-6.642,5.418-1.44.378-.774,2.16.7,1.71C-23.922-1.026-21.726-3.438-20.466-6.444ZM-.54-7.29a.936.936,0,1,0-1.638-.9,11.36,11.36,0,0,1-4.014,4.5c-.342.2-.558.162-.54-.234.018-.612.2-5.364.216-6.066a.9.9,0,1,0-1.8,0c0,1.062-.126,5.346-.252,6.966-.126,1.548,1.152,2.016,2.322,1.44A14.267,14.267,0,0,0-.54-7.29ZM-14.688-.666a9.91,9.91,0,0,0,4.95-9.108.93.93,0,1,0-1.854.144c.162,3.438-1.44,6.21-4.1,7.4C-17.064-1.62-16.074.108-14.688-.666ZM9.18-6.156a1.168,1.168,0,0,0,1.026.054,10.465,10.465,0,0,0,4.464-3.2c1.26-1.422.4-2.988-1.476-2.988-2.7,0-6.624-.018-9.234.108-1.35.072-1.44,1.8.144,1.728,2.52-.126,6.444-.18,8.46-.162.468,0,.468.27.2.648A7.833,7.833,0,0,1,9.486-7.7c-.054.018-.09.054-.144.072.018-.216.018-.45.018-.666A.959.959,0,0,0,8.28-9.324a.921.921,0,0,0-.99,1.1A6.879,6.879,0,0,1,3.51-1.152a.921.921,0,0,0-.486,1.4A1.223,1.223,0,0,0,4.716.414,9.074,9.074,0,0,0,9.18-6.156Zm23.166.216a.869.869,0,0,0,.918-.882.873.873,0,0,0-.918-.9h-11.3a.918.918,0,0,0-.954.918.867.867,0,0,0,.954.864ZM45.072-7.38a.957.957,0,0,0,.54-1.278,9.417,9.417,0,0,0-1.476-2.376c-.846-1.008-2.2.072-1.476.882A6.34,6.34,0,0,1,43.83-8.01.92.92,0,0,0,45.072-7.38ZM41.49.4a15.892,15.892,0,0,0,8.892-10.53,1.009,1.009,0,1,0-1.944-.54,13.35,13.35,0,0,1-7.866,9.432C39.4-.756,40,1.062,41.49.4Zm.342-6.642a.943.943,0,0,0,.36-1.332A9.409,9.409,0,0,0,40.41-9.72c-.972-.882-2.16.378-1.332,1.08A6.341,6.341,0,0,1,40.536-6.7.9.9,0,0,0,41.832-6.246Zm25.9,2.52c.036-1.6.018-3.51.018-4.608a2.162,2.162,0,0,0-2.412-2.3c-1.8-.036-5.04,0-7.02.09-1.386.054-1.314,1.818.09,1.746,1.872-.09,4.716-.2,6.3-.144.684.018,1.116.342,1.134.936.036.936.036,2.772-.018,3.852A1.024,1.024,0,0,1,64.782-3.15c-1.332.09-4.608.09-6.534.018a.938.938,0,1,0,.018,1.872c1.854,0,4.824-.018,6.732-.126C66.366-1.458,67.7-2,67.734-3.726ZM86.346-5.94a.869.869,0,0,0,.918-.882.873.873,0,0,0-.918-.9h-11.3a.918.918,0,0,0-.954.918.867.867,0,0,0,.954.864ZM97.92-4.482a18.726,18.726,0,0,1,4.212,3.618c.846,1.062,2.2-.342,1.476-1.35A18.714,18.714,0,0,0,99-5.778a28.805,28.805,0,0,0,2-3.06c.7-1.224-.216-2.25-1.836-2.25-1.818,0-4.464.036-5.778.09a.874.874,0,0,0,0,1.746c1.584-.036,4.068-.126,5.2-.108.4,0,.468.288.306.594a14.634,14.634,0,0,1-7.542,6.7.929.929,0,1,0,.576,1.746A15.206,15.206,0,0,0,97.92-4.482Zm10.1,5.958c.648,0,5.256-2.628,5.256-8.334,0-5.67-4.572-8.262-5.148-8.262a.488.488,0,0,0-.5.486.507.507,0,0,0,.306.45,8.081,8.081,0,0,1,4.428,7.326A8.414,8.414,0,0,1,107.91.648a.482.482,0,0,0-.288.45A.374.374,0,0,0,108.018,1.476Z" transform="translate(745 3016.752)" fill="#fff"/>
      <path id="パス_238" data-name="パス 238" d="M-179.613-.828c-.036-2.214-.054-4.554-.054-6.8,0-1.746.018-3.438.054-4.932V-12.6a.952.952,0,0,0-1.062-.882c-.324,0-1.134.2-1.1.954.054,1.458.09,3.1.09,4.806,0,2.322-.054,4.734-.09,6.894V-.81a.99.99,0,0,0,1.08.954.99.99,0,0,0,1.08-.954Zm3.168.126A.934.934,0,0,0-175.4.162c.522,0,1.026-.27,1.026-.846V-.72c-.054-1.908-.108-7.218-.108-9.09,0-.828,0-1.008.108-1.008.09,0,.216.234.288.342.972,1.638,4.338,7.794,5.6,9.792a1.835,1.835,0,0,0,1.548.9,1.627,1.627,0,0,0,1.638-1.71V-1.53c-.036-1.566-.054-3.924-.054-6.21,0-1.8.018-3.546.054-4.806v-.036a.966.966,0,0,0-1.044-.936.965.965,0,0,0-1.044.972c.054,1.656.108,7.272.108,8.964,0,.7-.072.756-.126.756s-.144-.09-.252-.252c-1.368-2.052-4.374-7.668-5.508-9.468a2.174,2.174,0,0,0-1.764-.972c-.792,0-1.494.5-1.494,1.764v.072c.018,1.35.036,3.06.036,4.86,0,2.07-.018,4.248-.054,6.1Zm17.532-.054a.974.974,0,0,0,1.08.918c.558,0,1.116-.306,1.08-.936-.054-1.332-.09-3.528-.09-5.688,0-1.764.018-3.51.054-4.734,0-.36,0-.36,1.782-.36.432,0,.954,0,1.566.036h.072a.874.874,0,0,0,.864-.954.909.909,0,0,0-.936-.972c-1.026.018-2.556.036-4.086.036-1.872,0-3.78-.018-4.86-.036h-.036a.925.925,0,0,0-.99.954.959.959,0,0,0,1.026.972c.846,0,1.692-.036,2.376-.036,1.062,0,1.116,0,1.116.36.036.954.036,2.448.036,4.032,0,2.376-.018,4.986-.054,6.39Zm15.5-10.908a.991.991,0,0,0,1.062-.972.959.959,0,0,0-1.008-.954c-.27-.018-1.26-.036-2.286-.036-1.008,0-2.034.018-2.358.036a2.238,2.238,0,0,0-2.43,2.268c-.036,1.134-.054,3.582-.054,5.778,0,1.458,0,2.79.036,3.546.072,1.584,1.1,2.178,2.754,2.3.234.018,1.278.036,2.3.036,1.044,0,2.088-.018,2.322-.036A1.05,1.05,0,0,0-141.939-.7a.913.913,0,0,0-.972-.918H-143c-.342.018-1.494.036-2.556.036-2.538,0-2.826-.036-2.916-.864-.036-.306-.054-.72-.054-3.4,0-.378.18-.4,2.412-.4.684,0,1.368.018,1.818.054h.09a.954.954,0,0,0,.954-1.026.906.906,0,0,0-1.008-.954c-.324.018-1.188.018-2.016.018-2.214,0-2.232,0-2.232-.36.018-1.044,0-1.926.036-2.358.054-.774.432-.81,2.232-.81C-145.017-11.682-143.415-11.664-143.415-11.664Zm10.278,9.594c1.224,2.178,2.7,2.232,2.988,2.232A1.045,1.045,0,0,0-129-.9a1.035,1.035,0,0,0-.936-1.062,1.967,1.967,0,0,1-1.476-1.152,19.609,19.609,0,0,0-2.016-3.078c-.126-.144-.252-.234-.252-.306,0-.054.054-.072.18-.108a3.4,3.4,0,0,0,2.628-3.384c0-1.692-1.206-3.4-4.122-3.6-.27-.018-.684-.036-1.1-.036-1.512,0-3.564,0-3.618,2.3-.018.738-.018.81-.018,4.7,0,1.98,0,4.122-.054,5.8v.036a.907.907,0,0,0,.972.9,1,1,0,0,0,1.062-.99c0-.648-.054-3.6-.054-4.95,0-.324.252-.342.594-.342s.756.018.99.018C-135.351-6.138-134.289-4.068-133.137-2.07Zm-1.908-5.76c-.324.018-.792.036-1.242.036-1.26,0-1.494-.018-1.494-.378.018-1.044,0-2.322.036-2.754.054-.846.7-.9,1.674-.9.342,0,.666,0,.9.018,1.566.09,2.25.972,2.25,1.872A2.216,2.216,0,0,1-135.045-7.83Zm7.7,7.128A.934.934,0,0,0-126.3.162c.522,0,1.026-.27,1.026-.846V-.72c-.054-1.908-.108-7.218-.108-9.09,0-.828,0-1.008.108-1.008.09,0,.216.234.288.342.972,1.638,4.338,7.794,5.6,9.792a1.835,1.835,0,0,0,1.548.9,1.627,1.627,0,0,0,1.638-1.71V-1.53c-.036-1.566-.054-3.924-.054-6.21,0-1.8.018-3.546.054-4.806v-.036a.966.966,0,0,0-1.044-.936.965.965,0,0,0-1.044.972c.054,1.656.108,7.272.108,8.964,0,.7-.072.756-.126.756s-.144-.09-.252-.252c-1.368-2.052-4.374-7.668-5.508-9.468a2.174,2.174,0,0,0-1.764-.972c-.792,0-1.494.5-1.494,1.764v.072c.018,1.35.036,3.06.036,4.86,0,2.07-.018,4.248-.054,6.1ZM-102.9-.828A1.426,1.426,0,0,0-103-1.35c-.594-1.4-2.934-7.668-4.086-10.908a1.8,1.8,0,0,0-1.674-1.242,1.663,1.663,0,0,0-1.584,1.206c-3.942,11.088-4,11.232-4,11.556a.967.967,0,0,0,1.026.9,1.023,1.023,0,0,0,1.008-.738c.27-.864.684-2.16,1.134-3.582a.226.226,0,0,1,.216-.162c.378-.018,1.584-.018,2.664-.018.81,0,1.548,0,1.836.018.108,0,.162.054.2.162.558,1.674,1.026,3.114,1.242,3.636a1.056,1.056,0,0,0,1.026.666A1.021,1.021,0,0,0-102.9-.828ZM-106.983-6.3c0,.054-.036.072-.144.072-.252,0-.882.018-1.53.018-.63,0-1.3-.018-1.656-.018-.108,0-.144-.036-.144-.108,0-.162,1.17-3.528,1.44-4.248.126-.36.234-.522.324-.522.108,0,.2.18.306.5.288.882.828,2.52,1.386,4.212A.2.2,0,0,1-106.983-6.3Zm7.848,5.544a.974.974,0,0,0,1.08.918c.558,0,1.116-.306,1.08-.936-.054-1.332-.09-3.528-.09-5.688,0-1.764.018-3.51.054-4.734,0-.36,0-.36,1.782-.36.432,0,.954,0,1.566.036h.072a.874.874,0,0,0,.864-.954.909.909,0,0,0-.936-.972c-1.026.018-2.556.036-4.086.036-1.872,0-3.78-.018-4.86-.036h-.036a.925.925,0,0,0-.99.954.959.959,0,0,0,1.026.972c.846,0,1.692-.036,2.376-.036,1.062,0,1.116,0,1.116.36.036.954.036,2.448.036,4.032,0,2.376-.018,4.986-.054,6.39ZM-88.5-.828c-.036-2.214-.054-4.554-.054-6.8,0-1.746.018-3.438.054-4.932V-12.6a.952.952,0,0,0-1.062-.882c-.324,0-1.134.2-1.1.954.054,1.458.09,3.1.09,4.806,0,2.322-.054,4.734-.09,6.894V-.81a.99.99,0,0,0,1.08.954A.99.99,0,0,0-88.5-.81Zm9.558,1.17a6.691,6.691,0,0,0,6.948-6.984,6.774,6.774,0,0,0-6.948-6.984,6.759,6.759,0,0,0-6.93,6.984A6.677,6.677,0,0,0-78.939.342Zm0-1.89a4.794,4.794,0,0,1-4.824-5.094,4.815,4.815,0,0,1,4.824-5.13,4.815,4.815,0,0,1,4.824,5.13A4.794,4.794,0,0,1-78.939-1.548Zm9.45.846a.934.934,0,0,0,1.044.864c.522,0,1.026-.27,1.026-.846V-.72c-.054-1.908-.108-7.218-.108-9.09,0-.828,0-1.008.108-1.008.09,0,.216.234.288.342.972,1.638,4.338,7.794,5.6,9.792a1.835,1.835,0,0,0,1.548.9,1.627,1.627,0,0,0,1.638-1.71V-1.53C-58.383-3.1-58.4-5.454-58.4-7.74c0-1.8.018-3.546.054-4.806v-.036a.966.966,0,0,0-1.044-.936.965.965,0,0,0-1.044.972c.054,1.656.108,7.272.108,8.964,0,.7-.072.756-.126.756s-.144-.09-.252-.252c-1.368-2.052-4.374-7.668-5.508-9.468a2.174,2.174,0,0,0-1.764-.972c-.792,0-1.494.5-1.494,1.764v.072c.018,1.35.036,3.06.036,4.86,0,2.07-.018,4.248-.054,6.1Zm24.444-.126a1.426,1.426,0,0,0-.108-.522c-.594-1.4-2.934-7.668-4.086-10.908A1.8,1.8,0,0,0-50.913-13.5,1.663,1.663,0,0,0-52.5-12.294c-3.942,11.088-4,11.232-4,11.556a.967.967,0,0,0,1.026.9,1.023,1.023,0,0,0,1.008-.738c.27-.864.684-2.16,1.134-3.582a.226.226,0,0,1,.216-.162c.378-.018,1.584-.018,2.664-.018.81,0,1.548,0,1.836.018.108,0,.162.054.2.162.558,1.674,1.026,3.114,1.242,3.636a1.056,1.056,0,0,0,1.026.666A1.021,1.021,0,0,0-45.045-.828ZM-49.131-6.3c0,.054-.036.072-.144.072-.252,0-.882.018-1.53.018-.63,0-1.3-.018-1.656-.018-.108,0-.144-.036-.144-.108,0-.162,1.17-3.528,1.44-4.248.126-.36.234-.522.324-.522.108,0,.2.18.306.5.288.882.828,2.52,1.386,4.212A.2.2,0,0,1-49.131-6.3Zm6.084-6.1v.378c0,1.782-.072,5.724-.072,8.19,0,.666,0,1.242.018,1.62.054,1.584,1.044,2.178,2.7,2.3.234.018,1.3.036,2.34.036C-37,.126-35.937.108-35.7.09A1.062,1.062,0,0,0-34.569-.936a.941.941,0,0,0-.972-.954h-.09c-.342.018-1.494.036-2.538.036-2.448,0-2.844,0-2.916-.864-.018-.306-.036-1.116-.036-2.142,0-2.5.054-6.3.108-7.452v-.072a1.021,1.021,0,0,0-1.026-1.1,1,1,0,0,0-1.008,1.062Zm15.75,0v.378c0,1.782-.072,5.724-.072,8.19,0,.666,0,1.242.018,1.62.054,1.584,1.044,2.178,2.7,2.3.234.018,1.3.036,2.34.036,1.062,0,2.124-.018,2.358-.036A1.062,1.062,0,0,0-18.819-.936a.941.941,0,0,0-.972-.954h-.09c-.342.018-1.494.036-2.538.036-2.448,0-2.844,0-2.916-.864-.018-.306-.036-1.116-.036-2.142,0-2.5.054-6.3.108-7.452v-.072a1.021,1.021,0,0,0-1.026-1.1A1,1,0,0,0-27.3-12.42ZM-14.535-.828c-.036-2.214-.054-4.554-.054-6.8,0-1.746.018-3.438.054-4.932V-12.6a.952.952,0,0,0-1.062-.882c-.324,0-1.134.2-1.1.954.054,1.458.09,3.1.09,4.806,0,2.322-.054,4.734-.09,6.894V-.81a.99.99,0,0,0,1.08.954.99.99,0,0,0,1.08-.954ZM-1.719-3.87A3.2,3.2,0,0,0-4.707-7.236c-.2-.018-.27-.054-.27-.072,0-.036.108-.072.288-.108a2.83,2.83,0,0,0,2.16-2.88c0-1.512-1.116-3.1-4.1-3.294-.27-.018-.648-.036-1.044-.036-1.53,0-3.528.036-3.582,2.286-.036,1.152-.054,3.6-.054,5.8,0,1.458,0,2.808.036,3.564C-11.2.27-9.135.342-7.389.342c.45,0,.918-.018,1.152-.036C-3.123.126-1.719-1.944-1.719-3.87Zm-5.094-7.884c1.584,0,2.25.792,2.25,1.638A2.158,2.158,0,0,1-6.687-8.082c-.324.018-.792.018-1.224.018-1.188,0-1.44,0-1.44-.378.018-1.044,0-2.07.036-2.5.054-.684.414-.828,1.566-.828C-7.281-11.772-6.813-11.754-6.813-11.754ZM-6.165-1.53c-.342.018-.792.036-1.206.036-1.674,0-1.854-.216-1.944-.882-.054-.486-.054-1.314-.054-3.564,0-.36.162-.414,1.836-.414.45,0,.918.018,1.368.054A2.268,2.268,0,0,1-3.789-4.068,2.518,2.518,0,0,1-6.165-1.53ZM7.749-11.664a.991.991,0,0,0,1.062-.972A.959.959,0,0,0,7.8-13.59c-.27-.018-1.26-.036-2.286-.036-1.008,0-2.034.018-2.358.036a2.238,2.238,0,0,0-2.43,2.268C.693-10.188.675-7.74.675-5.544c0,1.458,0,2.79.036,3.546C.783-.414,1.809.18,3.465.306c.234.018,1.278.036,2.3.036C6.813.342,7.857.324,8.091.306A1.05,1.05,0,0,0,9.225-.7a.913.913,0,0,0-.972-.918h-.09c-.342.018-1.494.036-2.556.036-2.538,0-2.826-.036-2.916-.864-.036-.306-.054-.72-.054-3.4,0-.378.18-.4,2.412-.4.684,0,1.368.018,1.818.054h.09a.954.954,0,0,0,.954-1.026A.906.906,0,0,0,6.9-8.172c-.324.018-1.188.018-2.016.018-2.214,0-2.232,0-2.232-.36.018-1.044,0-1.926.036-2.358.054-.774.432-.81,2.232-.81C6.147-11.682,7.749-11.664,7.749-11.664ZM18.027-2.07C19.251.108,20.727.162,21.015.162A1.045,1.045,0,0,0,22.167-.9a1.035,1.035,0,0,0-.936-1.062,1.967,1.967,0,0,1-1.476-1.152,19.609,19.609,0,0,0-2.016-3.078c-.126-.144-.252-.234-.252-.306,0-.054.054-.072.18-.108A3.4,3.4,0,0,0,20.3-9.99c0-1.692-1.206-3.4-4.122-3.6-.27-.018-.684-.036-1.1-.036-1.512,0-3.564,0-3.618,2.3-.018.738-.018.81-.018,4.7,0,1.98,0,4.122-.054,5.8v.036a.907.907,0,0,0,.972.9,1,1,0,0,0,1.062-.99c0-.648-.054-3.6-.054-4.95,0-.324.252-.342.594-.342s.756.018.99.018C15.813-6.138,16.875-4.068,18.027-2.07ZM16.119-7.83c-.324.018-.792.036-1.242.036-1.26,0-1.494-.018-1.494-.378.018-1.044,0-2.322.036-2.754.054-.846.7-.9,1.674-.9.342,0,.666,0,.9.018,1.566.09,2.25.972,2.25,1.872A2.216,2.216,0,0,1,16.119-7.83Zm17.946,7a1.426,1.426,0,0,0-.108-.522c-.594-1.4-2.934-7.668-4.086-10.908A1.8,1.8,0,0,0,28.2-13.5a1.663,1.663,0,0,0-1.584,1.206c-3.942,11.088-4,11.232-4,11.556a.967.967,0,0,0,1.026.9,1.023,1.023,0,0,0,1.008-.738c.27-.864.684-2.16,1.134-3.582A.226.226,0,0,1,26-4.32c.378-.018,1.584-.018,2.664-.018.81,0,1.548,0,1.836.018.108,0,.162.054.2.162.558,1.674,1.026,3.114,1.242,3.636a1.056,1.056,0,0,0,1.026.666A1.021,1.021,0,0,0,34.065-.828ZM29.979-6.3c0,.054-.036.072-.144.072-.252,0-.882.018-1.53.018-.63,0-1.3-.018-1.656-.018-.108,0-.144-.036-.144-.108,0-.162,1.17-3.528,1.44-4.248.126-.36.234-.522.324-.522.108,0,.2.18.306.5.288.882.828,2.52,1.386,4.212A.2.2,0,0,1,29.979-6.3Zm6.084-6.1v.378c0,1.782-.072,5.724-.072,8.19,0,.666,0,1.242.018,1.62.054,1.584,1.044,2.178,2.7,2.3.234.018,1.3.036,2.34.036,1.062,0,2.124-.018,2.358-.036A1.062,1.062,0,0,0,44.541-.936a.941.941,0,0,0-.972-.954h-.09c-.342.018-1.494.036-2.538.036-2.448,0-2.844,0-2.916-.864-.018-.306-.036-1.116-.036-2.142,0-2.5.054-6.3.108-7.452v-.072a1.021,1.021,0,0,0-1.026-1.1,1,1,0,0,0-1.008,1.062ZM61.929-.828a1.426,1.426,0,0,0-.108-.522c-.594-1.4-2.934-7.668-4.086-10.908A1.8,1.8,0,0,0,56.061-13.5a1.663,1.663,0,0,0-1.584,1.206c-3.942,11.088-4,11.232-4,11.556a.967.967,0,0,0,1.026.9,1.023,1.023,0,0,0,1.008-.738c.27-.864.684-2.16,1.134-3.582a.226.226,0,0,1,.216-.162c.378-.018,1.584-.018,2.664-.018.81,0,1.548,0,1.836.018.108,0,.162.054.2.162.558,1.674,1.026,3.114,1.242,3.636a1.056,1.056,0,0,0,1.026.666A1.021,1.021,0,0,0,61.929-.828ZM57.843-6.3c0,.054-.036.072-.144.072-.252,0-.882.018-1.53.018-.63,0-1.3-.018-1.656-.018-.108,0-.144-.036-.144-.108,0-.162,1.17-3.528,1.44-4.248.126-.36.234-.522.324-.522.108,0,.2.18.306.5.288.882.828,2.52,1.386,4.212A.2.2,0,0,1,57.843-6.3ZM70.479-2.07C71.7.108,73.179.162,73.467.162A1.045,1.045,0,0,0,74.619-.9a1.035,1.035,0,0,0-.936-1.062,1.967,1.967,0,0,1-1.476-1.152,19.609,19.609,0,0,0-2.016-3.078c-.126-.144-.252-.234-.252-.306,0-.054.054-.072.18-.108A3.4,3.4,0,0,0,72.747-9.99c0-1.692-1.206-3.4-4.122-3.6-.27-.018-.684-.036-1.1-.036-1.512,0-3.564,0-3.618,2.3-.018.738-.018.81-.018,4.7,0,1.98,0,4.122-.054,5.8v.036a.907.907,0,0,0,.972.9,1,1,0,0,0,1.062-.99c0-.648-.054-3.6-.054-4.95,0-.324.252-.342.594-.342s.756.018.99.018C68.265-6.138,69.327-4.068,70.479-2.07ZM68.571-7.83c-.324.018-.792.036-1.242.036-1.26,0-1.494-.018-1.494-.378.018-1.044,0-2.322.036-2.754.054-.846.7-.9,1.674-.9.342,0,.666,0,.9.018,1.566.09,2.25.972,2.25,1.872A2.216,2.216,0,0,1,68.571-7.83ZM79.065-.756a.974.974,0,0,0,1.08.918c.558,0,1.116-.306,1.08-.936-.054-1.332-.09-3.528-.09-5.688,0-1.764.018-3.51.054-4.734,0-.36,0-.36,1.782-.36.432,0,.954,0,1.566.036h.072a.874.874,0,0,0,.864-.954.909.909,0,0,0-.936-.972c-1.026.018-2.556.036-4.086.036-1.872,0-3.78-.018-4.86-.036h-.036a.925.925,0,0,0-.99.954.959.959,0,0,0,1.026.972c.846,0,1.692-.036,2.376-.036,1.062,0,1.116,0,1.116.36.036.954.036,2.448.036,4.032,0,2.376-.018,4.986-.054,6.39ZM95.517-3.582a4.272,4.272,0,0,0-2.556-3.69c-.828-.45-2.07-1.026-2.808-1.422a1.849,1.849,0,0,1-1.134-1.584,1.66,1.66,0,0,1,1.854-1.53,2.626,2.626,0,0,1,2.07.828,1.143,1.143,0,0,0,.846.432A1.05,1.05,0,0,0,94.8-11.592c0-.846-1.422-2.034-3.906-2.034A3.559,3.559,0,0,0,87-10.206a3.582,3.582,0,0,0,2.3,3.24c.954.432,1.926.972,2.718,1.422a2.376,2.376,0,0,1,1.368,2.016c0,.576-.432,1.926-2.412,1.926a3.1,3.1,0,0,1-2.628-1.206.969.969,0,0,0-.792-.45,1.052,1.052,0,0,0-1.044,1.026c0,.882,1.512,2.556,4.446,2.556C93.879.324,95.517-1.656,95.517-3.582Zm24.21,1.008a1.234,1.234,0,0,0-1.206-1.152,1.048,1.048,0,0,0-.882.468,4.3,4.3,0,0,1-3.456,1.512c-3.8,0-4.68-3.384-4.68-4.9a4.756,4.756,0,0,1,4.662-5.022,3.794,3.794,0,0,1,2.97,1.278,1.153,1.153,0,0,0,.918.486,1.13,1.13,0,0,0,1.1-1.116c0-.972-1.944-2.628-4.806-2.628a6.877,6.877,0,0,0-6.966,7.128,6.613,6.613,0,0,0,6.894,6.84C117.585.324,119.727-1.638,119.727-2.574ZM128.205.342a6.691,6.691,0,0,0,6.948-6.984,6.774,6.774,0,0,0-6.948-6.984,6.759,6.759,0,0,0-6.93,6.984A6.677,6.677,0,0,0,128.205.342Zm0-1.89a4.794,4.794,0,0,1-4.824-5.094,4.815,4.815,0,0,1,4.824-5.13,4.815,4.815,0,0,1,4.824,5.13A4.794,4.794,0,0,1,128.205-1.548ZM143,.324a5.349,5.349,0,0,0,5.436-5.8c-.018-1.134-.036-2.142-.036-3.168,0-1.17.018-2.394.054-3.888v-.036a.952.952,0,0,0-1.044-.918.931.931,0,0,0-1.044.954c.018.774.036,1.566.036,2.358,0,1.584-.036,3.186-.036,4.752a3.476,3.476,0,0,1-3.438,3.726,3.268,3.268,0,0,1-3.258-3.582v-.738c0-1.458-.036-2.934-.036-4.41,0-.7.018-1.4.036-2.106v-.036a.946.946,0,0,0-1.026-.918.915.915,0,0,0-1.044.954c.036,1.044.036,2.124.036,3.222,0,1.314,0,2.646-.018,3.906v.09A5.279,5.279,0,0,0,143,.324ZM158.139-2.07c1.224,2.178,2.7,2.232,2.988,2.232A1.045,1.045,0,0,0,162.279-.9a1.035,1.035,0,0,0-.936-1.062,1.967,1.967,0,0,1-1.476-1.152,19.609,19.609,0,0,0-2.016-3.078c-.126-.144-.252-.234-.252-.306,0-.054.054-.072.18-.108a3.4,3.4,0,0,0,2.628-3.384c0-1.692-1.206-3.4-4.122-3.6-.27-.018-.684-.036-1.1-.036-1.512,0-3.564,0-3.618,2.3-.018.738-.018.81-.018,4.7,0,1.98,0,4.122-.054,5.8v.036a.907.907,0,0,0,.972.9,1,1,0,0,0,1.062-.99c0-.648-.054-3.6-.054-4.95,0-.324.252-.342.594-.342s.756.018.99.018C155.925-6.138,156.987-4.068,158.139-2.07Zm-1.908-5.76c-.324.018-.792.036-1.242.036-1.26,0-1.494-.018-1.494-.378.018-1.044,0-2.322.036-2.754.054-.846.7-.9,1.674-.9.342,0,.666,0,.9.018,1.566.09,2.25.972,2.25,1.872A2.216,2.216,0,0,1,156.231-7.83Zm15.786,4.248a4.272,4.272,0,0,0-2.556-3.69c-.828-.45-2.07-1.026-2.808-1.422a1.849,1.849,0,0,1-1.134-1.584,1.66,1.66,0,0,1,1.854-1.53,2.626,2.626,0,0,1,2.07.828,1.143,1.143,0,0,0,.846.432,1.05,1.05,0,0,0,1.008-1.044c0-.846-1.422-2.034-3.906-2.034a3.559,3.559,0,0,0-3.888,3.42,3.582,3.582,0,0,0,2.3,3.24c.954.432,1.926.972,2.718,1.422a2.376,2.376,0,0,1,1.368,2.016c0,.576-.432,1.926-2.412,1.926a3.1,3.1,0,0,1-2.628-1.206.969.969,0,0,0-.792-.45,1.052,1.052,0,0,0-1.044,1.026c0,.882,1.512,2.556,4.446,2.556C170.379.324,172.017-1.656,172.017-3.582Zm9.324-8.082a.991.991,0,0,0,1.062-.972.959.959,0,0,0-1.008-.954c-.27-.018-1.26-.036-2.286-.036-1.008,0-2.034.018-2.358.036a2.238,2.238,0,0,0-2.43,2.268c-.036,1.134-.054,3.582-.054,5.778,0,1.458,0,2.79.036,3.546.072,1.584,1.1,2.178,2.754,2.3.234.018,1.278.036,2.3.036,1.044,0,2.088-.018,2.322-.036A1.05,1.05,0,0,0,182.817-.7a.913.913,0,0,0-.972-.918h-.09c-.342.018-1.494.036-2.556.036-2.538,0-2.826-.036-2.916-.864-.036-.306-.054-.72-.054-3.4,0-.378.18-.4,2.412-.4.684,0,1.368.018,1.818.054h.09a.954.954,0,0,0,.954-1.026.906.906,0,0,0-1.008-.954c-.324.018-1.188.018-2.016.018-2.214,0-2.232,0-2.232-.36.018-1.044,0-1.926.036-2.358.054-.774.432-.81,2.232-.81C179.739-11.682,181.341-11.664,181.341-11.664Z" transform="translate(675 3047.752)" fill="#fff"/>
    </g>
    <path id="多角形_4" data-name="多角形 4" d="M8,0l8,9H0Z" transform="translate(933.5 3012.752) rotate(90)" fill="#fff"/>
  </g>
</svg>
