<svg xmlns="http://www.w3.org/2000/svg" width="441" height="73" viewBox="0 0 441 73">
  <g id="グループ_155" data-name="グループ 155" transform="translate(-512 -7091.752)">
    <g id="長方形_102" data-name="長方形 102" transform="translate(512 7091.752)" fill="#fff" stroke="#103a8d" stroke-width="2">
      <rect width="441" height="73" stroke="none"/>
      <rect x="1" y="1" width="439" height="71" fill="none"/>
    </g>
    <g id="長方形_104" data-name="長方形 104" transform="translate(512 7091.752)" fill="#003892" stroke="#707070" stroke-width="1">
      <rect width="74" height="73" stroke="none"/>
      <rect x="0.5" y="0.5" width="73" height="72" fill="none"/>
    </g>
    <path id="パス_314" data-name="パス 314" d="M1.7-.984v-.048c-.048-1.488-.048-3-.048-4.488,0-3.432.072-6.648.072-8.568,0-.528,0-.96-.024-1.272A2.556,2.556,0,0,0-1.08-17.928c-.5,0-.7,0-1.176.024A1.4,1.4,0,0,0-3.5-16.44,1.2,1.2,0,0,0-2.28-15.168h.336c.816,0,.936.264.936,3.624,0,3.168-.1,8.28-.1,10.512A1.336,1.336,0,0,0,.312.288,1.292,1.292,0,0,0,1.7-.984Z" transform="translate(549 7137.752)" fill="#fff"/>
    <path id="パス_310" data-name="パス 310" d="M-31.792-23.9a1.842,1.842,0,0,0-1.792,1.888,1.587,1.587,0,0,0,1.728,1.632h.192c.384-.032,8.288-.16,8.512-.16.416,0,.64.192.64.512a1.576,1.576,0,0,1-.16.576c-1.76,3.712-7.392,11.808-8.8,17.216a3.1,3.1,0,0,0-.1.736A1.679,1.679,0,0,0-29.84.288a2.167,2.167,0,0,0,2.08-1.76c1.408-5.888,6.144-12.512,8.768-17.376a4.273,4.273,0,0,0,.544-2.048c0-1.7-1.248-3.008-3.584-3.008Zm19.1,24.48c1.568-4.32,8.1-21.76,8.992-24a1.591,1.591,0,0,0,.1-.512,1.59,1.59,0,0,0-1.664-1.408A1.357,1.357,0,0,0-6.64-24.32c-.7,2.56-7.424,20.16-8.9,23.84a1.484,1.484,0,0,0-.128.608,1.533,1.533,0,0,0,1.6,1.44A1.429,1.429,0,0,0-12.688.576ZM6-14.784A1.672,1.672,0,0,0,4.336-13.12a1.727,1.727,0,0,0,1.7,1.7c.128,0,.288-.032.48-.032H6.8c2.272,0,4.224.992,4.224,4.256A4.47,4.47,0,0,1,6.416-2.848,5.348,5.348,0,0,1,1.744-5.056,1.718,1.718,0,0,0,.5-5.664a1.986,1.986,0,0,0-1.888,1.92c0,1.5,2.88,4.32,7.648,4.32,4.832,0,8.288-3.2,8.288-7.712a6.714,6.714,0,0,0-3.808-6.176,5.121,5.121,0,0,0,2.592-4.7c0-3.584-2.592-6.176-6.656-6.176-2.784,0-6.464,1.856-6.464,3.648A1.877,1.877,0,0,0,2-18.752a1.607,1.607,0,0,0,1.12-.48A4.576,4.576,0,0,1,6.512-20.9a3.053,3.053,0,0,1,3.328,2.88c0,1.888-.928,3.168-2.88,3.232ZM26.1.608c7.744,0,8.032-8.7,8.032-12.32,0-1.376-.1-2.784-.224-4.192-.512-5.344-3.52-8.288-7.808-8.288-4.352,0-7.392,3.072-7.84,8.64-.1,1.312-.16,2.56-.16,3.776,0,1.344.064,2.688.192,4.064C18.8-2.336,21.84.608,26.1.608Zm0-3.36c-2.08,0-3.808-1.888-4.192-5.152a33.149,33.149,0,0,1-.224-4c0-1.152.064-2.336.16-3.52.32-3.424,2.016-5.472,4.256-5.472,4.384,0,4.384,6.336,4.384,8.8a34.134,34.134,0,0,1-.288,4.512C29.744-4.544,28.08-2.752,26.1-2.752Z" transform="translate(652 7140.752)" fill="#003892"/>
    <path id="パス_312" data-name="パス 312" d="M-12.08-13.152a5.609,5.609,0,0,0,2.816-4.864c0-3.232-2.432-6.208-7.232-6.208-3.52,0-7.232,1.792-7.232,6.208a5.53,5.53,0,0,0,2.816,4.864,6.884,6.884,0,0,0-3.968,6.3c0,4.8,3.776,7.456,8.288,7.456,4.032,0,8.48-2.016,8.48-7.456A6.556,6.556,0,0,0-12.08-13.152Zm-.608-4.736c0,.672-.128,3.3-3.9,3.3-2.048,0-3.712-.992-3.712-3.3,0-1.728,1.6-3.2,3.808-3.2C-15.184-21.088-12.688-20.384-12.688-17.888Zm1.12,11.008c0,2.688-2.432,4.224-4.928,4.224s-4.928-1.536-4.928-4.224c0-2.368,1.76-4.48,4.928-4.48C-12.208-11.36-11.568-8.384-11.568-6.88ZM-3.088.576c1.568-4.32,8.1-21.76,8.992-24a1.591,1.591,0,0,0,.1-.512,1.59,1.59,0,0,0-1.664-1.408A1.357,1.357,0,0,0,2.96-24.32c-.7,2.56-7.424,20.16-8.9,23.84a1.484,1.484,0,0,0-.128.608,1.533,1.533,0,0,0,1.6,1.44A1.429,1.429,0,0,0-3.088.576ZM18.768-1.312v-.064c-.064-1.984-.064-4-.064-5.984,0-4.576.1-8.864.1-11.424,0-.7,0-1.28-.032-1.7A3.407,3.407,0,0,0,15.056-23.9c-.672,0-.928,0-1.568.032a1.859,1.859,0,0,0-1.664,1.952,1.593,1.593,0,0,0,1.632,1.7H13.9c1.088,0,1.248.352,1.248,4.832,0,4.224-.128,11.04-.128,14.016A1.781,1.781,0,0,0,16.912.384,1.722,1.722,0,0,0,18.768-1.312Z" transform="translate(837 7140.752)" fill="#003892"/>
    <path id="パス_311" data-name="パス 311" d="M-16.572-1.056A1.2,1.2,0,0,0-15.3.192a1.309,1.309,0,0,0,1.392-1.2v-.864c0-1.536-.024-4.44-.024-5.88,0-.528.36-.528,3.024-.528.864,0,1.7.024,2.3.072h.12A1.272,1.272,0,0,0-7.212-9.576a1.208,1.208,0,0,0-1.344-1.272c-.432.024-1.488.024-2.52.024-2.808,0-2.832,0-2.832-.48.024-1.392,0-2.616.048-3.192.072-1.032.624-1.08,2.928-1.08,1.584,0,3.672.024,3.672.024a1.321,1.321,0,0,0,1.416-1.3A1.279,1.279,0,0,0-7.188-18.12c-.36-.024-1.656-.048-2.976-.048-1.3,0-2.64.024-3.072.048-1.944.1-3.192,1.1-3.24,3.024-.072,2.52-.048,11.16-.1,14.016Zm22.3-1.7C7.356.144,9.324.216,9.708.216A1.394,1.394,0,0,0,11.244-1.2,1.38,1.38,0,0,0,10-2.616,2.622,2.622,0,0,1,8.028-4.152a26.146,26.146,0,0,0-2.688-4.1C5.172-8.448,5-8.568,5-8.664c0-.072.072-.1.24-.144a4.526,4.526,0,0,0,3.5-4.512c0-2.256-1.608-4.536-5.5-4.8-.36-.024-.912-.048-1.464-.048-2.016,0-4.752,0-4.824,3.072-.024.984-.024,1.08-.024,6.264,0,2.64,0,5.5-.072,7.728v.048a1.209,1.209,0,0,0,1.3,1.2A1.334,1.334,0,0,0-.42-1.176c0-.864-.072-4.8-.072-6.6,0-.432.336-.456.792-.456s1.008.024,1.32.024C2.772-8.184,4.188-5.424,5.724-2.76ZM3.18-10.44c-.432.024-1.056.048-1.656.048-1.68,0-1.992-.024-1.992-.5.024-1.392,0-3.1.048-3.672.072-1.128.936-1.2,2.232-1.2.456,0,.888,0,1.2.024,2.088.12,3,1.3,3,2.5A2.954,2.954,0,0,1,3.18-10.44ZM16.476-1.1c-.048-2.952-.072-6.072-.072-9.072,0-2.328.024-4.584.072-6.576V-16.8a1.269,1.269,0,0,0-1.416-1.176c-.432,0-1.512.264-1.464,1.272.072,1.944.12,4.128.12,6.408,0,3.1-.072,6.312-.12,9.192v.024A1.32,1.32,0,0,0,15.036.192a1.32,1.32,0,0,0,1.44-1.272Z" transform="translate(714 7140.752)" fill="#003892"/>
    <path id="パス_313" data-name="パス 313" d="M-12.708-4.776c0-1.776-1.008-3.6-3.408-4.92-1.1-.6-2.76-1.368-3.744-1.9A2.465,2.465,0,0,1-21.372-13.7a2.213,2.213,0,0,1,2.472-2.04,3.5,3.5,0,0,1,2.76,1.1,1.524,1.524,0,0,0,1.128.576,1.4,1.4,0,0,0,1.344-1.392c0-1.128-1.9-2.712-5.208-2.712s-5.184,2.232-5.184,4.56a4.775,4.775,0,0,0,3.072,4.32c1.272.576,2.568,1.3,3.624,1.9A3.168,3.168,0,0,1-15.54-4.7c0,.768-.576,2.568-3.216,2.568a4.126,4.126,0,0,1-3.5-1.608,1.292,1.292,0,0,0-1.056-.6,1.4,1.4,0,0,0-1.392,1.368c0,1.176,2.016,3.408,5.928,3.408C-14.892.432-12.708-2.208-12.708-4.776ZM-2.652.432A7.131,7.131,0,0,0,4.6-7.3c-.024-1.512-.048-2.856-.048-4.224,0-1.56.024-3.192.072-5.184v-.048a1.269,1.269,0,0,0-1.392-1.224A1.242,1.242,0,0,0,1.836-16.7c.024,1.032.048,2.088.048,3.144,0,2.112-.048,4.248-.048,6.336A4.635,4.635,0,0,1-2.748-2.256c-2.184,0-4.344-1.56-4.344-4.776v-.984c0-1.944-.048-3.912-.048-5.88,0-.936.024-1.872.048-2.808v-.048A1.261,1.261,0,0,0-8.46-17.976,1.221,1.221,0,0,0-9.852-16.7c.048,1.392.048,2.832.048,4.3,0,1.752,0,3.528-.024,5.208v.12C-9.828-2.064-6.252.432-2.652.432ZM8.628-.936A1.245,1.245,0,0,0,10.02.216c.7,0,1.368-.36,1.368-1.128V-.96c-.072-2.544-.144-9.624-.144-12.12,0-1.1,0-1.344.144-1.344.12,0,.288.312.384.456,1.3,2.184,5.784,10.392,7.464,13.056A2.447,2.447,0,0,0,21.3.288a2.17,2.17,0,0,0,2.184-2.28V-2.04c-.048-2.088-.072-5.232-.072-8.28,0-2.4.024-4.728.072-6.408v-.048a1.288,1.288,0,0,0-1.392-1.248,1.287,1.287,0,0,0-1.392,1.3c.072,2.208.144,9.7.144,11.952,0,.936-.1,1.008-.168,1.008s-.192-.12-.336-.336C18.516-6.84,14.508-14.328,13-16.728a2.9,2.9,0,0,0-2.352-1.3c-1.056,0-1.992.672-1.992,2.352v.1c.024,1.8.048,4.08.048,6.48,0,2.76-.024,5.664-.072,8.136Z" transform="translate(894 7140.752)" fill="#003892"/>
    <path id="多角形_6" data-name="多角形 6" d="M6.5,0,13,9H0Z" transform="translate(758.5 7124.252) rotate(90)" fill="#ba9b53"/>
    <path id="多角形_7" data-name="多角形 7" d="M6.5,0,13,9H0Z" transform="translate(776.5 7124.252) rotate(90)" fill="#ba9b53"/>
    <path id="多角形_8" data-name="多角形 8" d="M6.5,0,13,9H0Z" transform="translate(794.5 7124.252) rotate(90)" fill="#ba9b53"/>
  </g>
</svg>
