<svg xmlns="http://www.w3.org/2000/svg" width="441" height="73" viewBox="0 0 441 73">
  <g id="グループ_156" data-name="グループ 156" transform="translate(-967 -7091.752)">
    <g id="長方形_106" data-name="長方形 106" transform="translate(967 7091.752)" fill="#fff" stroke="#103a8d" stroke-width="2">
      <rect width="441" height="73" stroke="none"/>
      <rect x="1" y="1" width="439" height="71" fill="none"/>
    </g>
    <g id="長方形_105" data-name="長方形 105" transform="translate(967 7091.752)" fill="#003892" stroke="#707070" stroke-width="1">
      <rect width="74" height="73" stroke="none"/>
      <rect x="0.5" y="0.5" width="73" height="72" fill="none"/>
    </g>
    <path id="パス_319" data-name="パス 319" d="M3.912.144A1.426,1.426,0,0,0,5.424-1.272,1.281,1.281,0,0,0,3.984-2.52c-1.968,0-4.68.192-6.672.216C-.7-4.464,1.656-6.5,3.48-8.808A7.845,7.845,0,0,0,5.472-13.56c0-2.856-2.64-4.584-5.424-4.584-3.768,0-5.592,2.856-5.592,3.7a1.361,1.361,0,0,0,1.416,1.272A1.451,1.451,0,0,0-2.88-13.9,3.5,3.5,0,0,1,.072-15.744a2.4,2.4,0,0,1,2.5,2.448,4.951,4.951,0,0,1-1.344,3.072C-.888-7.632-3.672-4.776-5.328-2.9a2.445,2.445,0,0,0-.7,1.632A1.317,1.317,0,0,0-4.68.144Z" transform="translate(1004 7137.752)" fill="#fff"/>
    <path id="パス_317" data-name="パス 317" d="M-21.68-13.152a5.609,5.609,0,0,0,2.816-4.864c0-3.232-2.432-6.208-7.232-6.208-3.52,0-7.232,1.792-7.232,6.208a5.53,5.53,0,0,0,2.816,4.864,6.884,6.884,0,0,0-3.968,6.3c0,4.8,3.776,7.456,8.288,7.456,4.032,0,8.48-2.016,8.48-7.456A6.556,6.556,0,0,0-21.68-13.152Zm-.608-4.736c0,.672-.128,3.3-3.9,3.3-2.048,0-3.712-.992-3.712-3.3,0-1.728,1.6-3.2,3.808-3.2C-24.784-21.088-22.288-20.384-22.288-17.888Zm1.12,11.008c0,2.688-2.432,4.224-4.928,4.224s-4.928-1.536-4.928-4.224c0-2.368,1.76-4.48,4.928-4.48C-21.808-11.36-21.168-8.384-21.168-6.88Zm8.48,7.456c1.568-4.32,8.1-21.76,8.992-24a1.591,1.591,0,0,0,.1-.512,1.59,1.59,0,0,0-1.664-1.408A1.357,1.357,0,0,0-6.64-24.32c-.7,2.56-7.424,20.16-8.9,23.84a1.484,1.484,0,0,0-.128.608,1.533,1.533,0,0,0,1.6,1.44A1.429,1.429,0,0,0-12.688.576ZM9.168-1.312v-.064C9.1-3.36,9.1-5.376,9.1-7.36c0-4.576.1-8.864.1-11.424,0-.7,0-1.28-.032-1.7A3.407,3.407,0,0,0,5.456-23.9c-.672,0-.928,0-1.568.032A1.859,1.859,0,0,0,2.224-21.92a1.593,1.593,0,0,0,1.632,1.7H4.3c1.088,0,1.248.352,1.248,4.832,0,4.224-.128,11.04-.128,14.016A1.781,1.781,0,0,0,7.312.384,1.722,1.722,0,0,0,9.168-1.312ZM25.2-14.784a1.672,1.672,0,0,0-1.664,1.664,1.727,1.727,0,0,0,1.7,1.7c.128,0,.288-.032.48-.032H26c2.272,0,4.224.992,4.224,4.256a4.47,4.47,0,0,1-4.608,4.352,5.348,5.348,0,0,1-4.672-2.208A1.718,1.718,0,0,0,19.7-5.664a1.986,1.986,0,0,0-1.888,1.92c0,1.5,2.88,4.32,7.648,4.32,4.832,0,8.288-3.2,8.288-7.712a6.714,6.714,0,0,0-3.808-6.176,5.121,5.121,0,0,0,2.592-4.7c0-3.584-2.592-6.176-6.656-6.176-2.784,0-6.464,1.856-6.464,3.648A1.877,1.877,0,0,0,21.2-18.752a1.607,1.607,0,0,0,1.12-.48A4.576,4.576,0,0,1,25.712-20.9a3.053,3.053,0,0,1,3.328,2.88c0,1.888-.928,3.168-2.88,3.232Z" transform="translate(1105 7140.752)" fill="#003892"/>
    <path id="パス_316" data-name="パス 316" d="M-21.68-13.152a5.609,5.609,0,0,0,2.816-4.864c0-3.232-2.432-6.208-7.232-6.208-3.52,0-7.232,1.792-7.232,6.208a5.53,5.53,0,0,0,2.816,4.864,6.884,6.884,0,0,0-3.968,6.3c0,4.8,3.776,7.456,8.288,7.456,4.032,0,8.48-2.016,8.48-7.456A6.556,6.556,0,0,0-21.68-13.152Zm-.608-4.736c0,.672-.128,3.3-3.9,3.3-2.048,0-3.712-.992-3.712-3.3,0-1.728,1.6-3.2,3.808-3.2C-24.784-21.088-22.288-20.384-22.288-17.888Zm1.12,11.008c0,2.688-2.432,4.224-4.928,4.224s-4.928-1.536-4.928-4.224c0-2.368,1.76-4.48,4.928-4.48C-21.808-11.36-21.168-8.384-21.168-6.88Zm8.48,7.456c1.568-4.32,8.1-21.76,8.992-24a1.591,1.591,0,0,0,.1-.512,1.59,1.59,0,0,0-1.664-1.408A1.357,1.357,0,0,0-6.64-24.32c-.7,2.56-7.424,20.16-8.9,23.84a1.484,1.484,0,0,0-.128.608,1.533,1.533,0,0,0,1.6,1.44A1.429,1.429,0,0,0-12.688.576ZM9.168-1.312v-.064C9.1-3.36,9.1-5.376,9.1-7.36c0-4.576.1-8.864.1-11.424,0-.7,0-1.28-.032-1.7A3.407,3.407,0,0,0,5.456-23.9c-.672,0-.928,0-1.568.032A1.859,1.859,0,0,0,2.224-21.92a1.593,1.593,0,0,0,1.632,1.7H4.3c1.088,0,1.248.352,1.248,4.832,0,4.224-.128,11.04-.128,14.016A1.781,1.781,0,0,0,7.312.384,1.722,1.722,0,0,0,9.168-1.312Zm24.672-6.5c0-3.488-2.016-7.36-7.744-7.36a11.746,11.746,0,0,0-2.4.224,6.439,6.439,0,0,1-.736.16c-.192,0-.256-.1-.256-.352v-.224c.1-.64.576-3.2.736-4.32.1-.576.352-.864.96-.864.96,0,5.28.032,6.176.032a1.576,1.576,0,0,0,1.632-1.632,1.652,1.652,0,0,0-1.7-1.728c-5.248,0-5.728,0-6.656-.032h-.224c-2.048,0-2.784.8-3.1,2.56-.48,2.816-1.12,7.776-1.12,8.032,0,1.536.9,2.176,2.3,2.176.16,0,.32-.032.48-.032a4.151,4.151,0,0,0,1.248-.448,8.222,8.222,0,0,1,2.528-.448,4.132,4.132,0,0,1,4.384,4.288,4.814,4.814,0,0,1-5.088,4.864A6.667,6.667,0,0,1,20.88-4.576a1.8,1.8,0,0,0-1.12-.48A1.774,1.774,0,0,0,18.1-3.232C18.1-1.12,22.16.416,25.1.416,30.352.416,33.84-3.136,33.84-7.808Z" transform="translate(1292 7140.752)" fill="#003892"/>
    <path id="パス_318" data-name="パス 318" d="M-16.572-1.056A1.2,1.2,0,0,0-15.3.192a1.309,1.309,0,0,0,1.392-1.2v-.864c0-1.536-.024-4.44-.024-5.88,0-.528.36-.528,3.024-.528.864,0,1.7.024,2.3.072h.12A1.272,1.272,0,0,0-7.212-9.576a1.208,1.208,0,0,0-1.344-1.272c-.432.024-1.488.024-2.52.024-2.808,0-2.832,0-2.832-.48.024-1.392,0-2.616.048-3.192.072-1.032.624-1.08,2.928-1.08,1.584,0,3.672.024,3.672.024a1.321,1.321,0,0,0,1.416-1.3A1.279,1.279,0,0,0-7.188-18.12c-.36-.024-1.656-.048-2.976-.048-1.3,0-2.64.024-3.072.048-1.944.1-3.192,1.1-3.24,3.024-.072,2.52-.048,11.16-.1,14.016Zm22.3-1.7C7.356.144,9.324.216,9.708.216A1.394,1.394,0,0,0,11.244-1.2,1.38,1.38,0,0,0,10-2.616,2.622,2.622,0,0,1,8.028-4.152a26.146,26.146,0,0,0-2.688-4.1C5.172-8.448,5-8.568,5-8.664c0-.072.072-.1.24-.144a4.526,4.526,0,0,0,3.5-4.512c0-2.256-1.608-4.536-5.5-4.8-.36-.024-.912-.048-1.464-.048-2.016,0-4.752,0-4.824,3.072-.024.984-.024,1.08-.024,6.264,0,2.64,0,5.5-.072,7.728v.048a1.209,1.209,0,0,0,1.3,1.2A1.334,1.334,0,0,0-.42-1.176c0-.864-.072-4.8-.072-6.6,0-.432.336-.456.792-.456s1.008.024,1.32.024C2.772-8.184,4.188-5.424,5.724-2.76ZM3.18-10.44c-.432.024-1.056.048-1.656.048-1.68,0-1.992-.024-1.992-.5.024-1.392,0-3.1.048-3.672.072-1.128.936-1.2,2.232-1.2.456,0,.888,0,1.2.024,2.088.12,3,1.3,3,2.5A2.954,2.954,0,0,1,3.18-10.44ZM16.476-1.1c-.048-2.952-.072-6.072-.072-9.072,0-2.328.024-4.584.072-6.576V-16.8a1.269,1.269,0,0,0-1.416-1.176c-.432,0-1.512.264-1.464,1.272.072,1.944.12,4.128.12,6.408,0,3.1-.072,6.312-.12,9.192v.024A1.32,1.32,0,0,0,15.036.192a1.32,1.32,0,0,0,1.44-1.272Z" transform="translate(1167 7140.752)" fill="#003892"/>
    <path id="パス_315" data-name="パス 315" d="M-12.708-4.776c0-1.776-1.008-3.6-3.408-4.92-1.1-.6-2.76-1.368-3.744-1.9A2.465,2.465,0,0,1-21.372-13.7a2.213,2.213,0,0,1,2.472-2.04,3.5,3.5,0,0,1,2.76,1.1,1.524,1.524,0,0,0,1.128.576,1.4,1.4,0,0,0,1.344-1.392c0-1.128-1.9-2.712-5.208-2.712s-5.184,2.232-5.184,4.56a4.775,4.775,0,0,0,3.072,4.32c1.272.576,2.568,1.3,3.624,1.9A3.168,3.168,0,0,1-15.54-4.7c0,.768-.576,2.568-3.216,2.568a4.126,4.126,0,0,1-3.5-1.608,1.292,1.292,0,0,0-1.056-.6,1.4,1.4,0,0,0-1.392,1.368c0,1.176,2.016,3.408,5.928,3.408C-14.892.432-12.708-2.208-12.708-4.776ZM-2.652.432A7.131,7.131,0,0,0,4.6-7.3c-.024-1.512-.048-2.856-.048-4.224,0-1.56.024-3.192.072-5.184v-.048a1.269,1.269,0,0,0-1.392-1.224A1.242,1.242,0,0,0,1.836-16.7c.024,1.032.048,2.088.048,3.144,0,2.112-.048,4.248-.048,6.336A4.635,4.635,0,0,1-2.748-2.256c-2.184,0-4.344-1.56-4.344-4.776v-.984c0-1.944-.048-3.912-.048-5.88,0-.936.024-1.872.048-2.808v-.048A1.261,1.261,0,0,0-8.46-17.976,1.221,1.221,0,0,0-9.852-16.7c.048,1.392.048,2.832.048,4.3,0,1.752,0,3.528-.024,5.208v.12C-9.828-2.064-6.252.432-2.652.432ZM8.628-.936A1.245,1.245,0,0,0,10.02.216c.7,0,1.368-.36,1.368-1.128V-.96c-.072-2.544-.144-9.624-.144-12.12,0-1.1,0-1.344.144-1.344.12,0,.288.312.384.456,1.3,2.184,5.784,10.392,7.464,13.056A2.447,2.447,0,0,0,21.3.288a2.17,2.17,0,0,0,2.184-2.28V-2.04c-.048-2.088-.072-5.232-.072-8.28,0-2.4.024-4.728.072-6.408v-.048a1.288,1.288,0,0,0-1.392-1.248,1.287,1.287,0,0,0-1.392,1.3c.072,2.208.144,9.7.144,11.952,0,.936-.1,1.008-.168,1.008s-.192-.12-.336-.336C18.516-6.84,14.508-14.328,13-16.728a2.9,2.9,0,0,0-2.352-1.3c-1.056,0-1.992.672-1.992,2.352v.1c.024,1.8.048,4.08.048,6.48,0,2.76-.024,5.664-.072,8.136Z" transform="translate(1360 7140.752)" fill="#003892"/>
    <path id="多角形_10" data-name="多角形 10" d="M6.5,0,13,9H0Z" transform="translate(1211.5 7124.252) rotate(90)" fill="#ba9b53"/>
    <path id="多角形_11" data-name="多角形 11" d="M6.5,0,13,9H0Z" transform="translate(1229.5 7124.252) rotate(90)" fill="#ba9b53"/>
    <path id="多角形_12" data-name="多角形 12" d="M6.5,0,13,9H0Z" transform="translate(1247.5 7124.252) rotate(90)" fill="#ba9b53"/>
  </g>
</svg>
