<svg xmlns="http://www.w3.org/2000/svg" viewBox="0 0 36 36"><defs><style>.cls-1{fill:#002449;}.cls-2{fill:#fff;}</style></defs><title>アセット 2</title><g id="レイヤー_2" data-name="レイヤー 2"><g id="背景"><rect class="cls-1" width="36" height="36"/><path class="cls-2" d="M25.38,14.83v.5a11,11,0,0,1-17,9.27,7,7,0,0,0,.93.06A7.73,7.73,0,0,0,14.16,23a3.88,3.88,0,0,1-3.61-2.69,3.54,3.54,0,0,0,.73.07,3.68,3.68,0,0,0,1-.14,3.87,3.87,0,0,1-3.1-3.79V16.4a3.85,3.85,0,0,0,1.75.48,3.85,3.85,0,0,1-1.72-3.21,3.8,3.8,0,0,1,.53-1.95,11,11,0,0,0,8,4,3.65,3.65,0,0,1-.1-.88,3.88,3.88,0,0,1,6.7-2.65,7.78,7.78,0,0,0,2.46-.93,3.87,3.87,0,0,1-1.71,2.14,7.84,7.84,0,0,0,2.23-.62,8,8,0,0,1-1.93,2Z"/></g></g></svg>