<svg xmlns="http://www.w3.org/2000/svg" width="82.5" height="82.5" viewBox="0 0 82.5 82.5"><g transform="translate(-126.989 -133.808)"><rect width="82.5" height="82.5" transform="translate(126.989 133.808)" fill="#ffec00"/><g transform="translate(135.837 141.662)"><path d="M288.249,190.352,284,188.445l11.028-24.578H280.139l-2.909,6.476-4.25-1.909,4.144-9.226h25.1Z" transform="translate(-236.686 -159.208)" fill="#002c83"/><path d="M288.249,309.027,284,307.12l11.028-24.578H280.139l-2.909,6.475-4.25-1.909,4.144-9.226h25.1Z" transform="translate(-236.686 -241.187)" fill="#002c83"/><g transform="translate(0 0.19)"><rect width="4.659" height="10.105" transform="translate(0 2.5) rotate(-22.314)" fill="#002c83"/><rect width="4.659" height="10.105" transform="translate(9.726 1.769) rotate(-22.314)" fill="#002c83"/><rect width="30.878" height="4.659" transform="translate(15.127 29.045) rotate(-65.799)" fill="#002c83"/></g><g transform="translate(0.415 34.485)"><path d="M181.872,286.594l-3.549-5.757-3.526,2.174,2.209,3.583h-5.552l1.927-4.31-4.254-1.9-2.777,6.212h-9.005v4.659h6.922l-7.323,16.378,4.254,1.9,8.173-18.28h11.721l-3.722,18.077,4.563.939,4.876-23.676Z" transform="translate(-156.944 -277.399)" fill="#002c83"/><rect width="4.142" height="6.941" transform="translate(24.035 2.174) rotate(-31.657)" fill="#002c83"/></g></g></g></svg>