<svg xmlns="http://www.w3.org/2000/svg" width="287.215" height="60.364" viewBox="0 0 287.215 60.364">
  <g id="グループ_154" data-name="グループ 154" transform="translate(-472 -55)">
    <g id="レイヤー_2" data-name="レイヤー 2" transform="translate(542.197 55)">
      <g id="レイヤー_1" data-name="レイヤー 1" transform="translate(-0.01 0)">
        <path id="パス_244" data-name="パス 244" d="M51.555,14.869l5.195,4.338-1.14,1.379-5.195-4.338Z" transform="translate(34.138 10.063)" fill="#231815"/>
        <path id="パス_245" data-name="パス 245" d="M51.555,18.789,56.75,23.1l-1.14,1.409L50.415,20.19Z" transform="translate(34.138 12.716)" fill="#231815"/>
        <path id="パス_246" data-name="パス 246" d="M55.36,23.727l1.379,1.111-5.016,6.313-1.4-1.118Z" transform="translate(34.075 16.058)" fill="#231815"/>
        <path id="パス_247" data-name="パス 247" d="M61.493,14.5h1.766v3.265h6.879V22.75H68.424V19.538H63.311V22.7h-1.8v-3.16H56.559V24.01h13.55v1.707l-5.888,5.038,5.963,5.173L69.013,37.3l-6.2-5.374-6.291,5.419H54.762V17.764H61.47Zm1.319,15.056,4.472-3.727H58.429Zm-6.283,5.4,4.882-4.211-4.882-4.233Z" transform="translate(37.08 9.813)" fill="#231815"/>
        <path id="パス_248" data-name="パス 248" d="M33.96,14.5v7.938h1.774V19.173h3.883V22.43h1.789V19.18h3.2V17.362H35.741V14.5Z" transform="translate(23.001 9.813)" fill="#231815"/>
        <path id="パス_249" data-name="パス 249" d="M41.116,14.5v7.938H42.9V19.173h3.876V22.43h1.8V19.18h3.436V17.362H42.9V14.5Z" transform="translate(27.844 9.813)" fill="#231815"/>
        <path id="パス_250" data-name="パス 250" d="M34.214,20.149h9.555v1.819H40.08v8.154L44.1,29.056l.462,1.714L34.549,33.483l-.47-1.714,4.211-1.185V21.938H34.214Z" transform="translate(23.082 13.637)" fill="#231815"/>
        <path id="パス_251" data-name="パス 251" d="M41.143,20.131H51.965V33.585H50.2V21.95H42.909v11.6H41.143Z" transform="translate(27.862 13.625)" fill="#231815"/>
        <path id="パス_252" data-name="パス 252" d="M44.028,22.905l4.39,4.308-1.245,1.3L42.783,24.2Z" transform="translate(28.973 15.502)" fill="#231815"/>
        <path id="パス_253" data-name="パス 253" d="M83.04,14.873h6.238v1.766l-3.153,5.918,3.257,6.022v1.766H84.777v6.8H83.01Zm1.8,6.365,2.393-4.561H84.844Zm-.067,7.312h2.556l-2.519-4.673Z" transform="translate(56.198 10.066)" fill="#231815"/>
        <path id="パス_254" data-name="パス 254" d="M94.045,14.482h1.781v2.325h7.028v5.016h-1.729V18.589H89.1v3.354H87.344V16.807h6.7Z" transform="translate(59.131 9.801)" fill="#231815"/>
        <path id="パス_255" data-name="パス 255" d="M89.153,17.86h9.607v1.714H89.168Z" transform="translate(60.355 12.087)" fill="#231815"/>
        <path id="パス_256" data-name="パス 256" d="M96.336,31.269l-.052-9.3h-2.43l-4.569,11.65-1.662-.656,4.323-10.994h-4.33v-1.8h14.661V22H98.065v8.944a.745.745,0,0,0,.745.745h3.92v1.789H98.8a2.288,2.288,0,0,1-2.467-2.214Z" transform="translate(59.315 13.652)" fill="#231815"/>
        <path id="パス_257" data-name="パス 257" d="M109.97,14.482h1.737v6.44h10.546v1.766H111.915L122.253,36.32l-1.424,1.118L110.8,24.171,100.765,37.3l-1.424-1.088L109.679,22.7H99.445V20.921H109.94Z" transform="translate(67.251 9.801)" fill="#231815"/>
        <path id="パス_258" data-name="パス 258" d="M38.354,33.021h-1.64v3.727H35.582V33.021h-1.64v-.835h4.412Z" transform="translate(22.989 21.783)" fill="#231815"/>
        <path id="パス_259" data-name="パス 259" d="M41.385,33.4a3.518,3.518,0,0,0-1.438-.4c-.4,0-.663.142-.663.373,0,.678,2.3.492,2.3,2.072,0,.865-.745,1.371-1.737,1.371a3.138,3.138,0,0,1-1.632-.432v-.984a2.646,2.646,0,0,0,1.543.581c.432,0,.671-.157.671-.417,0-.745-2.311-.477-2.311-2.1,0-.745.678-1.3,1.729-1.3a3.607,3.607,0,0,1,1.535.358Z" transform="translate(25.817 21.759)" fill="#231815"/>
        <path id="パス_260" data-name="パス 260" d="M46.4,32.186v2.571c0,1.491-1.021,2.02-2.236,2.02a1.974,1.974,0,0,1-2.236-2.012V32.186h1.133v2.609a1.021,1.021,0,0,0,1.118,1.043,1.051,1.051,0,0,0,1.155-1.125V32.186Z" transform="translate(28.392 21.783)" fill="#231815"/>
        <path id="パス_261" data-name="パス 261" d="M48.779,34.31l2,2.407H49.36l-1.789-2.124v2.124H46.446V32.186h1.125v2.057h0L49,32.186h1.237Z" transform="translate(31.451 21.783)" fill="#231815"/>
        <path id="パス_262" data-name="パス 262" d="M55.047,32.186v2.571c0,1.491-1.021,2.02-2.236,2.02a1.974,1.974,0,0,1-2.236-2.012V32.186H51.7v2.609a1.029,1.029,0,0,0,1.125,1.043,1.043,1.043,0,0,0,1.148-1.125V32.186Z" transform="translate(34.246 21.783)" fill="#231815"/>
        <path id="パス_263" data-name="パス 263" d="M57.067,32.186c1.073,0,1.491.634,1.491,1.14a1.029,1.029,0,0,1-.611.9,1.178,1.178,0,0,1,.954,1.163c0,.522-.276,1.327-1.6,1.327H55.069V32.186Zm-.827,1.8h.6a.5.5,0,0,0,.574-.492c0-.231-.164-.477-.574-.477h-.6Zm0,1.9h.634c.626,0,.85-.164.85-.559s-.3-.514-.693-.514h-.79Z" transform="translate(37.288 21.783)" fill="#231815"/>
        <path id="パス_264" data-name="パス 264" d="M63.989,36.718H62.774l-.373-.894H60.374l-.343.894H58.838l1.826-4.532h1.312Zm-2.646-3.443-.671,1.759h1.4Z" transform="translate(39.839 21.783)" fill="#231815"/>
        <path id="パス_265" data-name="パス 265" d="M70.282,33.515a3.935,3.935,0,0,0-1.7-.417c-1.23,0-1.662.745-1.662,1.424a1.394,1.394,0,0,0,1.573,1.342,1.774,1.774,0,0,0,.745-.157v-.537h-.663v-.835h1.789V36.19a2.981,2.981,0,0,1-1.908.611,2.354,2.354,0,1,1,.03-4.651,4.353,4.353,0,0,1,1.789.373Z" transform="translate(44.517 21.759)" fill="#231815"/>
        <path id="パス_266" data-name="パス 266" d="M75.212,36.718H74l-.373-.894H71.6l-.335.894h-1.2l1.826-4.532H73.2Zm-2.631-3.443-.663,1.759h1.409Z" transform="translate(47.435 21.783)" fill="#231815"/>
        <path id="パス_267" data-name="パス 267" d="M77.052,34.31l2,2.407H77.633l-1.8-2.124v2.124H74.711V32.186h1.125v2.057h0l1.431-2.057h1.245Z" transform="translate(50.581 21.783)" fill="#231815"/>
        <path id="パス_268" data-name="パス 268" d="M83.317,32.186v2.571c0,1.491-1.021,2.02-2.236,2.02a1.974,1.974,0,0,1-2.236-2.012V32.186h1.133v2.609A1.021,1.021,0,0,0,81.1,35.838a1.051,1.051,0,0,0,1.155-1.125V32.186Z" transform="translate(53.379 21.783)" fill="#231815"/>
        <path id="パス_269" data-name="パス 269" d="M84.514,36.718H83.388V32.186h1.125Z" transform="translate(56.454 21.783)" fill="#231815"/>
        <path id="パス_270" data-name="パス 270" d="M90.541,36.718h-.947l-2.512-2.9v2.9H85.957V32.186h1.036L89.4,34.959V32.186h1.133Z" transform="translate(58.193 21.783)" fill="#231815"/>
        <path id="パス_271" data-name="パス 271" d="M97.421,32.186v2.571c0,1.491-1.021,2.02-2.236,2.02a1.974,1.974,0,0,1-2.236-2.012V32.186h1.133v2.609A1.021,1.021,0,0,0,95.2,35.838a1.051,1.051,0,0,0,1.148-1.125V32.186Z" transform="translate(62.925 21.783)" fill="#231815"/>
        <path id="パス_272" data-name="パス 272" d="M102.054,36.718h-.947l-2.5-2.9v2.9H97.47V32.186h1.036l2.422,2.773V32.186h1.125Z" transform="translate(65.984 21.783)" fill="#231815"/>
        <path id="パス_273" data-name="パス 273" d="M103.242,36.718H102.1V32.186h1.14Z" transform="translate(69.119 21.783)" fill="#231815"/>
        <path id="パス_274" data-name="パス 274" d="M107.067,36.777h-.5l-2.2-4.591h1.23l1.2,2.586,1.14-2.586h1.222Z" transform="translate(70.653 21.783)" fill="#231815"/>
        <path id="パス_275" data-name="パス 275" d="M112.151,36.718H108.8V32.186H112.1v.835h-2.161v.947H112V34.8h-2.065v1.088h2.236Z" transform="translate(73.655 21.783)" fill="#231815"/>
        <path id="パス_276" data-name="パス 276" d="M114.607,32.189a1.356,1.356,0,0,1,1.491,1.3,1.17,1.17,0,0,1-.783,1.111c.47.231.6.79,1.245,2.117h-1.245c-.484-.969-.663-1.841-1.275-1.841h-.328v1.841h-1.125V32.189Zm-.9,1.863h.6c.313,0,.619-.134.619-.522s-.216-.507-.641-.507h-.574Z" transform="translate(76.215 21.781)" fill="#231815"/>
        <path id="パス_277" data-name="パス 277" d="M119.67,33.4a3.578,3.578,0,0,0-1.438-.4c-.4,0-.671.142-.671.373,0,.678,2.311.492,2.311,2.072,0,.865-.745,1.371-1.744,1.371a3.16,3.16,0,0,1-1.632-.432v-.984a2.668,2.668,0,0,0,1.543.581c.44,0,.671-.157.671-.417,0-.745-2.3-.477-2.3-2.1,0-.745.671-1.3,1.722-1.3a3.667,3.667,0,0,1,1.543.358Z" transform="translate(78.8 21.759)" fill="#231815"/>
        <path id="パス_278" data-name="パス 278" d="M121.361,36.718h-1.133V32.186h1.133Z" transform="translate(81.387 21.783)" fill="#231815"/>
        <path id="パス_279" data-name="パス 279" d="M127.005,33.021h-1.64v3.727h-1.133V33.021h-1.64v-.835H127Z" transform="translate(82.987 21.783)" fill="#231815"/>
        <path id="パス_280" data-name="パス 280" d="M128.394,34.6l-1.8-2.415h1.379l1,1.424.991-1.424h1.364L129.542,34.6v2.117h-1.125Z" transform="translate(85.698 21.783)" fill="#231815"/>
        <path id="パス_281" data-name="パス 281" d="M66.684,18.231H71.1V14.482h1.759v3.749h4.33V14.489h1.759v3.742h4.718V14.489h1.759v3.742h4.211v4.584h-1.8v-2.78H68.487v2.7h-1.8Z" transform="translate(45.148 9.801)" fill="#231815"/>
        <path id="パス_282" data-name="パス 282" d="M77.331,31.333s-.045.939-.894.939H72.747v1.819H76.3a2.773,2.773,0,0,0,2.981-2.84v-4.86h10.04V24.551H80.3L85.1,21.227V19.438H71.271v1.737H82.533L77.5,24.551H66.777v1.8H77.316v4.964" transform="translate(45.212 13.155)" fill="#231815"/>
        <path id="パス_283" data-name="パス 283" d="M115.5,18.231h4.412V14.482h1.759v3.749H126V14.489h1.766v3.742h4.711V14.489h1.766v3.742h4.2v4.584h-1.8v-2.78H117.3v2.7h-1.8Z" transform="translate(78.189 9.801)" fill="#231815"/>
        <path id="パス_284" data-name="パス 284" d="M126.146,31.333s-.045.976-.9.976h-3.682v1.819h3.54a2.78,2.78,0,0,0,2.981-2.84v-4.9h10.032V24.551h-9l4.807-3.324V19.438H120.094v1.737h11.262l-5.046,3.376H115.592v1.8h10.539v4.964" transform="translate(78.249 13.155)" fill="#231815"/>
        <path id="パス_285" data-name="パス 285" d="M11.112,22.349c-1.684-1.021-2.668-2.37-2.5-3.727.313-2.4,4.36-3.727,8.72-2.594,2.236.566,9.54,3.585,11.068,4.152-.745-1.975-11.12-6.566-16.077-7.2-6.462-.82-11.97.6-12.32,3.19S4.65,21.522,11.112,22.349ZM34.658,12.13c1.692,1.029,2.676,2.378,2.5,3.727-.313,2.4-4.554,3.727-8.72,2.594-2.236-.611-9.54-3.585-11.076-4.152.745,1.975,11.128,6.566,16.084,7.2,6.462.827,11.97-.6,12.305-3.175S41.12,12.965,34.658,12.13ZM29.291,34.274c-.745,2.743-2.817,5.568-4.137,5.583-2.355,0-3.406-6.753-3.272-13.58.1-5.769.559-6.708.671-9.056-1.96,2.981-3.145,9.458-3.115,17.046.052,9.9,2.147,17.888,4.688,17.888S29.343,44.128,29.291,34.274Z" transform="translate(0.01 8.21)" fill="#003892"/>
        <path id="パス_286" data-name="パス 286" d="M11.026,2.044H8.157v-.85h2.87V.031h.842c.164,0,.261,0,.261.082s0,.06-.164.186a.179.179,0,0,0-.06.134v.745H14.8v.865H11.906V3.087h3.466v.835H12.159a11.828,11.828,0,0,0,3.175,2.87l-.745.745a13.61,13.61,0,0,1-2.661-2.594V7.827h-.9V4.92A12.365,12.365,0,0,1,8.388,7.47l-.745-.745A10.055,10.055,0,0,0,10.773,3.9H7.605V3.087h3.421Z" transform="translate(5.165 0.021)" fill="#003892"/>
        <path id="パス_287" data-name="パス 287" d="M17.55.106c.134,0,.253,0,.253.119s0,.067-.119.134A.179.179,0,0,0,17.6.516V1h2.981v.85h-1.6l.745.328c.186.082.2.089.2.134s-.067.082-.246.142a.246.246,0,0,0-.119.112,11.544,11.544,0,0,1-.47,1.066h1.834v.82H18.153a8.571,8.571,0,0,0,2.735,2.325l-.82.745A11.3,11.3,0,0,1,17.6,5.2V7.73h-.9V5.122a12.857,12.857,0,0,1-2.713,2.571l-.745-.745a10.174,10.174,0,0,0,2.832-2.5h-2.75v-.82h1.811a7.453,7.453,0,0,0-.671-1.416l.745-.373H13.719V1H16.7V.031ZM15.269,1.85a12.529,12.529,0,0,1,.745,1.491l-.477.261h1.155V1.85Zm2.333,0V3.631h1.014l-.447-.224a7.453,7.453,0,0,0,.686-1.558Z" transform="translate(8.979 0.021)" fill="#003892"/>
        <path id="パス_288" data-name="パス 288" d="M24.842,3.737l-1.811.693c0,.589.082,1.215.089,1.789H22.114c.045-1.155.045-1.185.045-1.409-.32.164-1.245.619-1.245,1.319s.745.745,1.26.745a10.718,10.718,0,0,0,2.3-.313v.961a11.568,11.568,0,0,1-2.012.186c-1.021,0-2.475-.112-2.475-1.364s1.3-1.916,2.124-2.363a.745.745,0,0,0-.7-.634c-.82,0-1.55,1.036-1.96,1.677l-.82-.537A9.212,9.212,0,0,0,20.407,2.1a9.828,9.828,0,0,1-1.26,0l-.127-.932a10.114,10.114,0,0,0,1.163.089h.611A8.437,8.437,0,0,0,21.16.062l.865.157c.32.052.32.089.32.134s0,.06-.194.186a5.022,5.022,0,0,0-.306.6A7.4,7.4,0,0,0,23.679.7l-.1.954a18.633,18.633,0,0,1-2.147.335,5.172,5.172,0,0,1-.462.745,2.079,2.079,0,0,1,.745-.149,1.125,1.125,0,0,1,1.23,1.021A8.2,8.2,0,0,0,24.5,2.783Z" transform="translate(12.628 0.042)" fill="#003892"/>
        <path id="パス_289" data-name="パス 289" d="M30.162.775c.119.075.2.157.2.224s-.075.089-.261.1-.171.112-.239.216a13.087,13.087,0,0,1-.835,1.058h2.139v.745H28.187a8.675,8.675,0,0,1-.961.745,13.654,13.654,0,0,0,2.355-.552l.388.6a.373.373,0,0,1,.075.179.082.082,0,0,1-.082.082h-.186c-.045,0-.224.052-.268.06a19.438,19.438,0,0,1-3.16.484,1.69,1.69,0,0,1-.1.32h3.622l.313.335c-.745,2.176-.865,2.512-2.855,2.549l-.35-.865c1.252,0,1.394,0,1.647-.313a3.071,3.071,0,0,0,.455-.924H26.048c-.1.291-.1.358-.253.872l-.917-.186c.112-.306.231-.648.477-1.565-.648.276-1.066.425-1.424.552l-.6-.745a11.336,11.336,0,0,0,3.54-1.625H23.521V2.377H26.5v-.7H24.393V.932h2.079V.022l.827.06c.209,0,.335,0,.335.127s-.082.1-.194.179a.164.164,0,0,0-.082.149V.894h1.23v.663a7.334,7.334,0,0,0,.82-1.215Zm-2.333,1.6a5.962,5.962,0,0,0,.663-.693H27.36V2.37Z" transform="translate(15.805 0.015)" fill="#003892"/>
        <path id="パス_290" data-name="パス 290" d="M35.042,7.453a5.5,5.5,0,0,1-1.491.171c-1.133,0-1.491-.142-1.491-.82,0-.179.089-.991.089-1.148a.358.358,0,0,0-.358-.4,1,1,0,0,0-.574.231,24.758,24.758,0,0,0-1.61,2.02l-.991-.6a18.089,18.089,0,0,0,3.272-3.824,10.2,10.2,0,0,1-2.407.4l-.216-1.006a8.944,8.944,0,0,0,3.853-.708l.566.8c-.4.283-.5.417-1.6,1.848.529,0,1.006-.052,1.006.678,0,.179-.075.954-.075,1.111,0,.32.052.477.581.477a3.92,3.92,0,0,0,1.438-.268ZM32.9,1.2a7.379,7.379,0,0,1-2.43-.283L30.517,0a6.059,6.059,0,0,0,1.945.306h.477Z" transform="translate(19.385 0)" fill="#003892"/>
        <path id="パス_291" data-name="パス 291" d="M33.217,4.745a15.756,15.756,0,0,0,3.235-3.294c-.9.112-1.178.142-2.124.2L34.164.6c.246,0,.678.045.924.045A10.04,10.04,0,0,0,37.973.213l.41.7A13.788,13.788,0,0,0,36.4,2.934a2.661,2.661,0,0,1,.745-.1,1.923,1.923,0,0,1,2.109,2.057A2.611,2.611,0,0,1,36.4,7.443c-.6,0-1.826-.149-1.826-1.289A1.222,1.222,0,0,1,35.96,4.946a1.774,1.774,0,0,1,1.707,1.17,1.491,1.491,0,0,0,.641-1.23c0-.507-.2-1.245-1.431-1.245S35,4.387,33.97,5.483Zm2.743.961a.477.477,0,0,0-.514.417c0,.343.47.492.85.492a1.707,1.707,0,0,0,.552-.052.924.924,0,0,0-.887-.857Z" transform="translate(22.499 0.144)" fill="#003892"/>
        <path id="パス_292" data-name="パス 292" d="M45.218,1.6c0,.8,0,4.3-.7,5.359-.38.6-1.111.641-1.781.678l-.522-1.081h.559c.6,0,.827-.067.954-.313a12.208,12.208,0,0,0,.5-3.727H41.835c-.186,2.1-.648,3.727-3.086,5.106l-.8-.708a4.679,4.679,0,0,0,2.87-4.4H38.242V1.6h2.6c0-.432,0-.574-.052-1.55l1.036.06c.268,0,.306.06.306.119s0,.075-.179.209a.35.35,0,0,0-.082.283c0,.224,0,.663,0,.879Z" transform="translate(25.703 0.033)" fill="#003892"/>
        <path id="パス_293" data-name="パス 293" d="M43.7,3.556a3.779,3.779,0,0,1,1.752,1.26l-.678.678A4.129,4.129,0,0,0,43.352,4.07Z" transform="translate(29.358 2.407)" fill="#003892"/>
        <path id="パス_294" data-name="パス 294" d="M45.783,3.278A8.087,8.087,0,0,0,47.274.036l.961.358c.045,0,.171.075.171.164s-.06.089-.261.112-.157.171-.171.224c-.082.231-.209.574-.276.745l.2.075s.127.045.127.1,0,.067-.164.2a.239.239,0,0,0-.089.216V7.75h-.917v-4.4a4.889,4.889,0,0,1-.291.432Zm4.2-2.065H48.489V.468h5.389v.745H52.141V2.577h1.431v5.1h-.85v-.35H49.458V7.7H48.6V2.577h1.409ZM49.428,3.4V6.49h.552V3.4Zm1.9-2.184h-.566V2.577h.566ZM50.762,3.4V6.49h.566V3.4ZM52.111,6.49h.581V3.4h-.581Z" transform="translate(31.003 0.024)" fill="#003892"/>
        <path id="パス_295" data-name="パス 295" d="M54.379,4.241v.082A5.367,5.367,0,0,0,55.87,6.261l-.693.745a4.472,4.472,0,0,1-1.1-1.491,5.531,5.531,0,0,1-1.625,2.236l-.82-.574a4.472,4.472,0,0,0,1.893-2.922H51.86V3.429h1.759c0-.186.045-.514.045-1.491h-.432a5.8,5.8,0,0,1-.6,1.222L51.8,2.8A7.647,7.647,0,0,0,52.732,0l.812.194c.1,0,.313.089.313.179s0,.052-.179.164-.186.425-.216.589h2.109v.812H54.5c0,.261,0,.976-.045,1.491h1.23v.812Zm4.852,3.108h-.917V6.6H56.876V7.684h-.887V.872h3.265Zm-.917-5.627H56.876V5.754h1.438Z" transform="translate(34.959 0)" fill="#003892"/>
        <path id="パス_296" data-name="パス 296" d="M64.521,1.6c0,.8-.037,4.3-.7,5.359a2.065,2.065,0,0,1-1.781.678L61.51,6.556h.559c.6,0,.835-.067.954-.313a11.731,11.731,0,0,0,.5-3.727H61.13c-.186,2.1-.648,3.727-3.093,5.106l-.79-.708a4.691,4.691,0,0,0,2.87-4.4H57.53V1.6h2.6c0-.432,0-.574-.045-1.55l1.043.06c.268,0,.3.06.3.119s0,.075-.179.209a.38.38,0,0,0-.075.283V1.6Z" transform="translate(38.762 0.033)" fill="#003892"/>
        <path id="パス_297" data-name="パス 297" d="M69.451,1.325a4.643,4.643,0,0,0-1.975.8,3.546,3.546,0,0,0-1.67,2.579c0,1.491,1.491,1.677,2.4,1.707l-.335,1.051a4.785,4.785,0,0,1-1.737-.5A2.385,2.385,0,0,1,64.778,4.9,4.229,4.229,0,0,1,66.664,1.72c-.283,0-1.491.224-1.774.261l-1.848.268L62.87,1.28A34.568,34.568,0,0,0,69.407.311Zm-.477,2.713a5.292,5.292,0,0,0-.939-.745l.343-.455a5.71,5.71,0,0,1,1,.745Zm.7-.879a4.643,4.643,0,0,0-.917-.745l.35-.4a5.053,5.053,0,0,1,.939.745Z" transform="translate(42.567 0.211)" fill="#003892"/>
        <path id="パス_298" data-name="パス 298" d="M70.995,1.54c.067-.3.089-.447.112-.559H68.982V.236h5.739v1.3h.954v.745h-.954V3.709H71.263a5.468,5.468,0,0,1-.41.663h4.241V7.614h-.961v-.4H70.89v.4h-.939V5.378a7.818,7.818,0,0,1-1.282.961l-.745-.693A5.076,5.076,0,0,0,70.1,3.724H68.677V2.978H70.51c.037-.1.224-.537.246-.641H68.148V1.592Zm3.138,3.637H70.89v1.2h3.242Zm-2.34-2.87c-.075.268-.119.447-.179.641H73.8V2.308ZM72.061.981c0,.082-.089.47-.1.559H73.8V.981Z" transform="translate(45.988 0.159)" fill="#003892"/>
        <path id="パス_299" data-name="パス 299" d="M77.625,6.329a2.765,2.765,0,0,0,2.34-2.683,2.236,2.236,0,0,0-2.236-2.34,14.906,14.906,0,0,1-1.111,4.233c-.089.2-.514,1.17-1.036,1.17a2.378,2.378,0,0,1-1.8-2.534A3.727,3.727,0,0,1,77.6.449a3.108,3.108,0,0,1,3.361,3.2,3.6,3.6,0,0,1-2.706,3.5ZM74.644,4.146c0,.8.455,1.371.745,1.371s.358-.365.477-.634a10.829,10.829,0,0,0,.9-3.481,2.84,2.84,0,0,0-2.117,2.773Z" transform="translate(49.956 0.297)" fill="#003892"/>
        <path id="パス_300" data-name="パス 300" d="M84.778.337l.879.052c.112,0,.231,0,.231.1s0,.075-.112.171-.082.1-.082.224V2.215h1.357v.909H85.695V5.889h-.917v-.32H83.541v.373H82.6V3.124H81.424V6.538h4.994v.894H81.424v.4h-.947V3.124H79.121V2.215h1.357V.434l.879.045c.089,0,.231,0,.231.134s0,.037-.082.112-.06.089-.06.2V2.215h1.178V.031l.887.089c.186,0,.253,0,.253.1s0,.067-.112.157a.194.194,0,0,0-.089.194V2.215H84.8Zm0,2.788H83.541V4.712h1.237Z" transform="translate(53.566 0.021)" fill="#003892"/>
        <path id="パス_301" data-name="パス 301" d="M89.352,4.574h.335a6.073,6.073,0,0,1-1.081-1.118,6.425,6.425,0,0,1-1.088,1.111l.328.082c.134,0,.186.045.186.1s-.112.157-.119.179,0,.343,0,.507a2.437,2.437,0,0,1-1.692,2.407L85.67,7.1c1.349-.47,1.349-1.14,1.342-2.109a9.22,9.22,0,0,1-1.729.872l-.6-.745a5.829,5.829,0,0,0,2.706-1.677H85.625V.147H91.64V3.419H89.792a5.836,5.836,0,0,0,2.758,1.7l-.745.82a12.873,12.873,0,0,1-1.543-.932V7.712h-.894ZM88.189,1.466v-.6h-1.7v.6Zm0,1.237V2.092h-1.7V2.7Zm2.586-1.237v-.6H89.031v.6Zm0,1.237V2.092H89.031V2.7Z" transform="translate(57.332 0.099)" fill="#003892"/>
        <path id="パス_302" data-name="パス 302" d="M90.789,7.315A9.83,9.83,0,0,1,90.3,4.333a14.33,14.33,0,0,1,.283-2.512c.037-.186.261-1.349.268-1.424L91.6.7c.253.1.261.142.261.186s-.067.089-.157.157a8.243,8.243,0,0,0-.574,3.19,9.856,9.856,0,0,0,.075,1.237c.045-.1.306-.566.358-.686l.589.358a8.534,8.534,0,0,0-.678,2.042ZM96.8,6.666A4.033,4.033,0,0,0,95.8,6.01c0,.484,0,1.193-1.446,1.193s-1.67-.678-1.67-1.185S93.092,4.8,94.4,4.8h.38c0-.507-.06-1.058-.1-2.027a12.671,12.671,0,0,1-1.707.1V1.956h1.684a15.437,15.437,0,0,0-.1-1.684L95.4.3c.112,0,.343,0,.343.127s0,.045-.082.134a.291.291,0,0,0-.06.2V1.814a5.016,5.016,0,0,0,1.066-.343l.06.909c-.358.1-.373.1-1.14.268a15.994,15.994,0,0,0,.089,2.385,7.983,7.983,0,0,1,1.558.745ZM94.262,5.578c-.447,0-.745.171-.745.41,0,.358.529.388.656.388.641,0,.641-.4.641-.7a1.878,1.878,0,0,0-.552-.1Z" transform="translate(61.135 0.184)" fill="#003892"/>
        <path id="パス_303" data-name="パス 303" d="M99.271,4.964h-.79a5.613,5.613,0,0,1-.9-.06,4.644,4.644,0,0,0-.1.827,1.066,1.066,0,0,0,1.207,1.1,1.565,1.565,0,0,0,1.707-1.491,2.3,2.3,0,0,0-.5-1.327l.827-.477a3.846,3.846,0,0,1,.6,1.923c0,1.215-.909,2.236-2.653,2.236A1.894,1.894,0,0,1,96.5,5.858,4.933,4.933,0,0,1,96.67,4.7a7.639,7.639,0,0,1-1.2-.343l.164-.939a4.964,4.964,0,0,0,1.267.477c.112-.41.3-.976.388-1.245A13.772,13.772,0,0,1,95.88,2.3l.149-1.014a4.793,4.793,0,0,0,1.558.507A15.87,15.87,0,0,0,98.168,0l.947.447c.082.037.231.112.231.186s-.075.067-.186.119A8.633,8.633,0,0,0,98.57,1.93h.522a5.218,5.218,0,0,0,.745-.067l-.253.969a6.489,6.489,0,0,1-1.349-.082c-.209.552-.313.887-.425,1.252h.745a4.681,4.681,0,0,0,.969-.1Z" transform="translate(64.63 0)" fill="#003892"/>
        <path id="パス_304" data-name="パス 304" d="M101.988,5.244c2.489-.186,2.758-1.3,2.758-1.781a1.133,1.133,0,0,0-1.17-1.1,5.724,5.724,0,0,0-2.057.589,8.08,8.08,0,0,1-1.379.425l-.38-.835a7.513,7.513,0,0,0,1.565-.335,6.558,6.558,0,0,1,2.355-.611,1.819,1.819,0,0,1,1.893,1.863c0,2-2.3,2.452-3.138,2.609Z" transform="translate(67.533 1.076)" fill="#003892"/>
        <path id="パス_305" data-name="パス 305" d="M109.6,7.381c-.917.06-1.841.127-2.758.127-.745,0-2.609,0-2.609-1.811,0-.879.477-1.491,1.841-2.318a.9.9,0,0,1-.417-.559,22.517,22.517,0,0,1-.3-2.564L106.5.107V1.523c0,1,.1,1.222.514,1.386.335-.149,2.027-.872,2.4-1.043l.231,1.043c-1.848.544-4.472,1.4-4.472,2.75,0,.85.984.9,1.7.9a14.259,14.259,0,0,0,2.735-.343Z" transform="translate(70.56 0.072)" fill="#003892"/>
        <path id="パス_306" data-name="パス 306" d="M110.68,2.176c.089.06.1.1.1.142s-.06.1-.231.157-.089.052-.194.164a5.411,5.411,0,0,1-.9.745l-.626-.6a3.9,3.9,0,0,0,1.207-1.088Zm5.068,5.575a8.273,8.273,0,0,1-3.138-1.1,7.684,7.684,0,0,1-3.145,1.14l-.44-.812a5.612,5.612,0,0,0,2.847-.827c-.134-.119-.32-.268-.917-.865a7.833,7.833,0,0,1-1.431.872l-.663-.619A5.381,5.381,0,0,0,111.455,3.5a2.981,2.981,0,0,1-1.14.641L109.9,3.4c1.252-.417,1.491-.835,1.55-1.8h-2.616V.745h3.212V0l.917.075c.112,0,.224.045.224.112s0,.045-.089.112,0,.082,0,.157V.745h3.25v.82h-2.422V3.056c0,.678-.224.835-1.245.879l-.313-.745c.492,0,.745,0,.745-.388V1.6h-.745a2.5,2.5,0,0,1-.745,1.826l.7.35a.151.151,0,0,1,.119.119c0,.052-.112.075-.231.134l-.089.134h2.7l.239.306a11.18,11.18,0,0,1-1.655,1.67,7.409,7.409,0,0,0,2.8.745Zm-4.062-2.81a7.454,7.454,0,0,0,.887.745,6.85,6.85,0,0,0,.827-.745Zm3.272-3.16a13.641,13.641,0,0,1,1.222,1.252l-.745.559a6.865,6.865,0,0,0-1.2-1.26Z" transform="translate(73.673 0)" fill="#003892"/>
        <path id="パス_307" data-name="パス 307" d="M114.156,5.561A11.515,11.515,0,0,0,115.923,3.2V2.721c-.544.157-.626.186-1.319.41l-.157-1.043a8.266,8.266,0,0,0,1.491-.291V.142l.835.157c.089,0,.388.067.388.149s-.164.209-.179.246a4.57,4.57,0,0,0-.142.857l.246-.089.462.4c0,.037-.335.581-.507.872a3.429,3.429,0,0,1,1.856-.671,2.236,2.236,0,0,1,2.191,2.348,3.357,3.357,0,0,1-2.482,3.056l-.589-.932a3.309,3.309,0,0,0,1.1-.455,2.072,2.072,0,0,0,.976-1.707,1.3,1.3,0,0,0-1.289-1.394A3.056,3.056,0,0,0,116.705,4c0,.4,0,.745,0,.939V7.573l-1.058.037c0-.306.112-.879.171-2.482-.537.745-.708,1.036-.82,1.207Z" transform="translate(77.277 0.096)" fill="#003892"/>
        <path id="パス_308" data-name="パス 308" d="M119.17,4.757A15.756,15.756,0,0,0,122.4,1.463c-.9.112-1.178.142-2.124.2L120.132.613c.246,0,.678.045.924.045A10.039,10.039,0,0,0,123.925.2l.41.7a13.788,13.788,0,0,0-1.968,2.02,2.661,2.661,0,0,1,.745-.1,1.923,1.923,0,0,1,2.109,2.057,2.611,2.611,0,0,1-2.855,2.549c-.6,0-1.826-.149-1.826-1.289a1.222,1.222,0,0,1,1.386-1.207,1.774,1.774,0,0,1,1.7,1.17,1.491,1.491,0,0,0,.641-1.23c0-.507-.2-1.245-1.431-1.245s-1.878.745-2.907,1.841Zm2.743.961a.477.477,0,0,0-.514.417c0,.343.47.492.85.492a1.707,1.707,0,0,0,.574-.052.924.924,0,0,0-.909-.857Z" transform="translate(80.671 0.132)" fill="#003892"/>
        <path id="パス_309" data-name="パス 309" d="M125.1,4.505a.909.909,0,1,1-.909-.909.909.909,0,0,1,.909.909Zm-1.55,0a.641.641,0,1,0,.641-.641A.641.641,0,0,0,123.546,4.505Z" transform="translate(83.45 2.434)" fill="#003892"/>
      </g>
    </g>
    <path id="パス_230" data-name="パス 230" d="M1104,119.614v60.364h60.365V119.614Zm16.744,5.886,2.807,6.84-3.154,1.294-2.807-6.84Zm-7.116.535,2.807,6.84-3.154,1.294-2.807-6.84Zm15.434,48.61-3.339-.687,2.723-13.227h-8.576l-5.98,13.375-3.112-1.391,5.358-11.984h-5.065v-3.409h6.589l2.032-4.545,3.112,1.392-1.41,3.153h4.062l-1.616-2.622,2.58-1.591,2.6,4.212h3.612Zm1.967-18.137-2.666-4.323,2.58-1.591,2.665,4.323Zm-6.376-8.357-3.109-1.4,9.26-20.609,3.11,1.4ZM1148.2,175l-3.11-1.4,8.069-17.984h-10.893l-2.129,4.738-3.109-1.4,3.032-6.75h18.366Zm0-26.85-3.11-1.4,8.069-17.983h-10.893l-2.129,4.738-3.109-1.4,3.032-6.751h18.366Z" transform="translate(-631.997 -64.614)" fill="#002076"/>
  </g>
</svg>
