<svg xmlns="http://www.w3.org/2000/svg" width="77" height="77" viewBox="0 0 77 77"><g transform="translate(-636.925 -292.828)"><rect width="77" height="77" transform="translate(636.925 292.828)" fill="#ffec00"/><g transform="translate(651.847 304.976)"><path d="M978.844,413.482l-3.039-1.363,7.884-17.571H973.046l-2.08,4.63-3.038-1.365,2.962-6.6h17.944Z" transform="translate(-941.981 -391.216)" fill="#002c83"/><path d="M978.844,625.949l-3.039-1.363,7.884-17.571H973.046l-2.08,4.629-3.038-1.365,2.962-6.6h17.944Z" transform="translate(-941.981 -577.45)" fill="#002c83"/><g transform="translate(0 0.136)"><rect width="3.331" height="7.224" transform="translate(0 1.787) rotate(-22.314)" fill="#002c83"/><rect width="3.331" height="7.224" transform="translate(6.953 1.265) rotate(-22.314)" fill="#002c83"/><rect width="22.075" height="3.331" transform="translate(10.815 20.765) rotate(-65.799)" fill="#002c83"/></g><g transform="translate(0.296 24.654)"><path d="M778.006,612.6l-2.537-4.116-2.521,1.554,1.579,2.562h-3.969l1.378-3.081-3.041-1.36-1.985,4.441h-6.438v3.331h4.949l-5.235,11.709,3.041,1.36,5.843-13.069h8.379l-2.661,12.923,3.262.672,3.486-16.926Z" transform="translate(-760.185 -606.027)" fill="#002c83"/><rect width="2.961" height="4.962" transform="translate(17.183 1.554) rotate(-31.657)" fill="#002c83"/></g></g><g transform="translate(652.303 358.235)"><path d="M826.482,824.085l1.5,1.255-.331.4-1.5-1.254Z" transform="translate(-818.166 -823.897)" fill="#002c83"/><path d="M826.482,839.491l1.5,1.247-.331.406-1.5-1.247Z" transform="translate(-818.166 -837.401)" fill="#002c83"/><path d="M827.244,858.895l.4.322-1.45,1.826-.406-.323Z" transform="translate(-817.846 -854.409)" fill="#002c83"/><path d="M845.194,822.626h.51v.939h1.991v1.443h-.5v-.924h-1.481V825H845.2v-.916h-1.435v1.292h3.922v.5l-1.705,1.457,1.727,1.5-.337.4-1.8-1.548-1.818,1.57h-.511v-5.68H845.2Zm.391,4.357,1.292-1.089h-2.569Zm-1.818,1.564,1.412-1.218-1.412-1.225Z" transform="translate(-833.15 -822.618)" fill="#002c83"/><path d="M761.475,822.626v2.3h.514v-.947h1.124v.944h.518v-.94h.928v-.526h-2.567v-.83Z" transform="translate(-761.475 -822.618)" fill="#002c83"/><path d="M789.606,822.626v2.3h.514v-.947h1.123v.944h.519v-.94h1v-.526h-2.634v-.83Z" transform="translate(-786.132 -822.618)" fill="#002c83"/><path d="M762,844.834h2.764v.526h-1.068v2.36l1.165-.308.135.5-2.9.786-.135-.5,1.217-.343v-2.5H762Z" transform="translate(-761.9 -842.084)" fill="#002c83"/><path d="M789.7,844.773h3.133v3.892h-.512V845.3h-2.109v3.359H789.7Z" transform="translate(-786.217 -842.031)" fill="#002c83"/><path d="M796.516,855.668l1.269,1.247-.36.376-1.27-1.247Z" transform="translate(-791.873 -851.58)" fill="#002c83"/><path d="M954.256,824.1h1.8v.511l-.911,1.713.94,1.743v.511h-1.333v1.97h-.511Zm.522,1.843.691-1.321h-.691Zm-.021,2.115h.742l-.731-1.352Z" transform="translate(-930.444 -823.911)" fill="#002c83"/><path d="M973.228,822.567h.516v.671h2.033v1.452h-.5v-.936H971.8v.972h-.505v-1.487h1.938Z" transform="translate(-945.384 -822.566)" fill="#002c83"/><path d="M978.386,835.832h2.78v.5h-2.775Z" transform="translate(-951.604 -834.193)" fill="#002c83"/><path d="M974.867,848.132l-.013-2.692h-.7l-1.321,3.371-.481-.191,1.252-3.181h-1.254v-.521h4.243v.531h-1.218v2.594a.216.216,0,0,0,.215.22h1.134v.518h-1.138A.663.663,0,0,1,974.867,848.132Z" transform="translate(-946.307 -842.158)" fill="#002c83"/><path d="M1021.5,822.567h.5v1.863h3.052v.511h-2.992l2.992,3.945-.412.323-2.9-3.84-2.9,3.8-.413-.315,2.993-3.911h-2.963v-.515h3.038Z" transform="translate(-986.697 -822.566)" fill="#002c83"/><g transform="translate(15.88)"><path d="M890.086,823.645h1.277v-1.085h.51v1.085h1.252v-1.082h.511v1.082H895v-1.081h.51v1.081h1.218v1.327h-.521v-.805h-5.6v.781h-.521Z" transform="translate(-890.086 -822.561)" fill="#002c83"/><path d="M893.5,845.481s-.012.272-.258.272h-1.067v.527H893.2a.8.8,0,0,0,.86-.823v-1.4h2.905v-.533h-2.606l1.391-.961v-.518h-4v.5h3.259l-1.46.976h-3.1v.526H893.5l0,1.437" transform="translate(-890.403 -839.633)" fill="#002c83"/></g><g transform="translate(39.568)"><path d="M1081.937,823.645h1.277v-1.085h.51v1.085h1.252v-1.082h.511v1.082h1.364v-1.081h.51v1.081h1.218v1.327h-.521v-.805h-5.6v.781h-.521Z" transform="translate(-1081.937 -822.561)" fill="#002c83"/><path d="M1085.352,845.481s-.013.272-.258.272h-1.067v.527h1.024a.8.8,0,0,0,.86-.823v-1.4h2.905v-.533h-2.606l1.391-.961v-.518h-4v.5h3.259l-1.459.976h-3.1v.526h3.05l0,1.437" transform="translate(-1082.253 -839.633)" fill="#002c83"/></g></g></g></svg>