<svg xmlns="http://www.w3.org/2000/svg" width="993.035" height="58.882" viewBox="0 0 993.035 58.882"><g transform="translate(-432.492 -101.324)"><path d="M636.7,158.71a25.948,25.948,0,0,0-8.363-7.139,3.059,3.059,0,0,1-1.836-2.72,3.025,3.025,0,0,1,3.2-2.991c2.379,0,13.258,5.983,13.258,10.606a3.758,3.758,0,0,1-3.671,3.74A3.1,3.1,0,0,1,636.7,158.71Z" fill="#1a1311"/><path d="M892.58,160.206a7.751,7.751,0,1,1,7.751-7.751A7.748,7.748,0,0,1,892.58,160.206Zm0-12.851a5.108,5.108,0,0,0-5.168,5.1,5.168,5.168,0,0,0,10.335,0A5.107,5.107,0,0,0,892.58,147.355Z" fill="#1a1311"/><path d="M1153.495,158.71a25.947,25.947,0,0,0-8.363-7.139,3.058,3.058,0,0,1-1.836-2.72,3.025,3.025,0,0,1,3.195-2.991c2.38,0,13.259,5.983,13.259,10.606a3.758,3.758,0,0,1-3.671,3.74A3.1,3.1,0,0,1,1153.495,158.71Z" fill="#1a1311"/><path d="M480.7,125.393c0,4.284,0,8.159-.067,10.676-.137,6.119-5.031,6.459-10.812,6.459-6.39,0-10.47-.34-10.538-6.392,0-2.584-.068-6.459-.068-10.743h-8.839c0,3.06-.068,6.188-.068,8.976,0,4.963.068,9.247.2,11.83.2,4.012,2.311,4.148,17.066,4.148,5.915,0,12.307-.136,17.611-.34h.2A2.815,2.815,0,0,1,488.247,153a3.122,3.122,0,0,1-3.059,3.263c-5.236.272-11.22.34-16.863.34-5.3,0-10.335-.068-14.279-.272-5.983-.272-10.335-2.652-10.471-9.247-.068-2.243-.068-5.031-.068-8.091,0-4.215,0-8.907.068-13.6l-7.819.069c-2.243,0-3.264-1.428-3.264-2.856a3.161,3.161,0,0,1,3.264-3.2l7.819.068c.069-4.827.136-9.247.136-12.647,0-1.971,1.7-2.923,3.468-2.923,1.7,0,3.468.952,3.468,2.855v.068c-.068,3.332-.136,7.82-.205,12.647h8.772c0-5.711,0-11.355.068-14.823a3.061,3.061,0,0,1,3.331-2.787c1.564,0,3.128.884,3.128,2.72v.067c-.068,3.2-.135,9.044-.135,14.823h8.7c0-5.235-.069-10.539-.069-14.007a3.246,3.246,0,0,1,6.459,0c0,3.536.069,8.772.069,14.007l9.859-.068a3.031,3.031,0,0,1,3.127,3.128,2.911,2.911,0,0,1-3.127,2.924Zm-15.026,0c0,3.808,0,7.14.068,9.247,0,2.176,1.157,2.312,4.012,2.312,3.264,0,4.283-.407,4.419-2.312.068-2.039.137-5.371.137-9.247Z" fill="#1a1311"/><path d="M531.7,137.292a3.035,3.035,0,0,1,3.264-2.992c.2,0,.408.069.612.069a85.53,85.53,0,0,1-7.751-7.208,68.7,68.7,0,0,1-7.548,7.276,3.01,3.01,0,0,1,2.857,3.059c0,7.955-3.332,19.719-20.738,22.642a2.789,2.789,0,0,1-.748.068,3.1,3.1,0,0,1-3.128-3.264,2.684,2.684,0,0,1,2.175-2.855c11.9-1.632,15.5-8.227,15.775-16.523l.068-.2c-4.08,2.924-13.394,8.7-15.843,8.7a3.192,3.192,0,0,1-3.263-3.127,3.078,3.078,0,0,1,2.108-2.856c8.227-3.535,14.483-7.207,20.806-12.987-1.9.068-3.808.068-5.3.068-2.72,0-9.111-.068-9.314-6.323-.069-2.108-.137-4.488-.137-6.868,0-2.311.068-4.555.137-6.391.135-2.924,2.039-5.983,7.342-6.119,2.856-.068,7.48-.136,12.511-.136,6.052,0,12.579.068,16.931.136,4.011.068,6.8,2.856,7,5.643.135,1.632.2,3.876.2,6.188,0,2.652-.069,5.439-.2,7.479-.136,3.4-2.992,6.255-7.411,6.391h-1.836c-1.564,0-3.331,0-5.1-.068,6.6,5.508,13.395,8.7,20.874,11.9a3.039,3.039,0,0,1,2.04,2.856,3.818,3.818,0,0,1-3.808,3.671c-2.244,0-9.859-4.351-16.25-9.179a3.923,3.923,0,0,1,.2.952v19.379a3.276,3.276,0,0,1-6.528,0Zm-7.207-31.005c-3.739,0-7.138.068-9.451.136-3.331.136-3.468,2.448-3.468,5.236h12.919Zm0,10.267H511.574c0,3.536.273,5.372,3.536,5.508,2.516.068,5.848.136,9.383.136Zm18.9-4.9c0-.952-.069-1.768-.069-2.516-.067-1.7-1.019-2.652-3.331-2.72-2.244-.068-5.712-.136-9.451-.136v5.372Zm-12.851,4.9V122.2c3.468,0,6.867-.068,9.519-.136,3.332,0,3.332-2.38,3.332-5.508Z" fill="#1a1311"/><path d="M617.923,152.251a4.65,4.65,0,0,1-2.244-.612c-7.887-4.556-18.97-16.93-26.381-23.186-1.7-1.5-2.924-2.108-4.148-2.108a6.093,6.093,0,0,0-3.467,1.428c-3.4,2.312-6.052,4.76-9.723,6.664a5.106,5.106,0,0,1-2.108.544,3.893,3.893,0,0,1-3.944-3.6c0-1.224.748-2.516,2.584-3.332,1.768-.816,6.255-3.331,9.859-5.575a13.023,13.023,0,0,1,6.867-2.38c2.788,0,5.3,1.292,8.023,3.536,8.295,6.731,18.155,16.114,27.266,21.553a3.315,3.315,0,0,1,1.632,2.924A4.027,4.027,0,0,1,617.923,152.251Z" fill="#1a1311"/><path d="M694.769,159.118a3.847,3.847,0,0,1-3.741-3.6,2.915,2.915,0,0,1,1.7-2.583c3.671-2.04,7.139-4.352,9.451-7.071.068-3.061.135-5.712.135-8.3,0-4.623,0-4.759-3.2-4.759h-2.855c-1.428,0-3.808-.068-3.808-2.924a2.913,2.913,0,0,1,2.856-3.06c2.447,0,4.691,0,6.935.068,4.352.136,6.391,2.04,6.391,6.392,0,3.943-.136,8.635-.136,12.986,4.624,5.848,11.763,6.867,20.466,6.867,6.8,0,14.142-.747,19.31-1.155h.34a3.176,3.176,0,0,1,3.264,3.263,3.332,3.332,0,0,1-3.4,3.332c-4.284.408-10.471.816-16.658.816-16.659,0-21.078-2.856-26.45-8.363C704.968,151.5,698.1,159.118,694.769,159.118Zm8.838-44.672a21.867,21.867,0,0,0-6.935-5.507,2.5,2.5,0,0,1-1.495-2.176,3.487,3.487,0,0,1,3.467-3.195c1.836,0,10.811,4.555,10.811,8.363a3.787,3.787,0,0,1-3.536,3.74A2.841,2.841,0,0,1,703.607,114.446Zm28.15,9.724H722.1c-.68,11.422-4.352,23.593-9.043,23.593a3.363,3.363,0,0,1-3.4-3.128,3.125,3.125,0,0,1,.748-1.971c4.963-6.392,5.711-15.3,5.711-22.1,0-2.788-.136-5.235-.136-7.071v-.272c0-3.468,1.224-6.324,6.392-6.936a75.273,75.273,0,0,0,17.338-4.147,4.112,4.112,0,0,1,1.5-.272,3.218,3.218,0,0,1,3.264,3.263,3.513,3.513,0,0,1-2.856,3.332,129.625,129.625,0,0,1-16.522,3.4c-2.517.408-2.857,1.428-2.857,2.651,0,.817.069,2.244.069,3.944l25.293-.136a2.959,2.959,0,1,1,0,5.915h-9.587l.136,23.186c0,1.9-1.631,2.856-3.263,2.856s-3.264-.952-3.264-2.856Z" fill="#1a1311"/><path d="M778.542,154.019a3.806,3.806,0,0,1-4.079-3.672c0-1.5,1.088-2.992,3.4-3.332,12.851-1.836,27.809-8.635,27.809-17.746,0-5.032-4.691-8.567-9.927-8.567a26.644,26.644,0,0,0-8.567,1.836c-6.459,2.243-14.618,7.139-21.554,10.335a4.911,4.911,0,0,1-2.243.544,3.675,3.675,0,0,1-3.808-3.6,3.781,3.781,0,0,1,2.652-3.468c6.527-2.584,17.27-8.091,24.069-10a38.148,38.148,0,0,1,10.268-1.7c11.083,0,16.589,8.363,16.589,14.958,0,5.031-3.059,9.859-9.043,14.551C795.677,150.755,780.378,154.019,778.542,154.019Z" fill="#1a1311"/><path d="M857.761,159.186a3.406,3.406,0,0,1-3.2-2.244c-3.6-8.567-8.908-15.23-13.667-21.417-2.04-2.652-3.2-4.9-3.2-7.14,0-1.972.817-3.943,2.653-6.323,3.875-4.964,9.518-12.171,12.713-17.883a3.223,3.223,0,0,1,2.857-1.767,4.358,4.358,0,0,1,4.283,4.011,3.713,3.713,0,0,1-.612,1.972c-2.72,4.352-10.335,12.851-13.939,17.2a3.889,3.889,0,0,0-1.088,2.516,5.864,5.864,0,0,0,1.632,3.468c6.936,8.975,12.307,14.074,15.435,21.826a5.389,5.389,0,0,1,.34,1.7A4.252,4.252,0,0,1,857.761,159.186Z" fill="#1a1311"/><path d="M991.176,158.982c-4.079,0-20.126-8.091-20.126-20.6a9.693,9.693,0,0,1,1.972-6.119,1.539,1.539,0,0,0,.34-.68c0-.068,0-.068-.068-.068-.2,0-4.556,2.448-5.575,3.127a4.377,4.377,0,0,1-2.38.68c-2.108,0-4.08-1.564-4.08-3.4,0-1.224.884-2.516,2.992-3.536,2.924-1.428,5.848-3.128,7.615-5.168,4.012-4.623,10.879-14.346,10.879-14.822,0-.136-.068-.2-.272-.2a.9.9,0,0,0-.476.2c-1.292.748-7.14,3.332-9.995,3.332a3.292,3.292,0,0,1-3.536-3.264,3.1,3.1,0,0,1,2.992-3.06,49.152,49.152,0,0,0,11.559-2.651,7.053,7.053,0,0,1,2.923-.952c2.108,0,4.625,1.36,4.625,4.215a6.675,6.675,0,0,1-1.5,3.944,117.5,117.5,0,0,1-11.151,13.327c-.34.34-.476.544-.476.679,0,.069.069.069.205.069a1,1,0,0,0,.408-.069c8.839-3.195,14.345-5.031,18.7-5.031a3.66,3.66,0,0,1,3.876,3.672c0,1.631-.952,3.467-5.575,3.535a41.357,41.357,0,0,0-7.82,1.157c-3.943,1.223-5.235,1.291-8.09,4.147a7.679,7.679,0,0,0-2.38,5.575c0,5.848,6.119,12.375,14.21,13.8,2.924.544,4.284,2.448,4.284,4.351A3.829,3.829,0,0,1,991.176,158.982Z" fill="#1a1311"/><path d="M1021.372,145.927c.068-.135.476-.544,1.02-1.359.748-1.088,1.292-2.108,1.972-3.264a65.219,65.219,0,0,1,5.167-7.343c.884-1.564,1.632-3.06,2.244-4.42l.2-1.9a25.986,25.986,0,0,0-6.052,2.992,4.314,4.314,0,0,1-2.448.952,2.768,2.768,0,0,1-2.583-2.992c0-2.244.543-2.992,11.83-7.887.544-5.575.952-10.471.952-13.463a2.959,2.959,0,0,1,3.059-3.195,3.261,3.261,0,0,1,3.4,3.128c0,2.039-.816,8.838-1.224,12.306a2.778,2.778,0,0,1,1.565,2.72c5.031-4.692,10.266-8.7,15.366-8.7,4.487,0,7.275,3.331,7.275,8.091a9.578,9.578,0,0,1-.068,1.36c-.476,4.419-2.447,11.626-3.195,17.882a15.1,15.1,0,0,0-.205,2.312c0,2.108.748,2.991,3.2,2.991,1.223,0,2.652-.2,7.548-2.175a5,5,0,0,1,1.836-.408,3.018,3.018,0,0,1,2.991,3.195,3.913,3.913,0,0,1-2.516,3.672,25.064,25.064,0,0,1-9.724,2.108c-5.235,0-9.791-1.7-9.791-8.567a16.476,16.476,0,0,1,.273-3.06c.952-6.187,2.788-13.327,3.059-17.746V122.4c0-2.244-.815-3.06-2.04-3.06-3.6,0-11.49,7.479-17,14.279-.271,3.6-.475,7.275-.475,10.742a59.543,59.543,0,0,0,.679,9.588,2.736,2.736,0,0,1,.069.747,3.524,3.524,0,0,1-3.6,3.536c-3.6,0-3.672-4.012-3.672-8.907,0-2.38.068-4.964.272-7.751-1.5,2.448-2.924,5.3-4.148,7.683-1.292,2.516-3.2,3.536-4.759,3.536a2.521,2.521,0,0,1-2.72-2.516c0-1.224.816-2.38,2.04-3.943Z" fill="#1a1311"/><path d="M1096.1,127.569a37.332,37.332,0,0,1-7.684,1.292,2.959,2.959,0,0,1-3.195-3.06,3.279,3.279,0,0,1,3.4-3.4c1.021,0,4.012,0,11.22-1.564a28.847,28.847,0,0,0,3.331-10.4,2.88,2.88,0,0,1,3.059-2.448c1.768,0,3.672,1.156,3.672,3.128,0,.816-.34,3.536-2.447,8.227H1108c7.752,0,7.956,8.363,7.956,11.491,0,6.051-.272,23.049-12.85,23.049-3.876,0-8.908-1.767-8.908-5.031a3.467,3.467,0,0,1,4.963-3.2,9.116,9.116,0,0,0,3.808,1.02c4.42,0,6.46-4.759,6.46-16.658,0-2.788-.408-4.827-2.584-4.827a4.226,4.226,0,0,0-1.224.135c-.272.068-.681.2-1.088.272-5.1,9.587-12.239,20.739-16.591,28.15a4.026,4.026,0,0,1-3.535,1.971c-1.768,0-3.468-1.087-3.468-2.923a4.166,4.166,0,0,1,.816-2.38c2.992-4.555,10.063-14.483,14.891-22.982Zm37.668,9.383c-1.5-3.875-6.528-9.043-11.695-10.811a2.471,2.471,0,0,1-1.836-2.311,3.174,3.174,0,0,1,3.264-2.992c3.468,0,16.794,8.431,16.794,14.687a3.624,3.624,0,0,1-3.6,3.6A3.169,3.169,0,0,1,1133.771,136.952Zm-1.9-17.95a23,23,0,0,0-5.712-3.74c-1.223-.475-1.7-1.223-1.7-2.039a2.712,2.712,0,0,1,2.787-2.516c.34,0,8.907,2.448,8.907,6.051a2.973,2.973,0,0,1-2.651,2.992A2.144,2.144,0,0,1,1131.867,119Zm5.848-6.255a23.306,23.306,0,0,0-5.78-3.468,2.167,2.167,0,0,1-1.768-2.107,2.766,2.766,0,0,1,2.788-2.584c2.38,0,7.14,2.923,7.955,3.6a3.053,3.053,0,0,1-1.632,5.3A2.258,2.258,0,0,1,1137.715,112.747Z" fill="#1a1311"/><path d="M1257.63,121.171l7.485,3.362,5.123-11.405h26.221l-19.423,43.288,7.487,3.359,24.612-54.852h-44.207Z" fill="#1a1311"/><path d="M1374.022,121.17l7.485,3.362,5.123-11.4h26.221l-19.423,43.288,7.487,3.358,24.612-54.852H1381.32Z" fill="#1a1311"/><rect width="8.206" height="17.797" transform="translate(1195.561 109.656) rotate(-22.314)" fill="#1a1311"/><rect width="8.206" height="17.797" transform="translate(1212.69 108.369) rotate(-22.314)" fill="#1a1311"/><rect width="54.384" height="8.206" transform="translate(1222.204 156.408) rotate(-65.798)" fill="#1a1311"/><path d="M1350.026,107.935l-6.21,3.829,3.891,6.311h-9.778l3.394-7.591-7.492-3.35-4.891,10.941h-15.861v8.206h12.192l-12.9,28.846,7.492,3.35,14.395-32.2H1354.9l-6.555,31.838,8.037,1.655,8.587-41.7h-8.7Z" fill="#1a1311"/><rect width="7.295" height="12.225" transform="translate(1354.704 105.709) rotate(-31.657)" fill="#1a1311"/></g></svg>