<svg xmlns="http://www.w3.org/2000/svg" viewBox="0 0 593.81 110.85"><defs><style>.cls-1{fill:none;}</style></defs><g id="レイヤー_2" data-name="レイヤー 2"><g id="レイヤー_2-2" data-name="レイヤー 2"><path d="M105.7,8.26a6.92,6.92,0,0,0-1.46-1.94c-.83-.7.36-2,1.35-1.1a9.52,9.52,0,0,1,1.78,2.14A1,1,0,0,1,107,8.71.92.92,0,0,1,105.7,8.26Zm0,5.41a13.72,13.72,0,0,0,7.49-7.94,3.63,3.63,0,0,0,.2-1.32,1.07,1.07,0,0,1,2.13,0,4.42,4.42,0,0,1-.47,2,16.16,16.16,0,0,1-8.37,8.84C105.19,16,104.54,14.19,105.71,13.67ZM109,7a6.29,6.29,0,0,0-1.15-2.12c-.74-.83.63-1.93,1.49-.91a9.45,9.45,0,0,1,1.46,2.38.94.94,0,0,1-.54,1.28A.92.92,0,0,1,109,7Z"/><path d="M124.22,9.72c-1.24.83-2.31-.81-1-1.56A13.41,13.41,0,0,0,127.08,4a5.49,5.49,0,0,0,.7-1.48c.33-1.2,2.13-.88,1.93.31a3,3,0,0,1-.27.79c.86-.14,1.8-.36,2.61-.41,1.26-.07,2.38.81,1.69,2-2.9,5-5.52,8.44-10.39,10.33-1.55.6-2.25-1.24-.72-1.74,3.8-1.28,6.75-4.52,8.83-8.43.18-.36,0-.43-.26-.43a26.08,26.08,0,0,0-2.88.45A18.67,18.67,0,0,1,124.22,9.72Z"/><path d="M148.5,7.22a12.83,12.83,0,0,1-6.27,8.08c-1.18.62-2.37-.88-.9-1.63a11.16,11.16,0,0,0,5.24-6.2l-1.27.18a19.36,19.36,0,0,1-2.27.24c-1.52,0-1.35-1.79-.18-1.73A17,17,0,0,0,145.12,6c.68,0,1.33-.14,2-.21.09-.42.16-.81.21-1.21a11,11,0,0,0,0-1.89c.06-1.17,1.84-1,1.89,0a11.12,11.12,0,0,1-.12,1.72c-.06.37-.11.74-.18,1.12l1.62-.2a1.92,1.92,0,0,1,2.28,2.2c-.19,1.78-.61,4.38-1.47,5.71-1.26,1.94-3.41,2.55-5,.93-.85-.86.32-2.5,1.28-1.45.68.73,1.37.45,2.05-.44s1.15-3.58,1.26-4.5c.05-.43,0-.93-.86-.83Zm3.33-2.83c-.9-.38-.2-1.46.63-1.15a6.2,6.2,0,0,1,1.77,1.08c.7.74-.35,1.84-.94,1.14A6.32,6.32,0,0,0,151.83,4.39Zm1.62-1.53c-.92-.36-.27-1.44.58-1.17a5.55,5.55,0,0,1,1.8,1c.72.72-.29,1.82-.9,1.15A6.67,6.67,0,0,0,153.45,2.86Z"/><path d="M162,9.72c-1.24.83-2.31-.81-1.05-1.56A13.41,13.41,0,0,0,164.88,4a5.49,5.49,0,0,0,.7-1.48c.33-1.2,2.13-.88,1.93.31a3,3,0,0,1-.27.79c.86-.14,1.8-.36,2.61-.41,1.26-.07,2.38.81,1.69,2-2.9,5-5.53,8.44-10.39,10.33-1.55.6-2.25-1.24-.72-1.74,3.8-1.28,6.75-4.52,8.83-8.43.18-.36,0-.43-.26-.43a26.08,26.08,0,0,0-2.88.45A18.67,18.67,0,0,1,162,9.72Z"/><path d="M180.65,15.29a1,1,0,0,1-.89-.78,13.35,13.35,0,0,1-.54-3.92,19.78,19.78,0,0,1,.13-2.34c.22-2,.63-3.8.76-4.92a.83.83,0,0,1,.82-.85.93.93,0,0,1,.94.89s0,.09,0,.14c-.12.78-.45,2-.7,3.35a17.14,17.14,0,0,0-.39,3.1c0,.66.1.81.14.81s.14-.11.25-.33c.51-1.1.79-1.29,1.08-1.29a.79.79,0,0,1,.76.75.82.82,0,0,1-.09.35,11,11,0,0,0-1.43,3.54c0,.22.06.43.06.65A.88.88,0,0,1,180.65,15.29Zm5.85,0A2.66,2.66,0,0,1,183.71,13c0-1.37,1.67-1.93,3.33-1.93a9.58,9.58,0,0,1,1.67.18,4,4,0,0,0,0-.5c0-.31,0-.63,0-1-.07-.77-.17-2.11-.22-3.51a6.76,6.76,0,0,0-3.24,1.31.88.88,0,0,1-.58.26.87.87,0,0,1-.82-.87c0-.39.25-1.31,4.6-2.28,0-.76,0-1.48.06-2.06a.77.77,0,0,1,.83-.74.78.78,0,0,1,.84.71v.09c-.05.5-.1,1.08-.12,1.67l1-.16a1,1,0,0,1,.23,0,.82.82,0,0,1,.92.78c0,.37-.3.77-1,.86L190,5.94c0,1.33.07,2.65.16,3.6a19.43,19.43,0,0,1,.15,2v.2A7.21,7.21,0,0,1,192.39,13a1,1,0,0,1,.34.74,1,1,0,0,1-.92,1,.86.86,0,0,1-.65-.33,6.53,6.53,0,0,0-1.29-1A4.18,4.18,0,0,1,186.5,15.25Zm.25-2.79c-1.4,0-1.48.45-1.48.61s.24.67,1,.67a2.65,2.65,0,0,0,2-1.05A6,6,0,0,0,186.75,12.46Z"/><path d="M199,15.88A6.9,6.9,0,0,0,196.74,14a.82.82,0,0,1-.49-.72.81.81,0,0,1,.85-.79c.63,0,3.51,1.58,3.51,2.81a1,1,0,0,1-1,1A.82.82,0,0,1,199,15.88Z"/><path d="M219.87,10.06s.79-.7.79-.73a.17.17,0,0,0-.14-.15c-.83,0-1.57,0-2.34,0a7.81,7.81,0,0,1-2.31,1.29.74.74,0,0,1-.74-.73.82.82,0,0,1,.49-.71,14.63,14.63,0,0,0,3.51-2.43l-3.2,0a.68.68,0,0,1-.74-.68.69.69,0,0,1,.74-.69h2.59V3.94H216.7a.69.69,0,0,1-.74-.68.7.7,0,0,1,.74-.69h1.8V1.12a.8.8,0,0,1,1.6,0V2.57h1a.63.63,0,0,1,.63.69,17.11,17.11,0,0,0,.76-1.55.69.69,0,0,1,.66-.47.89.89,0,0,1,.9.79,10.72,10.72,0,0,1-1.92,3.26h.52a.72.72,0,0,1,.79.71.69.69,0,0,1-.77.66h0l-1.64,0A19,19,0,0,1,219.69,8h1.86c.8,0,1.13.44,1.13.87,0,.61-.42,1-2,2l.13.22c.92-.16,1.73-.32,2.34-.45a.47.47,0,0,1,.16,0,.61.61,0,0,1,.63.63.68.68,0,0,1-.59.65c-.58.13-1.31.29-2.14.45,0,.18,0,.36,0,.54a2.91,2.91,0,0,1-2.9,3.13c-.84,0-1.45-.3-1.45-.84a.73.73,0,0,1,.73-.72.89.89,0,0,1,.22,0,1.62,1.62,0,0,0,.52.07c.83,0,1.33-.57,1.33-1.78v-.14c-.84.14-3.09.56-3.47.56a.71.71,0,0,1-.76-.69.76.76,0,0,1,.74-.72c.94-.11,2-.27,3.06-.43a1.34,1.34,0,0,0-.47-.38.55.55,0,0,1-.36-.49.76.76,0,0,1,.81-.63,1.14,1.14,0,0,1,.51.15Zm.52-4.77a15.54,15.54,0,0,0,1-1.4.68.68,0,0,1-.27,0h-1.06V5.29Zm9.24.29a13.76,13.76,0,0,1-1.87,6.23,9.18,9.18,0,0,0,3.16,2.36.78.78,0,0,1,.51.74,1,1,0,0,1-1,1,7.46,7.46,0,0,1-3.65-2.81,9,9,0,0,1-4.36,3,.9.9,0,0,1-.9-.87.87.87,0,0,1,.61-.79,9,9,0,0,0,3.75-2.72,14.47,14.47,0,0,1-1.44-4.19c-.45.66-.56.79-1,.79a.74.74,0,0,1-.74-.7.77.77,0,0,1,.16-.45,16.15,16.15,0,0,0,2.4-6.11.72.72,0,0,1,.77-.63.85.85,0,0,1,.92.76,18.4,18.4,0,0,1-.87,2.9l4.36,0a.71.71,0,0,1,.74.76.71.71,0,0,1-.74.75Zm-4,0a11.7,11.7,0,0,0,1.13,4.81A12.31,12.31,0,0,0,228,5.58Z"/><path d="M248.8,14.46a.79.79,0,0,1,.81.83,1,1,0,0,1-1,1,14.11,14.11,0,0,1-4.83-1.63.76.76,0,0,1-.39-.67.91.91,0,0,1,.29-.65c-1.08,0-2.24,0-3.3,0a1,1,0,0,1,.4.78.74.74,0,0,1-.38.65,13,13,0,0,1-4.88,1.63.89.89,0,0,1-.95-.88.84.84,0,0,1,.86-.86,8.7,8.7,0,0,0,4-1.33l-1,0c-1.32,0-2-.69-2.05-1.57,0-.68-.06-1.53-.06-2.38s0-1.67.06-2.3.55-1.49,2-1.51c1,0,2.13,0,3.32,0,1.47,0,3,0,4.32,0a1.79,1.79,0,0,1,1.92,1.38c0,.65.06,1.37.06,2.11,0,.93,0,1.87-.06,2.68a1.85,1.85,0,0,1-2,1.59h-1A10.62,10.62,0,0,0,248.8,14.46Zm-6.7-9.71c-1.21,0-2.38,0-3.4,0-1.78-.06-1.86-.85-1.86-2S237,.88,238.66.86c1.17,0,2.54,0,3.87,0,1.12,0,2.22,0,3.19,0,1.66,0,1.75.94,1.75,1.82s0,2-1.84,2C244.51,4.74,243.29,4.75,242.1,4.75Zm4.18,4.16H238v1h8.3Zm-.06-1.44c0-.41-.27-.66-.88-.68-1.06,0-2.59,0-4,0-.89,0-1.73,0-2.42,0a.83.83,0,0,0-.9.7v.31h8.23ZM238,11v.31c0,.5.38.68.92.7,1,0,2.41.05,3.75.05,1,0,1.91,0,2.68,0,.49,0,.83-.22.86-.7,0-.11,0-.22,0-.33Zm7.71-8.21c0-.49-.16-.59-.7-.59-.85,0-1.89,0-2.92,0s-2,0-2.9,0c-.65,0-.66.3-.66.61,0,.54.18.59.68.59.85,0,1.87,0,2.9,0,3.38,0,3.47,0,3.56-.38A.93.93,0,0,0,245.72,2.79Z"/><path d="M254.84,10.46a1,1,0,0,1-1-.92c0-.34.23-.66.84-.86A9.8,9.8,0,0,0,257,7.56c-.76-1-.94-1.47-.94-1.94a1.36,1.36,0,0,1,1.1-1.33c.32-.09.9-.18,1.24-.28s.29-.16.29-.32,0-.38-.72-.68c-.4-.17-.56-.42-.56-.69a.76.76,0,0,1,.83-.7c.7,0,2.32,1,2.32,2.21S259,5.33,258.3,5.44c-.25,0-.47.12-.47.34a2.29,2.29,0,0,0,.49.92c.72-.51,1.49-1,2.32-1.6a9.07,9.07,0,0,1,4.68-1.72c1,0,3.05.45,3.05,2.36,0,1.57-1.41,4-5.26,4-1.24,0-2.27-.09-2.27-1a.87.87,0,0,1,.92-.88,1.75,1.75,0,0,1,.32,0,5.32,5.32,0,0,0,1.1.11c2.48,0,3.37-1.32,3.37-2.11,0-.94-1.26-.94-1.35-.94-1.7,0-3.23,1.1-6,3.06.45.63,1,1.3,1.47,2,1.26,1.73,2.83,3.93,2.83,4.9a.9.9,0,0,1-.88,1,1.07,1.07,0,0,1-1-.84c-.57-1.79-2.8-4.86-3.74-6.14A9.47,9.47,0,0,1,254.84,10.46Z"/><path d="M282.19,11.4a6.7,6.7,0,0,1,.05.79c0,1.62-.76,4.07-3.89,4.07-1.4,0-2.16-.38-2.16-1.08a.84.84,0,0,1,.85-.85.78.78,0,0,1,.29,0,4.17,4.17,0,0,0,1.18.2c2,0,2-2.42,2-2.56a4,4,0,0,0,0-.61l-7.64,0a.77.77,0,0,1-.83-.79.8.8,0,0,1,.81-.83l6.67,0a3.28,3.28,0,0,0-.72-.38c-.38-.13-.54-.36-.54-.59a.89.89,0,0,1,.95-.76,2.27,2.27,0,0,1,1.06.36c.47-.31,1.43-1,1.43-1.19s-.08-.11-.2-.11h-1c-1.15,0-2.9,0-4.16.09h0a.75.75,0,0,1-.81-.76.78.78,0,0,1,.83-.76c.77,0,1.74,0,2.7,0,1.31,0,2.63,0,3.45,0,1,0,1.46.54,1.46,1.1,0,.88-.95,1.62-2.57,2.63a4.13,4.13,0,0,1,.25.38L287,9.79a.79.79,0,0,1,.8.83.76.76,0,0,1-.78.8Zm3-5.76c0-.76-.4-.89-1.14-.9-1.44,0-3.06,0-4.62,0-1.28,0-2.54,0-3.66,0s-1.15.27-1.21.9V6.7a.84.84,0,0,1-.91.79.82.82,0,0,1-.87-.81c0-.23,0-.5,0-.79s0-.61,0-.88a1.9,1.9,0,0,1,2.11-1.73l1.51,0a.7.7,0,0,1-.23-.25,5.21,5.21,0,0,0-1.26-1.3.64.64,0,0,1-.24-.47.91.91,0,0,1,.92-.77,3.17,3.17,0,0,1,2.09,2,1,1,0,0,1-.52.79c1.58,0,3.15,0,4.73,0A9,9,0,0,0,283.14.86.84.84,0,0,1,284,.29a1,1,0,0,1,1,.88,5.63,5.63,0,0,1-1.32,2.09l1.26,0A1.89,1.89,0,0,1,287,5c0,.25,0,.63,0,1s0,.49,0,.67a.89.89,0,0,1-.95.79.8.8,0,0,1-.9-.76v-1Zm-5.1-2.47a.65.65,0,0,1-.61-.43,5,5,0,0,0-1.06-1.55.62.62,0,0,1-.16-.4c0-.38.45-.7.91-.7.92,0,1.91,1.76,1.91,2.18A1,1,0,0,1,280.06,3.17Z"/><path d="M291.8,15.48a.76.76,0,0,1-.85-.77.84.84,0,0,1,.85-.86h6.14V10.62l-3.39,0a.76.76,0,0,1-.84-.77.81.81,0,0,1,.84-.83l3.39,0V6.3l-3.21,0a19.71,19.71,0,0,1-2,2.93,1,1,0,0,1-.79.42.84.84,0,0,1-.86-.81.94.94,0,0,1,.23-.58,16.13,16.13,0,0,0,3.21-5.89.8.8,0,0,1,.82-.61.93.93,0,0,1,1,.83,1,1,0,0,1-.05.27c-.24.63-.49,1.24-.76,1.84l2.4,0V1.53a.93.93,0,1,1,1.85,0V4.74l4.86,0a.8.8,0,1,1,0,1.6l-4.86,0V9.06l3.64,0a.8.8,0,1,1,0,1.6l-3.64,0v3.24h6a.79.79,0,0,1,.82.82.77.77,0,0,1-.82.81Z"/><path d="M322.58,8.3c0-2-1.57-3.71-4.18-3.71h0a.82.82,0,0,1,.5.76v.09c0,1.89-1.85,5.17-3.83,7.11a2,2,0,0,1-1.35.61c-1.28,0-2.43-1.44-2.43-3.4,0-3.26,3.2-6.57,7.25-6.57,3.64,0,5.91,2.41,5.91,5.22a5.51,5.51,0,0,1-.4,2c-1.58,4-6.48,4.56-6.73,4.56a1,1,0,0,1-1-.88c0-.4.31-.78,1-.9C320.53,12.68,322.58,10.66,322.58,8.3Zm-5.2-3.62c-2.25.45-4.5,2.85-4.5,5,0,1.35.9,1.51.95,1.51a.46.46,0,0,0,.34-.14c.54-.49,2.79-3.15,2.87-5.58A1,1,0,0,1,317.38,4.68Z"/><path d="M336.69,1.42l2.32,0c1,0,1.44.57,1.44,1.26a1.63,1.63,0,0,1-.34,1,17.23,17.23,0,0,1-10.05,6.57.83.83,0,0,1-.88-.81.87.87,0,0,1,.78-.81,14.73,14.73,0,0,0,5-2.13,7,7,0,0,0-1.1-.54c-.29-.1-.4-.28-.4-.46a1.05,1.05,0,0,1,1-.89,3.9,3.9,0,0,1,1.78.92,9.15,9.15,0,0,0,2.27-2.56c0-.1-.07-.21-.25-.21-.6,0-1.66,0-2.72,0-1.35,1.38-4.12,3.51-4.95,3.51a.83.83,0,0,1-.85-.81.81.81,0,0,1,.49-.7A15.56,15.56,0,0,0,335.38.45a.86.86,0,0,1,.72-.38.84.84,0,0,1,.88.76.85.85,0,0,1-.16.45Zm-3.91,11a.88.88,0,0,1-.91-.86.82.82,0,0,1,.59-.77,14.84,14.84,0,0,0,6.39-4.52.91.91,0,0,1,.72-.38.89.89,0,0,1,.92.81.67.67,0,0,1-.2.48c-.09.11-.2.2-.29.31.92,0,1.95,0,2.67,0,.95,0,1.4.49,1.4,1.1a2,2,0,0,1-.32,1c-3.89,6.55-11.58,6.75-12,6.75a.93.93,0,0,1-1-.92.84.84,0,0,1,.91-.84,14.34,14.34,0,0,0,6.31-1.7,7.3,7.3,0,0,0-1.41-.77.52.52,0,0,1-.38-.49,1.08,1.08,0,0,1,1-.93A4.09,4.09,0,0,1,339.39,12,8.47,8.47,0,0,0,342,9.06a.26.26,0,0,0-.29-.26l-3,0C336.55,10.7,333.58,12.42,332.78,12.42Z"/><path d="M360.56,15.68c-1.58,0-3.24.06-4.9.06s-3.31,0-4.93-.06a2.12,2.12,0,0,1-2.39-2.18c-.06-1.35-.08-3-.08-4.64,0-2,0-4.12.08-5.89a2,2,0,0,1,2.25-2c1.56,0,3.22-.06,4.91-.06s3.4,0,5.1.06a2.16,2.16,0,0,1,2.19,2.11c0,1.83.08,3.85.08,5.81,0,1.6,0,3.15-.08,4.52A2.21,2.21,0,0,1,360.56,15.68Zm.56-7.2c0-1.62,0-3.24-.07-4.7,0-1-.4-1.21-1.28-1.22-1.35,0-2.85,0-4.29,0s-2.88,0-4.14,0c-1,0-1.31.3-1.33,1.22,0,1.46-.05,3.06-.05,4.63s0,3.09.05,4.45c0,1,.4,1.2,1.51,1.22s2.56,0,3.93,0,2.79,0,4.25,0c1,0,1.33-.5,1.35-1.28C361.1,11.45,361.12,10,361.12,8.48Zm-9.62,4.11a.69.69,0,0,1-.77-.67.72.72,0,0,1,.77-.72h3.12V8.57l-2.13,0h0a.67.67,0,0,1-.76-.65.72.72,0,0,1,.77-.7l2.13,0V5.42H352a.68.68,0,0,1-.77-.67A.72.72,0,0,1,352,4h6.95a.7.7,0,1,1,0,1.39h-2.7V7.26l2.18,0a.68.68,0,1,1,0,1.35l-2.18,0V11.2h3.22a.68.68,0,0,1,.74.68.7.7,0,0,1-.74.71Zm6.95-1.79a9.91,9.91,0,0,0-1.22-.81.53.53,0,0,1-.32-.47.71.71,0,0,1,.73-.64c.11,0,1.95.57,1.95,1.37a.73.73,0,0,1-.69.73A.69.69,0,0,1,358.45,10.8Z"/><path d="M369.86,2.77c-1.53,2.13-2.21,2.15-2.36,2.15a.82.82,0,0,1-.84-.74.76.76,0,0,1,.3-.58A8.64,8.64,0,0,0,369.48.38a.66.66,0,0,1,.6-.38.89.89,0,0,1,.88.83.82.82,0,0,1-.11.38l-.1.19h2.68a.7.7,0,0,1,.74.69.69.69,0,0,1-.74.68Zm1.52,12.84a.74.74,0,0,1-.81.7.72.72,0,0,1-.81-.7v0l.07-2.88c-1.37,1.87-1.84,2-2.15,2a.84.84,0,0,1-.86-.75.64.64,0,0,1,.29-.51,13.71,13.71,0,0,0,2.68-2.84l-1.75,0h0a.64.64,0,0,1-.69-.63.66.66,0,0,1,.7-.67h1.79V8.57l-1.46,0h0a.61.61,0,0,1-.65-.6.62.62,0,0,1,.67-.63h1.44l0-.72-1.57,0h0a.63.63,0,0,1-.69-.63.65.65,0,0,1,.7-.65h1.55V5a.81.81,0,0,1,1.61,0v.47h1.44a.63.63,0,0,1,.68.63.64.64,0,0,1-.67.65h0l-1.46,0,0,.7h1.31a.62.62,0,1,1,0,1.23h0l-1.33,0v.81h1.59a.65.65,0,1,1,0,1.3h0l-1.61,0v.63a.63.63,0,0,1,.35-.11c.41,0,1.8,1,1.8,1.62a.81.81,0,0,1-.76.78.62.62,0,0,1-.52-.31,6.92,6.92,0,0,0-.88-1.08c0,2.34.09,3.4.09,3.4Zm.48-10.86a.48.48,0,0,1-.39-.18,2,2,0,0,0-.89-.59.49.49,0,0,1-.34-.45.75.75,0,0,1,.78-.67c.09,0,1.6.36,1.6,1.15A.8.8,0,0,1,371.86,4.75Zm4.29-2c-.78,1-1.48,1.57-1.95,1.57a.81.81,0,0,1-.83-.74A.71.71,0,0,1,373.7,3,8.16,8.16,0,0,0,376,.34a.63.63,0,0,1,.57-.34.86.86,0,0,1,.85.79,1,1,0,0,1-.25.63l4.19,0a.69.69,0,0,1,.74.69.68.68,0,0,1-.74.68ZM377.5,9.6l-3.41,0a.62.62,0,0,1-.68-.62.67.67,0,0,1,.68-.68l1.39,0V7h-.83a.63.63,0,0,1-.72-.61.69.69,0,0,1,.72-.67h.83V5a.7.7,0,0,1,.74-.72A.72.72,0,0,1,377,5v.77h1.23l0-.77a.88.88,0,0,1,.05-.29.5.5,0,0,1-.18-.15,2,2,0,0,0-.88-.59.49.49,0,0,1-.34-.45.74.74,0,0,1,.77-.67c.13,0,1.59.38,1.59,1.15a.68.68,0,0,1-.06.29.72.72,0,0,1,.58.71v.75h1a.64.64,0,1,1,0,1.28h-1.06v1.3l1.68,0a.65.65,0,0,1,0,1.3Zm1.67,6.3c-.54,0-1.1,0-1.64,0-1.89,0-3.08,0-3.15-1.45,0-.38,0-.87,0-1.35s0-1,0-1.37a1.5,1.5,0,0,1,1.55-1.48l1.68,0q.83,0,1.62,0a1.53,1.53,0,0,1,1.49,1.35c0,.4,0,.9,0,1.41s0,1,0,1.42A1.47,1.47,0,0,1,379.17,15.9Zm.15-3.46c0-.12,0-.23,0-.34,0-.63-.09-.67-1.73-.67s-1.78,0-1.82.69c0,.09,0,.21,0,.32Zm0,1.14h-3.57c0,1.15,0,1.15,1.75,1.15s1.82-.15,1.82-.6ZM378.22,7l-.76,0H377V8.35h1.25Z"/><path d="M388.64,15.16l.18-8.34c-1.77,1.84-2.13,2-2.49,2a1,1,0,0,1-.93-1,.88.88,0,0,1,.37-.72,17.83,17.83,0,0,0,5.05-6,.83.83,0,0,1,.75-.48,1,1,0,0,1,1,1,1,1,0,0,1-.15.47,27.33,27.33,0,0,1-1.89,2.74l-.1,10.33a.87.87,0,0,1-.92.9.85.85,0,0,1-.9-.88Zm10.57-3.26a.79.79,0,0,1,.84-.83.92.92,0,0,1,1,.92c0,1.93-.72,3.31-2.38,3.53-.48.05-1.11.09-1.71.09-2,0-3.56-.34-3.56-2.23,0-.74,0-11.33,0-11.87a.84.84,0,0,1,.89-.74.83.83,0,0,1,.88.78c0,.36,0,2.57,0,5a30.28,30.28,0,0,0,3.77-2.23.74.74,0,0,1,.45-.17,1,1,0,0,1,.91,1,1,1,0,0,1-.48.83,34.7,34.7,0,0,1-4.66,2.29c0,2.32,0,4.41,0,4.73,0,.81.74.94,1.89.94,1.44,0,2.2,0,2.2-1.91V11.9Z"/><path d="M414.09,10.59c0,.3,0,.63,0,1a1.08,1.08,0,0,1-1,1.1.76.76,0,0,1-.74-.85v-.16a8.86,8.86,0,0,0,.08-1.21c-.38.2-2.06,1.08-2.06,2.22,0,.3.15,1.36,2,1.36a8.45,8.45,0,0,0,2.27-.37,1.38,1.38,0,0,1,.45-.08.87.87,0,0,1,.94.85c0,.38-.14,1.3-3.22,1.3s-4-1.55-4-2.87c0-2.19,2.56-3.56,3.5-4-.22-.7-.58-1.06-1.07-1.06a1.82,1.82,0,0,0-.93.32c-.76.85-1.21,1.1-1.6,1.1a.72.72,0,0,1-.78-.68,1,1,0,0,1,.42-.74A9.34,9.34,0,0,0,410.58,5a4.71,4.71,0,0,1-.88.08c-1.82,0-1.84-1-1.84-1.16a.77.77,0,0,1,.74-.79,1.17,1.17,0,0,1,.65.23,1.18,1.18,0,0,0,.66.15,7,7,0,0,0,1.43-.2,7.12,7.12,0,0,0,.32-1.42.71.71,0,0,1,.76-.63.92.92,0,0,1,1,.79,3.23,3.23,0,0,1-.11.67c.54-.27.61-.29.74-.29a.78.78,0,0,1,.77.79c0,.59-.46,1-2.34,1.41-.27.55-.63,1.17-1,1.8a2.4,2.4,0,0,1,2.27,1.69,21.11,21.11,0,0,1,4.15-1.46,1,1,0,0,1,1,.94.75.75,0,0,1-.48.7c-.56.23-1.16.3-2.09.59-.76.24-1.53.52-2.23.81A8.05,8.05,0,0,1,414.09,10.59Z"/><path d="M425.73,10.08c-.5.18-1,.34-1.51.49a1,1,0,0,1-.34,0,.82.82,0,0,1-.85-.83.78.78,0,0,1,.63-.77c.71-.18,1.41-.38,2.07-.59v-3H424.1a.78.78,0,1,1,0-1.56h1.63V1.12a.86.86,0,0,1,1.71,0v2.7h1a.74.74,0,0,1,.79.77.75.75,0,0,1-.79.79h-1V7.81c.34-.12.65-.27.95-.41a.62.62,0,0,1,.29-.07.74.74,0,0,1,.67.75c0,.56-.31.69-1.93,1.35v1.93c0,.29,0,1.91.07,2.54V14c0,1.14-.74,2-2.29,2-.88,0-1.63-.13-1.63-1a.75.75,0,0,1,.7-.83.44.44,0,0,1,.16,0,3.54,3.54,0,0,0,.58.07c.38,0,.73-.13.73-.58Zm12.57,4a.71.71,0,0,1,.76.72.73.73,0,0,1-.78.76h-2.95c-1.28,0-2.57,0-3.69,0a1.66,1.66,0,0,1-1.84-1.78c0-.47,0-1,0-1.48,0-1.77,0-3.76.09-5.51a1.05,1.05,0,0,1-.76.32.76.76,0,0,1-.83-.66.84.84,0,0,1,.29-.58,13.31,13.31,0,0,0,2.84-4.72.78.78,0,0,1,.74-.55.88.88,0,0,1,.9.84c0,.2-.05.61-1.15,2.49h1.89a17.58,17.58,0,0,0,1.12-2.65.74.74,0,0,1,.75-.58,1,1,0,0,1,1,.83,11.19,11.19,0,0,1-1.2,2.4h2.63a.67.67,0,0,1,.68.7.68.68,0,0,1-.7.72h0c-.85,0-1.82,0-2.79,0V7.36h2.32a.66.66,0,1,1,0,1.32h-2.32V10.5h2.32a.65.65,0,1,1,0,1.29h-2.32v2.33c1,0,2.05,0,3,0Zm-4.66-5.4h-2.2c0,.59,0,1.2,0,1.82h2.22Zm0,3.11h-2.22c0,.53,0,1.05,0,1.53a.68.68,0,0,0,.7.76c.47,0,1,0,1.5,0Zm0-6.46H432c-.54,0-.54.47-.54,1.35,0,.22,0,.45,0,.68h2.16Z"/><path d="M442.92,16a1,1,0,0,1-1-1,.78.78,0,0,1,.45-.68,8.65,8.65,0,0,0,2.42-1.87c0-1,.07-1.77.07-2.56V9.54c0-.47-.22-.52-.83-.52h-.7c-.34,0-1,0-1-.77a.77.77,0,0,1,.75-.81h1.75c1.15,0,1.69.54,1.69,1.7s-.07,2.27-.07,3.42c1.14,1.44,3,1.82,5.49,1.82,1.8,0,3.77-.2,5.13-.31h.09a.84.84,0,0,1,.87.86.89.89,0,0,1-.9.9c-1.14.11-2.79.22-4.43.22-3.91,0-5.38-.47-7.08-2.21C444.74,14.85,443.63,16,442.92,16Zm2.2-11.81a5.47,5.47,0,0,0-1.76-1.57.61.61,0,0,1-.36-.56.93.93,0,0,1,.92-.81c.54,0,2.79,1.39,2.79,2.31a1.06,1.06,0,0,1-1,1A.72.72,0,0,1,445.12,4.18Zm8.25,5.65V11.6c1.13,0,2.27,0,3.13,0a.66.66,0,0,1,.68.72.69.69,0,0,1-.68.74c-.9,0-2.07,0-3.28,0s-2.44,0-3.47,0C448,13,448,11.85,448,10.77c0-1.26,0-3.21.07-4.56a1.4,1.4,0,0,1-.9.52.75.75,0,0,1-.81-.68.74.74,0,0,1,.27-.54,11.63,11.63,0,0,0,2.59-4.27.72.72,0,0,1,.72-.48.82.82,0,0,1,.88.73A8.28,8.28,0,0,1,450,3.37l1.73,0a.89.89,0,0,1,.06-.2,17.43,17.43,0,0,0,.73-2,.66.66,0,0,1,.67-.42c.47,0,1,.29,1,.71a9.3,9.3,0,0,1-.79,1.87l2.86,0a.67.67,0,0,1,.71.68.68.68,0,0,1-.73.69h0c-.81,0-1.8,0-2.81,0V6h2.21a.62.62,0,1,1,0,1.24h-2.21V8.59h2.21a.6.6,0,0,1,.65.61.61.61,0,0,1-.65.63ZM451.8,7.27h-2.23V8.59h2.23Zm0,2.56h-2.23v1.06c0,.71.38.71,2.23.71Zm0-5.09h-1.66c-.26,0-.5.16-.52.61,0,.18,0,.41,0,.68h2.2Z"/><path d="M469.13,15.32c-3.6,0-3.74-2.09-3.74-3.87,0-2,.22-4.66.22-6.79a17.48,17.48,0,0,0-.11-2.05s0-.13,0-.18a.89.89,0,0,1,.94-.9,1,1,0,0,1,1,.86c0,.4.06.83.06,1.3,0,2.22-.38,5-.38,7.46,0,1.47.07,2.37,1.85,2.37a12.57,12.57,0,0,0,4.31-.93,1.41,1.41,0,0,1,.56-.13.85.85,0,0,1,.88.86,1.24,1.24,0,0,1-.88,1.14A14.29,14.29,0,0,1,469.13,15.32Z"/><path d="M482.45,15.88A6.9,6.9,0,0,0,480.24,14a.82.82,0,0,1-.49-.72.81.81,0,0,1,.85-.79c.63,0,3.51,1.58,3.51,2.81a1,1,0,0,1-1,1A.82.82,0,0,1,482.45,15.88Z"/><path d="M81.54,32.6l2.32,0c1,0,1.44.57,1.44,1.26a1.63,1.63,0,0,1-.34,1,17.24,17.24,0,0,1-10,6.57.83.83,0,0,1-.89-.81c0-.34.24-.68.78-.81a14.73,14.73,0,0,0,5-2.13,7,7,0,0,0-1.1-.54c-.29-.1-.4-.28-.4-.46a1.05,1.05,0,0,1,1-.89,3.9,3.9,0,0,1,1.78.92,9.31,9.31,0,0,0,2.27-2.55.22.22,0,0,0-.25-.22c-.59,0-1.66,0-2.72,0-1.35,1.38-4.12,3.51-5,3.51a.84.84,0,0,1-.85-.81.81.81,0,0,1,.49-.7,15.56,15.56,0,0,0,5.17-4.29.86.86,0,0,1,.72-.38.84.84,0,0,1,.88.76.77.77,0,0,1-.16.45Zm-3.91,11a.88.88,0,0,1-.91-.86.82.82,0,0,1,.59-.77,14.84,14.84,0,0,0,6.39-4.52.91.91,0,0,1,.72-.38.89.89,0,0,1,.92.81.67.67,0,0,1-.2.48c-.09.11-.2.2-.29.31.92,0,2,0,2.67,0,1,0,1.4.49,1.4,1.1a2,2,0,0,1-.32,1c-3.89,6.55-11.58,6.75-12,6.75a.93.93,0,0,1-1-.92.85.85,0,0,1,.92-.84,14.33,14.33,0,0,0,6.3-1.7,7,7,0,0,0-1.41-.77.52.52,0,0,1-.38-.49,1.08,1.08,0,0,1,1-.93,4.09,4.09,0,0,1,2.18,1.28,8.47,8.47,0,0,0,2.56-2.9.25.25,0,0,0-.29-.25l-3,0C81.4,41.88,78.43,43.6,77.63,43.6Z"/><path d="M107.09,36.4l-2.83,0a12.54,12.54,0,0,1-2.63,6,11.13,11.13,0,0,0,5.74,2.72.85.85,0,0,1,.78.85,1.09,1.09,0,0,1-1.08,1.1,11.69,11.69,0,0,1-6.57-3.41,12.45,12.45,0,0,1-6.94,3.64,1,1,0,0,1-1-1,.86.86,0,0,1,.81-.84,10.94,10.94,0,0,0,6-3.12,14.21,14.21,0,0,1-1.82-3.06c-1.37,1.26-1.84,1.3-2,1.3a.92.92,0,0,1-.93-.89,1.09,1.09,0,0,1,.7-.95,6,6,0,0,0,2.1-1.89.67.67,0,0,1,.6-.32.94.94,0,0,1,1,.81c0,.09,0,.16-.18.52a10.37,10.37,0,0,0,1.66,3.2,10.64,10.64,0,0,0,2-4.68l-1.51,0c-1.77,0-3.66.06-7.22.11h0a.78.78,0,0,1-.83-.81.85.85,0,0,1,.85-.88l5.83,0,0-2.51a.87.87,0,0,1,1-.82.86.86,0,0,1,1,.82l0,2.51,5.77,0a.8.8,0,0,1,.81.86.78.78,0,0,1-.8.83Z"/><path d="M114.59,46.34l.18-8.34c-1.77,1.84-2.13,2-2.49,2a1,1,0,0,1-.93-1,.88.88,0,0,1,.37-.72,17.83,17.83,0,0,0,5-6,.83.83,0,0,1,.75-.48,1,1,0,0,1,1,.95,1,1,0,0,1-.15.47A27.33,27.33,0,0,1,116.51,36l-.1,10.33a.87.87,0,0,1-.92.9.85.85,0,0,1-.9-.88Zm10.57-3.26a.79.79,0,0,1,.84-.83.92.92,0,0,1,1,.92c0,1.93-.72,3.32-2.38,3.53-.48,0-1.11.09-1.71.09-2,0-3.56-.34-3.56-2.23,0-.74,0-11.33,0-11.87a.84.84,0,0,1,.89-.73.82.82,0,0,1,.88.77c0,.36,0,2.57,0,5a30.28,30.28,0,0,0,3.77-2.23.74.74,0,0,1,.45-.17,1,1,0,0,1,.92,1,1,1,0,0,1-.49.83,34.7,34.7,0,0,1-4.66,2.29c0,2.32,0,4.41,0,4.73,0,.81.74.94,1.89.94,1.44,0,2.2,0,2.2-1.91v-.11Z"/><path d="M131.22,42.09a.78.78,0,1,1,0-1.56h3.47V37.09h-2.57a.79.79,0,1,1,0-1.58l2.57,0v-2.9a.91.91,0,0,1,1.79,0v2.9h3.27v-2.9a.91.91,0,0,1,1.79,0v2.9l2.73,0a.79.79,0,0,1,0,1.58h-2.73v3.45h3.63a.78.78,0,0,1,0,1.56Zm.31,5.2a.94.94,0,0,1-1-.91,1,1,0,0,1,.82-.9,10.32,10.32,0,0,0,4.14-2.38.87.87,0,0,1,.6-.25,1,1,0,0,1,.94.95.9.9,0,0,1-.31.65C135.7,45.35,132.64,47.29,131.53,47.29Zm8.22-10.2h-3.27v3.45h3.27Zm5,10.13a14.09,14.09,0,0,1-5.22-2.82.87.87,0,0,1-.32-.67.91.91,0,0,1,1.51-.67,11.12,11.12,0,0,0,4.25,2.27,1,1,0,0,1,.81.92A1,1,0,0,1,144.72,47.22Z"/><path d="M150.05,46.67a.77.77,0,0,1-.85-.78.84.84,0,0,1,.85-.86h6.14V41.8l-3.39,0a.76.76,0,0,1-.84-.77.81.81,0,0,1,.84-.83l3.39,0V37.48l-3.21,0a20.33,20.33,0,0,1-2,2.94,1,1,0,0,1-.79.41.84.84,0,0,1-.86-.81.94.94,0,0,1,.23-.58,16.16,16.16,0,0,0,3.21-5.88.8.8,0,0,1,.82-.62.93.93,0,0,1,1,.83,1,1,0,0,1,0,.27c-.24.63-.49,1.24-.76,1.84l2.4,0V32.71a.93.93,0,1,1,1.85,0v3.21l4.86,0a.8.8,0,1,1,0,1.6l-4.86,0v2.76l3.64,0a.8.8,0,0,1,.86.81.79.79,0,0,1-.86.79l-3.64,0V45h6a.79.79,0,0,1,.82.82.78.78,0,0,1-.82.82Z"/><path d="M171.14,39.14a.86.86,0,0,1-.91-.85c0-.41.32-.84,1.06-.9a11.33,11.33,0,0,0,2.93-.59c-.16-.54-.32-1-.43-1.42a4.89,4.89,0,0,0-.58-1.21.9.9,0,0,1-.12-.45,1,1,0,0,1,1-.86c.75,0,1,.63,1.35,2,.09.4.23.9.39,1.46a16,16,0,0,0,1.93-.65,3.08,3.08,0,0,1,1.15-.29c.61,0,1,.36,1,.76s-.32.79-1,1-1.06.31-1.66.49l-.9.27q.27.91.6,1.89l1-.29a25.46,25.46,0,0,1,3.08-.83,1.52,1.52,0,0,1,.29,0,.87.87,0,0,1,.95.87c0,.47-.25.9-1,1-3,.56-3.61.76-3.81.81.54,1.62,1.08,3.17,1.47,4.27a1.72,1.72,0,0,1,.11.58.93.93,0,0,1-.88,1,1.05,1.05,0,0,1-1-.88c-.34-1.17-.85-2.79-1.37-4.48-.81.27-1.53.54-2.23.79a13.84,13.84,0,0,1-2.58.74.94.94,0,0,1-1-.94,1,1,0,0,1,.9-1c.61-.13,1.55-.33,2.2-.52l2.19-.71c-.21-.66-.41-1.31-.61-1.92a16,16,0,0,1-3.53.79Z"/><path d="M194.78,40.76c.5,1.64,1.13,3.56,1.6,4.79a.92.92,0,0,1-.41,1.26.83.83,0,0,1-1.08-.65c-.4-1.28-1-3.19-1.5-4.86l-1,.41a7.73,7.73,0,0,1-1.23.44.8.8,0,1,1-.43-1.53c.58-.17.76-.2,1.12-.33.16,0,.57-.2,1.11-.41-.1-.34-.21-.65-.3-.92s-.24-.65-.34-.9a.79.79,0,0,1,1.47-.56,7.33,7.33,0,0,1,.32,1c.08.25.17.54.26.87,1.26-.47,2.72-1,3.76-1.3a1,1,0,0,1,1.33,1.37,7,7,0,0,1-2,3c-1,.87-2-.43-1.13-1.13a4.33,4.33,0,0,0,1.24-1.55C196.76,40,195.72,40.4,194.78,40.76Z"/><path d="M211.18,38.62a7.46,7.46,0,0,0-2.56-1.23c-1.08-.23-.63-2,.74-1.69a11,11,0,0,1,3,1.21,1,1,0,0,1,.3,1.45A1,1,0,0,1,211.18,38.62ZM212,45.4a3.75,3.75,0,0,1-1.73.58c-1.49.13-1.71-1.76-.56-1.89a6.6,6.6,0,0,0,1.39-.45,17.58,17.58,0,0,0,8-7.92c.6-1.14,2.42-.38,1.63,1.06A20.34,20.34,0,0,1,212,45.4Z"/><path d="M225.36,42c1.53-.59,3.73-2.43,4.12-4.14a1,1,0,0,1,1.84.54c-.6,2.24-3.48,4.68-5.2,5.4A1,1,0,1,1,225.36,42Zm12.51.65a12,12,0,0,0-4.12-4.14c-1-.54-.07-2,1.17-1.33s4,2.61,4.77,4.45a1.13,1.13,0,0,1-.48,1.45A.94.94,0,0,1,237.87,42.63Zm.13-5a1.88,1.88,0,0,1,0-3.76,1.88,1.88,0,1,1,0,3.76Zm0-2.79a.9.9,0,0,0-.9.92.89.89,0,0,0,.9.9.91.91,0,0,0,.92-.9A.92.92,0,0,0,238,34.8Z"/><path d="M245.61,45.73c-1.33.5-2.25-1.19-.7-1.71A15.62,15.62,0,0,0,253,37.1c.14-.28,0-.41-.17-.39-.88.09-2.93.66-3.4.77a8.35,8.35,0,0,1-1.82.31.93.93,0,1,1,0-1.86,11.49,11.49,0,0,0,1.6-.19c.65-.11,2.83-.69,4.34-.83s2.32.92,1.73,2A24.35,24.35,0,0,1,253,40.25c1.69.78,3.91,2,4.93,3.43a1.1,1.1,0,0,1-.16,1.49.9.9,0,0,1-1.33-.16,14.85,14.85,0,0,0-4.55-3.48A16.88,16.88,0,0,1,245.61,45.73Z"/><path d="M274.11,46.34h-.18c-3.91-.36-6.38-3.06-6.38-5.83a5,5,0,0,1,1.3-3.3c0-.07.09-.12.09-.16a0,0,0,0,0,0,0,.76.76,0,0,0-.18.08c-2.82,1.45-3.17,1.56-3.56,1.56a1,1,0,1,1-.27-1.91c.38-.12,1.4-.43,1.94-.63.85-.3,2.34-.77,4.13-1.47a13.74,13.74,0,0,1,4.77-1.12c.9,0,1.22.42,1.22.88,0,.92-.76,1.12-1.44,1.12a2.88,2.88,0,0,1-.41,0,3.24,3.24,0,0,0-.44,0c-2.79,0-5.52,2.38-5.52,4.79,0,2.16,2.05,4,4.88,4,.9,0,1.33.52,1.33,1.06S274.93,46.34,274.11,46.34ZM275.65,40a6.59,6.59,0,0,0-1.53-1.11.62.62,0,0,1-.45-.56.78.78,0,0,1,.8-.71c.23,0,2.43.83,2.43,1.77a.86.86,0,0,1-.78.84A.64.64,0,0,1,275.65,40Zm2.07-1.49a6.35,6.35,0,0,0-1.56-1.07.62.62,0,0,1-.47-.55.77.77,0,0,1,.79-.72c.29,0,2.45.77,2.45,1.71a.83.83,0,0,1-.76.84A.69.69,0,0,1,277.72,38.53Z"/><path d="M294.23,39.48c0-2-1.57-3.71-4.18-3.71h0a.82.82,0,0,1,.5.76v.09c0,1.89-1.85,5.17-3.83,7.11a2,2,0,0,1-1.35.61c-1.28,0-2.43-1.44-2.43-3.4,0-3.26,3.2-6.57,7.25-6.57,3.64,0,5.91,2.41,5.91,5.22a5.51,5.51,0,0,1-.4,2c-1.58,4-6.48,4.56-6.73,4.56a1,1,0,0,1-1-.88c0-.4.31-.78,1-.9C292.18,43.86,294.23,41.84,294.23,39.48ZM289,35.86c-2.25.45-4.5,2.85-4.5,5,0,1.35.9,1.51,1,1.51a.46.46,0,0,0,.34-.14c.54-.49,2.79-3.15,2.87-5.58A1,1,0,0,1,289,35.86Z"/><path d="M303.68,40.9c-1.25.83-2.31-.81-1.05-1.56a13.41,13.41,0,0,0,3.91-4.18,5.49,5.49,0,0,0,.7-1.48c.33-1.2,2.13-.88,1.93.31a3,3,0,0,1-.27.79c.86-.14,1.8-.36,2.61-.41,1.26-.07,2.38.81,1.69,2-2.9,5-5.53,8.44-10.39,10.33-1.55.6-2.25-1.24-.72-1.74,3.8-1.28,6.75-4.52,8.83-8.43.18-.36,0-.43-.26-.43a26.08,26.08,0,0,0-2.88.45A18.67,18.67,0,0,1,303.68,40.9Zm9.09-7c-.9-.37-.2-1.45.63-1.15a6.2,6.2,0,0,1,1.77,1.08c.7.74-.35,1.84-.94,1.14A6.54,6.54,0,0,0,312.77,33.86Zm1.62-1.53c-.92-.36-.27-1.44.58-1.17a5.66,5.66,0,0,1,1.8,1c.72.72-.29,1.82-.9,1.15A6.67,6.67,0,0,0,314.39,32.33Z"/><path d="M331,42.13c1.24.11,1.8,1.76-.11,1.87l-1.3,0c-.83.06-2.54.18-3.17.26a9.75,9.75,0,0,1-1.38.1c-.4.89-1.59.94-1.75-.34a29.7,29.7,0,0,0-.49-5,4.3,4.3,0,0,0-1.06-1.84c-.81-.88.6-1.94,1.46-1.17a3.71,3.71,0,0,1,.59.71,1.36,1.36,0,0,1,.67-.24c.65,0,1.3-.11,2-.21s1.61-.31,2.27-.42a12.07,12.07,0,0,1,1.68-.3,1.63,1.63,0,0,1,1.81,2.08c-.54,1.27-.84,2.9-1.36,4.4Zm-6.54-3.71a41.83,41.83,0,0,1,.63,4.23,6.5,6.5,0,0,0,1.08,0c.52,0,1.8-.18,2.74-.27a29,29,0,0,0,1-4.32c.07-.45-.16-.63-.51-.57-.88.12-1.9.45-2.61.57a22.15,22.15,0,0,1-2.27.4Z"/><path d="M351.4,40.17h-.94c-3.44,0-6.07.16-7.49.21-.93,0-1.42.06-1.78.06l-.58,0a1,1,0,0,1-1-1c0-.45.36-.89,1.08-.89h.11c.66,0,1.46.06,2.18.06,1.47,0,5.33-.22,8.49-.31h0a1,1,0,0,1,1.1.92c0,.47-.38.94-1.15.94Z"/><path d="M357.66,42c1.53-.59,3.73-2.43,4.12-4.14a1,1,0,0,1,1.84.54c-.6,2.24-3.48,4.68-5.2,5.4A1,1,0,1,1,357.66,42Zm12.51.65a12,12,0,0,0-4.12-4.14c-1-.54-.07-2,1.17-1.33s4,2.61,4.77,4.45a1.13,1.13,0,0,1-.48,1.45A.94.94,0,0,1,370.17,42.63ZM368,36.15c-.9-.38-.2-1.46.63-1.15a6.06,6.06,0,0,1,1.76,1.08c.7.74-.34,1.83-.94,1.13A6,6,0,0,0,368,36.15Zm1.62-1.53c-.92-.36-.27-1.44.57-1.17a5.45,5.45,0,0,1,1.8,1c.72.72-.29,1.81-.9,1.15A6.29,6.29,0,0,0,369.6,34.62Z"/><path d="M376.69,44.09a8.21,8.21,0,0,0,4.1-5.24,4.74,4.74,0,0,0,.09-1.6,1,1,0,1,1,2-.07,4.72,4.72,0,0,1-.23,1.89,10.91,10.91,0,0,1-4.79,6.53C376.54,46.41,375.39,44.81,376.69,44.09Zm8.73.49c-1.23.48-1.79-.38-1.6-1.25a31.31,31.31,0,0,0,.41-5.58,6.57,6.57,0,0,0-.14-1.19,1,1,0,0,1,1.92-.5,4.82,4.82,0,0,1,0,1.87c0,.72-.25,3.24-.25,3.86,0,.41,0,.45.45.21a13.22,13.22,0,0,0,4-4.41c.7-1.19,2.29-.05,1.58,1.1C390.48,40.94,387.69,43.68,385.42,44.58Z"/><path d="M399.42,41.25s.79-.71.79-.74a.17.17,0,0,0-.14-.15c-.83,0-1.57,0-2.34,0a7.81,7.81,0,0,1-2.31,1.3.74.74,0,0,1-.74-.74.84.84,0,0,1,.49-.71,14.83,14.83,0,0,0,3.51-2.43l-3.2,0a.68.68,0,0,1-.74-.68.69.69,0,0,1,.74-.69h2.59V35.12h-1.82a.68.68,0,0,1-.74-.68.69.69,0,0,1,.74-.69h1.8V32.3a.8.8,0,0,1,1.6,0v1.45h1a.63.63,0,0,1,.63.69,15.9,15.9,0,0,0,.76-1.55.69.69,0,0,1,.66-.47.89.89,0,0,1,.9.79,10.6,10.6,0,0,1-1.92,3.26h.52a.72.72,0,0,1,.79.71.69.69,0,0,1-.77.66h0l-1.64,0a19,19,0,0,1-1.35,1.34h1.85c.81,0,1.14.44,1.14.87,0,.61-.42,1-2,2,0,.08.09.15.13.22.92-.16,1.73-.32,2.34-.45a.44.44,0,0,1,.16,0,.61.61,0,0,1,.63.63.68.68,0,0,1-.59.65c-.58.13-1.32.29-2.14.45,0,.18,0,.36,0,.54a2.91,2.91,0,0,1-2.9,3.13c-.84,0-1.46-.3-1.46-.84a.74.74,0,0,1,.74-.72.89.89,0,0,1,.22,0,1.62,1.62,0,0,0,.52.07c.83,0,1.33-.57,1.33-1.78v-.14c-.84.14-3.09.56-3.47.56a.71.71,0,0,1-.76-.69.76.76,0,0,1,.74-.72c.94-.11,2-.27,3.06-.43a1.34,1.34,0,0,0-.47-.38.55.55,0,0,1-.36-.48.75.75,0,0,1,.81-.63,1.12,1.12,0,0,1,.51.14Zm.52-4.78a15.54,15.54,0,0,0,1-1.4.54.54,0,0,1-.27,0h-1.06v1.35Zm9.24.29A13.76,13.76,0,0,1,407.31,43a9.18,9.18,0,0,0,3.16,2.36.78.78,0,0,1,.51.74,1,1,0,0,1-1,1,7.43,7.43,0,0,1-3.66-2.81,9,9,0,0,1-4.36,3,.9.9,0,0,1-.9-.87.87.87,0,0,1,.61-.79,9,9,0,0,0,3.75-2.72A14.47,14.47,0,0,1,404,38.71c-.45.66-.56.79-1,.79a.74.74,0,0,1-.74-.7.77.77,0,0,1,.16-.45,16.15,16.15,0,0,0,2.4-6.11.72.72,0,0,1,.77-.63.85.85,0,0,1,.92.76,18.4,18.4,0,0,1-.87,2.9l4.36,0a.76.76,0,0,1,0,1.51Zm-4,0a11.7,11.7,0,0,0,1.13,4.81,12.26,12.26,0,0,0,1.23-4.79Z"/><path d="M425.09,34.78c1.1.45,3,1.66,3,2.59a.86.86,0,0,1-.83.89.91.91,0,0,1-.71-.42,6.79,6.79,0,0,0-.78-.83,79.36,79.36,0,0,1-9.65,1,.83.83,0,0,1-.9-.83.71.71,0,0,1,.77-.73c.74,0,1.52,0,2.27-.06a13.92,13.92,0,0,0,.61-1.62l-3.79,0a.8.8,0,1,1,0-1.59l5.63,0v-1.1a.94.94,0,0,1,1.87,0v1.1l5.73,0a.8.8,0,1,1,0,1.59Zm1.44,10.12v0c0,1.06-.61,2.41-3,2.41-1.22,0-1.91-.14-1.91-1a.73.73,0,0,1,.7-.8.44.44,0,0,1,.15,0,6.21,6.21,0,0,0,1.1.13c.68,0,1.18-.24,1.22-1.1,0-.15,0-.31,0-.49h-6.18v2.52a.83.83,0,0,1-.88.81.76.76,0,0,1-.81-.79c0-.18.09-6.46.11-6.77,0-.7.56-1.51,2-1.55.84,0,1.91,0,2.95,0,.86,0,1.71,0,2.45,0,1.44.06,1.94.72,2,1.53s0,2.4,0,3.12Zm-1.67-3h-6.18c0,.33,0,.67,0,1h6.2Zm0-1.51c0-.7-.31-.72-2.92-.72-2.93,0-3.15,0-3.18.72v.27h6.12Zm-4-5.64a14.08,14.08,0,0,1-.72,1.55c1.44-.09,2.85-.21,4.2-.36a.78.78,0,0,1-.18-.11.57.57,0,0,1-.36-.5.68.68,0,0,1,.34-.58Z"/><path d="M435.15,45.76a11.55,11.55,0,0,1-.47-3.43c0-3.17.92-6.27,1-7.51a.88.88,0,0,1,1.76-.07.76.76,0,0,1,0,.14,41.85,41.85,0,0,0-1.17,6.43c0,.66.12.74.18.74s.09,0,.12-.13c.56-1.06.69-1.28,1.06-1.28a.78.78,0,0,1,.74.76.56.56,0,0,1-.09.32,9.48,9.48,0,0,0-1.35,3.39c0,.16,0,.32,0,.48a.84.84,0,0,1-.9.94A1,1,0,0,1,435.15,45.76Zm10-.1c-3.11,0-5.49-1.86-5.49-2.74a.9.9,0,0,1,.93-.85,1.07,1.07,0,0,1,.82.4,4.56,4.56,0,0,0,3.49,1.21,11.48,11.48,0,0,0,1.53-.11.75.75,0,0,1,.21,0,.82.82,0,0,1,.9.86C447.55,45.35,446.76,45.66,445.16,45.66Zm-2-7.91a10.14,10.14,0,0,1-2.44-.27.83.83,0,0,1,.08-1.65H441a8.1,8.1,0,0,0,1.74.18,17.2,17.2,0,0,0,2.22-.18h.16a.82.82,0,0,1,.86.84C445.93,37.39,445.43,37.75,443.13,37.75Z"/><path d="M456.77,42c-.15-1.41-.22-2.61-.24-3.71a4.7,4.7,0,0,1-1.17.18c-1.06,0-1.8-.43-1.8-1.08a.78.78,0,0,1,.83-.79,1.38,1.38,0,0,1,.56.12,1.16,1.16,0,0,0,.47.09,4.14,4.14,0,0,0,1.13-.21c0-.74.11-1.48.22-2.24a.94.94,0,0,1,1-.86.84.84,0,0,1,.9.81,2.48,2.48,0,0,1,0,.27q-.16.64-.27,1.26a4.14,4.14,0,0,0,.61-.38.91.91,0,0,1,.59-.21.79.79,0,0,1,.81.77c0,.52-.45.94-2.21,1.67,0,.33,0,.65,0,1,0,.7,0,1.46.09,2.3a8.3,8.3,0,0,1,4.68-1.73,2.38,2.38,0,0,1,2.7,2.42,4.46,4.46,0,0,1-4.21,4.14,1.73,1.73,0,0,1-2-1.71c0-.06,0-1.86,1.15-1.86a.76.76,0,0,1,.81.74,1.23,1.23,0,0,1-.14.5.79.79,0,0,0-.11.36c0,.24.16.35.41.35a2.82,2.82,0,0,0,2.29-2.42c0-.54-.38-1-1.44-1s-1.87.3-4,1.89c0,.28.16,1.63.16,1.85a1.57,1.57,0,0,1-1.59,1.76c-.86,0-1.6-.59-1.6-1.06a.34.34,0,0,1,0-.14c-1,.86-1.41,1.13-1.93,1.13a.94.94,0,0,1-.95-1,.75.75,0,0,1,.41-.69,28.35,28.35,0,0,0,3.39-2.17ZM457,43.6c-.31.26-.76.65-1.23,1.07a.5.5,0,0,1,.17,0,1.48,1.48,0,0,1,.45.09,1.13,1.13,0,0,0,.32,0c.22,0,.36-.12.36-.39v-.11Zm9-6a2,2,0,0,0-1.43-.67,1.9,1.9,0,0,0-1.46.77.75.75,0,0,1-.57.26.74.74,0,0,1-.78-.69c0-.74,1.28-1.85,3.06-1.85,1.5,0,2.65.83,2.65,1.64a.87.87,0,0,1-.83.86A.83.83,0,0,1,465.92,37.63Z"/><path d="M476.7,45a3.37,3.37,0,0,1-2.15-.94c-1.82-1.57-2.34-4-2.63-5.42-.14-.69-.34-1.78-.34-1.93a.88.88,0,0,1,.9-.86.93.93,0,0,1,.9.84c.11.58.15,1.19.25,1.77.74,4.19,2.43,4.36,2.54,4.36s.34-.15.51-.58.29-1,.5-1.53a.71.71,0,0,1,.67-.5,1,1,0,0,1,.95.9s0,.09,0,.14c-.1.59-.46,1.76-.52,2.32A1.49,1.49,0,0,1,476.7,45Zm6.91-4.09a6.31,6.31,0,0,0-2.36-3.64.71.71,0,0,1-.31-.58.79.79,0,0,1,.81-.73,1.19,1.19,0,0,1,.76.3c.76.65,3,2.63,3,4.45a1,1,0,0,1-1,1A.89.89,0,0,1,483.61,40.87Z"/><path d="M501,46.34h-.18c-3.91-.36-6.38-3.06-6.38-5.83a5,5,0,0,1,1.3-3.3c.05-.07.09-.12.09-.16a0,0,0,0,0,0,0,.62.62,0,0,0-.18.08c-2.82,1.45-3.17,1.56-3.56,1.56a1,1,0,1,1-.27-1.91c.38-.12,1.4-.43,1.94-.63.85-.3,2.34-.77,4.12-1.47a13.86,13.86,0,0,1,4.78-1.12c.9,0,1.22.42,1.22.88,0,.92-.76,1.12-1.44,1.12a2.88,2.88,0,0,1-.41,0,3.24,3.24,0,0,0-.44,0c-2.79,0-5.52,2.38-5.52,4.79,0,2.16,2.05,4,4.88,4,.9,0,1.33.52,1.33,1.06S501.82,46.34,501,46.34Z"/><path d="M510.8,47.06a7,7,0,0,0-2.21-1.89.82.82,0,0,1-.49-.72.81.81,0,0,1,.85-.79c.63,0,3.51,1.58,3.51,2.81a1,1,0,0,1-1,1A.84.84,0,0,1,510.8,47.06Z"/><path d="M139.48,73.45c1.23,1.84,3.48,2.78,5.6,3.24a.88.88,0,0,1,.78.83,1,1,0,0,1-1.05,1c-.39,0-4.86-1.1-6.7-4.43-1.87,3.92-6.71,4.59-6.71,4.59a.91.91,0,0,1-1-.87c0-.32.22-.64.74-.77,3-.72,4.67-1.84,5.48-3.55l-5.41,0a.76.76,0,1,1,0-1.51H133V69.67c0-.88.65-1.47,1.89-1.49l2.38,0c0-.25,0-.49,0-.65v-.05a.79.79,0,0,1,.84-.81.84.84,0,0,1,.87.88v.61c.84,0,1.67,0,2.38,0a1.72,1.72,0,0,1,1.83,1.6c0,.25,0,.9,0,1.51V72h1.85a.76.76,0,1,1,0,1.51Zm2-7.58v.89a.8.8,0,0,1-.88.75.74.74,0,0,1-.83-.7v-.94h-3.26v.89a.8.8,0,0,1-.88.75.74.74,0,0,1-.83-.7v-.94l-3.39,0a.77.77,0,1,1,0-1.53l3.39,0V63.3a.87.87,0,0,1,1.71,0v1.08h3.26V63.3a.87.87,0,0,1,1.71,0v1.08l3.53,0a.77.77,0,1,1,0,1.53ZM137.12,72a10.73,10.73,0,0,0,.18-2.44c-2.52,0-2.66,0-2.71.85V72Zm4.43-1.59c0-.79-.3-.81-.93-.83l-1.66,0a15,15,0,0,1-.18,2.36l0,.09h2.75Z"/><path d="M150,67a.74.74,0,0,1-.83-.72.79.79,0,0,1,.83-.8h5.12a.76.76,0,1,1,0,1.52Zm3.87,11c-.37,0-.91,0-1.44,0s-1,0-1.38,0a1.39,1.39,0,0,1-1.39-1.42c0-.39,0-.77,0-1.17s0-1,0-1.49A1.34,1.34,0,0,1,151,72.59c.42,0,.88,0,1.35,0s1.14,0,1.57,0a1.46,1.46,0,0,1,1.49,1.28c0,.41,0,.9,0,1.38s0,1,0,1.35A1.47,1.47,0,0,1,153.86,78Zm-3.27-13.48a.71.71,0,0,1-.8-.7.78.78,0,0,1,.8-.78h3.74a.71.71,0,0,1,.76.74.72.72,0,0,1-.76.74Zm0,4.81a.71.71,0,0,1-.79-.71.77.77,0,0,1,.79-.77h3.75a.71.71,0,0,1,.75.74.72.72,0,0,1-.75.74Zm0,2.32a.7.7,0,0,1-.79-.7.78.78,0,0,1,.79-.78h3.75a.71.71,0,0,1,.75.74.72.72,0,0,1-.75.74Zm3.23,3.62c0-.33,0-.65,0-.9,0-.47-.43-.49-1.35-.49-.26,0-.51,0-.78,0-.52,0-.52.34-.52,1.35,0,.32,0,.65,0,.92s.36.43,1.28.43,1.33-.11,1.35-.45S153.85,75.61,153.85,75.31Zm2.5-4a.72.72,0,0,1-.78-.72.74.74,0,0,1,.78-.74h1.87c.16-.63.33-1.42.49-2.2-.45,0-.88,0-1.26,0h0a.68.68,0,0,1-.74-.7.77.77,0,0,1,.78-.76H159c.11-.52.2-1,.26-1.33H157a.72.72,0,0,1-.81-.69.76.76,0,0,1,.81-.75h6.74a.72.72,0,1,1,0,1.44H160.9c-.07.36-.16.81-.27,1.33l1.25,0c1.15,0,1.69.54,1.69,1.69,0,.58,0,1.28,0,1.93h1a.73.73,0,1,1,0,1.46Zm6,6.86c-.49,0-1.12,0-1.75,0-2.34,0-3.72,0-3.8-1.71,0-.36,0-.74,0-1.13s0-1,0-1.37a1.67,1.67,0,0,1,1.73-1.6c.52,0,1.15,0,1.77,0s1.47,0,2,0a1.78,1.78,0,0,1,1.8,1.58c0,.47,0,1,0,1.53,0,.32,0,.65,0,1A1.75,1.75,0,0,1,162.38,78.12Zm.11-3.08c0-1.06-.07-1.32-.69-1.33-.36,0-.84,0-1.33,0s-.95,0-1.3,0c-.68,0-.7.32-.7,1.67,0,.27,0,.54,0,.74,0,.59.76.59,2,.59,1.57,0,1.94-.11,2-.59C162.49,75.81,162.49,75.42,162.49,75Zm-.56-5.24c0-.49,0-1,0-1.41,0-.57-.11-.77-.56-.77l-1.08,0c-.18.78-.34,1.57-.51,2.2Z"/><path d="M179.61,77.52h-.19c-3.9-.36-6.37-3.06-6.37-5.83a5.06,5.06,0,0,1,1.3-3.3c.05-.07.09-.12.09-.16s0,0,0,0a.53.53,0,0,0-.18.07c-2.83,1.46-3.17,1.56-3.56,1.56a1,1,0,1,1-.27-1.9c.37-.13,1.4-.44,1.94-.63.85-.31,2.34-.78,4.12-1.48a13.86,13.86,0,0,1,4.78-1.12c.9,0,1.22.42,1.22.88,0,.92-.76,1.12-1.44,1.12a2.88,2.88,0,0,1-.41,0h-.44c-2.79,0-5.52,2.37-5.52,4.79,0,2.16,2.05,4,4.87,4,.91,0,1.34.52,1.34,1.06S180.43,77.52,179.61,77.52Zm1.54-6.32a6.9,6.9,0,0,0-1.53-1.11.62.62,0,0,1-.45-.56.76.76,0,0,1,.8-.7c.23,0,2.43.82,2.43,1.76a.87.87,0,0,1-.78.85A.62.62,0,0,1,181.15,71.2Zm2.07-1.49a6.05,6.05,0,0,0-1.56-1.06.63.63,0,0,1-.47-.56.77.77,0,0,1,.79-.72c.29,0,2.45.77,2.45,1.71a.83.83,0,0,1-.76.84A.69.69,0,0,1,183.22,69.71Z"/><path d="M199.73,70.66c0-2-1.57-3.71-4.18-3.71h0a.83.83,0,0,1,.5.76v.09c0,1.89-1.85,5.17-3.83,7.11a2,2,0,0,1-1.35.61c-1.28,0-2.44-1.44-2.44-3.4,0-3.26,3.21-6.57,7.26-6.57,3.64,0,5.91,2.41,5.91,5.22a5.56,5.56,0,0,1-.4,2c-1.58,4-6.48,4.55-6.73,4.55a1,1,0,0,1-1-.88c0-.4.31-.78,1-.9C197.68,75,199.73,73,199.73,70.66ZM194.53,67c-2.25.45-4.5,2.85-4.5,5,0,1.35.89,1.51.95,1.51a.46.46,0,0,0,.34-.14c.54-.49,2.79-3.15,2.86-5.58A1,1,0,0,1,194.53,67Z"/><path d="M220.68,74.53l-3.18-.07v1.87c0,.94-.63,2.17-2.63,2.17-1.4,0-1.74-.35-1.74-.91a.75.75,0,0,1,.7-.82H214a4.08,4.08,0,0,0,.94.13.79.79,0,0,0,.9-.9v0l0-1.53-9,.09h0a.69.69,0,0,1-.72-.73.74.74,0,0,1,.74-.78l9,0,0-.61a.79.79,0,0,1,.11-.42c-.56,0-1.13,0-1.71,0-1.37,0-2.75,0-4.09,0s-1.83-.65-1.87-1.52c0-.52,0-1,0-1.4s0-.86,0-1.3c0-.7.5-1.44,1.84-1.47.64,0,1.65,0,2.75,0v-.9l-5.22,0a.72.72,0,1,1,0-1.44h5.22v-.72a.87.87,0,0,1,1.73,0V64h5.35a.72.72,0,1,1,0,1.44l-5.35,0v.9c1.08,0,2.14,0,2.92,0a1.67,1.67,0,0,1,1.74,1.37c0,.39,0,.81,0,1.22s0,1,0,1.55A1.72,1.72,0,0,1,217.39,72h-.06a.69.69,0,0,1,.13.45l0,.61,3.2,0a.71.71,0,0,1,.76.74.73.73,0,0,1-.74.77Zm-9,2.45A4.74,4.74,0,0,0,210,76.1a.54.54,0,0,1-.38-.54.83.83,0,0,1,.78-.85c.32,0,2.66.51,2.66,1.55a.9.9,0,0,1-.83.9A.66.66,0,0,1,211.72,77Zm1.2-9.56c-.95,0-1.83,0-2.41,0s-.78.32-.79.66c0,.13,0,.27,0,.4h3.24Zm0,2.23h-3.24c0,.15,0,.31,0,.45,0,.53.29.67.81.69s1.49,0,2.39,0Zm4.79-1.13c0-.13,0-.27,0-.4,0-.7-.25-.7-3.22-.7v1.1Zm-3.24,1.13v1.16c.9,0,1.75,0,2.43,0,.47,0,.76-.18.79-.69,0-.14,0-.3,0-.45Z"/><path d="M228.58,63.12c.72,0,1.46,0,1.8,0A1.54,1.54,0,0,1,232,64.63c0,.65,0,1.39,0,2.07,0,2.47,0,2.88-3.58,2.88-.47,0-.92,0-1.24,0v1.6c0,1.85,0,4.07-.07,6.61a.79.79,0,0,1-.87.77.78.78,0,0,1-.86-.74v0c.12-3.3.09-8.7.12-12.8C225.48,63.12,226.76,63.12,228.58,63.12Zm1.82,2.61c0-.23,0-.43,0-.63,0-.6-.25-.61-1.56-.61s-1.61.07-1.64.75c0,.15,0,.31,0,.49ZM227.16,67v1.18c.25,0,.79,0,1.33,0,1.75,0,1.87,0,1.89-.61,0-.18,0-.38,0-.59Zm9.76,2.55c-2.18,0-3.62,0-3.68-1.64,0-.37,0-.81,0-1.24,0-.68,0-1.42,0-2.07a1.5,1.5,0,0,1,1.53-1.49c.34,0,1.12,0,1.86,0,.54,0,1,0,1.35,0,1.33.07,1.89.82,1.89,1.67V66.2c0,2.77,0,5.36,0,7.65,0,.85,0,1.6,0,2.23,0,1.28-.63,2.4-2.68,2.4-1.26,0-1.91-.17-1.91-1a.72.72,0,0,1,.7-.79l.15,0a6.94,6.94,0,0,0,1,.11c.6,0,1-.22,1.06-1.1,0-.72,0-1.44,0-2.16,0-1.08,0-2.18,0-3.3v-.75C237.91,69.56,237.44,69.58,236.92,69.58Zm1.28-3.85c0-1.23,0-1.24-1.7-1.24-1.28,0-1.63,0-1.67.63,0,.18,0,.39,0,.61Zm0,1.3h-3.42c0,.21,0,.41,0,.59,0,.58.18.61,2,.61.59,0,1.17,0,1.42,0Z"/><path d="M248.62,77.76a.8.8,0,0,1-.89.75.79.79,0,0,1-.88-.75v0l.07-5.73a17.44,17.44,0,0,1-2,2.58,1,1,0,0,1-.68.32.92.92,0,0,1-.92-.84.81.81,0,0,1,.31-.62,17.09,17.09,0,0,0,3.29-4.28l0-.38-2.1,0h0a.73.73,0,0,1-.79-.77.77.77,0,0,1,.81-.79h2.09l0-1.78c-.34,0-1.55.27-1.75.27a.8.8,0,0,1-.83-.81.76.76,0,0,1,.72-.78,15,15,0,0,0,4.47-1.06.83.83,0,0,1,.29-.06.82.82,0,0,1,.81.83c0,.63-.69.87-2,1.23,0,.38,0,1.19,0,2.16h1.84a.77.77,0,0,1,.81.79.74.74,0,0,1-.79.77h0l-1.87,0v.88a.58.58,0,0,1,.18,0c.66,0,2.14,1.3,2.23,1.41a.85.85,0,0,1,.25.61.86.86,0,0,1-.79.86.76.76,0,0,1-.58-.3,6.34,6.34,0,0,0-1.29-1.17c0,2.72.09,6.66.09,6.66Zm7-4.09-4.3,1.21a1,1,0,0,1-.29,0,.74.74,0,0,1-.75-.77.8.8,0,0,1,.61-.78L255.58,72l0-8.53a.77.77,0,0,1,.84-.78.82.82,0,0,1,.89.78l0,8.08,1.77-.5a1.09,1.09,0,0,1,.25,0,.8.8,0,0,1,.77.81.73.73,0,0,1-.57.72l-2.22.61,0,4.63c0,.47-.44.7-.87.7s-.86-.23-.86-.7Zm-2.37-2.74a10.22,10.22,0,0,0-1.66-1.28.65.65,0,0,1-.36-.55.82.82,0,0,1,.88-.72,5.12,5.12,0,0,1,2.25,1.26.93.93,0,0,1,.31.68.88.88,0,0,1-.83.9A.83.83,0,0,1,253.21,70.93Zm.14-3.81a7.36,7.36,0,0,0-1.55-1.46.6.6,0,0,1-.29-.47.9.9,0,0,1,.91-.76c.48,0,2.39,1.23,2.39,2.13a.9.9,0,0,1-.83.92A.82.82,0,0,1,253.35,67.12Z"/><path d="M273.13,77.85c-.7,0-1.53.05-2.36.05-4.08,0-5.58,0-5.65-2.47,0-1.08-.05-2.88-.05-4.71s0-3.69.05-4.88a2.08,2.08,0,0,1,2.32-2.16c.74,0,2.31-.06,3.73-.06,1,0,1.89,0,2.47.06a2.09,2.09,0,0,1,2.23,2c0,1.16.05,3.3.05,5.33,0,1.79,0,3.48,0,4.38C275.83,77.07,274.88,77.77,273.13,77.85Zm1.1-8.48h-7.52v2.54h7.52Zm0-1.53c0-.58,0-1.08,0-1.46-.06-1.21-.47-1.23-3.62-1.23-1,0-1.93,0-2.5.06-1.26.07-1.34.37-1.34,2.63Zm-7.49,5.6c0,.66,0,1.24,0,1.63,0,1.21.56,1.23,3.83,1.23.81,0,1.64,0,2.24-.06,1.38-.07,1.38-.61,1.38-2.8Z"/><path d="M294.23,70.66c0-2-1.57-3.71-4.18-3.71h0a.83.83,0,0,1,.5.76v.09c0,1.89-1.85,5.17-3.83,7.11a2,2,0,0,1-1.35.61c-1.28,0-2.44-1.44-2.44-3.4,0-3.26,3.21-6.57,7.26-6.57,3.64,0,5.91,2.41,5.91,5.22a5.56,5.56,0,0,1-.4,2c-1.58,4-6.48,4.55-6.73,4.55a1,1,0,0,1-1-.88c0-.4.31-.78,1-.9C292.18,75,294.23,73,294.23,70.66ZM289,67c-2.25.45-4.5,2.85-4.5,5,0,1.35.89,1.51,1,1.51a.46.46,0,0,0,.34-.14c.54-.49,2.79-3.15,2.86-5.58A1,1,0,0,1,289,67Z"/><path d="M301.7,64.56a.67.67,0,0,1-.71-.68.71.71,0,0,1,.72-.74c.72,0,1.5,0,2.27,0s1.52,0,2.2,0a1.53,1.53,0,0,1,1.71,1.65c0,1.16,0,3.14.05,4v.11a1.71,1.71,0,0,1-.19.79.83.83,0,0,1,.36-.07.78.78,0,0,1,.86.72,3,3,0,0,1-.25.9c1,0,2,0,2.86,0a1.78,1.78,0,0,1,1.82,1.44c0,.62,0,1.25,0,1.88s0,1.26,0,1.89a1.82,1.82,0,0,1-1.89,1.65c-.87,0-1.89,0-2.92,0s-2.34,0-3.29,0c-1.25-.06-1.89-.72-1.95-1.64,0-.6,0-1.19,0-1.8s0-1.24,0-1.86.56-1.53,1.91-1.56c.54,0,1.17,0,1.84,0a10.43,10.43,0,0,0,.25-1.06,2.59,2.59,0,0,1-1.68.5c-.7,0-1.65-.12-1.65-.84a.73.73,0,0,1,.75-.72h.2a3.36,3.36,0,0,0,.58.06c.5,0,.74-.18.74-.63,0,0,0-.87,0-1.77,0-1.94,0-2.19-.63-2.21s-1.16,0-1.87,0-1.42,0-2.09,0Zm.12,5a.75.75,0,0,1-.74-.77.68.68,0,0,1,.51-.67,15.61,15.61,0,0,0,3.31-1.26.67.67,0,0,1,.34-.09.64.64,0,0,1,.63.67.71.71,0,0,1-.41.63A16.6,16.6,0,0,1,301.82,69.51Zm1.8-2.72a7.8,7.8,0,0,0-1.62-.72.6.6,0,0,1-.47-.56.73.73,0,0,1,.76-.66,6.57,6.57,0,0,1,2.18.75.66.66,0,0,1,.32.56.77.77,0,0,1-.75.76A.82.82,0,0,1,303.62,66.79ZM311.83,74c0-.94-.05-1.34-.88-1.36s-2.14,0-3.29,0c-.71,0-1.37,0-1.91,0-.87,0-.87.5-.87,1.37Zm-6.95,1.27c0,1.07,0,1.46.88,1.5s1.93,0,3,0c.78,0,1.55,0,2.2,0,.86,0,.86-.56.86-1.52Zm4.23-5.74a.75.75,0,0,1-.73-.77.67.67,0,0,1,.5-.67,16.82,16.82,0,0,0,3.24-1.24.69.69,0,0,1,.34-.09.68.68,0,0,1,.65.7.72.72,0,0,1-.41.63A15.65,15.65,0,0,1,309.11,69.51Zm.08-5a.67.67,0,0,1-.71-.68.71.71,0,0,1,.72-.74c.72,0,1.46,0,2.18,0s1.42,0,2.11,0a1.56,1.56,0,0,1,1.75,1.65c0,1.16,0,3.19.05,4v0c0,1-.72,1.78-2.18,1.78s-1.73-.56-1.73-.84a.73.73,0,0,1,.76-.72h.2a3,3,0,0,0,.56.06c.48,0,.72-.18.72-.58,0,0,0-.88,0-1.8,0-2.05,0-2.21-.63-2.23s-1.13,0-1.78,0-1.35,0-2,0Zm2.14,2.36a.82.82,0,0,1-.42-.13,7.8,7.8,0,0,0-1.62-.72.59.59,0,0,1-.46-.56.71.71,0,0,1,.73-.66,6.94,6.94,0,0,1,2.22.75.66.66,0,0,1,.32.56A.79.79,0,0,1,311.33,66.92Z"/><path d="M321.35,71.33c-1.22,1-1.49,1.12-1.76,1.12a.9.9,0,0,1-.87-.91.82.82,0,0,1,.44-.72,12.6,12.6,0,0,0,4.19-4.32.78.78,0,0,1,.67-.41,1,1,0,0,1,1,.92.84.84,0,0,1-.16.48,20.59,20.59,0,0,1-1.75,2.18l-.19,8.12a.84.84,0,0,1-.9.81.77.77,0,0,1-.83-.77v0Zm-1.55-3.17a.85.85,0,0,1-.9-.81,1,1,0,0,1,.6-.85A10,10,0,0,0,323,63a.83.83,0,0,1,.71-.45.92.92,0,0,1,.91.88,1,1,0,0,1-.18.54C322.94,66.09,320.7,68.16,319.8,68.16Zm12.43,5.53v1.4l0,1.41v0c0,.92-.77,2-2.75,2-.76,0-1.75,0-1.75-.92a.79.79,0,0,1,.79-.82h.18a4.24,4.24,0,0,0,1,.13c.57,0,1-.2,1-.88v0l0-2.3h-6.05a.69.69,0,1,1,0-1.37h6.05v-.65a.66.66,0,0,1,.16-.43h-5.66a.69.69,0,1,1,0-1.37h8.63a.69.69,0,0,1,0,1.37h-1.69a.6.6,0,0,1,.14.41v.67h2.07a.69.69,0,1,1,0,1.37ZM331.51,69c-.6,0-1.35,0-2.11,0-2.36,0-3.73,0-3.8-1.54,0-.31,0-.67,0-1,0-.59,0-1.22,0-1.75a1.68,1.68,0,0,1,1.76-1.58c.62,0,1.34,0,2.08,0s1.44,0,2,0a1.77,1.77,0,0,1,1.73,1.46c0,.5.05,1.11.05,1.69,0,.42,0,.83,0,1.19A1.6,1.6,0,0,1,331.51,69Zm-4.07,7.29a4.38,4.38,0,0,0-1.5-1,.55.55,0,0,1-.34-.47.87.87,0,0,1,.85-.76c.52,0,2.34.81,2.34,1.61a.94.94,0,0,1-.87.9A.63.63,0,0,1,327.44,76.26Zm4.19-10.85c0-.11,0-.22,0-.33,0-.68-.11-.7-2.18-.7-.62,0-1.25,0-1.66,0s-.63.34-.65.68c0,.09,0,.2,0,.31Zm-4.52,1.22c0,1.1,0,1.12,2.2,1.12s2.29,0,2.32-.63c0-.15,0-.33,0-.49Z"/><path d="M345.94,74.28c0,1.28.61,2,1.48,2,.11,0,2-.2,2-1.82,0-.92-.63-2.14-2.37-3.55a1.11,1.11,0,0,1-.49-.81.8.8,0,0,1,.86-.74,1.23,1.23,0,0,1,.76.29c2.14,1.78,3,3.48,3,4.88,0,2.12-2.1,3.46-3.81,3.46s-3-1.21-3-3.68v0c0-.45,0-.92,0-1.37-1.42-.4-2.67-.78-2.67-2.09a3.06,3.06,0,0,1,.65-1.71.83.83,0,0,0,.18-.5c0-.44-.65-1-1.71-1.37a.83.83,0,0,1-.63-.72.8.8,0,0,1,.87-.74c.57,0,3.15,1.12,3.15,2.65a2.3,2.3,0,0,1-.67,1.42,1.15,1.15,0,0,0-.34.7c0,.27.23.4.5.47l.74.18c.18-3.82.18-4.48.18-4.95,0-.74,0-1.25,0-1.91a.81.81,0,0,1,.85-.87c.94,0,.95.85.95,1.3,0,.65-.09,1.26-.12,2.09-.08,1.64-.2,3.22-.27,4.81,1,.39,1.51.72,1.51,1.26a.91.91,0,0,1-.85.93,1.2,1.2,0,0,1-.72-.3Z"/><path d="M371.36,74.12,366.23,74a7.42,7.42,0,0,0,5.45,2.59.82.82,0,0,1,.85.81,1,1,0,0,1-1,1A9.22,9.22,0,0,1,365,74.82c-1.91,3.33-6.59,3.68-6.61,3.68a.85.85,0,0,1-.88-.87.75.75,0,0,1,.68-.77c2.92-.42,4.54-1.43,5.31-2.81l-4.89.07h0a.71.71,0,0,1-.76-.74.75.75,0,0,1,.78-.77H364a6.15,6.15,0,0,0,.11-1.15l-3.46,0a.68.68,0,0,1-.74-.68.7.7,0,0,1,.74-.72h3.47c0-.36,0-.72,0-1.08l-3.74,0a.7.7,0,0,1-.78-.7.75.75,0,0,1,.78-.76l3.72,0c0-.23,0-.47,0-.7v0a.75.75,0,0,1,.84-.7.83.83,0,0,1,.92.72c0,.24,0,.47,0,.72l3.65,0a.73.73,0,1,1,0,1.46l-3.65,0c0,.36,0,.74,0,1.08h3.44a.68.68,0,0,1,.7.7.67.67,0,0,1-.7.7l-3.46,0a8.21,8.21,0,0,1-.1,1.15h5.65a.74.74,0,0,1,.76.77.72.72,0,0,1-.74.74Zm-5.44-9.62c1.41,0,2.79,0,4.16,0a2,2,0,0,1,2,1.82c0,.27,0,.59,0,.9,0,.65,0,1.4-1,1.4a.78.78,0,0,1-.86-.75v0c0-1.69,0-1.85-1.13-1.89-1.43,0-3.08,0-4.69,0-1.31,0-2.59,0-3.69,0s-1.13.27-1.19.94v1h0a.82.82,0,0,1-.88.78.8.8,0,0,1-.86-.81c0-.24,0-.51,0-.78s0-.57,0-.86a1.87,1.87,0,0,1,2.07-1.73c1.37,0,2.75,0,4.14,0V63.23a.94.94,0,0,1,1.87,0Z"/><path d="M378.61,69.42h-1.39a.69.69,0,0,1-.73-.72.75.75,0,0,1,.73-.79h1.39V65.13H377a.68.68,0,0,1-.74-.71.76.76,0,0,1,.74-.8h4.68a.7.7,0,0,1,.7.76.69.69,0,0,1-.7.75H380.2v2.78h1.24a.76.76,0,0,1,0,1.51H380.2v3.17c.46-.18.93-.38,1.35-.58a.87.87,0,0,1,.41-.09.75.75,0,0,1,.76.7.84.84,0,0,1-.58.74,27.73,27.73,0,0,1-5.4,2,.82.82,0,0,1-.18-1.62c.68-.18,1.37-.38,2.05-.59Zm1.69,9.16a1,1,0,0,1-.23,0,.85.85,0,0,1-.94-.83.8.8,0,0,1,.72-.79c2.81-.38,4.29-1.42,4.83-3.08a.88.88,0,0,1,.84-.68.91.91,0,0,1,.92.85.92.92,0,0,1-.07.3C385.45,76.6,383.69,78.08,380.3,78.58Zm10.19-3.52a.68.68,0,0,1,.74-.72.82.82,0,0,1,.87.88c0,2-.47,3-2.83,3-1.87,0-2.18-.9-2.18-2.07s0-2.12.06-3.11c-.74,0-1.48,0-2.08,0a1.71,1.71,0,0,1-1.9-1.75c0-1.09,0-2.3,0-3.51,0-1,0-2,0-3,0-.82.55-1.63,1.92-1.7.53,0,1.21,0,1.88,0s1.36,0,1.9,0a1.85,1.85,0,0,1,1.95,1.68c0,1,.05,2.14.05,3.26s0,2.19-.05,3.24a1.93,1.93,0,0,1-2,1.76h0c0,1.1-.07,2.13-.07,3,0,.47.16.69.72.69.72,0,1-.08,1-1.43v-.18Zm-1.31-9.87c0-.72-.27-.74-2.29-.74-.54,0-1.06,0-1.38,0a.69.69,0,0,0-.72.72l0,.7h4.43Zm0,2.11h-4.45v1.4h4.45Zm-4.45,2.79c0,.29,0,.57,0,.86,0,.58.19.74,1.92.74,2.09,0,2.43,0,2.47-.76,0-.29,0-.55,0-.84Z"/><path d="M403,77.68c-3.6,0-3.74-2.08-3.74-3.87,0-2,.22-4.66.22-6.78a17.53,17.53,0,0,0-.11-2.06s0-.12,0-.18a.89.89,0,0,1,.93-.9,1,1,0,0,1,1,.87,12.71,12.71,0,0,1,.06,1.29c0,2.22-.38,5-.38,7.46,0,1.47.07,2.37,1.85,2.37a12.63,12.63,0,0,0,4.31-.93,1.41,1.41,0,0,1,.56-.13.85.85,0,0,1,.88.87,1.23,1.23,0,0,1-.88,1.13A14.29,14.29,0,0,1,403,77.68Z"/><path d="M420.1,78.41c-1.51,0-3-1-3-2.29,0-1.69,2.17-2.07,3.52-2.07a7.68,7.68,0,0,1,1.35.11v-.31c0-.27,0-.56,0-.88-.05-.56-.11-1.14-.14-1.75a6.62,6.62,0,0,1-1.37.18c-.34,0-2.18-.14-2.18-1.35,0-.34.14-.94,1.33-2,.24-.2.4-.38.4-.58,0-.48-1.53-1-2.7-1-.65,0-1-.38-1-.76a.86.86,0,0,1,1-.81c.8,0,3.77.67,4.33,1.93V66c0-.74,0-1.44,0-2a.83.83,0,0,1,.83-.9.91.91,0,0,1,.94.9V64c-.09,1.21-.18,2.92-.18,4.63v.48a3,3,0,0,0,.86-.63.92.92,0,0,1,.65-.3.89.89,0,0,1,.85.88c0,.88-1.5,1.49-2.33,1.76,0,.69.07,1.34.15,1.89s.12,1.19.14,1.86c1.32.47,2.7,1.31,2.7,2.2a1,1,0,0,1-.9,1,1,1,0,0,1-.77-.41,4.88,4.88,0,0,0-1.25-1A3.59,3.59,0,0,1,420.1,78.41Zm.22-3c-1.26,0-1.66.33-1.66.67s.69.78,1.3.78a1.87,1.87,0,0,0,1.78-1.25A5.79,5.79,0,0,0,420.32,75.43Zm1.29-7.7a1.88,1.88,0,0,1-.57.75c-1.05.83-1.06,1.1-1.06,1.16,0,.23.28.25.5.25a4.6,4.6,0,0,0,1.21-.2C421.65,69,421.63,68.38,421.61,67.73Z"/><path d="M440.82,74.5a2.83,2.83,0,0,1-2.63-2.92,2,2,0,0,1,2.07-2.12,3.37,3.37,0,0,1,.83.1c0-.59-.09-1.13-.12-1.63a25,25,0,0,0-6.61,1.42,1.67,1.67,0,0,1-.35.07.88.88,0,0,1-.86-.9,1,1,0,0,1,.85-1,41.65,41.65,0,0,1,6.89-1.23v-.57c0-1.59,0-2.43,1-2.43a.92.92,0,0,1,1,.84,1,1,0,0,1,0,.17,12.67,12.67,0,0,0-.24,1.85c1.44-.09,2.9-.13,4.36-.13.75,0,1.13.45,1.13.9a1,1,0,0,1-1.06.9H447c-.88,0-1.78-.07-2.68-.07-.56,0-1.12,0-1.68,0,0,1.22.11,2.36.13,2.59a3,3,0,0,1,.95,2.14,3.54,3.54,0,0,1-.57,1.82,8.82,8.82,0,0,1-6.23,4.07.9.9,0,0,1-1-.86c0-.36.25-.74.86-.87A7.26,7.26,0,0,0,441,74.5Zm-.31-3.58a.76.76,0,0,0-.81.8A1.29,1.29,0,0,0,440.84,73a.78.78,0,0,0,.77-.77c0-.06,0-.1,0-.15a2.36,2.36,0,0,0-.12-.59A1.15,1.15,0,0,0,440.51,70.92Z"/><path d="M453.44,78.64a2.06,2.06,0,1,1,2.05-2A2.05,2.05,0,0,1,453.44,78.64Zm0-3.4a1.35,1.35,0,0,0-1.37,1.35,1.37,1.37,0,1,0,2.73,0A1.35,1.35,0,0,0,453.44,75.24Z"/><path d="M22.34,98.23a5.92,5.92,0,0,1-.88-2,.77.77,0,0,1,.83-.77,1.1,1.1,0,0,1,1,.86A9.21,9.21,0,0,0,24,97.81c.27-.09.54-.18.81-.29a1.57,1.57,0,0,1,.52-.11.83.83,0,0,1,.85.83c0,.69-.49.83-1.37,1.08,1.56,2.79,2.46,4.45,2.46,5.58,0,.72-.36,1-.79,1a1.4,1.4,0,0,1-.93-.38,9.12,9.12,0,0,0-4.16-1c-1.44,0-2.16.71-2.16,1.21,0,.79,1.54,1.33,3.15,1.33.28,0,.57,0,.86,0h.16c.71,0,1.05.42,1.05.87a1.09,1.09,0,0,1-1.17,1c-3.68,0-5.84-1.43-5.84-3,0-.88,1-2.86,4.09-2.86a22.35,22.35,0,0,1,3.33.4H25s.06,0,.06,0,0-.72-1.86-3.73a12.34,12.34,0,0,1-2,.29c-2.08,0-3.83-1.78-3.83-2.52a.81.81,0,0,1,.86-.76,1.1,1.1,0,0,1,.85.4,3.11,3.11,0,0,0,2.32,1.24,1.72,1.72,0,0,0,.34,0Z"/><path d="M39.78,109.6c-.68,0-1-.39-1-.81a.86.86,0,0,1,.83-.84c3.19-.25,5.78-2.13,5.78-3.57A1.27,1.27,0,0,0,44,103.23c-1.38,0-3.94,2.27-4.21,2.59a1.33,1.33,0,0,1-1,.63c-.4,0-1.5-.39-1.5-3a7.73,7.73,0,0,1,.33-2.34,7.71,7.71,0,0,0,.18-1.51v-.31c0-1.17.54-1.76,1.78-2.45.43-.23.95-.45.95-.66s-.19-.29-.68-.45-.67-.45-.67-.74a.9.9,0,0,1,1-.81c.65,0,2.9,1.06,2.9,2.3,0,.85-.67,1-1.57,1.12a3.48,3.48,0,0,0-.87.36c-1.13.52-1.33,1-1.33,1.55,0,.09,0,.2,0,.3v.2a6.55,6.55,0,0,1,0,.72,16.73,16.73,0,0,0-.31,2.38s0,.77.22.77l.16-.05c.36-.22,1-.69,1.84-1.14a6,6,0,0,1,2.89-1,2.89,2.89,0,0,1,3.12,2.63c0,1.15-.79,2.54-2.7,3.78A11.69,11.69,0,0,1,39.78,109.6Z"/><path d="M54.9,108.13a11.67,11.67,0,0,1-.47-3.44c0-3.17.92-6.27,1-7.51a.88.88,0,0,1,1.76-.07.76.76,0,0,1,0,.14A42.08,42.08,0,0,0,56,103.68c0,.67.12.74.18.74s.09,0,.12-.13c.56-1.06.69-1.28,1.06-1.28a.78.78,0,0,1,.74.76.54.54,0,0,1-.09.32,9.48,9.48,0,0,0-1.35,3.39c0,.16,0,.32,0,.49a.84.84,0,0,1-.9.93A1,1,0,0,1,54.9,108.13Zm10-.11c-3.11,0-5.49-1.85-5.49-2.74a.89.89,0,0,1,.93-.84,1.06,1.06,0,0,1,.82.39A4.56,4.56,0,0,0,64.66,106a11.48,11.48,0,0,0,1.53-.11.75.75,0,0,1,.21,0,.83.83,0,0,1,.9.87C67.3,107.71,66.51,108,64.91,108Zm-2-7.9a10.67,10.67,0,0,1-2.44-.27.84.84,0,0,1-.75-.82.84.84,0,0,1,.83-.84.62.62,0,0,1,.18,0,8.79,8.79,0,0,0,1.74.18,17.2,17.2,0,0,0,2.22-.18l.16,0a.82.82,0,0,1,.86.84C65.68,99.76,65.18,100.12,62.88,100.12Z"/><path d="M73.85,109.42a7,7,0,0,0-2.21-1.89.82.82,0,0,1-.49-.72A.81.81,0,0,1,72,106c.63,0,3.51,1.59,3.51,2.81a1,1,0,0,1-1,1A.84.84,0,0,1,73.85,109.42Z"/><path d="M98.78,106.83a2.3,2.3,0,0,1-2.5,1.77H96.1c-.74,0-1.53,0-2.32,0-1,0-2,0-2.86.07h-.08a1.07,1.07,0,0,1-.5-2A3.1,3.1,0,0,0,91,106c5.35-5.65,5.46-6.48,5.46-7.44a1.89,1.89,0,0,0-1.93-1.94A2.49,2.49,0,0,0,92.41,98a1,1,0,0,1-.88.52,1,1,0,0,1-1-.92c0-.76,1.46-2.77,4-2.77,2,0,4,1.33,4,3.53a5.92,5.92,0,0,1-1.37,3.47,57.1,57.1,0,0,1-4.43,4.77.15.15,0,0,0,0,.11s0,.07.14.07c.63,0,2,0,2.9-.07,1-.09,1.13-.57,1.4-1.4a1,1,0,0,1,1-.81,1,1,0,0,1,1,1,1.18,1.18,0,0,1-.07.38Z"/><path d="M108.27,106.6h.07a1,1,0,1,1,0,2h-.07c-.49,0-1.19,0-1.91,0s-1.71,0-2.16,0a1,1,0,1,1-.09-2h.09c.2,0,.56,0,.83,0s.41-.11.41-.44c0-2,.06-4.86.06-6.64,0-.76,0-1.31,0-1.55,0-.56-.2-.85-.79-.86h-.43a1,1,0,0,1-1.1-1.07.93.93,0,0,1,.93-1h.08l.7,0,.63,0h.16a1.77,1.77,0,0,1,1.91,1.87v0c0,.32,0,.84,0,1.51,0,1.49-.07,3.69-.07,6,0,.56,0,1.14,0,1.7,0,.27.09.45.38.45Z"/><path d="M126.16,100.6c0,1.14,0,2.16,0,2.83,0,1.62-1.34,1.71-2.87,1.71-1.69,0-2.77-.09-2.79-1.69,0-.69,0-1.71,0-2.85h-2.34c0,.81,0,1.64,0,2.38,0,1.31,0,2.45,0,3.13,0,1.06.61,1.1,4.52,1.1,1.57,0,3.26,0,4.66-.09h.06a.74.74,0,0,1,.75.79.83.83,0,0,1-.81.87c-1.38.07-3,.09-4.46.09s-2.74,0-3.78-.08c-1.59-.07-2.74-.7-2.78-2.44,0-.6,0-1.34,0-2.15,0-1.11,0-2.36,0-3.6l-2.07,0a.77.77,0,0,1-.86-.76.83.83,0,0,1,.86-.84h2.07c0-1.27,0-2.44,0-3.34a.93.93,0,0,1,1.84,0v0c0,.88,0,2.07-.06,3.34h2.32c0-1.51,0-3,0-3.92a.81.81,0,0,1,.89-.74.75.75,0,0,1,.82.72v0c0,.85,0,2.39,0,3.92h2.3c0-1.38,0-2.79,0-3.7a.86.86,0,0,1,1.71,0c0,.93,0,2.32,0,3.7h2.61a.8.8,0,0,1,.83.83.77.77,0,0,1-.83.77Zm-4,0c0,1,0,1.89,0,2.45s.31.61,1.07.61,1.13-.11,1.17-.61,0-1.42,0-2.45Z"/><path d="M132.91,108.47a.73.73,0,0,1-.79-.68.94.94,0,0,1,.16-.49,8.26,8.26,0,0,0,1.06-3.1.69.69,0,0,1,.72-.63.79.79,0,0,1,.83.79A10.65,10.65,0,0,1,133.7,108,.94.94,0,0,1,132.91,108.47Zm2.45.38,0-6.27a22.43,22.43,0,0,1-2.28.27.67.67,0,0,1-.67-.72.62.62,0,0,1,.58-.66l1-.08a12.78,12.78,0,0,0,1-1.24,15.11,15.11,0,0,0-2.17-1.75.65.65,0,0,1-.35-.57.74.74,0,0,1,.74-.72c.13,0,.2,0,.52.18a11.92,11.92,0,0,0,1.39-3.08.68.68,0,0,1,.72-.5c.45,0,.94.28.94.73A13.55,13.55,0,0,1,135,98.12c.32.25.61.52.88.77a18.65,18.65,0,0,0,1.43-2.65.67.67,0,0,1,.66-.45.88.88,0,0,1,.9.8c0,.52-1.55,3-2.86,4.62l1.71-.19c-.38-.58-.4-.6-.4-.74a.67.67,0,0,1,.71-.58c.86,0,1.8,2,1.8,2.49a.86.86,0,0,1-.8.88c-.25,0-.5-.16-.61-.56a4,4,0,0,0-.14-.41c-.22.05-.69.14-1.24.23l0,6.52a.82.82,0,0,1-.86.84.79.79,0,0,1-.83-.82Zm3-2.16a7.44,7.44,0,0,0-.83-2.22.72.72,0,0,1-.13-.39.64.64,0,0,1,.69-.58c1.08,0,1.83,2.7,1.83,2.94a.89.89,0,0,1-.88.9A.69.69,0,0,1,138.35,106.69Zm2.73-10.59a.76.76,0,0,1-.82-.76.81.81,0,0,1,.84-.81h4.31a1.82,1.82,0,0,1,2,2c0,.45,0,1.06,0,1.63,0,1.64-.06,3.08-2,3.08h-1.79c-1.24,0-1.55,0-1.58.65s-.06,1.57-.06,2.56,0,1.75,0,2.36c0,.86.83.88,2.09.88s2.45,0,2.45-1.84a.8.8,0,0,1,.84-.84.9.9,0,0,1,1,1c0,3-2.16,3.35-4.29,3.35s-3.62-.2-3.71-2.2c0-.74,0-1.64,0-2.56,0-1.17,0-2.35.07-3.22a1.72,1.72,0,0,1,1.93-1.69l2.18,0c1.11,0,1.24,0,1.24-1.66,0-.4,0-.81-.06-1.3s-.32-.63-1.83-.63c-.89,0-1.82,0-2.76,0Z"/><path d="M152.59,109.28a.76.76,0,0,1-.85-.74.78.78,0,0,1,.85-.74l5.9,0v-1.64l-4.3,0a.72.72,0,1,1,0-1.44l4.28,0v-1a.88.88,0,0,1-.57.18.71.71,0,0,1-.8-.68l0-3.51h-1.74c-.42,2.9-2.08,4.48-2.9,4.48a.74.74,0,0,1-.8-.72.76.76,0,0,1,.31-.59,4.55,4.55,0,0,0,1.84-3.15h-1.44a.73.73,0,0,1-.8-.74.75.75,0,0,1,.8-.74h0l1.52,0v-.45c0-.29,0-.56,0-.81s0-.52,0-.79h-1a.73.73,0,0,1-.79-.72.75.75,0,0,1,.81-.76h6.65a.71.71,0,0,1,.72.74.69.69,0,0,1-.7.74h-1l0,2,1.44,0h0a.69.69,0,0,1,.7.74.7.7,0,0,1-.7.74h-1.46l0,3.33a.93.93,0,0,1,.64-.25.82.82,0,0,1,.87.84v1.12l4.14,0a.73.73,0,1,1,0,1.44l-4.14,0v1.64l5.8,0a.78.78,0,0,1,.79.78.7.7,0,0,1-.79.7Zm4.53-13.07h-1.6c0,.61,0,1.19,0,1.67v.4h1.62Zm4.16-.56a.75.75,0,0,1,.78-.77.77.77,0,0,1,.81.77v5.29a.8.8,0,0,1-1.59,0Zm5.08,6.07v0a2.15,2.15,0,0,1-2.43,2.22c-1.17,0-1.84-.27-1.84-1a.81.81,0,0,1,.78-.86.93.93,0,0,1,.23,0,3.6,3.6,0,0,0,.83.14c.41,0,.74-.18.75-.9s0-3.78,0-5.58V94.77a.81.81,0,0,1,1.62,0v4.91Z"/><path d="M183.08,101.84c0-2-1.57-3.71-4.18-3.71h0a.83.83,0,0,1,.5.76V99c0,1.89-1.85,5.17-3.83,7.11a2,2,0,0,1-1.36.62c-1.27,0-2.43-1.44-2.43-3.41,0-3.26,3.21-6.57,7.26-6.57,3.64,0,5.91,2.41,5.91,5.22a5.56,5.56,0,0,1-.4,2c-1.58,4-6.48,4.55-6.73,4.55a1,1,0,0,1-1-.88c0-.4.31-.77,1-.9C181,106.22,183.08,104.2,183.08,101.84Zm-5.2-3.61c-2.25.45-4.5,2.84-4.5,5,0,1.35.89,1.52,1,1.52a.47.47,0,0,0,.34-.15c.54-.49,2.79-3.15,2.86-5.58A.92.92,0,0,1,177.88,98.23Z"/><path d="M201.76,100.6c0,1.14,0,2.16,0,2.83,0,1.62-1.34,1.71-2.87,1.71-1.69,0-2.77-.09-2.79-1.69,0-.69,0-1.71,0-2.85h-2.34c0,.81,0,1.64,0,2.38,0,1.31,0,2.45.05,3.13,0,1.06.61,1.1,4.52,1.1,1.57,0,3.26,0,4.66-.09H203a.74.74,0,0,1,.75.79.83.83,0,0,1-.81.87c-1.38.07-3,.09-4.46.09s-2.74,0-3.78-.08c-1.59-.07-2.74-.7-2.78-2.44,0-.6,0-1.34,0-2.15,0-1.11,0-2.36,0-3.6l-2.07,0a.77.77,0,0,1-.86-.76.83.83,0,0,1,.86-.84h2.07c0-1.27,0-2.44,0-3.34a.93.93,0,0,1,1.84,0v0c0,.88,0,2.07-.06,3.34h2.32c0-1.51,0-3,0-3.92a.81.81,0,0,1,.88-.74.75.75,0,0,1,.83.72v0c0,.85,0,2.39,0,3.92h2.3c0-1.38,0-2.79,0-3.7a.86.86,0,0,1,1.71,0c0,.93,0,2.32,0,3.7h2.61a.8.8,0,0,1,.83.83.77.77,0,0,1-.83.77Zm-4,0c0,1,0,1.89,0,2.45s.31.61,1.07.61,1.13-.11,1.17-.61,0-1.42,0-2.45Z"/><path d="M217.06,103.75a.81.81,0,0,1,.87-.79l.16,0a23,23,0,0,1-2.05-1.91,19,19,0,0,1-2,1.93.78.78,0,0,1,.75.81c0,2.1-.88,5.22-5.49,6a.65.65,0,0,1-.2,0,.82.82,0,0,1-.82-.86.71.71,0,0,1,.57-.76c3.15-.43,4.11-2.18,4.18-4.38l0,0c-1.08.77-3.55,2.3-4.2,2.3a.84.84,0,0,1-.86-.82.81.81,0,0,1,.56-.76,18.52,18.52,0,0,0,5.51-3.44c-.51,0-1,0-1.41,0-.72,0-2.41,0-2.47-1.67,0-.56,0-1.19,0-1.82s0-1.21,0-1.7c0-.77.55-1.58,1.95-1.62.76,0,2,0,3.31,0,1.61,0,3.33,0,4.49,0a1.79,1.79,0,0,1,1.85,1.5c0,.43.05,1,.05,1.64s0,1.44-.05,2a1.86,1.86,0,0,1-2,1.69h-.49c-.41,0-.88,0-1.35,0a20.81,20.81,0,0,0,5.53,3.15.8.8,0,0,1,.54.76,1,1,0,0,1-1,1c-.59,0-2.61-1.15-4.3-2.43a.92.92,0,0,1,0,.25v5.13a.8.8,0,0,1-.86.8.8.8,0,0,1-.87-.8Zm-1.91-8.21c-1,0-1.89,0-2.5,0-.88,0-.92.65-.92,1.38h3.42Zm0,2.72h-3.42c0,.94.08,1.42.94,1.46.67,0,1.55,0,2.48,0Zm5-1.3c0-.25,0-.46,0-.66,0-.45-.27-.7-.88-.72s-1.51,0-2.5,0V97Zm-3.4,1.3v1.5c.91,0,1.82,0,2.52,0,.88,0,.88-.63.88-1.46Z"/><path d="M234.36,101.81c-.77-.42-.94-1-.94-2,0-.29,0-.61,0-1,0-.83,0-1.48,0-2a8.5,8.5,0,0,0-.12-1.73,1,1,0,0,1,0-.23.78.78,0,0,1,.83-.79c1.1,0,1.15,1,1.15,2.25,0,.5,0,1.13-.11,2,0,.56-.09,1-.09,1.37,0,1.12.74,1.23,1.28,1.23.27,0,.31-.15.52-.22a.74.74,0,0,1,.29,0,.9.9,0,0,1,.9.86,1.17,1.17,0,0,1-.67.94c-.61.37-2.05,1-2.88,1.44-1.36.75-2,1.53-2,2.19s.8,1.5,2.65,1.5a5,5,0,0,0,2.5-.58,1.55,1.55,0,0,1,.85-.29,1,1,0,0,1,1,.92c0,1.12-2.11,1.75-4,1.75-3.25,0-4.71-1.55-4.71-3.1,0-1.3,1-2.77,3.17-4l.61-.34A1.37,1.37,0,0,1,234.36,101.81Z"/><path d="M260.88,107.12v0c0,1.06-.67,2.41-3.1,2.41-1.6,0-2.07-.31-2.07-1a.78.78,0,0,1,.74-.84.44.44,0,0,1,.16,0,6.81,6.81,0,0,0,1.15.12c.74,0,1.3-.23,1.3-1,0-7.64,0-7.82-.06-9.28,0-1.06-.5-1.17-1.27-1.18-1.32,0-2.63,0-3.93,0s-2.57,0-3.8,0c-1,0-1.31.32-1.33,1.24,0,2.12-.07,4.41-.07,6.8,0,1.52,0,3.07,0,4.65v0a.81.81,0,0,1-.89.77.83.83,0,0,1-.92-.77c0-4.85.08-10.55.11-12.12a2.09,2.09,0,0,1,2.25-2.14c1.59,0,3.26-.06,5-.06,1.48,0,3,0,4.43.06a2,2,0,0,1,2.2,2c.07,2.74,0,5.75.07,7.78Zm-10.23-8.05a.73.73,0,0,1,0-1.46H257a.73.73,0,0,1,0,1.46Zm3.13,7.1c-2.84,0-3.31-.08-3.31-2.74,0-.54,0-1.12,0-1.55A1.46,1.46,0,0,1,252,100.4c.63,0,1.27,0,1.92,0s1.08,0,1.61,0a1.47,1.47,0,0,1,1.54,1.48c0,.4,0,.88,0,1.35C257.15,105.9,257.08,106.17,253.78,106.17Zm1.77-2.74c0-.42,0-.85,0-1.14,0-.55-.49-.57-1.8-.57-.4,0-.79,0-1.15,0-.56,0-.58.4-.58,1.35,0,.38,0,.78,0,1.05,0,.56.34.59,1.82.59,1.33,0,1.67-.12,1.69-.56C255.55,104,255.55,103.72,255.55,103.43Z"/><path d="M272.88,108.87c-3.6,0-3.75-2.09-3.75-3.88,0-2,.22-4.66.22-6.78a17.53,17.53,0,0,0-.11-2.06c0-.05,0-.12,0-.18a.89.89,0,0,1,.94-.9,1,1,0,0,1,1,.87c0,.39.05.83.05,1.29,0,2.22-.37,5-.37,7.46,0,1.48.07,2.37,1.85,2.37a12.49,12.49,0,0,0,4.3-.93,1.49,1.49,0,0,1,.56-.13.85.85,0,0,1,.88.87,1.23,1.23,0,0,1-.88,1.13A13.77,13.77,0,0,1,272.88,108.87Zm2.74-9A6.53,6.53,0,0,0,274,98.73a.65.65,0,0,1-.45-.58.79.79,0,0,1,.81-.7c.25,0,2.49.85,2.49,1.8a.87.87,0,0,1-.78.88A.58.58,0,0,1,275.62,99.88Zm1.91-1.71a6.4,6.4,0,0,0-1.61-1.08.62.62,0,0,1-.46-.58.78.78,0,0,1,.8-.73c.17,0,2.51.77,2.51,1.76a.86.86,0,0,1-.78.86A.61.61,0,0,1,277.53,98.17Z"/><path d="M283.62,106.81a.83.83,0,0,1,.45-.7,10.41,10.41,0,0,0,4.13-6c0-.18-.13-.21-.29-.21h-.38c-.85,0-2,0-2.52,0h0a.74.74,0,0,1-.73-.79.79.79,0,0,1,.73-.85c.56,0,1.66,0,2.58,0,1.6,0,2.52,0,2.52,1.23a3,3,0,0,1-.13.83c-1,3.9-4.34,7.36-5.38,7.36A1,1,0,0,1,283.62,106.81Zm7.19-11.9a.85.85,0,0,1,.9-.86.83.83,0,0,1,.86.86v.76A12.54,12.54,0,0,0,293.8,100a22.38,22.38,0,0,0,3.35-2.63.84.84,0,0,1,.57-.23,1,1,0,0,1,1,1,1,1,0,0,1-.4.74,30,30,0,0,1-3.74,2.54.06.06,0,0,1,0,0,11.57,11.57,0,0,0,4.41,4.5.92.92,0,0,1,.56.83,1,1,0,0,1-1,1c-1.25,0-4.22-2.81-6-7.21l.05,4.31,0,2.14v0c0,1.29-.7,2.64-3,2.64-2,0-2.25-.48-2.25-1a.87.87,0,0,1,.81-.92.65.65,0,0,1,.2,0,5.71,5.71,0,0,0,1.3.2c.68,0,1.17-.29,1.17-1.23Z"/><path d="M304.94,99.41a6.52,6.52,0,0,0-1.75-.73.6.6,0,0,1-.52-.6.85.85,0,0,1,.84-.83,6.08,6.08,0,0,1,2.18.65.82.82,0,0,1,.47.74.87.87,0,0,1-.81.9A.78.78,0,0,1,304.94,99.41Zm6.43,7.1v2.54a.8.8,0,0,1-.89.73.78.78,0,0,1-.86-.73v-2.54h-6a.76.76,0,0,1-.86-.75.83.83,0,0,1,.86-.85l6,0v-.45a.8.8,0,0,1,.86-.79.82.82,0,0,1,.89.79v.45l6.06,0a.81.81,0,0,1,.83.83.77.77,0,0,1-.83.77Zm-7.6-2.24a.87.87,0,0,1-.85-.86.83.83,0,0,1,.42-.7,13.7,13.7,0,0,0,2.66-2.23.82.82,0,0,1,.58-.27.75.75,0,0,1,.75.73,1,1,0,0,1-.29.65C306.11,102.6,304.52,104.27,303.77,104.27Zm1.83-7.63A6.45,6.45,0,0,0,304,95.7a.61.61,0,0,1-.44-.57.87.87,0,0,1,.87-.79c.13,0,2.65.63,2.65,1.67a.9.9,0,0,1-.87.86A.85.85,0,0,1,305.6,96.64Zm11.56,5.56a.61.61,0,0,1,.6.65.63.63,0,0,1-.62.67c-1,0-2.21,0-3.36,0s-2.32,0-3.33,0-1.77-.45-1.79-1.6v-.81c0-.74,0-1.54,0-2.26-.61.56-.83.72-1.21.72a.73.73,0,0,1-.77-.7.94.94,0,0,1,.45-.75,8.91,8.91,0,0,0,2.77-3.46.79.79,0,0,1,.7-.47.82.82,0,0,1,.83.76c0,.18,0,.32-.5,1.08l1.55,0a14.26,14.26,0,0,0,.72-1.4.72.72,0,0,1,.68-.44.8.8,0,0,1,.85.71c0,.16-.06.36-.58,1.13.92,0,1.84,0,2.7,0a.62.62,0,0,1,.62.66.64.64,0,0,1-.65.69l-2.94,0v.77h2.25a.59.59,0,1,1,0,1.18h-2.25v.81h2.25a.59.59,0,0,1,.67.57.6.6,0,0,1-.67.6h-2.25v.95c1.08,0,2.2,0,3.22,0Zm-4.8-2.89h-2.13c0,.26,0,.54,0,.81h2.15Zm0,2h-2.15v.3c0,.65.27.65,2.15.65Zm0-3.93-1.57,0c-.27,0-.5.14-.52.57v.18h2.09Z"/><path d="M324,108.13a11.67,11.67,0,0,1-.47-3.44c0-3.17.92-6.27,1-7.51a.88.88,0,0,1,1.76-.07.76.76,0,0,1,0,.14,42.08,42.08,0,0,0-1.17,6.43c0,.67.12.74.18.74s.08,0,.12-.13c.56-1.06.69-1.28,1.06-1.28a.78.78,0,0,1,.74.76.54.54,0,0,1-.09.32,9.48,9.48,0,0,0-1.35,3.39c0,.16,0,.32,0,.49a.84.84,0,0,1-.9.93A1,1,0,0,1,324,108.13Zm10-.11c-3.12,0-5.49-1.85-5.49-2.74a.89.89,0,0,1,.93-.84,1,1,0,0,1,.81.39,4.6,4.6,0,0,0,3.5,1.21,11.48,11.48,0,0,0,1.53-.11.75.75,0,0,1,.21,0,.83.83,0,0,1,.9.87C336.4,107.71,335.61,108,334,108Zm-2-7.9a10.65,10.65,0,0,1-2.43-.27.84.84,0,0,1-.75-.82.84.84,0,0,1,.83-.84.65.65,0,0,1,.18,0,8.79,8.79,0,0,0,1.74.18,17.2,17.2,0,0,0,2.22-.18l.16,0a.82.82,0,0,1,.86.84C334.78,99.76,334.28,100.12,332,100.12Z"/><path d="M346.37,109c-1.54,0-3.24-1.44-3.24-2.81,0-1.1,1.1-1.89,2.87-1.89a8.38,8.38,0,0,1,2.1.3c0-.39,0-.79,0-1.11-.09-3.58-.18-5.15-.43-7.71V95.7a.82.82,0,0,1,.9-.84.93.93,0,0,1,1,.88c0,.92.07,1.78.11,2.68l.48,0a3.78,3.78,0,0,0,1.3-.51,1.21,1.21,0,0,1,.61-.19,1,1,0,0,1,1,1c0,.9-1.64,1.37-3.37,1.5,0,.93,0,2,0,3.22,0,.48,0,1.2,0,1.89a8.23,8.23,0,0,1,2.1,1.35,1.15,1.15,0,0,1,.42.9,1.07,1.07,0,0,1-.94,1.12,1,1,0,0,1-.77-.42,8.78,8.78,0,0,0-1.19-1.08A3.44,3.44,0,0,1,346.37,109Zm-.36-3.26c-1,0-1.2.38-1.2.61a1.45,1.45,0,0,0,1.46,1.06,1.7,1.7,0,0,0,1.58-1.22A4.47,4.47,0,0,0,346,105.77Z"/><path d="M370.8,104.15c0-1.89-2.29-1.89-2.45-1.89a5.89,5.89,0,0,0-4.3,2.39.94.94,0,0,1-1.67-.5,1,1,0,0,1,.35-.74,47.06,47.06,0,0,0,5.23-6s0,0-.06,0l-.12,0a9.12,9.12,0,0,1-3.61,1.32.88.88,0,0,1-.93-.89.78.78,0,0,1,.76-.79,17.1,17.1,0,0,0,4.55-1.22,1.46,1.46,0,0,1,.65-.15,1.13,1.13,0,0,1,1.19,1.07,1.27,1.27,0,0,1-.42.88c-1.22,1.17-2.61,2.7-3.74,4a4.74,4.74,0,0,1,2.57-.72c1.91,0,3.8,1.17,3.8,3.17,0,2.41-2.48,4.72-5.6,4.72-2.16,0-3.29-1.25-3.29-2.31a1.85,1.85,0,0,1,2-1.69,2.56,2.56,0,0,1,2.81,2.25A3.54,3.54,0,0,0,370.8,104.15Zm-4.91,1.92c-.62,0-.63.4-.63.47,0,.71,1.22.8,1.67.8h.13C367,106.56,366.61,106.07,365.89,106.07Z"/><path d="M378.21,109a.92.92,0,0,1,.72-.89,5.42,5.42,0,0,0,4.45-4.89.85.85,0,0,1,.88-.76.91.91,0,0,1,1,.85v.12a7.36,7.36,0,0,1-6.1,6.41A.85.85,0,0,1,378.21,109Zm14.7-6.79-4.56-.06c0,1.21,0,3.48,0,4.47s0,1.21,1.62,1.21c1,0,2.14,0,2.14-1.77a.8.8,0,0,1,.86-.85.93.93,0,0,1,1,1c0,3.22-2.51,3.26-3.88,3.26-1.69,0-3.47-.06-3.47-2.13,0-.57,0-3.73,0-5.17l-7.28.06h0a.78.78,0,0,1-.82-.79.79.79,0,0,1,.84-.82l5.91,0,0-2.28h-2.88c-1,1.72-1.49,2-2,2a.86.86,0,0,1-.94-.75.91.91,0,0,1,.33-.63,9.52,9.52,0,0,0,2.3-4,.62.62,0,0,1,.65-.43c.49,0,1,.36,1,.83a7,7,0,0,1-.54,1.38h2l0-2.12a.81.81,0,0,1,.9-.79.85.85,0,0,1,.94.79l0,2.12h4.2a.8.8,0,1,1,0,1.59H387l0,2.28,5.93,0a.78.78,0,0,1,.82.82.76.76,0,0,1-.81.79Z"/><path d="M401,100.06a.72.72,0,0,1,.77-.72.85.85,0,0,1,.9.76,44.23,44.23,0,0,1-1.22,4.63c.27-.11.54-.24.81-.37a.83.83,0,0,1,.37-.09.7.7,0,0,1,.71.71.89.89,0,0,1-.6.79,19.85,19.85,0,0,1-4.84,1.78.78.78,0,0,1-.79-.83.8.8,0,0,1,.61-.79c.77-.2,1.46-.4,2.12-.61A34.35,34.35,0,0,0,401,100.06Zm-3-1.46a.69.69,0,0,1-.73-.72.75.75,0,0,1,.73-.79h1.59l0-2.07a.79.79,0,0,1,.86-.77.8.8,0,0,1,.89.77l0,2.07h1.33a.7.7,0,0,1,.7.76.69.69,0,0,1-.7.75Zm.56,4.5a12.4,12.4,0,0,0-.7-2.57.65.65,0,0,1-.05-.27.7.7,0,0,1,.75-.67.78.78,0,0,1,.69.4,9.27,9.27,0,0,1,.9,2.9.88.88,0,0,1-.87.93A.71.71,0,0,1,398.59,103.1Zm9.83.67h-1l0,4.92a.68.68,0,0,1-.7.7.67.67,0,0,1-.7-.7v-4.92l-.45,0c-.41,0-.57.2-.57.57,0,.85,0,2.08,0,3.19v1.32h0a.74.74,0,0,1-.72.81.77.77,0,0,1-.76-.82c0-.54,0-1.17,0-1.82,0-1,0-2.13,0-2.9,0-1.08.5-1.64,1.75-1.64h1.2c.08-.31.18-.79.26-1.13l-2.94,0h0a.68.68,0,0,1-.74-.7.75.75,0,0,1,.76-.77l4.18,0,4.43,0a.7.7,0,0,1,.72.73.69.69,0,0,1-.7.74h0l-4.07,0c-.06.28-.16.75-.27,1.11.9,0,1.78,0,2.64,0a1.5,1.5,0,0,1,1.66,1.62c0,.81,0,3.26.07,3.85v.11A1.33,1.33,0,0,1,411,109.5c-.76,0-1-.29-1-.83,0-.36.18-.72.52-.72l.09,0h.08a.26.26,0,0,0,.27-.29s0-2.4,0-3.32c0-.34-.13-.57-.56-.57l-.52,0v4.92a.7.7,0,1,1-1.39,0Zm2-8.23a.7.7,0,0,1,.79-.66.75.75,0,0,1,.83.68c0,.23,0,.47,0,.72,0,1.66-.05,2.72-1.89,2.79-.61,0-1.46,0-2.29,0-3.73,0-4,0-4-2.6,0-.34,0-.7,0-1a.74.74,0,0,1,.82-.65.66.66,0,0,1,.74.63v1.66c0,.59.18.59,1.68.59V94.59a.73.73,0,0,1,.81-.74.77.77,0,0,1,.83.77v3.17c.41,0,.81,0,1.08,0,.59,0,.59-.31.59-1.7v-.52Z"/><path d="M420.57,103.61s.79-.7.79-.74a.17.17,0,0,0-.14-.14c-.83,0-1.57,0-2.34,0a7.81,7.81,0,0,1-2.31,1.3.74.74,0,0,1-.74-.74.81.81,0,0,1,.49-.7,15.66,15.66,0,0,0,3.51-2.43l-3.2,0a.69.69,0,0,1-.74-.69.68.68,0,0,1,.74-.68h2.59V97.49H417.4a.69.69,0,0,1-.74-.69.68.68,0,0,1,.74-.68h1.8V94.66a.8.8,0,0,1,1.6,0v1.46h1a.63.63,0,0,1,.63.68,15.9,15.9,0,0,0,.76-1.55.68.68,0,0,1,.66-.46.9.9,0,0,1,.9.79,10.84,10.84,0,0,1-1.92,3.26h.52a.72.72,0,0,1,.79.7.7.7,0,0,1-.77.67h0l-1.64,0a16.92,16.92,0,0,1-1.35,1.33c.61,0,1.26,0,1.85,0,.81,0,1.14.43,1.14.86,0,.61-.42,1-1.95,2l.13.21c.92-.16,1.73-.32,2.34-.45a.44.44,0,0,1,.16,0,.61.61,0,0,1,.63.63.68.68,0,0,1-.59.65c-.58.13-1.32.29-2.14.45,0,.18,0,.36,0,.54a2.92,2.92,0,0,1-2.9,3.14c-.84,0-1.46-.31-1.46-.85a.74.74,0,0,1,.74-.72.93.93,0,0,1,.22,0,2,2,0,0,0,.52.07c.83,0,1.33-.58,1.33-1.78v-.15c-.84.15-3.09.56-3.47.56a.7.7,0,0,1-.76-.69.76.76,0,0,1,.74-.72c.94-.1,2-.27,3.06-.43a1.43,1.43,0,0,0-.47-.38.55.55,0,0,1-.36-.48.75.75,0,0,1,.81-.63,1.12,1.12,0,0,1,.51.14Zm.52-4.77a15.69,15.69,0,0,0,1-1.41.54.54,0,0,1-.27.06h-1.06v1.35Zm9.24.29a13.72,13.72,0,0,1-1.87,6.22,9.18,9.18,0,0,0,3.16,2.36.8.8,0,0,1,.51.74,1,1,0,0,1-1,1,7.39,7.39,0,0,1-3.65-2.81,9,9,0,0,1-4.36,3,.9.9,0,0,1-.9-.86.87.87,0,0,1,.61-.8,9,9,0,0,0,3.75-2.71,14.63,14.63,0,0,1-1.44-4.2c-.45.67-.56.79-1,.79a.73.73,0,0,1-.74-.7.8.8,0,0,1,.16-.45,15.93,15.93,0,0,0,2.39-6.1.73.73,0,0,1,.78-.63.85.85,0,0,1,.92.75,18.09,18.09,0,0,1-.87,2.9l4.36,0a.76.76,0,0,1,0,1.52Zm-4,0a11.69,11.69,0,0,0,1.13,4.8,12.21,12.21,0,0,0,1.23-4.78Z"/><path d="M446.24,97.14c1.1.45,3,1.66,3,2.6a.87.87,0,0,1-.83.88,1,1,0,0,1-.72-.41,5.05,5.05,0,0,0-.77-.83,81.85,81.85,0,0,1-9.65,1,.84.84,0,0,1-.9-.83.72.72,0,0,1,.77-.74c.74,0,1.52,0,2.27,0a14.86,14.86,0,0,0,.61-1.63l-3.8,0a.79.79,0,1,1,0-1.58l5.64,0V94.52a.94.94,0,0,1,1.87,0v1.09l5.73,0a.79.79,0,1,1,0,1.58Zm1.44,10.12v0c0,1.06-.61,2.41-3,2.41-1.23,0-1.91-.14-1.91-.95a.72.72,0,0,1,.7-.79h.15a5.4,5.4,0,0,0,1.1.13c.68,0,1.18-.23,1.22-1.1,0-.14,0-.3,0-.49h-6.18v2.53a.83.83,0,0,1-.88.81.77.77,0,0,1-.81-.8c0-.18.09-6.46.11-6.77,0-.7.56-1.51,2-1.54.84,0,1.9,0,2.95,0,.86,0,1.71,0,2.45,0,1.44,0,1.94.72,2,1.53s0,2.39,0,3.11Zm-1.67-3h-6.18c0,.33,0,.67,0,1H446Zm0-1.51c0-.7-.31-.72-2.92-.72-2.93,0-3.15,0-3.18.72V103H446Zm-4-5.63a15,15,0,0,1-.72,1.55c1.44-.1,2.85-.22,4.2-.37l-.18-.1a.59.59,0,0,1-.36-.51.67.67,0,0,1,.34-.57Z"/><path d="M463.59,104.13a8.62,8.62,0,0,1,0,1,1.07,1.07,0,0,1-1,1.1.76.76,0,0,1-.74-.85v-.16a8.86,8.86,0,0,0,.08-1.21c-.38.2-2.06,1.08-2.06,2.22,0,.3.15,1.37,2,1.37a8.42,8.42,0,0,0,2.27-.38,1.6,1.6,0,0,1,.45-.07.87.87,0,0,1,.94.84c0,.38-.14,1.3-3.22,1.3s-4-1.55-4-2.86c0-2.2,2.56-3.57,3.5-4-.22-.71-.58-1.07-1.07-1.07a1.75,1.75,0,0,0-.93.33c-.76.84-1.21,1.1-1.61,1.1a.72.72,0,0,1-.77-.69,1,1,0,0,1,.41-.74,9.29,9.29,0,0,0,2.31-2.73,5.66,5.66,0,0,1-.88.07c-1.82,0-1.84-1-1.84-1.15a.77.77,0,0,1,.74-.8,1.19,1.19,0,0,1,.65.24,1.18,1.18,0,0,0,.66.14,7,7,0,0,0,1.43-.2,7,7,0,0,0,.32-1.42.71.71,0,0,1,.76-.63.93.93,0,0,1,1,.79,3.12,3.12,0,0,1-.11.67c.54-.27.61-.29.74-.29a.78.78,0,0,1,.77.79c0,.6-.47,1-2.34,1.41a20.39,20.39,0,0,1-1,1.8,2.39,2.39,0,0,1,2.26,1.69,21.32,21.32,0,0,1,4.16-1.46,1,1,0,0,1,1,.94.73.73,0,0,1-.48.7c-.56.24-1.16.31-2.09.6-.76.23-1.53.52-2.24.81A5.91,5.91,0,0,1,463.59,104.13Z"/><path d="M487,105.3l-5.13-.09a7.42,7.42,0,0,0,5.45,2.59.82.82,0,0,1,.85.81,1,1,0,0,1-1,1,9.22,9.22,0,0,1-6.55-3.59c-1.91,3.33-6.59,3.68-6.61,3.68a.85.85,0,0,1-.88-.87.75.75,0,0,1,.68-.77c2.92-.42,4.54-1.42,5.31-2.81l-4.89.07h0a.71.71,0,0,1-.76-.74.75.75,0,0,1,.78-.77l5.4,0a6.34,6.34,0,0,0,.11-1.16l-3.46,0a.68.68,0,0,1-.74-.68.7.7,0,0,1,.74-.72l3.47,0c0-.36,0-.73,0-1.08H476a.71.71,0,0,1-.78-.7.74.74,0,0,1,.78-.75h3.72c0-.23,0-.47,0-.7v0a.75.75,0,0,1,.84-.7.83.83,0,0,1,.92.72c0,.24,0,.47,0,.72h3.65a.73.73,0,1,1,0,1.45h-3.65c0,.35,0,.73,0,1.08l3.44,0a.68.68,0,0,1,.7.7.67.67,0,0,1-.7.7l-3.45,0a8.46,8.46,0,0,1-.11,1.16l5.65,0a.74.74,0,0,1,.76.77.72.72,0,0,1-.74.74Zm-5.44-9.61c1.41,0,2.79,0,4.16,0a2,2,0,0,1,2,1.82c0,.27,0,.59,0,.9,0,.65,0,1.41-1,1.41a.79.79,0,0,1-.86-.76v0c0-1.69,0-1.85-1.13-1.89-1.43,0-3.08,0-4.69,0-1.31,0-2.59,0-3.69,0s-1.13.27-1.19.94v1a.81.81,0,0,1-.88.77.8.8,0,0,1-.86-.81c0-.24,0-.51,0-.78s0-.57,0-.86a1.87,1.87,0,0,1,2.07-1.73q2.06,0,4.14,0V94.41a.94.94,0,0,1,1.87,0Z"/><path d="M494.26,100.6h-1.38a.69.69,0,0,1-.74-.72.75.75,0,0,1,.74-.79h1.38V96.32h-1.58a.69.69,0,0,1-.74-.72.76.76,0,0,1,.74-.8h4.68a.76.76,0,0,1,0,1.52h-1.51v2.77h1.24a.76.76,0,0,1,0,1.51h-1.24v3.17c.46-.18.93-.38,1.35-.58a.87.87,0,0,1,.41-.09.75.75,0,0,1,.76.71.84.84,0,0,1-.58.73,27.73,27.73,0,0,1-5.4,2,.78.78,0,0,1-.79-.82.8.8,0,0,1,.61-.8c.68-.18,1.37-.38,2.05-.59Zm1.69,9.17h-.23a.85.85,0,0,1-.94-.82.81.81,0,0,1,.72-.8c2.81-.37,4.29-1.42,4.83-3.08a.88.88,0,0,1,.84-.68.9.9,0,0,1,.92.85.92.92,0,0,1-.07.3C501.1,107.79,499.34,109.26,496,109.77Zm10.19-3.53a.69.69,0,0,1,.74-.72.82.82,0,0,1,.87.88c0,2-.47,3-2.83,3-1.87,0-2.18-.9-2.18-2.07s0-2.12.06-3.11c-.74,0-1.48,0-2.08,0a1.72,1.72,0,0,1-1.9-1.74c0-1.1,0-2.31,0-3.52,0-1,0-2,0-3,0-.81.56-1.62,1.92-1.7.53,0,1.21,0,1.88,0s1.36,0,1.9,0a1.85,1.85,0,0,1,2,1.68c0,1,0,2.14,0,3.26s0,2.19,0,3.24a1.93,1.93,0,0,1-2,1.76h0c0,1.1-.07,2.13-.07,3,0,.47.16.69.72.69.72,0,1-.07,1-1.42v-.2Zm-1.31-9.87c0-.72-.27-.74-2.29-.74-.54,0-1.06,0-1.38,0a.69.69,0,0,0-.72.72l0,.7h4.43Zm0,2.11h-4.45v1.4h4.45Zm-4.45,2.79c0,.29,0,.57,0,.86,0,.58.19.74,1.92.74,2.09,0,2.43,0,2.47-.76,0-.28,0-.55,0-.84Z"/><path d="M518.63,108.87c-3.6,0-3.74-2.09-3.74-3.88,0-2,.22-4.66.22-6.78a17.53,17.53,0,0,0-.11-2.06c0-.05,0-.12,0-.18a.89.89,0,0,1,.94-.9,1,1,0,0,1,1,.87,12.85,12.85,0,0,1,.06,1.29c0,2.22-.38,5-.38,7.46,0,1.48.07,2.37,1.85,2.37a12.57,12.57,0,0,0,4.31-.93,1.41,1.41,0,0,1,.56-.13.85.85,0,0,1,.88.87,1.23,1.23,0,0,1-.88,1.13A13.92,13.92,0,0,1,518.63,108.87Z"/><path d="M535.75,109.59c-1.51,0-3-1-3-2.29,0-1.69,2.16-2.07,3.51-2.07a8.78,8.78,0,0,1,1.35.11V105c0-.27,0-.56,0-.88-.05-.56-.11-1.14-.14-1.75a6.62,6.62,0,0,1-1.37.18c-.34,0-2.18-.14-2.18-1.35,0-.34.14-.93,1.33-2,.24-.2.4-.38.4-.57,0-.49-1.53-1-2.7-1.05-.65,0-1-.38-1-.76a.86.86,0,0,1,1-.81c.8,0,3.77.67,4.33,1.93v-.85c0-.73,0-1.44,0-2a.83.83,0,0,1,.83-.9.91.91,0,0,1,.94.9v.07c-.09,1.21-.18,2.92-.18,4.63v.49a3.14,3.14,0,0,0,.86-.63.9.9,0,0,1,.65-.31.89.89,0,0,1,.85.88c0,.88-1.5,1.5-2.33,1.77,0,.68.07,1.33.15,1.89s.12,1.18.14,1.85c1.32.47,2.7,1.31,2.7,2.2a1,1,0,0,1-.9,1,1,1,0,0,1-.77-.42,5.13,5.13,0,0,0-1.25-1A3.59,3.59,0,0,1,535.75,109.59Zm.22-3c-1.26,0-1.66.32-1.66.66s.69.78,1.3.78a1.87,1.87,0,0,0,1.78-1.25A5.77,5.77,0,0,0,536,106.62Zm1.29-7.71a2,2,0,0,1-.57.76c-1.05.82-1.06,1.09-1.06,1.15,0,.23.28.25.5.25a4.6,4.6,0,0,0,1.21-.2C537.3,100.22,537.28,99.56,537.26,98.91Z"/><path d="M556.47,105.68a2.83,2.83,0,0,1-2.63-2.92,2,2,0,0,1,2.07-2.12,3,3,0,0,1,.83.11c0-.6-.09-1.14-.13-1.64a25.82,25.82,0,0,0-6.6,1.42,1.67,1.67,0,0,1-.35.07.88.88,0,0,1-.86-.9,1,1,0,0,1,.85-1,41.65,41.65,0,0,1,6.89-1.23v-.57c0-1.59,0-2.43,1-2.43a.92.92,0,0,1,1,.84,1,1,0,0,1,0,.17,12.67,12.67,0,0,0-.24,1.85c1.44-.09,2.9-.13,4.36-.13.75,0,1.13.45,1.13.9a1,1,0,0,1-1.06.9h-.09c-.88,0-1.78-.07-2.68-.07-.56,0-1.12,0-1.68,0,0,1.22.11,2.36.13,2.59a3,3,0,0,1,1,2.14,3.64,3.64,0,0,1-.57,1.82,8.82,8.82,0,0,1-6.23,4.07.9.9,0,0,1-1-.86c0-.36.25-.74.86-.87a7.26,7.26,0,0,0,4.23-2.21Zm-.31-3.58a.77.77,0,0,0-.81.81,1.29,1.29,0,0,0,1.14,1.31.78.78,0,0,0,.77-.77c0-.06,0-.09,0-.15a2,2,0,0,0-.13-.59A1.13,1.13,0,0,0,556.16,102.1Z"/><path d="M569.09,109.82a2,2,0,1,1,2-2A2.05,2.05,0,0,1,569.09,109.82Zm0-3.4a1.35,1.35,0,0,0-1.37,1.35,1.37,1.37,0,0,0,2.74,0A1.36,1.36,0,0,0,569.09,106.42Z"/><rect class="cls-1" y="0.07" width="593.81" height="110.78"/></g></g></svg>