<svg xmlns="http://www.w3.org/2000/svg" viewBox="0 0 593.81 47.48"><defs><style>.cls-1{fill:none;}</style></defs><g id="レイヤー_2" data-name="レイヤー 2"><g id="レイヤー_2-2" data-name="レイヤー 2"><path d="M27.74,15.93c-1.08,0-5.33-2.14-5.33-5.45a2.57,2.57,0,0,1,.52-1.62A.36.36,0,0,0,23,8.68s0,0,0,0-1.2.65-1.47.83a1.23,1.23,0,0,1-.63.18,1,1,0,0,1-1.08-.9c0-.33.23-.67.79-.94a6.64,6.64,0,0,0,2-1.37,36.79,36.79,0,0,0,2.88-3.92s0-.06-.08-.06a.22.22,0,0,0-.12.06,8.06,8.06,0,0,1-2.65.88.87.87,0,0,1-.93-.86.82.82,0,0,1,.79-.81A13,13,0,0,0,25.58,1a1.84,1.84,0,0,1,.77-.25,1.16,1.16,0,0,1,1.23,1.12,1.77,1.77,0,0,1-.4,1,29.88,29.88,0,0,1-2.95,3.53c-.09.09-.13.15-.13.18s0,0,.06,0a.22.22,0,0,0,.1,0,16.88,16.88,0,0,1,5-1.33,1,1,0,0,1,1,1c0,.43-.25.92-1.47.94a11.53,11.53,0,0,0-2.07.3,3.94,3.94,0,0,0-2.15,1.1,2,2,0,0,0-.63,1.48c0,1.55,1.62,3.28,3.77,3.65a1.23,1.23,0,0,1,1.13,1.16A1,1,0,0,1,27.74,15.93Z"/><path d="M37.53,12.48s.13-.15.27-.36.34-.56.52-.87a19,19,0,0,1,1.37-1.94c.23-.42.43-.81.59-1.17l.06-.51a7,7,0,0,0-1.6.8,1.16,1.16,0,0,1-.65.25.74.74,0,0,1-.69-.79c0-.6.15-.8,3.14-2.09.14-1.48.25-2.78.25-3.57a.78.78,0,0,1,.81-.84.86.86,0,0,1,.9.82c0,.54-.22,2.35-.33,3.26a.75.75,0,0,1,.42.72c1.33-1.24,2.72-2.3,4.07-2.3A1.92,1.92,0,0,1,48.59,6a2.23,2.23,0,0,1,0,.36c-.13,1.17-.65,3.08-.85,4.74a3.48,3.48,0,0,0,0,.61c0,.56.19.79.84.79a5.24,5.24,0,0,0,2-.57,1.18,1.18,0,0,1,.49-.11.8.8,0,0,1,.79.84,1,1,0,0,1-.67,1,6.79,6.79,0,0,1-2.57.55C47.16,14.22,46,13.77,46,12a3.8,3.8,0,0,1,.07-.81c.25-1.64.74-3.53.81-4.7v-.2c0-.6-.22-.81-.54-.81-1,0-3,2-4.5,3.78-.08.95-.13,1.93-.13,2.84a15.25,15.25,0,0,0,.18,2.54.68.68,0,0,1,0,.2.94.94,0,0,1-1,.94c-.95,0-1-1.07-1-2.36,0-.63,0-1.32.07-2.05-.39.64-.77,1.4-1.09,2a1.51,1.51,0,0,1-1.26.94.67.67,0,0,1-.72-.67,1.83,1.83,0,0,1,.54-1Z"/><path d="M57.8,15.27a1,1,0,0,1-.88-.78,13,13,0,0,1-.54-3.92,19.92,19.92,0,0,1,.12-2.34c.22-2,.63-3.8.76-4.92a.82.82,0,0,1,.83-.84.91.91,0,0,1,.93.88s0,.09,0,.14c-.12.78-.45,2-.7,3.35a18.08,18.08,0,0,0-.39,3.1c0,.66.1.81.14.81s.14-.11.25-.33c.51-1.09.79-1.29,1.08-1.29a.79.79,0,0,1,.76.75.82.82,0,0,1-.09.35,10.88,10.88,0,0,0-1.42,3.54c0,.22,0,.44,0,.65A.88.88,0,0,1,57.8,15.27Zm5.85,0A2.66,2.66,0,0,1,60.86,13c0-1.37,1.67-1.92,3.33-1.92a8.7,8.7,0,0,1,1.67.18,4.26,4.26,0,0,0,0-.51c0-.31,0-.63,0-1-.07-.77-.16-2.1-.22-3.51a6.69,6.69,0,0,0-3.24,1.32A.81.81,0,0,1,61,6.91c0-.39.25-1.31,4.61-2.28,0-.76,0-1.48,0-2.06a.85.85,0,0,1,1.67,0v.09c0,.5-.1,1.08-.12,1.67l1-.16a1,1,0,0,1,.23,0,.82.82,0,0,1,.92.78c0,.38-.3.77-1,.86l-1.17.16c0,1.34.07,2.65.16,3.6a19.43,19.43,0,0,1,.15,2v.2A7.43,7.43,0,0,1,69.54,13a1,1,0,0,1,.34.74,1,1,0,0,1-.92,1,.86.86,0,0,1-.65-.33,6.53,6.53,0,0,0-1.29-1A4.18,4.18,0,0,1,63.65,15.23Zm.25-2.79c-1.4,0-1.48.45-1.48.61s.24.67,1,.67a2.64,2.64,0,0,0,2-1A5.62,5.62,0,0,0,63.9,12.44Z"/><path d="M76.1,15.86A7,7,0,0,0,73.89,14a.82.82,0,0,1-.49-.72.81.81,0,0,1,.85-.79c.63,0,3.51,1.58,3.51,2.81a1,1,0,0,1-1,1A.84.84,0,0,1,76.1,15.86Z"/><path d="M94.46,7.47a7,7,0,0,0-1.91-1.06.62.62,0,0,1-.45-.59A.89.89,0,0,1,93,5a6.58,6.58,0,0,1,2.45,1,.87.87,0,0,1,.39.76,1,1,0,0,1-.86,1A.8.8,0,0,1,94.46,7.47Zm-1.2,8.28a.93.93,0,0,1-.94-.88.84.84,0,0,1,.23-.57,14.66,14.66,0,0,0,2.53-4.4.77.77,0,0,1,.73-.5.83.83,0,0,1,.87.83A14.11,14.11,0,0,1,94.1,15.3,1.07,1.07,0,0,1,93.26,15.75Zm2-12.33a6.53,6.53,0,0,0-1.63-1.37.67.67,0,0,1-.34-.56.91.91,0,0,1,.9-.81c.45,0,2.58,1.14,2.58,2.06a1,1,0,0,1-.92,1A.72.72,0,0,1,95.26,3.42Zm4.14,0a17.78,17.78,0,0,1-1.66,2.19,1,1,0,0,1-.72.35.86.86,0,0,1-.9-.78.86.86,0,0,1,.27-.57A14.53,14.53,0,0,0,99.09.5a.75.75,0,0,1,.72-.45.87.87,0,0,1,.9.8,2.42,2.42,0,0,1-.38.93l6.77-.05a.76.76,0,0,1,.78.81.77.77,0,0,1-.78.83Zm6.71,10.21A3.12,3.12,0,0,1,103,16.19a6.29,6.29,0,0,1-1.42-.2.67.67,0,0,1-.49-.69.82.82,0,0,1,.77-.86,1.27,1.27,0,0,1,.26,0,3.25,3.25,0,0,0,.9.14,1.4,1.4,0,0,0,1.37-1l-5,0h0c-1.3,0-1.91-.7-1.91-1.58a2.32,2.32,0,0,1,.09-.62c.14-.5.25-1.08.36-1.71h-.63A.74.74,0,0,1,96.39,9a.79.79,0,0,1,.83-.79h.84c.08-.57.17-1.17.24-1.74.18-1.41.75-1.88,2.19-1.91.78,0,1.73,0,2.65,0,.56,0,1.1,0,1.57,0,1.19,0,2,.58,2,1.69,0,.58,0,1.26,0,2h1.26a.77.77,0,1,1,0,1.53H106.6c-.06.85-.13,1.66-.22,2.38h1a.71.71,0,0,1,.74.74.72.72,0,0,1-.74.74Zm-5-1.44c.13-.78.22-1.61.31-2.47h-2c-.1.72-.21,1.4-.3,1.89v.09a.51.51,0,0,0,.56.5Zm.43-3.89c.07-.85.15-1.66.18-2.36-1.4,0-1.76,0-1.85.7-.06.45-.13,1-.22,1.66Zm3.24,3.87c.11-.72.2-1.57.26-2.45h-2.08c-.08.86-.19,1.71-.32,2.47ZM105,8.25c0-.62,0-1.19,0-1.7,0-.66-.49-.66-1.84-.66,0,.7-.09,1.51-.16,2.36Z"/><path d="M121.12,8.28a18.26,18.26,0,0,1-2-1.87l0,0a16.17,16.17,0,0,1-5.71,9.35,1.36,1.36,0,0,1-.77.27.92.92,0,0,1-1-.87,1,1,0,0,1,.51-.77,12.1,12.1,0,0,0,4.34-5.24,7.62,7.62,0,0,0-1.68-.7.66.66,0,0,1-.52-.65,1,1,0,0,1,1-1,5.56,5.56,0,0,1,1.84.74,13.14,13.14,0,0,0,.61-3c0-.32-.11-.47-.45-.47h0l-1.61.06a22.24,22.24,0,0,1-2.72,5.13,1.1,1.1,0,0,1-.9.5.84.84,0,0,1-.86-.79.94.94,0,0,1,.23-.58,17,17,0,0,0,3.34-7.11.89.89,0,0,1,.88-.75.84.84,0,0,1,.88.82,7.12,7.12,0,0,1-.32,1.26h1.65c1,0,1.73.46,1.73,1.53,0,0,0,.1-.16,1.11a.65.65,0,0,1,.29-.09.64.64,0,0,1,.41.2c.36.38.72.7,1.06,1l-.05-4.86v0a.79.79,0,0,1,.86-.76.82.82,0,0,1,.9.78l0,6.12a24.4,24.4,0,0,0,4,2,.84.84,0,0,1,.56.79,1,1,0,0,1-1,1,12.92,12.92,0,0,1-3.56-1.82l0,5.79A.78.78,0,0,1,122,16c-.45,0-.88-.23-.88-.72Z"/><path d="M132.75,14.57a11.67,11.67,0,0,1-.47-3.44c0-3.17.92-6.27,1-7.51a.88.88,0,0,1,1.76-.07.76.76,0,0,1,0,.14,42.08,42.08,0,0,0-1.17,6.43c0,.67.12.74.18.74s.09,0,.12-.13c.56-1.06.69-1.28,1.06-1.28a.78.78,0,0,1,.74.76.56.56,0,0,1-.09.32,9.48,9.48,0,0,0-1.35,3.39c0,.16,0,.32,0,.48a.84.84,0,0,1-.9.94A1,1,0,0,1,132.75,14.57Zm10-.11c-3.11,0-5.49-1.86-5.49-2.74a.9.9,0,0,1,.94-.84,1.06,1.06,0,0,1,.81.39,4.56,4.56,0,0,0,3.49,1.21,11.48,11.48,0,0,0,1.53-.11.78.78,0,0,1,.22,0,.84.84,0,0,1,.9.87C145.16,14.15,144.36,14.46,142.76,14.46Zm-2-7.91a10,10,0,0,1-2.43-.27.83.83,0,0,1,.07-1.65.62.62,0,0,1,.18,0,8.87,8.87,0,0,0,1.74.18,17.2,17.2,0,0,0,2.22-.18l.16,0a.83.83,0,0,1,.87.84C143.54,6.19,143,6.55,140.73,6.55Z"/><path d="M150.15,8.62a.82.82,0,0,1-.82-.84.7.7,0,0,1,.59-.7l.67-.2c-.13-1.23-.29-3.12-.29-3.48a1.71,1.71,0,0,1,1.48-1.85,27.79,27.79,0,0,0,3.29-1,1.09,1.09,0,0,1,.49-.13.82.82,0,0,1,.82.79.86.86,0,0,1-.63.79,18.59,18.59,0,0,1-3.09.87.66.66,0,0,0-.58.74v.14c0,.56.16,1.62.24,2.49.93-.35,1.89-.74,2.48-1a7.29,7.29,0,0,0-.59-.85.45.45,0,0,1-.11-.31.81.81,0,0,1,.83-.66.68.68,0,0,1,.5.19c.25.26,1.42,1.64,1.42,2.31a.93.93,0,0,1-.86.92.6.6,0,0,1-.58-.4A31.33,31.33,0,0,1,150.15,8.62Zm10.66,7.24c-1.17,0-2.52.06-3.83.06s-2.58,0-3.62-.06c-1.24,0-1.91-.72-2-1.65,0-.51,0-1.21,0-1.89s0-1.37,0-1.82a1.71,1.71,0,0,1,1.91-1.62c1.09,0,2.37,0,3.69,0s2.68,0,3.9,0a1.79,1.79,0,0,1,1.84,1.49c0,.45,0,1.19,0,1.91s0,1.44,0,1.91A1.85,1.85,0,0,1,160.81,15.86Zm-4.55-5.72c-.9,0-1.78,0-2.52,0s-.78.56-.78,1.5h3.3Zm0,2.81H153c0,.34,0,.64,0,.88.05.74.13.75,3.26.75Zm4.57-10.36c-.18,3.84-3.45,5.91-4.23,5.91a.81.81,0,0,1-.81-.81.65.65,0,0,1,.36-.61c2.09-1.14,3-2.49,3.12-4.47l-1.72,0h0a.66.66,0,0,1-.72-.67.74.74,0,0,1,.77-.74h4.79c1.24,0,2.05.53,2.05,1.91,0,3.39-.86,5-2.9,5a5.19,5.19,0,0,1-1.45-.25.74.74,0,0,1-.53-.74.81.81,0,0,1,.76-.85.93.93,0,0,1,.41.11,1.9,1.9,0,0,0,.8.22c.41,0,1.22-.25,1.22-3.28,0-.67-.41-.74-.86-.74Zm.31,9.08c0-.31,0-.6,0-.79,0-.46-.18-.69-.77-.71-.76,0-1.64,0-2.54,0v1.53ZM157.81,13v1.62c.9,0,1.8,0,2.55,0s.78-.38.78-1.58Z"/><path d="M178.24,11.38a6.7,6.7,0,0,1,0,.79c0,1.62-.75,4.07-3.89,4.07-1.4,0-2.16-.38-2.16-1.08a.84.84,0,0,1,.85-.85.78.78,0,0,1,.29,0,3.85,3.85,0,0,0,1.18.2c2,0,2-2.41,2-2.56a4.07,4.07,0,0,0-.05-.61l-7.64,0a.78.78,0,0,1-.83-.8.81.81,0,0,1,.82-.83l6.66,0a3.28,3.28,0,0,0-.72-.38c-.38-.12-.54-.36-.54-.59a.89.89,0,0,1,.95-.76,2.23,2.23,0,0,1,1.06.36c.47-.3,1.43-1,1.43-1.19,0-.07-.08-.1-.2-.1s-.54,0-1,0c-1.15,0-2.9,0-4.16.09h0a.75.75,0,0,1-.81-.76.77.77,0,0,1,.83-.75c.77,0,1.74,0,2.7,0,1.31,0,2.63,0,3.45,0,1,0,1.46.54,1.46,1.09,0,.89-.95,1.62-2.57,2.63a4.13,4.13,0,0,1,.25.38l5.37-.05a.78.78,0,0,1,.79.82.75.75,0,0,1-.78.8Zm3-5.76c0-.76-.4-.88-1.14-.9-1.44,0-3.06,0-4.62,0-1.28,0-2.54,0-3.66,0s-1.15.27-1.2.9V6.68a.85.85,0,0,1-.92.79.82.82,0,0,1-.87-.81c0-.23,0-.5,0-.79s0-.61,0-.88a1.91,1.91,0,0,1,2.11-1.73l1.51,0a.7.7,0,0,1-.23-.25,5.21,5.21,0,0,0-1.26-1.3.62.62,0,0,1-.24-.47.91.91,0,0,1,.92-.77,3.17,3.17,0,0,1,2.09,2,1,1,0,0,1-.52.79c1.58,0,3.15,0,4.73,0A8.76,8.76,0,0,0,179.19.85.84.84,0,0,1,180,.27a1,1,0,0,1,1,.88,5.55,5.55,0,0,1-1.32,2.09l1.26,0A1.89,1.89,0,0,1,183.06,5c0,.25,0,.63,0,1s0,.49,0,.67a.89.89,0,0,1-.95.79.8.8,0,0,1-.9-.76v-1Zm-5.1-2.47a.65.65,0,0,1-.61-.43,5.07,5.07,0,0,0-1.06-1.55.62.62,0,0,1-.16-.4c0-.37.45-.7.91-.7.92,0,1.91,1.77,1.91,2.18A1,1,0,0,1,176.11,3.15Z"/><path d="M195.08,15.3c-3.6,0-3.74-2.08-3.74-3.87,0-2,.22-4.66.22-6.78a17.53,17.53,0,0,0-.11-2.06s0-.12,0-.18a.89.89,0,0,1,.94-.9,1,1,0,0,1,1,.87,12.71,12.71,0,0,1,.06,1.29c0,2.22-.38,5-.38,7.46,0,1.47.07,2.37,1.85,2.37a12.57,12.57,0,0,0,4.31-.93,1.41,1.41,0,0,1,.56-.13.85.85,0,0,1,.88.87,1.23,1.23,0,0,1-.88,1.13A14.29,14.29,0,0,1,195.08,15.3Z"/><path d="M214,3.87a46.87,46.87,0,0,1-3.64,6.9,1,1,0,0,1-.9.54.8.8,0,0,1-.84-.78,1.13,1.13,0,0,1,.19-.61A39.09,39.09,0,0,0,212,4.66a5.41,5.41,0,0,1-2.27.72c-1.19,0-1.19-.81-1.19-.88a.83.83,0,0,1,.83-.85,1.18,1.18,0,0,1,.36.06.78.78,0,0,0,.31,0,7.29,7.29,0,0,0,2.54-.94c.05-.43,0-.85.07-1.39a.79.79,0,0,1,.84-.79.82.82,0,0,1,.87.77v.38a.64.64,0,0,1,.2,0,.74.74,0,0,1,.72.73c0,.62-.78,1.08-1.28,1.37Zm-.52,11.92c-1.64,0-3-1.17-3-2.2,0-1.18,1.58-2.07,3.91-2.07.27,0,.55,0,.83,0-.13-1.44-.13-1.51-.13-1.71,0-1.17.38-2.23,2.48-3.64a.33.33,0,0,0,.17-.21c0-.11-.17-.11-.24-.11a7,7,0,0,0-1.15.21,1,1,0,0,1-.23,0,.61.61,0,0,1-.69-.59c0-.47.52-1,2.4-1,1.31,0,2.9.76,2.9,1.58a.92.92,0,0,1-.92.81c-1.44.13-3.23,1.08-3.23,3a6.09,6.09,0,0,0,.09.89c.06.36.13.74.18,1.11,1.12.35,2.87,1.14,2.87,2.16a.89.89,0,0,1-.83.94,1.05,1.05,0,0,1-.74-.36,6,6,0,0,0-1.37-1A3.55,3.55,0,0,1,213.43,15.79Zm.5-2.88c-1.06,0-2,.36-2,.68s.63.71,1.33.71a1.8,1.8,0,0,0,1.84-1.25A5.55,5.55,0,0,0,213.93,12.91Z"/><path d="M234.52,16a.89.89,0,0,1-.84-.6,25.79,25.79,0,0,0-3.62-5.67,3.22,3.22,0,0,1-.85-1.89,2.77,2.77,0,0,1,.7-1.67,42.6,42.6,0,0,0,3.37-4.74A.87.87,0,0,1,234,1,1.15,1.15,0,0,1,235.17,2a1,1,0,0,1-.16.52c-.72,1.15-2.74,3.4-3.69,4.55a1,1,0,0,0-.29.67,1.54,1.54,0,0,0,.43.92c1.84,2.38,3.26,3.73,4.09,5.78a1.5,1.5,0,0,1,.09.45A1.13,1.13,0,0,1,234.52,16Z"/><path d="M255.3,15.14h-.18c-3.91-.36-6.38-3.06-6.38-5.83A5.06,5.06,0,0,1,250,6c.05-.07.09-.12.09-.16s0,0,0,0a.53.53,0,0,0-.18.07c-2.82,1.46-3.17,1.56-3.56,1.56a1,1,0,0,1-1.1-1,1,1,0,0,1,.83-.93c.38-.13,1.4-.44,1.94-.63.85-.31,2.34-.78,4.12-1.48a13.86,13.86,0,0,1,4.78-1.12c.9,0,1.22.42,1.22.88,0,.92-.76,1.12-1.44,1.12a2.88,2.88,0,0,1-.41,0h-.44c-2.79,0-5.52,2.37-5.52,4.78,0,2.17,2,4,4.88,4,.9,0,1.33.52,1.33,1.06S256.12,15.14,255.3,15.14Z"/><path d="M270.34,11.9c0,1.28.62,2,1.48,2,.11,0,2-.2,2-1.82,0-.92-.63-2.15-2.37-3.55a1.13,1.13,0,0,1-.49-.81.8.8,0,0,1,.86-.74,1.23,1.23,0,0,1,.76.29c2.14,1.78,3,3.48,3,4.88,0,2.12-2.1,3.46-3.81,3.46s-3-1.21-3-3.68v0c0-.45,0-.92,0-1.37-1.42-.4-2.67-.78-2.67-2.09a3.06,3.06,0,0,1,.65-1.71.83.83,0,0,0,.18-.5c0-.44-.65-1-1.71-1.37a.83.83,0,0,1-.63-.72.8.8,0,0,1,.87-.74c.57,0,3.15,1.12,3.15,2.65a2.3,2.3,0,0,1-.67,1.42,1.15,1.15,0,0,0-.34.7c0,.27.23.4.5.47l.74.18C269,5,269,4.38,269,3.91c0-.74,0-1.25,0-1.91a.81.81,0,0,1,.85-.87c.94,0,1,.85,1,1.3,0,.65-.09,1.26-.12,2.09-.08,1.64-.2,3.22-.27,4.81,1,.39,1.51.72,1.51,1.26a.91.91,0,0,1-.85.93,1.2,1.2,0,0,1-.72-.3Z"/><path d="M284,15.86A7,7,0,0,0,281.79,14a.82.82,0,0,1-.49-.72.81.81,0,0,1,.85-.79c.63,0,3.51,1.58,3.51,2.81a1,1,0,0,1-1,1A.82.82,0,0,1,284,15.86Z"/><path d="M306.25,14.62a1,1,0,0,1-1.08-1,.93.93,0,0,1,.9-.88c3.4-.49,7.37-2.29,7.37-4.7a2.46,2.46,0,0,0-2.63-2.27,7.17,7.17,0,0,0-2.27.48c-1.71.6-3.87,1.89-5.71,2.74a1.24,1.24,0,0,1-.59.14,1,1,0,0,1-1-.95,1,1,0,0,1,.7-.92c1.73-.68,4.57-2.14,6.37-2.64A10.2,10.2,0,0,1,311,4.19a4.15,4.15,0,0,1,4.4,4c0,1.33-.81,2.61-2.4,3.85A16.69,16.69,0,0,1,306.25,14.62Z"/><path d="M329,16a.89.89,0,0,1-.84-.6,25.79,25.79,0,0,0-3.62-5.67,3.22,3.22,0,0,1-.85-1.89,2.77,2.77,0,0,1,.7-1.67,42.6,42.6,0,0,0,3.37-4.74.87.87,0,0,1,.76-.47A1.15,1.15,0,0,1,329.67,2a1,1,0,0,1-.16.52c-.72,1.15-2.74,3.4-3.69,4.55a1,1,0,0,0-.29.67,1.54,1.54,0,0,0,.43.92c1.84,2.38,3.26,3.73,4.09,5.78a1.5,1.5,0,0,1,.09.45A1.13,1.13,0,0,1,329,16Z"/><path d="M341.21,15.27a1,1,0,0,1-.88-.78,13,13,0,0,1-.54-3.92,19.92,19.92,0,0,1,.12-2.34c.22-2,.63-3.8.76-4.92a.82.82,0,0,1,.83-.84.91.91,0,0,1,.93.88s0,.09,0,.14c-.12.78-.45,2-.7,3.35a18.08,18.08,0,0,0-.39,3.1c0,.66.1.81.14.81s.14-.11.25-.33c.51-1.09.79-1.29,1.08-1.29a.79.79,0,0,1,.76.75.82.82,0,0,1-.09.35A10.88,10.88,0,0,0,342,13.77c0,.22,0,.44,0,.65A.88.88,0,0,1,341.21,15.27Zm9.5-12.64c0,.52-.1,1.08-.12,1.67l1-.16a1,1,0,0,1,.23,0,.82.82,0,0,1,.92.78c0,.38-.3.77-1,.86l-1.17.16c0,1.34.07,2.65.16,3.6a19.43,19.43,0,0,1,.15,2v.2A7.43,7.43,0,0,1,353,13a1,1,0,0,1,.34.74,1,1,0,0,1-.92,1,.86.86,0,0,1-.65-.33,6.53,6.53,0,0,0-1.29-1,4.18,4.18,0,0,1-3.37,1.87A2.66,2.66,0,0,1,344.27,13c0-1.37,1.67-1.92,3.33-1.92a8.7,8.7,0,0,1,1.67.18,4.26,4.26,0,0,0,0-.51c0-.31,0-.63-.05-1-.07-.77-.16-2.1-.22-3.51a6.64,6.64,0,0,0-3.24,1.32.81.81,0,0,1-1.4-.62c0-.39.25-1.31,4.61-2.28,0-.76,0-1.48.05-2.06a.76.76,0,0,1,.83-.73.93.93,0,0,1,.68.27.69.69,0,0,1,.7-.65c.29,0,2.18.79,2.18,1.6a.75.75,0,0,1-.66.76.56.56,0,0,1-.44-.22,5.33,5.33,0,0,0-1.38-1,1.08,1.08,0,0,1-.24-.14Zm-3.4,9.81c-1.4,0-1.48.45-1.48.61s.24.67,1,.67a2.64,2.64,0,0,0,2-1A5.62,5.62,0,0,0,347.31,12.44Zm6.54-10.33a6,6,0,0,0-1.41-1A.56.56,0,0,1,352,.63a.67.67,0,0,1,.7-.63c.13,0,2.22.63,2.22,1.55a.77.77,0,0,1-.69.75A.53.53,0,0,1,353.85,2.11Z"/><path d="M364.41,8.25c-.77-.42-.94-1-.94-2,0-.29,0-.61,0-1,0-.83.05-1.48.05-2a8.5,8.5,0,0,0-.12-1.73,1,1,0,0,1,0-.23.78.78,0,0,1,.83-.79c1.1,0,1.15,1,1.15,2.25,0,.5,0,1.13-.11,2,0,.56-.09,1-.09,1.37,0,1.12.74,1.22,1.28,1.22.27,0,.31-.14.52-.21a.75.75,0,0,1,.29-.06.91.91,0,0,1,.9.87,1.17,1.17,0,0,1-.66.93c-.62.38-2.06,1-2.89,1.44-1.36.76-2,1.54-2,2.2s.8,1.5,2.65,1.5a5,5,0,0,0,2.5-.58,1.55,1.55,0,0,1,.85-.29,1,1,0,0,1,1,.92c0,1.12-2.11,1.75-4,1.75-3.26,0-4.72-1.55-4.72-3.1,0-1.3,1-2.77,3.17-4l.61-.34A1.37,1.37,0,0,1,364.41,8.25Z"/><path d="M382.19,13.76a3.37,3.37,0,0,1-2.14-.94c-1.82-1.57-2.34-4-2.63-5.42-.14-.68-.34-1.78-.34-1.93a.88.88,0,0,1,.9-.86.93.93,0,0,1,.9.85c.11.57.15,1.18.25,1.76.74,4.2,2.43,4.36,2.54,4.36s.34-.15.51-.58.28-.95.5-1.53a.7.7,0,0,1,.67-.5,1,1,0,0,1,.95.9c0,.05,0,.09,0,.14-.11.59-.47,1.77-.52,2.32A1.5,1.5,0,0,1,382.19,13.76Zm6.92-4.09A6.34,6.34,0,0,0,386.75,6a.71.71,0,0,1-.31-.57.79.79,0,0,1,.81-.74A1.19,1.19,0,0,1,388,5c.76.65,3,2.63,3,4.45a1,1,0,0,1-1,1A.89.89,0,0,1,389.11,9.67Z"/><path d="M399.76,15.34a.82.82,0,0,1,.52-.76c3.32-1.45,4.4-3.54,4.4-5.51,0-.5-.16-3.11-1.55-3.11a2.9,2.9,0,0,0-1.42.56,4.07,4.07,0,0,1-1.89.81,1,1,0,0,1-1.07-1,1,1,0,0,1,1-1A3.72,3.72,0,0,0,401,5a5.62,5.62,0,0,1,2.29-.58c3.17,0,3.24,4.29,3.24,4.65,0,4.82-5,7.25-5.76,7.25A1,1,0,0,1,399.76,15.34ZM404.3,2.9a8.21,8.21,0,0,1-3.49-.78.84.84,0,0,1-.49-.73.81.81,0,0,1,.83-.8,1.37,1.37,0,0,1,.48.11,5,5,0,0,0,2.11.4c.22,0,.42,0,.63,0h.07a.83.83,0,0,1,.92.81A1,1,0,0,1,404.3,2.9Z"/><path d="M414.9,9.52a.88.88,0,0,1-.72.45.77.77,0,0,1-.76-.77,1,1,0,0,1,.18-.54,14,14,0,0,0,2.47-6H414.9a.73.73,0,0,1-.77-.75.73.73,0,0,1,.77-.76h4.72a.76.76,0,1,1,0,1.51h-2a22.1,22.1,0,0,1-.74,2.83c.27,0,.54,0,.8,0s.52,0,.77,0A1.51,1.51,0,0,1,419.87,7c0,.81,0,1.71,0,2.59s0,1.77,0,2.54c-.06,1.62-1.26,1.7-2.45,1.7-1.75,0-2.3-.27-2.3-2.24,0-.81,0-1.67.05-2.52Zm3.42.45c0-.88,0-1.81,0-2.55,0-.51-.47-.52-.83-.52-.59,0-.82.1-.82.54,0,.68,0,1.54,0,2.41,0,.7,0,1.4,0,2s.25.54.82.54.81-.11.83-.56S418.32,10.64,418.32,10Zm7.4-2.07h-1.89v.15c-.2,3.6-1.24,6.17-3.17,7.87a1.15,1.15,0,0,1-.72.28.92.92,0,0,1-.94-.82.78.78,0,0,1,.31-.6c2-1.73,2.79-3.83,2.92-6.8l0-.08h-1.5a.7.7,0,0,1-.72-.77.71.71,0,0,1,.72-.76h1.51c0-1.24,0-2.62,0-3.58h-1a.73.73,0,0,1-.73-.77.73.73,0,0,1,.73-.78h7.28a.73.73,0,0,1,.75.78.74.74,0,0,1-.75.77h-1.14V6.37h1.8a.71.71,0,0,1,.74.76.71.71,0,0,1-.74.77h-1.8v7.49a.76.76,0,0,1-.84.72c-.44,0-.85-.23-.85-.72Zm0-5.11H424c0,.88,0,2.27-.06,3.58h1.82Z"/><path d="M440.48,10.6c-.76,3-2.79,4.81-6.16,5.55a1.09,1.09,0,0,1-.25,0,.89.89,0,0,1-.88-.92.8.8,0,0,1,.72-.81c2.68-.51,4.17-1.84,4.79-3.8l-3.3.13h0a.73.73,0,0,1-.78-.76.82.82,0,0,1,.81-.83l3.6-.09c0-.27,0-.54,0-.83s0-.39,0-.61a.84.84,0,0,1,.92-.79.83.83,0,0,1,.88.88v0c0,.45-.05.9-.09,1.31.5,0,1,0,1.46,0,1,0,1.82.56,1.82,1.6,0,.81-.22,2.88-.22,2.88v.09c0,.54.49.58,1.19.58,1.26,0,1.64-.27,1.64-1.58a.79.79,0,0,1,.85-.83.94.94,0,0,1,1,1c0,2.9-2.23,3-3.47,3-1.78,0-3-.22-3-1.73V14c0-.52.19-2.23.23-2.77v0c0-.41-.29-.6-.83-.6Zm2.57-4.53c0,.59.4.59,1.3.59,1.17,0,1.42-.2,1.42-.61a.55.55,0,0,1,.38-.54A.71.71,0,0,1,446,5c0-1.06,0-1.29-1-1.31-1.44,0-3.27,0-5,0-1.46,0-2.88,0-4,0s-1,.32-1,.79v.81a.81.81,0,0,1-.88.79c-.85,0-.87-.66-.87-1.44s0-2.41,1.93-2.43c1.44,0,3,0,4.5,0V1.1a.94.94,0,0,1,1.87,0V2.2c1.43,0,2.83,0,4.16,0a2,2,0,0,1,2.11,1.84,5.07,5.07,0,0,1,0,.52c0,.9-.22,1-.53,1.14a.43.43,0,0,1,.13.34c0,1.94-1.67,2-3.11,2-1.84,0-2.87-.11-2.87-1.84,0-.13,0-.52,0-.94,0-.68,0-1.2.8-1.2.42,0,.83.21.83.61Zm-8.44,2.48a.86.86,0,0,1-.92-.83.78.78,0,0,1,.65-.73A6.37,6.37,0,0,0,438,4.5a.72.72,0,0,1,.63-.36.84.84,0,0,1,.85.79,1,1,0,0,1-.17.53A7.88,7.88,0,0,1,434.61,8.55Z"/><path d="M459.45,10a1.91,1.91,0,1,1,1.91-1.91A1.9,1.9,0,0,1,459.45,10Z"/><path d="M480.64,11.38a6.7,6.7,0,0,1,.05.79c0,1.62-.76,4.07-3.89,4.07-1.4,0-2.16-.38-2.16-1.08a.84.84,0,0,1,.85-.85.78.78,0,0,1,.29,0,3.85,3.85,0,0,0,1.18.2c2,0,2-2.41,2-2.56a4.07,4.07,0,0,0-.05-.61l-7.64,0a.78.78,0,0,1-.83-.8.8.8,0,0,1,.81-.83l6.67,0a3.28,3.28,0,0,0-.72-.38c-.38-.12-.54-.36-.54-.59a.89.89,0,0,1,.95-.76,2.27,2.27,0,0,1,1.06.36c.47-.3,1.43-1,1.43-1.19,0-.07-.08-.1-.2-.1s-.54,0-1,0c-1.15,0-2.9,0-4.16.09h0a.75.75,0,0,1-.81-.76.77.77,0,0,1,.83-.75c.77,0,1.74,0,2.7,0,1.31,0,2.63,0,3.45,0,1,0,1.46.54,1.46,1.09,0,.89-.95,1.62-2.57,2.63a4.13,4.13,0,0,1,.25.38l5.36-.05a.78.78,0,0,1,.8.82.76.76,0,0,1-.78.8Zm3-5.76c0-.76-.4-.88-1.14-.9-1.44,0-3.06,0-4.62,0-1.28,0-2.54,0-3.66,0S473,5,473,5.62V6.68a.84.84,0,0,1-.91.79.82.82,0,0,1-.87-.81c0-.23,0-.5,0-.79s0-.61,0-.88a1.9,1.9,0,0,1,2.11-1.73l1.51,0a.7.7,0,0,1-.23-.25,5.21,5.21,0,0,0-1.26-1.3.62.62,0,0,1-.24-.47A.91.91,0,0,1,474,.45a3.17,3.17,0,0,1,2.09,2,1,1,0,0,1-.52.79c1.58,0,3.15,0,4.73,0A8.76,8.76,0,0,0,481.59.85a.84.84,0,0,1,.81-.58,1,1,0,0,1,1,.88,5.55,5.55,0,0,1-1.32,2.09l1.26,0A1.89,1.89,0,0,1,485.46,5c0,.25,0,.63,0,1s0,.49,0,.67a.89.89,0,0,1-.95.79.8.8,0,0,1-.9-.76v-1Zm-5.1-2.47a.65.65,0,0,1-.61-.43,5.07,5.07,0,0,0-1.06-1.55.62.62,0,0,1-.16-.4c0-.37.45-.7.91-.7.92,0,1.91,1.77,1.91,2.18A1,1,0,0,1,478.51,3.15Z"/><path d="M502.42,15.61c-1.59,0-3.3.05-5,.05s-3.42,0-5-.05A2.11,2.11,0,0,1,490,13.45c-.05-1.35-.07-3-.07-4.74,0-2.08,0-4.24.07-6A2,2,0,0,1,492.23.76c1.56,0,3.27-.06,5-.06s3.51,0,5.2.06a2.12,2.12,0,0,1,2.18,2.08c0,1.84.08,3.93.08,5.93,0,1.65,0,3.26-.08,4.63A2.18,2.18,0,0,1,502.42,15.61ZM503,8.1c0-1.62,0-3.22-.07-4.62,0-1-.39-1.21-1.28-1.23-1.35,0-2.89,0-4.41,0s-3,0-4.26,0c-1,0-1.32.31-1.34,1.23,0,1.45-.05,3.13-.05,4.77s0,3.24.05,4.59c0,1,.4,1.2,1.52,1.22s2.61,0,4.05,0,2.91,0,4.37,0c1,0,1.32-.48,1.35-1.28C503,11.34,503,9.72,503,8.1Zm-6.93,3.24a8.76,8.76,0,0,1-3.29,1.84.78.78,0,0,1-.74-.76.55.55,0,0,1,.4-.52,11.27,11.27,0,0,0,3.27-1.67c-2.21,0-2.43-.4-2.43-1.46,0-1.62.25-1.66,3.93-1.66s3.85,0,3.85,1.66c0,1.35-.38,1.46-3,1.46a6.73,6.73,0,0,0,.94.83,7.82,7.82,0,0,0,1.55-.89A.81.81,0,0,1,501,10a.72.72,0,0,1,.74.61c0,.4-.52.7-1.5,1.12a8.86,8.86,0,0,0,1.66.57.54.54,0,0,1,.41.56.74.74,0,0,1-.72.74,8,8,0,0,1-4.08-2.36v2c0,.34-.35.52-.72.52s-.72-.16-.72-.5v0Zm-3.4-4.79a.56.56,0,0,1-.58-.59.57.57,0,0,1,.58-.59h3.76V4.66h-2.86a.56.56,0,0,1-.58-.59.57.57,0,0,1,.58-.59h2.84v-.4a.77.77,0,0,1,.83-.76.78.78,0,0,1,.85.76v.4h2.86a.56.56,0,0,1,.58.59.57.57,0,0,1-.58.59h-2.88v.71h3.78a.56.56,0,0,1,.58.59.57.57,0,0,1-.58.59ZM494.8,9c0,.25.25.29,2.54.29,2.07,0,2.14,0,2.18-.29a1,1,0,0,0,0-.27c0-.51-.09-.52-.52-.52s-1.39,0-2.18,0c-1.84,0-2,0-2,.25Z"/><path d="M516.4,7.13l-2.46,0c-.42.47-.85.92-1.3,1.35h2.12a1.64,1.64,0,0,1,1.54,1.5c0,.72.05,1.93.05,2.92,0,.39,0,.75,0,1a1.71,1.71,0,0,1-1.64,1.67,11.64,11.64,0,0,1-1.29.06c-2.6,0-3.19-.33-3.19-2.34,0-1,.05-2.16.09-3-1,.72-1.37.9-1.69.9a.74.74,0,0,1-.74-.76.81.81,0,0,1,.47-.7,16.32,16.32,0,0,0,3.71-2.65l-3.21,0a.73.73,0,1,1,0-1.46h2.63V4h-1.84a.72.72,0,1,1,0-1.44h1.82V1a.85.85,0,0,1,1.69,0V2.54h1a.71.71,0,0,1,.75.74,13.57,13.57,0,0,0,.69-1.5.72.72,0,0,1,.68-.48.91.91,0,0,1,.92.79,12.61,12.61,0,0,1-2,3.58h1.29a.78.78,0,0,1,.85.74.74.74,0,0,1-.83.72Zm-4.73,5.37c0,.41,0,.79,0,1,0,.56.1.68,1.71.68,1.11,0,1.45-.12,1.47-.7v-1Zm3.18-1.28c0-.31,0-.58,0-.78,0-.68-.24-.72-1.57-.72-1.49,0-1.58,0-1.58,1.5Zm-1.51-5.55a13.81,13.81,0,0,0,1.21-1.8.78.78,0,0,1-.43.11h-1l0,1.69Zm6.5,6.83a.85.85,0,0,1,.79-.9h.18a2.35,2.35,0,0,0,.51.06c.86,0,1.06-.65,1.06-1.37a3.55,3.55,0,0,0-.86-2.14,2.73,2.73,0,0,1-.63-1.68A3.28,3.28,0,0,1,521.28,5a6.65,6.65,0,0,0,.83-2.06c0-.37-.25-.37-1.24-.37H520a.66.66,0,0,0-.63.71c0,1.08,0,2.18,0,3.29,0,2.4,0,4.88,0,7.4v1.48a.8.8,0,0,1-.85.79.81.81,0,0,1-.88-.79c0-7.65,0-10.07.06-12.43a1.68,1.68,0,0,1,1.78-1.9c.48,0,1,0,1.57,0,.39,0,.79,0,1.18,0,1.21,0,1.8.66,1.8,1.51,0,.68-.19,1.08-1.26,2.93a1.94,1.94,0,0,0-.27.87,1.54,1.54,0,0,0,.42,1,4.92,4.92,0,0,1,1.24,3.14,2.74,2.74,0,0,1-2.83,3C521,13.54,519.84,13.54,519.84,12.5Z"/><path d="M535,4.36l-6.75,0a.8.8,0,0,1-.86-.83.81.81,0,0,1,.86-.84l5.85,0,0-1.72a.89.89,0,0,1,1-.85A.87.87,0,0,1,536,1V2.75l5.83,0a.8.8,0,0,1,.84.83.8.8,0,0,1-.84.84Zm-.86,3.29c-1,0-2,0-2.54,0s-.7.23-.72.79,0,1.64,0,2.65,0,2.07,0,2.93v0a.79.79,0,0,1-.88.76.84.84,0,0,1-.92-.78V13c0-1.6,0-3.45,0-4.82s.78-1.95,2.13-2c.68,0,1.75,0,2.9,0V5.46a.89.89,0,1,1,1.78,0v.66c1.19,0,2.32,0,3.1,0a1.88,1.88,0,0,1,2.07,1.91c0,.57,0,1.2,0,1.72V11c0,.3,0,.68,0,1.35v0c0,1.24-.95,2.23-2.63,2.23-.91,0-1.89-.14-1.89-1a.79.79,0,0,1,.74-.86.58.58,0,0,1,.18,0,4,4,0,0,0,.92.14c.49,0,.88-.18.88-.75,0,0,0-2.62,0-3.79a.63.63,0,0,0-.67-.68c-.61,0-1.62,0-2.7,0v7.69a.91.91,0,0,1-1.82,0Z"/><path d="M557.61,15.14h-.18c-3.91-.36-6.38-3.06-6.38-5.83a5.06,5.06,0,0,1,1.3-3.3c0-.07.09-.12.09-.16s0,0,0,0a.62.62,0,0,0-.18.07c-2.82,1.46-3.17,1.56-3.56,1.56a1,1,0,0,1-1.1-1,1,1,0,0,1,.83-.93c.38-.13,1.4-.44,1.94-.63.85-.31,2.34-.78,4.13-1.48a13.74,13.74,0,0,1,4.77-1.12c.9,0,1.22.42,1.22.88,0,.92-.76,1.12-1.44,1.12a2.88,2.88,0,0,1-.41,0h-.44c-2.79,0-5.52,2.37-5.52,4.78,0,2.17,2.05,4,4.88,4,.9,0,1.33.52,1.33,1.06S558.43,15.14,557.61,15.14Zm1.54-6.32a6.59,6.59,0,0,0-1.53-1.11.62.62,0,0,1-.45-.56.77.77,0,0,1,.8-.7c.23,0,2.43.82,2.43,1.76a.87.87,0,0,1-.78.85A.65.65,0,0,1,559.15,8.82Zm2.07-1.49a6.05,6.05,0,0,0-1.56-1.06.65.65,0,0,1-.47-.56A.77.77,0,0,1,560,5c.29,0,2.45.77,2.45,1.71a.83.83,0,0,1-.76.84A.69.69,0,0,1,561.22,7.33Z"/><path d="M567.5,15.86A7,7,0,0,0,565.29,14a.82.82,0,0,1-.49-.72.81.81,0,0,1,.85-.79c.63,0,3.51,1.58,3.51,2.81a1,1,0,0,1-1,1A.82.82,0,0,1,567.5,15.86Z"/><path d="M23.2,47.21c-1.51,0-3-1-3-2.29,0-1.69,2.16-2.07,3.51-2.07a7.68,7.68,0,0,1,1.35.11v-.31c0-.27,0-.56,0-.88-.05-.56-.11-1.14-.14-1.75a6.62,6.62,0,0,1-1.37.18c-.34,0-2.18-.14-2.18-1.35,0-.34.14-.93,1.33-2,.24-.2.4-.38.4-.58,0-.48-1.53-1-2.7-1-.65,0-1-.38-1-.76a.86.86,0,0,1,1-.81c.79,0,3.76.67,4.32,1.93v-.85c0-.73,0-1.44,0-2a.83.83,0,0,1,.83-.9.91.91,0,0,1,.94.9v.07c-.09,1.21-.18,2.92-.18,4.63v.49a3.16,3.16,0,0,0,.86-.64.92.92,0,0,1,.65-.3.89.89,0,0,1,.85.88c0,.88-1.5,1.5-2.33,1.77,0,.68.07,1.33.15,1.89s.12,1.18.14,1.85c1.32.47,2.7,1.32,2.7,2.2a1,1,0,0,1-.9,1,1,1,0,0,1-.77-.42,5.13,5.13,0,0,0-1.25-1A3.59,3.59,0,0,1,23.2,47.21Zm.22-3c-1.26,0-1.66.33-1.66.67s.69.78,1.3.78a1.86,1.86,0,0,0,1.78-1.25A5.79,5.79,0,0,0,23.42,44.23Zm1.3-7.7a2,2,0,0,1-.58.75c-1.05.83-1.06,1.1-1.06,1.16,0,.23.28.25.5.25a4.6,4.6,0,0,0,1.21-.2C24.75,37.84,24.73,37.18,24.72,36.53Z"/><path d="M47.25,41.77c0-1.89-2.28-1.89-2.45-1.89a5.89,5.89,0,0,0-4.3,2.39.94.94,0,0,1-1.67-.5,1,1,0,0,1,.36-.74,47.49,47.49,0,0,0,5.22-6s0,0-.06,0l-.12,0a9.14,9.14,0,0,1-3.6,1.32.89.89,0,0,1-.94-.89.78.78,0,0,1,.76-.79A17.1,17.1,0,0,0,45,33.47a1.46,1.46,0,0,1,.65-.15,1.13,1.13,0,0,1,1.19,1.07,1.27,1.27,0,0,1-.42.88c-1.22,1.17-2.61,2.7-3.74,4a4.74,4.74,0,0,1,2.57-.72c1.91,0,3.8,1.17,3.8,3.17,0,2.41-2.48,4.72-5.6,4.72-2.16,0-3.29-1.25-3.29-2.31a1.85,1.85,0,0,1,2-1.69A2.56,2.56,0,0,1,45,44.65,3.54,3.54,0,0,0,47.25,41.77Zm-4.91,1.92c-.62,0-.63.4-.63.47,0,.71,1.22.8,1.67.8h.13C43.45,44.18,43.06,43.69,42.34,43.69Z"/><path d="M66.21,46.32H66c-3.91-.36-6.38-3.06-6.38-5.83a5.06,5.06,0,0,1,1.3-3.3c0-.07.09-.12.09-.16s0,0,0,0a.53.53,0,0,0-.18.07c-2.82,1.46-3.17,1.57-3.56,1.57A1,1,0,1,1,57,36.73c.38-.13,1.4-.44,1.94-.63.85-.31,2.34-.78,4.12-1.48a13.86,13.86,0,0,1,4.78-1.12c.9,0,1.22.42,1.22.89,0,.91-.76,1.11-1.44,1.11a2.88,2.88,0,0,1-.41,0h-.44c-2.79,0-5.52,2.37-5.52,4.79,0,2.16,2,4,4.88,4,.9,0,1.33.52,1.33,1.06S67,46.32,66.21,46.32ZM67.75,40a6.9,6.9,0,0,0-1.53-1.11.61.61,0,0,1-.45-.56.77.77,0,0,1,.8-.7c.23,0,2.43.83,2.43,1.76a.87.87,0,0,1-.78.85A.62.62,0,0,1,67.75,40Zm2.07-1.49a6.05,6.05,0,0,0-1.56-1.06.63.63,0,0,1-.47-.56.77.77,0,0,1,.79-.72c.29,0,2.45.77,2.45,1.71a.84.84,0,0,1-.76.85A.7.7,0,0,1,69.82,38.51Z"/><path d="M75.56,38.65a7,7,0,0,0-1.91-1.06A.62.62,0,0,1,73.2,37a.89.89,0,0,1,.87-.87,6.51,6.51,0,0,1,2.45,1,.87.87,0,0,1,.39.76.94.94,0,0,1-.86,1A.83.83,0,0,1,75.56,38.65Zm-1.2,8.29a.94.94,0,0,1-.94-.89.85.85,0,0,1,.23-.57,14.45,14.45,0,0,0,2.53-4.4.77.77,0,0,1,.73-.5.84.84,0,0,1,.87.83,14.21,14.21,0,0,1-2.58,5.08A1.1,1.1,0,0,1,74.36,46.94Zm2-12.34a6.69,6.69,0,0,0-1.62-1.37.66.66,0,0,1-.35-.55.9.9,0,0,1,.9-.81c.45,0,2.58,1.13,2.58,2.05a1,1,0,0,1-.92,1A.73.73,0,0,1,76.36,34.6Zm4.14-.05a17.78,17.78,0,0,1-1.66,2.19,1,1,0,0,1-.72.35.77.77,0,0,1-.63-1.35,14.48,14.48,0,0,0,2.7-4.05.75.75,0,0,1,.72-.46.87.87,0,0,1,.9.8,2.42,2.42,0,0,1-.38.93l6.77-.05a.77.77,0,0,1,.78.81.78.78,0,0,1-.78.83Zm6.71,10.21a3.12,3.12,0,0,1-3.13,2.61,5.77,5.77,0,0,1-1.42-.2.66.66,0,0,1-.49-.68.83.83,0,0,1,.78-.87,1.29,1.29,0,0,1,.25,0,2.91,2.91,0,0,0,.9.14,1.4,1.4,0,0,0,1.37-1l-5,0h0c-1.3,0-1.91-.7-1.91-1.58a2.32,2.32,0,0,1,.09-.62c.14-.5.25-1.08.36-1.71h-.63a.73.73,0,0,1-.83-.73.79.79,0,0,1,.83-.8h.84c.08-.57.17-1.17.24-1.74.18-1.41.75-1.88,2.19-1.91.78,0,1.73,0,2.65,0,.56,0,1.1,0,1.57,0,1.19,0,2,.58,2,1.69,0,.58,0,1.26,0,2H89a.77.77,0,1,1,0,1.53H87.7c-.06.85-.13,1.66-.22,2.38h1a.71.71,0,0,1,.74.74.72.72,0,0,1-.74.74Zm-5-1.44c.13-.78.22-1.61.31-2.47h-2c-.1.72-.21,1.4-.3,1.89v.09a.51.51,0,0,0,.56.5Zm.43-3.89c.08-.85.15-1.66.18-2.36-1.4,0-1.76,0-1.85.7-.05.45-.13,1-.22,1.66Zm3.24,3.87c.11-.72.2-1.57.26-2.45H84c-.09.86-.2,1.71-.33,2.47Zm.29-3.87c0-.61,0-1.19,0-1.7s-.49-.66-1.84-.66c0,.7-.09,1.51-.16,2.36Z"/><path d="M102.22,39.46a17.41,17.41,0,0,1-2-1.87v0a16.17,16.17,0,0,1-5.71,9.35,1.29,1.29,0,0,1-.78.27.92.92,0,0,1-1-.87,1,1,0,0,1,.51-.77,12.1,12.1,0,0,0,4.34-5.24,8.13,8.13,0,0,0-1.68-.7A.66.66,0,0,1,95.4,39a1,1,0,0,1,1-1,5.56,5.56,0,0,1,1.84.74,13.14,13.14,0,0,0,.61-3c0-.32-.11-.47-.45-.47h-.05l-1.61.06A22.24,22.24,0,0,1,94,40.4a1.11,1.11,0,0,1-.9.5.84.84,0,0,1-.86-.79.89.89,0,0,1,.23-.57,17.12,17.12,0,0,0,3.34-7.12.89.89,0,0,1,.88-.75.84.84,0,0,1,.88.83,7.12,7.12,0,0,1-.32,1.26c.68,0,1.36,0,1.65,0,1,0,1.73.47,1.73,1.53a10.76,10.76,0,0,1-.16,1.11.65.65,0,0,1,.29-.09.64.64,0,0,1,.41.2c.36.38.72.7,1.06,1l0-4.86v0a.78.78,0,0,1,.86-.75.82.82,0,0,1,.9.77l-.05,6.12a24.4,24.4,0,0,0,4,2,.84.84,0,0,1,.56.79,1,1,0,0,1-1,1,12.92,12.92,0,0,1-3.56-1.82l.05,5.8a.79.79,0,0,1-.88.72c-.45,0-.88-.24-.88-.72Z"/><path d="M113.85,45.75a11.67,11.67,0,0,1-.47-3.44c0-3.17.92-6.27,1-7.51a.88.88,0,0,1,1.76-.07.76.76,0,0,1,0,.14A42.08,42.08,0,0,0,115,41.3c0,.67.12.74.18.74s.09,0,.12-.13c.56-1.06.69-1.28,1.06-1.28a.78.78,0,0,1,.74.76.54.54,0,0,1-.09.32,9.48,9.48,0,0,0-1.35,3.39c0,.16,0,.32,0,.49a.84.84,0,0,1-.9.93A1,1,0,0,1,113.85,45.75Zm10-.11c-3.11,0-5.49-1.86-5.49-2.74a.89.89,0,0,1,.93-.84,1.06,1.06,0,0,1,.82.39,4.56,4.56,0,0,0,3.49,1.21,11.48,11.48,0,0,0,1.53-.11.75.75,0,0,1,.21,0,.84.84,0,0,1,.91.87C126.26,45.33,125.46,45.64,123.86,45.64Zm-2-7.91a10.14,10.14,0,0,1-2.44-.27.83.83,0,0,1,.08-1.65.62.62,0,0,1,.18,0,8.87,8.87,0,0,0,1.74.18,17.2,17.2,0,0,0,2.22-.18l.16,0a.82.82,0,0,1,.86.84C124.63,37.38,124.13,37.73,121.83,37.73Z"/><path d="M131.26,39.81a.83.83,0,0,1-.83-.85.7.7,0,0,1,.59-.7l.67-.2c-.13-1.23-.29-3.12-.29-3.48a1.72,1.72,0,0,1,1.48-1.85,26,26,0,0,0,3.29-1,1.09,1.09,0,0,1,.49-.13.83.83,0,0,1,.83.79.88.88,0,0,1-.64.8,19.61,19.61,0,0,1-3.09.86.66.66,0,0,0-.58.74V35c.06.56.16,1.62.24,2.49.93-.35,1.89-.74,2.48-1a7.29,7.29,0,0,0-.59-.85.45.45,0,0,1-.11-.31.81.81,0,0,1,.83-.66.66.66,0,0,1,.5.2c.25.25,1.42,1.63,1.42,2.3a.93.93,0,0,1-.86.92.6.6,0,0,1-.58-.4A31.93,31.93,0,0,1,131.26,39.81ZM141.91,47c-1.17,0-2.52.06-3.83.06s-2.58,0-3.62-.06c-1.24,0-1.91-.72-2-1.65,0-.51,0-1.21,0-1.89s0-1.37,0-1.82a1.71,1.71,0,0,1,1.91-1.62c1.09,0,2.37,0,3.69,0s2.68,0,3.9,0a1.8,1.8,0,0,1,1.84,1.49c0,.45,0,1.19,0,1.91s0,1.44,0,1.91A1.85,1.85,0,0,1,141.91,47Zm-4.55-5.72c-.9,0-1.78,0-2.52,0s-.78.56-.78,1.5h3.3Zm0,2.81h-3.3c0,.34,0,.64,0,.88.05.74.13.76,3.26.76Zm4.57-10.36c-.18,3.84-3.45,5.91-4.23,5.91a.81.81,0,0,1-.81-.81.65.65,0,0,1,.36-.61c2.09-1.14,3-2.49,3.12-4.47l-1.71,0h0a.65.65,0,0,1-.72-.67.73.73,0,0,1,.77-.73c.81,0,1.62,0,2.41,0s1.61,0,2.38,0c1.24,0,2.05.52,2.05,1.9,0,3.39-.86,5-2.9,5a5.19,5.19,0,0,1-1.45-.25.73.73,0,0,1-.53-.74.81.81,0,0,1,.76-.85.93.93,0,0,1,.41.11,1.9,1.9,0,0,0,.8.22c.41,0,1.22-.25,1.22-3.28,0-.66-.41-.74-.86-.74Zm.31,9.08c0-.31,0-.6,0-.79,0-.45-.18-.69-.77-.71-.76,0-1.64,0-2.54,0v1.53Zm-3.33,1.28v1.62c.9,0,1.8,0,2.55,0s.78-.38.78-1.58Z"/><path d="M159.34,42.56a6.7,6.7,0,0,1,0,.79c0,1.62-.76,4.07-3.89,4.07-1.4,0-2.16-.38-2.16-1.08a.83.83,0,0,1,.85-.84,1,1,0,0,1,.29,0,3.85,3.85,0,0,0,1.18.2c2,0,2-2.41,2-2.56a4.07,4.07,0,0,0-.05-.61l-7.64,0a.78.78,0,0,1-.83-.8A.8.8,0,0,1,150,41l6.67,0a3.28,3.28,0,0,0-.72-.38c-.38-.12-.54-.36-.54-.59a.89.89,0,0,1,1-.76,2.27,2.27,0,0,1,1.06.36c.47-.3,1.43-1,1.43-1.18s-.08-.11-.2-.11-.54,0-1,0c-1.15,0-2.9,0-4.16.09h0a.75.75,0,0,1-.81-.76.77.77,0,0,1,.83-.75c.77,0,1.74,0,2.7,0,1.31,0,2.63,0,3.45,0,1,0,1.46.54,1.46,1.09,0,.89-.95,1.63-2.57,2.63.09.13.18.26.25.38l5.36,0a.78.78,0,0,1,.8.83.76.76,0,0,1-.78.79Zm3-5.76c0-.76-.4-.88-1.14-.9-1.44,0-3.06,0-4.62,0-1.28,0-2.54,0-3.66,0s-1.15.27-1.21.9v1.06a.83.83,0,0,1-.91.79.82.82,0,0,1-.87-.81c0-.23,0-.5,0-.79s0-.61,0-.88A1.9,1.9,0,0,1,152,34.44l1.51,0a.7.7,0,0,1-.23-.25,5.39,5.39,0,0,0-1.26-1.3.62.62,0,0,1-.24-.46.91.91,0,0,1,.92-.78,3.17,3.17,0,0,1,2.09,2,1,1,0,0,1-.52.79c1.58,0,3.15,0,4.73,0A8.62,8.62,0,0,0,160.29,32a.84.84,0,0,1,.81-.58,1,1,0,0,1,1,.88,5.48,5.48,0,0,1-1.32,2.09l1.26,0a1.89,1.89,0,0,1,2.09,1.71c0,.25,0,.63,0,1a6.64,6.64,0,0,1,0,.67.89.89,0,0,1-.95.79.8.8,0,0,1-.9-.76v-1Zm-5.1-2.47a.63.63,0,0,1-.61-.43,5.07,5.07,0,0,0-1.06-1.55.6.6,0,0,1-.16-.39c0-.38.45-.71.91-.71.92,0,1.91,1.77,1.91,2.18A1,1,0,0,1,157.21,34.33Z"/><path d="M176.18,46.49c-3.6,0-3.74-2.09-3.74-3.88,0-2,.22-4.66.22-6.78a17.53,17.53,0,0,0-.11-2.06c0-.05,0-.12,0-.18a.89.89,0,0,1,.94-.9,1,1,0,0,1,1,.87,12.85,12.85,0,0,1,.06,1.29c0,2.22-.38,5-.38,7.46,0,1.47.07,2.38,1.86,2.38a12.41,12.41,0,0,0,4.3-.94,1.41,1.41,0,0,1,.56-.13.85.85,0,0,1,.88.87,1.23,1.23,0,0,1-.88,1.13A13.86,13.86,0,0,1,176.18,46.49Z"/><path d="M198.6,46.32h-.18C194.51,46,192,43.26,192,40.49a5.06,5.06,0,0,1,1.3-3.3c0-.07.09-.12.09-.16s0,0,0,0a.53.53,0,0,0-.18.07c-2.83,1.46-3.17,1.57-3.56,1.57a1,1,0,1,1-.27-1.91c.38-.13,1.4-.44,1.94-.63.85-.31,2.34-.78,4.12-1.48a13.86,13.86,0,0,1,4.78-1.12c.9,0,1.22.42,1.22.89,0,.91-.76,1.11-1.44,1.11a2.88,2.88,0,0,1-.41,0h-.44c-2.79,0-5.52,2.37-5.52,4.79,0,2.16,2.05,4,4.88,4,.9,0,1.33.52,1.33,1.06S199.42,46.32,198.6,46.32Z"/><path d="M212.09,44.94A3.37,3.37,0,0,1,210,44c-1.82-1.57-2.34-4-2.63-5.42-.14-.68-.34-1.78-.34-1.93a.88.88,0,0,1,.9-.86.93.93,0,0,1,.9.85c.11.57.15,1.18.25,1.76.74,4.2,2.43,4.36,2.54,4.36s.34-.15.51-.58.28-1,.5-1.53a.7.7,0,0,1,.67-.5,1,1,0,0,1,.95.9c0,.05,0,.09,0,.14-.1.6-.46,1.77-.52,2.32A1.49,1.49,0,0,1,212.09,44.94ZM219,40.85a6.34,6.34,0,0,0-2.36-3.64.71.71,0,0,1-.31-.57.79.79,0,0,1,.81-.74,1.19,1.19,0,0,1,.76.3c.76.65,3,2.63,3,4.45a1,1,0,0,1-1,1A.89.89,0,0,1,219,40.85Z"/><path d="M236.25,41.77c0-1.89-2.28-1.89-2.45-1.89a5.89,5.89,0,0,0-4.3,2.39.94.94,0,0,1-1.67-.5,1,1,0,0,1,.36-.74,47.49,47.49,0,0,0,5.22-6s0,0-.06,0l-.12,0a9.14,9.14,0,0,1-3.6,1.32.89.89,0,0,1-.94-.89.78.78,0,0,1,.76-.79A17.1,17.1,0,0,0,234,33.47a1.46,1.46,0,0,1,.65-.15,1.13,1.13,0,0,1,1.19,1.07,1.27,1.27,0,0,1-.42.88c-1.22,1.17-2.61,2.7-3.74,4a4.74,4.74,0,0,1,2.57-.72c1.91,0,3.8,1.17,3.8,3.17,0,2.41-2.48,4.72-5.6,4.72-2.16,0-3.29-1.25-3.29-2.31a1.85,1.85,0,0,1,2-1.69A2.56,2.56,0,0,1,234,44.65,3.54,3.54,0,0,0,236.25,41.77Zm-4.91,1.92c-.62,0-.63.4-.63.47,0,.71,1.22.8,1.67.8h.13C232.45,44.18,232.06,43.69,231.34,43.69Z"/><path d="M256.43,39.46c0-2-1.57-3.71-4.18-3.71h0a.82.82,0,0,1,.5.76v.09c0,1.89-1.85,5.17-3.83,7.11a1.92,1.92,0,0,1-1.35.61c-1.28,0-2.44-1.44-2.44-3.4,0-3.26,3.21-6.57,7.26-6.57,3.64,0,5.91,2.41,5.91,5.22a5.56,5.56,0,0,1-.4,2c-1.58,4-6.48,4.55-6.73,4.55a1,1,0,0,1-1-.88c0-.4.31-.78,1-.9C254.38,43.84,256.43,41.82,256.43,39.46Zm-5.2-3.62c-2.25.45-4.51,2.85-4.51,5,0,1.35.91,1.51,1,1.51a.46.46,0,0,0,.34-.14c.54-.49,2.79-3.15,2.86-5.58A1,1,0,0,1,251.23,35.84Z"/><path d="M269.91,39.43c-.77-.42-.94-1-.94-2,0-.29,0-.61,0-1,0-.83.05-1.48.05-2a8.5,8.5,0,0,0-.12-1.73,1,1,0,0,1,0-.23.78.78,0,0,1,.83-.79c1.1,0,1.15,1,1.15,2.25,0,.5,0,1.13-.11,2,0,.56-.09,1-.09,1.37,0,1.12.74,1.23,1.28,1.23.27,0,.31-.15.52-.22a.75.75,0,0,1,.29-.06.91.91,0,0,1,.9.87,1.18,1.18,0,0,1-.66.94c-.62.37-2.06,1-2.89,1.44-1.36.75-2,1.53-2,2.19s.8,1.5,2.65,1.5a5,5,0,0,0,2.5-.58,1.55,1.55,0,0,1,.85-.29,1,1,0,0,1,1,.92c0,1.12-2.11,1.75-4,1.75-3.26,0-4.72-1.55-4.72-3.1,0-1.3,1-2.77,3.17-4l.61-.34A1.37,1.37,0,0,1,269.91,39.43Z"/><path d="M296.43,44.74v0c0,1.07-.67,2.42-3.1,2.42-1.6,0-2.07-.31-2.07-1a.78.78,0,0,1,.74-.84h.16a6,6,0,0,0,1.15.13c.74,0,1.3-.23,1.3-1,0-7.64,0-7.82-.06-9.28,0-1.06-.5-1.17-1.27-1.18-1.32,0-2.63,0-3.93,0s-2.57,0-3.8,0c-1,0-1.31.32-1.33,1.24-.05,2.12-.07,4.41-.07,6.8,0,1.52,0,3.06,0,4.65v0a.81.81,0,0,1-.89.77.83.83,0,0,1-.92-.77c0-4.85.08-10.55.11-12.12a2.09,2.09,0,0,1,2.25-2.14c1.59,0,3.26-.06,5-.06,1.48,0,3,0,4.43.06a2,2,0,0,1,2.2,2c.07,2.74,0,5.75.07,7.78ZM286.2,36.69a.73.73,0,0,1,0-1.46h6.39a.73.73,0,0,1,0,1.46Zm3.13,7.09c-2.84,0-3.31-.07-3.31-2.73,0-.54,0-1.12,0-1.55A1.46,1.46,0,0,1,287.59,38q.95,0,1.92,0c.54,0,1.08,0,1.61,0a1.47,1.47,0,0,1,1.54,1.48c0,.4,0,.88,0,1.35C292.7,43.51,292.63,43.78,289.33,43.78Zm1.77-2.73c0-.42,0-.85,0-1.14,0-.55-.49-.57-1.8-.57-.4,0-.79,0-1.15,0-.56,0-.58.4-.58,1.35,0,.38,0,.78,0,1.05,0,.56.34.59,1.82.59s1.67-.12,1.69-.56C291.1,41.61,291.1,41.34,291.1,41.05Z"/><path d="M315.58,39.39l-3.82,0a10.44,10.44,0,0,0,1,2.16,9.64,9.64,0,0,0,1.75-1.39.72.72,0,0,1,.5-.23.94.94,0,0,1,.89.86c0,.59-1.1,1.26-2.34,1.89a8.57,8.57,0,0,0,2.41,2.12.8.8,0,0,1,.43.71.91.91,0,0,1-.9.88c-.88,0-2.74-2-3.87-4.38l0,.51.12,2.57v.11c0,1-.55,2.14-2.55,2.14-1.21,0-1.86-.21-1.86-.91a.75.75,0,0,1,.74-.81h.16a4.56,4.56,0,0,0,1,.13c.55,0,.93-.22.93-1l0-5.33-3.26,0a.84.84,0,0,1-.37-.07,1,1,0,0,1,.07.29.83.83,0,0,1-.78.81.67.67,0,0,1-.52-.29,10.94,10.94,0,0,0-.72-.86c0,2.8.09,7.32.09,7.32v0a.8.8,0,0,1-.88.76.79.79,0,0,1-.88-.76v0l.07-6.5a16.34,16.34,0,0,1-1.53,2.27,1,1,0,0,1-.74.38.86.86,0,0,1-.86-.81.9.9,0,0,1,.28-.63,16,16,0,0,0,2.85-4.3v-.42l-1.75,0h0a.73.73,0,0,1-.8-.76.82.82,0,0,1,.83-.83h1.73l-.05-3h0a.81.81,0,0,1,.9-.78.79.79,0,0,1,.86.78h0s0,1.37-.05,3h1.22a.8.8,0,0,1,0,1.59h0l-1.24,0c0,.43,0,.86,0,1.26a.46.46,0,0,1,.22.06,6.77,6.77,0,0,1,1.42,1,.52.52,0,0,1,0-.18.69.69,0,0,1,.7-.7h3.26v-1h-2.45a.64.64,0,0,1-.72-.62.68.68,0,0,1,.72-.68h2.45v-.88h-3a.65.65,0,0,1-.74-.63.7.7,0,0,1,.74-.69h1.52a4.13,4.13,0,0,0-.87-1,.58.58,0,0,1-.25-.47.79.79,0,0,1,.83-.7,2.89,2.89,0,0,1,1.8,1.78.83.83,0,0,1-.09.36h1.26a11.64,11.64,0,0,0,.95-1.8.71.71,0,0,1,.67-.45.92.92,0,0,1,.93.8c0,.18,0,.37-.81,1.45h2a.66.66,0,1,1,0,1.32H311.6l0,.88h2.72a.65.65,0,1,1,0,1.3h-2.72l0,1h3.94a.64.64,0,0,1,.67.67.63.63,0,0,1-.65.66Zm-9.42,6.32a.85.85,0,0,1-.83-.88.74.74,0,0,1,.53-.72,10.9,10.9,0,0,0,3-1.59.72.72,0,0,1,.4-.14.7.7,0,0,1,.68.72.91.91,0,0,1-.36.67A10.88,10.88,0,0,1,306.16,45.71Zm1.93-3.55a4.06,4.06,0,0,0-1.42-.88.52.52,0,0,1-.35-.5.82.82,0,0,1,.78-.76c.29,0,2.23.61,2.23,1.51a.86.86,0,0,1-.75.87A.66.66,0,0,1,308.09,42.16Z"/><path d="M321.75,45.75a11.67,11.67,0,0,1-.47-3.44c0-3.17.92-6.27,1-7.51a.88.88,0,0,1,1.76-.07.76.76,0,0,1,0,.14,42.08,42.08,0,0,0-1.17,6.43c0,.67.12.74.18.74s.09,0,.12-.13c.56-1.06.69-1.28,1.06-1.28a.78.78,0,0,1,.74.76.54.54,0,0,1-.09.32,9.48,9.48,0,0,0-1.35,3.39c0,.16,0,.32,0,.49a.84.84,0,0,1-.9.93A1,1,0,0,1,321.75,45.75Zm10-.11c-3.11,0-5.49-1.86-5.49-2.74a.9.9,0,0,1,.94-.84,1.06,1.06,0,0,1,.81.39,4.56,4.56,0,0,0,3.49,1.21,11.48,11.48,0,0,0,1.53-.11.78.78,0,0,1,.22,0,.84.84,0,0,1,.9.87C334.16,45.33,333.36,45.64,331.76,45.64Zm-2-7.91a10,10,0,0,1-2.43-.27.83.83,0,0,1,.07-1.65.62.62,0,0,1,.18,0,8.87,8.87,0,0,0,1.74.18,17.2,17.2,0,0,0,2.22-.18l.16,0a.83.83,0,0,1,.87.84C332.54,37.38,332,37.73,329.73,37.73Z"/><path d="M340.7,47a7,7,0,0,0-2.21-1.89.82.82,0,0,1-.49-.72.81.81,0,0,1,.85-.79c.63,0,3.51,1.59,3.51,2.81a1,1,0,0,1-1,1A.82.82,0,0,1,340.7,47Z"/><path d="M369.61,38.22c0,1.14,0,2.16,0,2.83,0,1.62-1.34,1.71-2.87,1.71-1.69,0-2.77-.09-2.79-1.69,0-.69,0-1.71,0-2.85h-2.34c0,.81,0,1.64,0,2.38,0,1.31,0,2.45.05,3.13.05,1.06.61,1.1,4.52,1.1,1.57,0,3.26,0,4.66-.09h.06a.74.74,0,0,1,.75.79.83.83,0,0,1-.81.87c-1.38.07-3,.09-4.46.09s-2.74,0-3.78-.08c-1.59-.07-2.74-.7-2.78-2.45,0-.59,0-1.33,0-2.14,0-1.11,0-2.36,0-3.6l-2.07,0a.77.77,0,0,1-.86-.76.83.83,0,0,1,.86-.84h2.07c0-1.27,0-2.44,0-3.34a.93.93,0,0,1,1.84,0v0c0,.88,0,2.07-.06,3.34h2.32c0-1.51,0-3,0-3.92a.81.81,0,0,1,.89-.74.75.75,0,0,1,.82.72v0c0,.85,0,2.39,0,3.92h2.3c0-1.38,0-2.79,0-3.7a.86.86,0,0,1,1.71,0c0,.93,0,2.32,0,3.7h2.61a.8.8,0,0,1,.83.82.77.77,0,0,1-.83.78Zm-4,0c0,1,0,1.89,0,2.45s.31.61,1.07.61,1.13-.11,1.17-.61,0-1.42,0-2.45Z"/><path d="M384.91,41.37a.8.8,0,0,1,.87-.79l.16,0a23,23,0,0,1-2.05-1.91,19,19,0,0,1-2,1.93.78.78,0,0,1,.75.81c0,2.1-.88,5.22-5.49,6a.65.65,0,0,1-.2,0,.82.82,0,0,1-.82-.86.71.71,0,0,1,.57-.76c3.15-.43,4.11-2.18,4.18-4.38l0,0c-1.08.77-3.55,2.3-4.2,2.3a.84.84,0,0,1-.86-.82.81.81,0,0,1,.56-.76,18.52,18.52,0,0,0,5.51-3.44c-.51,0-1,0-1.41,0-.72,0-2.41,0-2.47-1.68,0-.55,0-1.18,0-1.81s0-1.21,0-1.7c0-.77.55-1.58,2-1.62.76,0,2,0,3.31,0,1.6,0,3.33,0,4.49,0a1.79,1.79,0,0,1,1.85,1.5c0,.43.05,1,.05,1.64s0,1.44-.05,2a1.86,1.86,0,0,1-2,1.69h-.49c-.41,0-.88,0-1.35,0a20.81,20.81,0,0,0,5.53,3.15.8.8,0,0,1,.54.76,1,1,0,0,1-1,1c-.59,0-2.61-1.15-4.3-2.43a.92.92,0,0,1,.05.25V46.5a.87.87,0,0,1-1.73,0ZM383,33.16c-1,0-1.89,0-2.5,0-.88,0-.92.65-.92,1.38H383Zm0,2.72h-3.42c0,.94.08,1.42.94,1.46.67,0,1.55,0,2.48,0Zm5-1.3c0-.25,0-.46,0-.66,0-.45-.27-.7-.88-.72s-1.51,0-2.5,0v1.42Zm-3.4,1.3v1.5c.91,0,1.81,0,2.52,0,.88,0,.88-.63.88-1.46Z"/><path d="M404.64,41.75c0,.31,0,.63,0,1a1.08,1.08,0,0,1-1,1.1.76.76,0,0,1-.74-.85v-.16a8.86,8.86,0,0,0,.08-1.21c-.38.2-2.06,1.08-2.06,2.22,0,.31.15,1.37,2,1.37a8.42,8.42,0,0,0,2.27-.38,1.34,1.34,0,0,1,.45-.07.87.87,0,0,1,.94.84c0,.38-.14,1.3-3.22,1.3s-4-1.55-4-2.86c0-2.2,2.56-3.57,3.5-4-.22-.71-.58-1.07-1.07-1.07a1.75,1.75,0,0,0-.93.33c-.76.84-1.21,1.1-1.6,1.1a.72.72,0,0,1-.78-.69,1,1,0,0,1,.42-.74,9.42,9.42,0,0,0,2.3-2.73,5.66,5.66,0,0,1-.88.07c-1.82,0-1.84-1-1.84-1.15a.77.77,0,0,1,.74-.8,1.19,1.19,0,0,1,.65.24,1.18,1.18,0,0,0,.66.14,7,7,0,0,0,1.43-.2,7,7,0,0,0,.32-1.42.71.71,0,0,1,.76-.63.93.93,0,0,1,1,.79,3.12,3.12,0,0,1-.11.67c.54-.27.61-.29.74-.29a.78.78,0,0,1,.77.79c0,.6-.46,1-2.34,1.41a20.39,20.39,0,0,1-1,1.8,2.41,2.41,0,0,1,2.27,1.69,21.11,21.11,0,0,1,4.15-1.46,1,1,0,0,1,1,.94.73.73,0,0,1-.48.7c-.56.24-1.16.31-2.09.6-.76.23-1.53.52-2.23.81A7.86,7.86,0,0,1,404.64,41.75Z"/><path d="M424.51,43.5v3.11a.83.83,0,0,1-1.65,0V43.5h-1.57a.72.72,0,0,1-.81-.72.78.78,0,0,1,.81-.8h1.57v-.45l.05-3.11a17,17,0,0,1-3.8,5.11.89.89,0,0,1-.65.27.87.87,0,0,1-.72-.39l-.05,3.18a.83.83,0,0,1-.88.83.8.8,0,0,1-.85-.81v0l.18-8.32c-1.15,1.5-1.64,1.77-2,1.77a.83.83,0,0,1-.85-.79.86.86,0,0,1,.31-.63,16.66,16.66,0,0,0,4.1-6.52.81.81,0,0,1,.78-.58,1,1,0,0,1,1,.89,14.06,14.06,0,0,1-1.54,3.25l-.15,7a1.13,1.13,0,0,1,.24-.25,16.33,16.33,0,0,0,4.37-5.6l-3.06,0h0a.73.73,0,0,1-.81-.75.8.8,0,0,1,.83-.81h3.51V32.21a.79.79,0,0,1,.85-.78.81.81,0,0,1,.88.78v3.06h4a.76.76,0,0,1,.79.79.73.73,0,0,1-.78.77h0l-3.61,0a17.34,17.34,0,0,0,4.72,5.11.89.89,0,0,1,.38.72.9.9,0,0,1-.88.9,1.22,1.22,0,0,1-.72-.28,19.16,19.16,0,0,1-4-4.79l.05,3.08V42h1.61a.76.76,0,1,1,0,1.52Z"/><path d="M433.62,46.85a.92.92,0,0,1-1-.83.89.89,0,0,1,.63-.78A4.69,4.69,0,0,0,435,43.6a.72.72,0,0,1,.7-.46.9.9,0,0,1,.9.81C436.61,44.83,434.57,46.85,433.62,46.85ZM447,34.76l-3.67,0A16.69,16.69,0,0,0,444,38.2a9.92,9.92,0,0,0,.87-2.07.66.66,0,0,1,.66-.5.81.81,0,0,1,.83.77,9.7,9.7,0,0,1-1.56,3.35c.34.49.82,1,1.22,1s.54-.34.68-1.23a.69.69,0,0,1,.71-.63.85.85,0,0,1,.88.83c0,.7-.6,2.72-2.18,2.72A2.86,2.86,0,0,1,443.83,41a7.82,7.82,0,0,1-2.07,1.53s0,0-.06,0c1,.65,1.07,1.05,1.07,1.3a.94.94,0,0,1-.89.9.74.74,0,0,1-.59-.31A7.11,7.11,0,0,0,439.54,43a.63.63,0,0,1-.34-.52.85.85,0,0,1,.86-.76,1.2,1.2,0,0,1,.58.17v-.06a.65.65,0,0,1,.4-.61,6.41,6.41,0,0,0,2-1.58,18.27,18.27,0,0,1-1.29-4.9c-1.72,0-3.35,0-4.87,0a.67.67,0,0,0-.75.74c0,.22,0,.47,0,.78,0,1.67-.19,4.48-1.67,6.37a1,1,0,0,1-.83.43.91.91,0,0,1-.93-.83.84.84,0,0,1,.25-.57c1.3-1.39,1.49-3.44,1.49-5,0-.57,0-1.09,0-1.51v-.07a1.75,1.75,0,0,1,1.91-1.73c1.62,0,3.4,0,5.23,0,0-.34-.08-.68-.12-1v-.15a.74.74,0,0,1,.75-.77.86.86,0,0,1,.87.86c0,.36,0,.72.07,1.08l2,0a4.08,4.08,0,0,0-1.15-.79.42.42,0,0,1-.27-.4.78.78,0,0,1,.74-.7c.29,0,1.87.58,1.87,1.39a.83.83,0,0,1-.18.5H447a.67.67,0,0,1,.7.7.68.68,0,0,1-.7.72ZM437.15,37a.61.61,0,0,1-.65-.61.65.65,0,0,1,.65-.67h3.9a.64.64,0,0,1,0,1.28Zm2,4.34c-2.21,0-2.46-.25-2.46-1.84,0-1.09.16-1.73,1.45-1.73h1.3c2,0,2,.41,2,1.89C441.52,40.85,441.4,41.3,439.18,41.3Zm1.41,5.87c-2.79,0-3.55-.54-3.55-2.05,0-1.79,0-2,0-2.11a.87.87,0,0,1,1.73,0c0,.51,0,1.75,0,1.95,0,.63.41.77,1.87.77,1.71,0,2.32-.14,2.32-1,0-.47.38-.67.8-.67s.95.27.95.7C444.71,46.76,443.59,47.17,440.59,47.17Zm-2.52-7.38c0,.23.1.3,1.18.3.85,0,.94-.05.94-.61s0-.59-1.08-.59c-.83,0-1,0-1,.27ZM446.76,46a6.65,6.65,0,0,0-1.85-1.8.73.73,0,0,1-.36-.59.82.82,0,0,1,.86-.74c.65,0,3,1.66,3,2.59a1,1,0,0,1-.93.94A.78.78,0,0,1,446.76,46Z"/><path d="M459.72,43.3a2.83,2.83,0,0,1-2.63-2.92,2,2,0,0,1,2.07-2.12,3,3,0,0,1,.83.11c-.05-.6-.09-1.14-.12-1.64a25.39,25.39,0,0,0-6.61,1.42,1.21,1.21,0,0,1-.34.07.88.88,0,0,1-.87-.9,1,1,0,0,1,.85-1,41.65,41.65,0,0,1,6.89-1.23v-.57c0-1.59,0-2.43,1-2.43a.92.92,0,0,1,1,.84,1,1,0,0,1,0,.17,12.67,12.67,0,0,0-.24,1.85c1.44-.09,2.9-.13,4.36-.13.75,0,1.13.45,1.13.9a1,1,0,0,1-1.06.9h-.09c-.88,0-1.78-.07-2.68-.07-.56,0-1.12,0-1.68,0,0,1.22.11,2.36.13,2.59a3,3,0,0,1,.95,2.14,3.54,3.54,0,0,1-.57,1.82,8.82,8.82,0,0,1-6.23,4.07.9.9,0,0,1-1-.86c0-.36.25-.74.86-.87a7.26,7.26,0,0,0,4.23-2.21Zm-.3-3.58a.77.77,0,0,0-.82.81,1.29,1.29,0,0,0,1.14,1.31.78.78,0,0,0,.77-.77c0-.06,0-.09,0-.15a2.36,2.36,0,0,0-.12-.59A1.15,1.15,0,0,0,459.42,39.72Z"/><path d="M482,41.77c0-1.89-2.28-1.89-2.45-1.89a5.89,5.89,0,0,0-4.3,2.39.94.94,0,0,1-1.67-.5,1,1,0,0,1,.35-.74,47.06,47.06,0,0,0,5.23-6s0,0-.06,0l-.12,0a9.14,9.14,0,0,1-3.6,1.32.89.89,0,0,1-.94-.89.78.78,0,0,1,.76-.79,17.1,17.1,0,0,0,4.55-1.22,1.46,1.46,0,0,1,.65-.15,1.13,1.13,0,0,1,1.19,1.07,1.27,1.27,0,0,1-.42.88c-1.22,1.17-2.61,2.7-3.74,4a4.74,4.74,0,0,1,2.57-.72c1.91,0,3.8,1.17,3.8,3.17,0,2.41-2.48,4.72-5.6,4.72-2.16,0-3.29-1.25-3.29-2.31a1.85,1.85,0,0,1,2-1.69,2.56,2.56,0,0,1,2.81,2.25A3.54,3.54,0,0,0,482,41.77ZM477,43.69c-.62,0-.63.4-.63.47,0,.71,1.22.8,1.67.8h.13C478.15,44.18,477.76,43.69,477,43.69Z"/><path d="M493.92,41.23s.79-.7.79-.74a.17.17,0,0,0-.14-.14c-.83,0-1.57,0-2.34,0a7.81,7.81,0,0,1-2.31,1.3.74.74,0,0,1-.74-.74.81.81,0,0,1,.49-.7,15.44,15.44,0,0,0,3.51-2.43H490a.68.68,0,1,1,0-1.36h2.59V35.11h-1.82a.69.69,0,0,1-.74-.69.68.68,0,0,1,.74-.68h1.8V32.28a.8.8,0,0,1,1.6,0v1.46h1a.63.63,0,0,1,.63.68,15.9,15.9,0,0,0,.76-1.55.68.68,0,0,1,.66-.46.89.89,0,0,1,.9.79,10.84,10.84,0,0,1-1.92,3.26h.52a.72.72,0,0,1,.79.7.69.69,0,0,1-.77.66h-1.66a18.81,18.81,0,0,1-1.35,1.33c.61,0,1.26,0,1.85,0,.81,0,1.14.43,1.14.86,0,.61-.42,1-2,2l.13.21c.92-.16,1.73-.32,2.34-.45a.44.44,0,0,1,.16,0,.61.61,0,0,1,.63.63.68.68,0,0,1-.59.65c-.58.13-1.32.29-2.14.45,0,.18,0,.36,0,.54a2.92,2.92,0,0,1-2.9,3.14c-.84,0-1.46-.31-1.46-.85a.74.74,0,0,1,.74-.72.93.93,0,0,1,.22,0,2,2,0,0,0,.52.07c.83,0,1.33-.58,1.33-1.79v-.14c-.84.14-3.09.56-3.47.56a.7.7,0,0,1-.76-.69.76.76,0,0,1,.74-.72c.94-.1,2-.27,3.06-.43a1.34,1.34,0,0,0-.47-.38.55.55,0,0,1-.36-.48.75.75,0,0,1,.81-.63,1.12,1.12,0,0,1,.51.14Zm.52-4.77a15.69,15.69,0,0,0,1-1.41.54.54,0,0,1-.27.06h-1.06v1.35Zm9.24.28A13.72,13.72,0,0,1,501.81,43,9.06,9.06,0,0,0,505,45.33a.79.79,0,0,1,.51.74,1,1,0,0,1-1,1,7.36,7.36,0,0,1-3.66-2.81,9,9,0,0,1-4.36,3,.9.9,0,0,1-.9-.86.87.87,0,0,1,.61-.8A9,9,0,0,0,500,42.88a14.47,14.47,0,0,1-1.44-4.19c-.45.67-.56.79-1,.79a.73.73,0,0,1-.74-.7.8.8,0,0,1,.16-.45,16.09,16.09,0,0,0,2.4-6.1.71.71,0,0,1,.77-.63.85.85,0,0,1,.92.75,18.09,18.09,0,0,1-.87,2.9l4.36,0a.71.71,0,0,1,.74.76.7.7,0,0,1-.74.75Zm-4,0a11.69,11.69,0,0,0,1.13,4.8,12.21,12.21,0,0,0,1.23-4.79Z"/><path d="M519.59,34.76c1.1.45,3,1.66,3,2.6a.86.86,0,0,1-.83.88.91.91,0,0,1-.71-.42,6.05,6.05,0,0,0-.78-.82,80.65,80.65,0,0,1-9.65,1,.83.83,0,0,1-.9-.82.72.72,0,0,1,.77-.74c.74,0,1.52,0,2.27-.06a13.92,13.92,0,0,0,.61-1.62l-3.79,0a.79.79,0,1,1,0-1.58l5.63,0V32.14a.94.94,0,0,1,1.87,0v1.09l5.73,0a.79.79,0,1,1,0,1.58ZM521,44.88v0c0,1.06-.61,2.41-3,2.41-1.22,0-1.91-.14-1.91-.95a.72.72,0,0,1,.7-.79H517a5.4,5.4,0,0,0,1.1.13c.68,0,1.18-.23,1.22-1.1,0-.14,0-.31,0-.48h-6.18v2.52a.83.83,0,0,1-.88.81.77.77,0,0,1-.81-.8c0-.18.09-6.46.11-6.77,0-.7.56-1.51,2-1.54.84,0,1.91,0,2.95,0,.86,0,1.71,0,2.45,0,1.44.05,1.94.72,2,1.53s0,2.39,0,3.11Zm-1.67-3h-6.18c0,.33,0,.67,0,1h6.2Zm0-1.51c0-.7-.31-.72-2.92-.72-2.93,0-3.15,0-3.18.72v.27h6.12Zm-4-5.63a14,14,0,0,1-.72,1.54c1.44-.09,2.85-.21,4.2-.36l-.18-.1a.59.59,0,0,1-.36-.51.67.67,0,0,1,.34-.57Z"/><path d="M538.71,46.32h-.18c-3.91-.36-6.38-3.06-6.38-5.83a5.06,5.06,0,0,1,1.3-3.3c0-.07.09-.12.09-.16s0,0,0,0a.53.53,0,0,0-.18.07c-2.82,1.46-3.17,1.57-3.56,1.57a1,1,0,1,1-.27-1.91c.38-.13,1.4-.44,1.94-.63.85-.31,2.34-.78,4.12-1.48a13.86,13.86,0,0,1,4.78-1.12c.9,0,1.22.42,1.22.89,0,.91-.76,1.11-1.44,1.11a2.88,2.88,0,0,1-.41,0h-.44c-2.79,0-5.52,2.37-5.52,4.79,0,2.16,2,4,4.88,4,.9,0,1.33.52,1.33,1.06S539.53,46.32,538.71,46.32ZM540.25,40a6.9,6.9,0,0,0-1.53-1.11.61.61,0,0,1-.45-.56.77.77,0,0,1,.8-.7c.23,0,2.43.83,2.43,1.76a.87.87,0,0,1-.78.85A.62.62,0,0,1,540.25,40Zm2.07-1.49a6.05,6.05,0,0,0-1.56-1.06.63.63,0,0,1-.47-.56.77.77,0,0,1,.79-.72c.29,0,2.45.77,2.45,1.71a.84.84,0,0,1-.76.85A.7.7,0,0,1,542.32,38.51Z"/><path d="M554.22,43.3a2.83,2.83,0,0,1-2.63-2.92,2,2,0,0,1,2.07-2.12,3,3,0,0,1,.83.11c0-.6-.09-1.14-.12-1.64a25.39,25.39,0,0,0-6.61,1.42,1.21,1.21,0,0,1-.34.07.88.88,0,0,1-.87-.9,1,1,0,0,1,.85-1,41.65,41.65,0,0,1,6.89-1.23v-.57c0-1.59,0-2.43,1-2.43a.92.92,0,0,1,1,.84,1,1,0,0,1,0,.17A12.67,12.67,0,0,0,556,35c1.44-.09,2.9-.13,4.36-.13.75,0,1.13.45,1.13.9a1,1,0,0,1-1.06.9h-.09c-.88,0-1.78-.07-2.68-.07-.56,0-1.12,0-1.68,0,0,1.22.11,2.36.13,2.59a3,3,0,0,1,1,2.14,3.54,3.54,0,0,1-.57,1.82,8.82,8.82,0,0,1-6.23,4.07.9.9,0,0,1-1-.86c0-.36.25-.74.86-.87a7.26,7.26,0,0,0,4.23-2.21Zm-.3-3.58a.77.77,0,0,0-.82.81,1.29,1.29,0,0,0,1.14,1.31.78.78,0,0,0,.77-.77c0-.06,0-.09,0-.15a2.36,2.36,0,0,0-.12-.59A1.15,1.15,0,0,0,553.92,39.72Z"/><path d="M566.84,47.44a2.06,2.06,0,1,1,2-2A2.05,2.05,0,0,1,566.84,47.44Zm0-3.4a1.35,1.35,0,0,0-1.37,1.35,1.37,1.37,0,0,0,2.74,0A1.36,1.36,0,0,0,566.84,44Z"/><rect class="cls-1" y="0.37" width="593.81" height="46.9"/></g></g></svg>