<svg xmlns="http://www.w3.org/2000/svg" viewBox="0 0 593.81 80.61"><defs><style>.cls-1{fill:none;}</style></defs><g id="レイヤー_2" data-name="レイヤー 2"><g id="レイヤー_2-2" data-name="レイヤー 2"><path d="M104.09,9.78c-1.17,1-1.53,1.19-1.85,1.19a.9.9,0,0,1-.87-.9.82.82,0,0,1,.44-.72A12.69,12.69,0,0,0,106,5a.78.78,0,0,1,.67-.42,1,1,0,0,1,1,.92c0,.16,0,.58-1.8,2.56l-.21,8.23a.84.84,0,0,1-.9.81.77.77,0,0,1-.83-.78v0Zm-1.64-3.1a.86.86,0,0,1-.9-.81,1,1,0,0,1,.6-.84,10,10,0,0,0,3.46-3.5.83.83,0,0,1,.72-.45.92.92,0,0,1,.9.89,1,1,0,0,1-.18.54C105.91,4.14,103.52,6.68,102.45,6.68ZM113.2,11v4a7.85,7.85,0,0,0,1.48.12c.76,0,1.57-.07,2.41-.12h.06a.73.73,0,0,1,.72.79.86.86,0,0,1-.81.9,19.94,19.94,0,0,1-2.18.14c-3.31,0-4.61-1.18-5.3-3.13a8.52,8.52,0,0,1-1.27,2.85,1,1,0,0,1-.76.36.94.94,0,0,1-1-.81.8.8,0,0,1,.23-.54,8.14,8.14,0,0,0,1.66-5.46V9.76A.79.79,0,0,1,109.3,9a.82.82,0,0,1,.86.83s0,.59-.11,1.39a5.06,5.06,0,0,0,1.42,2.95l0-7.4h-2.9a.79.79,0,1,1,0-1.57h3.79a20.7,20.7,0,0,0,1.38-3.09.75.75,0,0,1,.76-.58,1,1,0,0,1,1,.88,10.4,10.4,0,0,1-1.46,2.79h2.58a.74.74,0,0,1,.75.78.74.74,0,0,1-.75.79H113.2v2.7h2.94a.79.79,0,1,1,0,1.57Zm-2.36-6.14a.69.69,0,0,1-.66-.47,6.12,6.12,0,0,0-1.05-1.6.87.87,0,0,1-.19-.47.79.79,0,0,1,.81-.74c.79,0,2,1.75,2,2.38A.93.93,0,0,1,110.84,4.85Z"/><path d="M135.56,10.19l-5.26-.07a19.17,19.17,0,0,0,6.09,4.49.8.8,0,0,1,.52.75,1,1,0,0,1-1,1c-.9,0-4.31-2.57-6.36-5,0,1.71.06,3.42.06,5.15,0,.48-.45.72-.9.72s-.87-.24-.87-.71h0l0-5A20.78,20.78,0,0,1,122,16.33a1.14,1.14,0,0,1-.6.18.89.89,0,0,1-.91-.86.87.87,0,0,1,.56-.77A17.85,17.85,0,0,0,127,10.12l-5.06.07h0a.72.72,0,0,1-.76-.73.77.77,0,0,1,.78-.8l5.92,0,0-3.44h-5.09a.72.72,0,0,1-.77-.75.76.76,0,0,1,.77-.8h5.08l0-2a.78.78,0,0,1,.85-.77.8.8,0,0,1,.88.77c0,.68,0,1.35,0,2h4.77a.74.74,0,0,1,.74.78.72.72,0,0,1-.74.77h-4.79c0,1.16,0,2.29,0,3.44h.67a10.41,10.41,0,0,0,1.55-2.79.66.66,0,0,1,.63-.45,1,1,0,0,1,1,.88,7.21,7.21,0,0,1-1.44,2.36l3.65,0a.74.74,0,0,1,.74.78.7.7,0,0,1-.72.75ZM125.15,8.12A6.5,6.5,0,0,0,124,6.74a.63.63,0,0,1-.27-.51.78.78,0,0,1,.81-.66,3,3,0,0,1,2.11,2,.94.94,0,0,1-.88.92A.73.73,0,0,1,125.15,8.12Z"/><path d="M140.88,16.62a.74.74,0,1,1,0-1.47h5.91V13.53h-4.3a.72.72,0,1,1,0-1.44l4.28,0v-1a.94.94,0,0,1-.57.18.72.72,0,0,1-.8-.69l0-3.51h-1.75c-.41,2.9-2.07,4.49-2.89,4.49a.75.75,0,0,1-.8-.73.77.77,0,0,1,.31-.59,4.55,4.55,0,0,0,1.84-3.15h-1.44a.73.73,0,0,1-.8-.74.75.75,0,0,1,.8-.74h0l1.52,0V5.17c0-.29,0-.56,0-.81s0-.52,0-.79h-1a.73.73,0,0,1-.79-.72.75.75,0,0,1,.81-.76h6.65a.71.71,0,0,1,.72.74.69.69,0,0,1-.71.74H147l0,2.05,1.44,0h0a.69.69,0,0,1,.7.74.7.7,0,0,1-.7.74H147l0,3.33a.93.93,0,0,1,.64-.25.83.83,0,0,1,.87.85v1.11l4.14,0a.72.72,0,1,1,0,1.44h-4.14v1.63h5.8a.77.77,0,0,1,.79.77.7.7,0,0,1-.79.7Zm4.54-13.07h-1.6c0,.61,0,1.19,0,1.67v.4h1.62ZM149.58,3a.75.75,0,0,1,.78-.77.77.77,0,0,1,.81.77v5.3a.8.8,0,0,1-1.59,0Zm5.08,6.07v0a2.15,2.15,0,0,1-2.43,2.21c-1.17,0-1.84-.27-1.84-1a.81.81,0,0,1,.78-.87.93.93,0,0,1,.23,0,3.6,3.6,0,0,0,.83.14c.41,0,.74-.18.75-.9s0-3.78,0-5.58V2.11a.81.81,0,0,1,1.62,0V7Z"/><path d="M171.38,9.19c0-2-1.57-3.71-4.18-3.71h0a.79.79,0,0,1,.5.75v.09c0,1.89-1.85,5.17-3.83,7.12a2,2,0,0,1-1.35.61c-1.28,0-2.44-1.44-2.44-3.41,0-3.25,3.21-6.57,7.26-6.57,3.64,0,5.91,2.42,5.91,5.22a5.56,5.56,0,0,1-.4,2c-1.58,4-6.48,4.55-6.73,4.55a1,1,0,0,1-1-.88c0-.39.31-.77,1-.9C169.33,13.56,171.38,11.55,171.38,9.19Zm-5.2-3.62c-2.25.45-4.5,2.84-4.5,5,0,1.36.9,1.52.95,1.52a.47.47,0,0,0,.34-.15c.54-.48,2.79-3.15,2.87-5.58A.91.91,0,0,1,166.18,5.57Z"/><path d="M182.07,11s.79-.7.79-.74a.17.17,0,0,0-.14-.14c-.83,0-1.57,0-2.34,0a7.81,7.81,0,0,1-2.31,1.3.74.74,0,0,1-.74-.74.81.81,0,0,1,.49-.7,15.66,15.66,0,0,0,3.51-2.43l-3.2,0a.69.69,0,1,1,0-1.37h2.59V4.83H178.9a.69.69,0,1,1,0-1.37h1.8V2a.8.8,0,0,1,1.6,0V3.46h1a.63.63,0,0,1,.63.68,15.73,15.73,0,0,0,.76-1.54.68.68,0,0,1,.66-.47.9.9,0,0,1,.9.79,10.72,10.72,0,0,1-1.92,3.26h.52a.72.72,0,0,1,.79.7.69.69,0,0,1-.77.67h0l-1.64,0a16.92,16.92,0,0,1-1.35,1.33c.61,0,1.26,0,1.85,0,.81,0,1.14.43,1.14.86,0,.62-.42,1-1.95,2,0,.07.09.14.13.22l2.34-.45a.44.44,0,0,1,.16,0,.61.61,0,0,1,.63.63.66.66,0,0,1-.59.64l-2.14.46c0,.18,0,.36,0,.54a2.91,2.91,0,0,1-2.9,3.13c-.84,0-1.46-.31-1.46-.85a.74.74,0,0,1,.74-.72.93.93,0,0,1,.22,0,2,2,0,0,0,.52.07c.83,0,1.33-.58,1.33-1.78v-.15c-.84.15-3.09.56-3.47.56a.7.7,0,0,1-.76-.68.74.74,0,0,1,.74-.72c.94-.11,2-.27,3.06-.44a1.4,1.4,0,0,0-.47-.37.57.57,0,0,1-.36-.49.76.76,0,0,1,.81-.63,1,1,0,0,1,.51.15Zm.52-4.77a15.69,15.69,0,0,0,1-1.41.54.54,0,0,1-.27.06h-1.06V6.18Zm9.24.29A13.76,13.76,0,0,1,190,12.7a9.18,9.18,0,0,0,3.16,2.36.79.79,0,0,1,.51.73,1,1,0,0,1-1,1A7.39,7.39,0,0,1,189,14a8.91,8.91,0,0,1-4.36,3,.9.9,0,0,1-.9-.86.86.86,0,0,1,.61-.79,9.12,9.12,0,0,0,3.75-2.72,14.63,14.63,0,0,1-1.44-4.2c-.45.67-.56.79-1,.79a.73.73,0,0,1-.74-.7.8.8,0,0,1,.16-.45A15.87,15.87,0,0,0,187.52,2a.73.73,0,0,1,.78-.63.85.85,0,0,1,.92.75,18.09,18.09,0,0,1-.87,2.9h4.36a.7.7,0,0,1,.74.75.71.71,0,0,1-.74.76Zm-4,0A11.78,11.78,0,0,0,189,11.26a12.31,12.31,0,0,0,1.23-4.79Z"/><path d="M207.74,4.49c1.1.45,3,1.65,3,2.59A.86.86,0,0,1,210,8a.93.93,0,0,1-.72-.41,5.05,5.05,0,0,0-.77-.83,81.85,81.85,0,0,1-9.65,1,.84.84,0,0,1-.9-.83.72.72,0,0,1,.77-.74c.74,0,1.52,0,2.27,0a14.65,14.65,0,0,0,.61-1.62l-3.8,0a.8.8,0,1,1,0-1.59l5.64,0V1.86a.94.94,0,0,1,1.87,0V3l5.73,0a.78.78,0,0,1,.83.79.78.78,0,0,1-.83.8Zm1.44,10.12v0c0,1.06-.61,2.41-3,2.41-1.23,0-1.91-.14-1.91-.95a.72.72,0,0,1,.7-.79.44.44,0,0,1,.15,0,6.16,6.16,0,0,0,1.1.12c.68,0,1.18-.23,1.22-1.1,0-.14,0-.3,0-.48h-6.18v2.52a.83.83,0,0,1-.88.81.76.76,0,0,1-.81-.79c0-.18.09-6.47.11-6.77,0-.71.56-1.52,2-1.55.84,0,1.9,0,3,0,.86,0,1.71,0,2.45,0,1.44.05,1.94.72,2,1.53s0,2.39,0,3.11Zm-1.67-3h-6.18c0,.32,0,.66,0,1h6.2Zm0-1.52c0-.7-.31-.72-2.92-.72-2.93,0-3.15,0-3.18.72v.27h6.12Zm-4-5.63A14.08,14.08,0,0,1,202.75,6c1.44-.09,2.85-.22,4.2-.36l-.18-.11a.59.59,0,0,1-.36-.5.67.67,0,0,1,.34-.58Z"/><path d="M222.66,9.15c-.77-.41-.94-1-.94-2,0-.28,0-.61,0-1,0-.83.05-1.48.05-2a8.32,8.32,0,0,0-.12-1.72,1.06,1.06,0,0,1,0-.24.78.78,0,0,1,.83-.79c1.1,0,1.15,1,1.15,2.25,0,.5,0,1.13-.11,2,0,.56-.09,1-.09,1.37,0,1.12.74,1.23,1.28,1.23.27,0,.31-.15.52-.22a1,1,0,0,1,.29-.05.9.9,0,0,1,.9.86,1.18,1.18,0,0,1-.66.94c-.62.38-2.06,1-2.89,1.44-1.36.76-2,1.53-2,2.2s.8,1.49,2.65,1.49a5,5,0,0,0,2.5-.58,1.61,1.61,0,0,1,.85-.28,1,1,0,0,1,1,.91c0,1.12-2.11,1.75-4,1.75-3.26,0-4.72-1.55-4.72-3.1,0-1.29,1-2.77,3.17-4l.61-.35A1.11,1.11,0,0,1,222.66,9.15Z"/><path d="M237.35,16.17a.94.94,0,0,1-.88-.77,13.05,13.05,0,0,1-.55-3.93,20,20,0,0,1,.13-2.34c.22-2,.63-3.8.76-4.91a.82.82,0,0,1,.82-.85.91.91,0,0,1,.94.88s0,.09,0,.15c-.12.77-.45,2-.7,3.35a17,17,0,0,0-.39,3.09c0,.67.1.81.14.81s.14-.1.25-.32c.51-1.1.79-1.3,1.08-1.3a.74.74,0,0,1,.67,1.1,10.93,10.93,0,0,0-1.43,3.55c0,.21.06.43.06.65A.87.87,0,0,1,237.35,16.17Zm5.85,0a2.66,2.66,0,0,1-2.79-2.25c0-1.37,1.67-1.93,3.33-1.93a8.7,8.7,0,0,1,1.67.18,4.18,4.18,0,0,0,0-.51c0-.3,0-.62-.05-1-.07-.78-.16-2.11-.22-3.51a6.56,6.56,0,0,0-3.24,1.31.81.81,0,0,1-1.4-.61c0-.4.25-1.32,4.61-2.29,0-.76,0-1.48.05-2.05a.84.84,0,0,1,1.67,0v.09c0,.51-.1,1.08-.12,1.68.3-.06.63-.11,1-.16a1,1,0,0,1,.23,0,.82.82,0,0,1,.92.77c0,.38-.3.78-1,.87-.41,0-.81.1-1.17.16,0,1.33.07,2.64.16,3.6a19,19,0,0,1,.15,2v.2a7,7,0,0,1,2.07,1.26,1,1,0,0,1,.34.73,1,1,0,0,1-.92,1,.88.88,0,0,1-.65-.32,6.24,6.24,0,0,0-1.29-1.05A4.19,4.19,0,0,1,243.2,16.14Zm.25-2.79c-1.4,0-1.48.45-1.48.61s.24.66,1,.66a2.64,2.64,0,0,0,2-1A6,6,0,0,0,243.45,13.35Z"/><path d="M253.92,16.87a1,1,0,0,1-1-1,.78.78,0,0,1,.45-.68,8.68,8.68,0,0,0,2.42-1.88c0-.81,0-1.51,0-2.19v-.74c0-.47-.21-.52-.82-.52h-.71c-.34,0-1,0-1-.78a.78.78,0,0,1,.76-.81c.65,0,1.15,0,1.75,0,1.15,0,1.69.54,1.69,1.69s0,2.29,0,3.44c1.14,1.44,3,1.82,5.49,1.82,1.8,0,3.77-.2,5.13-.31h.09a.85.85,0,0,1,.87.87.88.88,0,0,1-.9.88c-1.12.11-2.77.22-4.43.22-4.2,0-5.51-.62-7.08-2.22C255.74,15.74,254.63,16.87,253.92,16.87Zm2.2-11.81a5.31,5.31,0,0,0-1.76-1.56.63.63,0,0,1-.36-.56.92.92,0,0,1,.92-.81c.54,0,2.79,1.38,2.79,2.3a1.05,1.05,0,0,1-1,1A.72.72,0,0,1,256.12,5.06Zm8.5,8.57,0,.8a.84.84,0,0,1-1.66,0v-.8H258.5a.63.63,0,0,1,0-1.26h1.44v-.93h-1a.62.62,0,1,1,0-1.23H263l0-.75c-3.46,0-4,0-4-1.48,0-1.08.16-1.57,1.73-1.58.82,0,1.78,0,2.73,0,3.28,0,3.64,0,3.64,1.53,0,1.24-.22,1.55-2.56,1.55v.75h2.63a.62.62,0,1,1,0,1.23h-2.61v.93H268a.63.63,0,0,1,0,1.26ZM258.7,5.76a.61.61,0,0,1-.67-.61.64.64,0,0,1,.67-.63h2.21l.22-.92-1.46,0h0A.6.6,0,0,1,259,3a.65.65,0,0,1,.69-.65h1.74l.16-.72a.8.8,0,0,1,.83-.59c.4,0,.78.23.78.61a.55.55,0,0,1,0,.18l-.14.52,2,0c1.08,0,1.62.43,1.62,1.4v.1c0,.17,0,.39,0,.63l1.28,0h0a.59.59,0,0,1,.63.63.61.61,0,0,1-.64.64Zm2.46,1.72c-.41,0-.52.07-.52.32,0,.54,0,.54,2.5.54s2.45,0,2.45-.45-.07-.41-.56-.41Zm1.84,4h-1.55v.93H263Zm2.09-6.92a4,4,0,0,0,0-.45c0-.47-.13-.47-2.38-.47l-.23.92Z"/><path d="M276.91,16.24a.81.81,0,0,1,.52-.75c3.32-1.46,4.4-3.55,4.4-5.51,0-.51-.16-3.12-1.55-3.12a2.87,2.87,0,0,0-1.42.56,4,4,0,0,1-1.89.81,1,1,0,0,1-1.07-1,1,1,0,0,1,1-1,3.72,3.72,0,0,0,1.22-.45,5.61,5.61,0,0,1,2.29-.57c3.17,0,3.24,4.28,3.24,4.64,0,4.83-5,7.26-5.76,7.26A1,1,0,0,1,276.91,16.24ZM281.45,3.8A8.19,8.19,0,0,1,278,3a.84.84,0,0,1-.49-.74.8.8,0,0,1,.83-.79,1.18,1.18,0,0,1,.48.11,5.1,5.1,0,0,0,2.11.39c.22,0,.41,0,.63,0h.07a.83.83,0,0,1,.92.81A1,1,0,0,1,281.45,3.8Z"/><path d="M294.46,13.06c-.86,1.06-2.25,2.43-2.88,2.43a.8.8,0,0,1-.81-.76.77.77,0,0,1,.43-.65,11.4,11.4,0,0,0,3.15-2.86l-2.34,0h0a.69.69,0,0,1-.73-.7.67.67,0,0,1,.73-.7h0l2.47,0,0-.79v0a.74.74,0,0,1,1.48,0v0l0,.79,2.23,0h0a.68.68,0,0,1,.67.72.65.65,0,0,1-.67.68h0l-2.25,0,0,.67a.6.6,0,0,1,.34-.13,6.1,6.1,0,0,1,2,1,.77.77,0,0,1,.29.6.86.86,0,0,1-.79.86.68.68,0,0,1-.47-.2,6.81,6.81,0,0,0-1.33-1l0,3.37a.76.76,0,0,1-1.52,0Zm-2.74-4.77a.7.7,0,0,1-.72-.71.68.68,0,0,1,.72-.68h1.82a.84.84,0,0,1-.21-.36,4.2,4.2,0,0,0-.56-1.1.58.58,0,0,1-.14-.38.73.73,0,0,1,.77-.64c.77,0,1.39,1.53,1.39,1.83a.76.76,0,0,1-.33.65h.85a12.28,12.28,0,0,0,.75-2,.69.69,0,0,1,.67-.56.87.87,0,0,1,.88.79,5.83,5.83,0,0,1-.79,1.77h1.66a.67.67,0,0,1,.72.68.68.68,0,0,1-.72.71Zm.51-4.09a.7.7,0,1,1,0-1.39h2.16l0-1a.83.83,0,0,1,1.66,0v1h2a.67.67,0,0,1,.74.69.68.68,0,0,1-.74.7ZM303,8h-1.82c-.07,2.9-.42,6.05-2,8.25a1.07,1.07,0,0,1-.86.47.9.9,0,0,1-.94-.79.68.68,0,0,1,.2-.49c1.71-2,2-4.88,2-7.63,0-.9,0-1.79-.07-2.63V5c0-1.21.45-1.73,1.66-2.09a29.75,29.75,0,0,0,3.11-1.26,1.14,1.14,0,0,1,.45-.11.93.93,0,0,1,.92.9.85.85,0,0,1-.58.8c-.59.27-2.61.91-3.09,1.06a.92.92,0,0,0-.79,1V6.52l5.14,0a.78.78,0,1,1,0,1.56h-1.71l0,8.25a.84.84,0,0,1-1.67,0Z"/><path d="M324.8,10.66l-3.53-.05a12.47,12.47,0,0,0,.63,2.09,8.05,8.05,0,0,0,1-1.46.56.56,0,0,1,.5-.32.88.88,0,0,1,.85.8,6.51,6.51,0,0,1-1.6,2.35c.37.46.66.82,1,.82s.56-.37.68-1.36a.66.66,0,0,1,.7-.6.86.86,0,0,1,.87.88c0,.45-.52,2.87-2.21,2.87-1.14,0-1.86-1.08-2.2-1.59A10.48,10.48,0,0,1,316.94,17a.82.82,0,0,1-.77-.83.65.65,0,0,1,.56-.65,9.78,9.78,0,0,0,4-1.71,16.29,16.29,0,0,1-1-3.15l-2.27,0c0,.41-.07.81-.12,1.2a.79.79,0,0,1,.5-.2c.49,0,2,1,2,1.64a.86.86,0,0,1-.81.83.64.64,0,0,1-.47-.23,6,6,0,0,0-1.26-1.1s-.09,0-.12-.09c-.47,2-2,4-2.87,4a.78.78,0,0,1-.79-.75.85.85,0,0,1,.32-.65A5.68,5.68,0,0,0,316,10.66h-.54a.66.66,0,0,1-.72-.66.83.83,0,0,1,.09-.36.63.63,0,0,1-.34.1.6.6,0,0,1-.5-.3,7,7,0,0,0-.63-.88c0,2.84.09,7.79.09,7.79v0a.84.84,0,0,1-1.68,0v0l.06-6.17c-1,2.37-1.43,2.41-1.73,2.41a.88.88,0,0,1-.87-.83.86.86,0,0,1,.2-.54,15.88,15.88,0,0,0,2.41-4.63V6.47l-1.24,0h0a.73.73,0,0,1-.78-.75.77.77,0,0,1,.81-.78h1.23l-.06-3v0a.78.78,0,0,1,.81-.83.83.83,0,0,1,.87.83v0s0,1.42-.06,3h.81a.77.77,0,0,1,0,1.53h-.87v.84a.76.76,0,0,1,.21,0c.34,0,1.64,1,1.64,1.63a.8.8,0,0,1-.11.4.72.72,0,0,1,.4-.09l4.09,0a63.58,63.58,0,0,1-.45-7.35A.82.82,0,0,1,320,1.1a.77.77,0,0,1,.78.85V2c0,.57,0,1.2,0,1.85A37.37,37.37,0,0,0,321,9.28l1.53,0c-.27-.54-.27-.56-.27-.6,0-.28.36-.46.72-.46s.63.07,1,1h.81a.67.67,0,0,1,.72.7.7.7,0,0,1-.72.72ZM318.17,8c-.59.11-2.41.42-2.77.42-.08,0-.54,0-.54-.63a.49.49,0,0,1,.45-.54h.09a.23.23,0,0,1,.09-.11c.19-.24.41-.52.64-.85a9.77,9.77,0,0,0-1.31-1.1.53.53,0,0,1-.23-.47.56.56,0,0,1,.59-.63.44.44,0,0,1,.16,0,7.92,7.92,0,0,0,.81-1.94.54.54,0,0,1,.58-.43.69.69,0,0,1,.74.63,9.49,9.49,0,0,1-1.16,2.41,5.68,5.68,0,0,1,.51.47,11.67,11.67,0,0,0,.85-1.7.52.52,0,0,1,.5-.36.74.74,0,0,1,.74.69,11,11,0,0,1-2,3.22c.36,0,.72-.09,1-.12a.6.6,0,0,0-.09-.18.88.88,0,0,1-.08-.31c0-.29.25-.43.52-.43a.59.59,0,0,1,.52.25,4.25,4.25,0,0,1,.52,1.64.64.64,0,0,1-.61.7c-.25,0-.49-.18-.52-.58Zm3.33.31c-.07,0-.54,0-.54-.63a.47.47,0,0,1,.43-.51l.09-.1c.22-.26.47-.58.72-.94a9.41,9.41,0,0,0-1.19-1,.52.52,0,0,1-.23-.45.6.6,0,0,1,.56-.61,7.63,7.63,0,0,0,.83-1.87.51.51,0,0,1,.55-.41.7.7,0,0,1,.76.61,8.39,8.39,0,0,1-1.12,2.23c.18.14.36.27.53.43a8.87,8.87,0,0,0,.81-1.53.53.53,0,0,1,.52-.36.75.75,0,0,1,.74.67,10.83,10.83,0,0,1-2,3.17l1.1-.13L324,6.77a.61.61,0,0,1-.13-.34c0-.29.31-.47.61-.47a.61.61,0,0,1,.47.18,3.79,3.79,0,0,1,.81,1.64.68.68,0,0,1-.68.69.56.56,0,0,1-.56-.49c0-.05,0-.11,0-.16C323.57,8,321.79,8.27,321.5,8.27Z"/><path d="M333.18,13.8v2.59a.75.75,0,0,1-.81.77.74.74,0,0,1-.79-.77V13.8h-2.45a.72.72,0,1,1,0-1.44l2.45,0v-1c-1.62,0-2.33-.39-2.4-1.51,0-.42,0-1,0-1.51,0-2.38,0-3.19,2.43-3.19v-.9l-2.15,0a.72.72,0,1,1,0-1.43l2.15,0V1.61a.75.75,0,0,1,.79-.78.76.76,0,0,1,.81.78V2.9l2.23,0a.72.72,0,1,1,0,1.43l-2.23,0v.9l.85,0a1.44,1.44,0,0,1,1.53,1.31c0,.52.05,1.26.05,2,0,.51,0,1,0,1.39-.05.81-.54,1.51-2.39,1.51v1l2.16,0a.72.72,0,1,1,0,1.44Zm-1.51-5h-1.12c0,1.35.05,1.37,1.12,1.37Zm0-2.4-.48,0c-.52.06-.6.33-.61.67,0,.14,0,.32,0,.52h1.1Zm2.47,1.21c0-.25,0-.49,0-.67s-.16-.48-.55-.52l-.51,0V7.62Zm-1.08,1.19v1.37l.47,0c.38,0,.58-.13.59-.52,0-.22,0-.51,0-.83Zm6.18-6.92a.74.74,0,0,1,.79-.75.75.75,0,0,1,.81.75V5.26c.45,0,.9,0,1.37,0A1.76,1.76,0,0,1,344,7.08c0,1,.06,2.54.06,4.07,0,1.33,0,2.63-.06,3.53a1.9,1.9,0,0,1-1.76,1.91c-.69,0-1.33.05-2,.05s-1.48,0-2.18-.05a1.74,1.74,0,0,1-1.73-1.89c0-.87,0-2.11,0-3.37,0-1.55,0-3.15,0-4.21a1.73,1.73,0,0,1,1.75-1.82c.38,0,.77,0,1.17,0Zm.05,4.87c-1,0-1.48,0-1.51.79,0,.61-.06,1.47-.06,2.41h1.57Zm0,4.68h-1.57c0,1.1,0,2.14.06,2.88s.47.77,1.51.77ZM342.51,10c0-1,0-1.84,0-2.43s-.34-.79-1.68-.79V10Zm-1.7,1.48v3.67c1.21,0,1.68,0,1.68-.81s0-1.76,0-2.86Z"/><path d="M360.38,9.19c0-2-1.57-3.71-4.18-3.71h0a.79.79,0,0,1,.5.75v.09c0,1.89-1.85,5.17-3.83,7.12a2,2,0,0,1-1.35.61c-1.28,0-2.44-1.44-2.44-3.41,0-3.25,3.21-6.57,7.26-6.57,3.64,0,5.91,2.42,5.91,5.22a5.56,5.56,0,0,1-.4,2c-1.58,4-6.48,4.55-6.73,4.55a1,1,0,0,1-1-.88c0-.39.31-.77,1-.9C358.33,13.56,360.38,11.55,360.38,9.19Zm-5.2-3.62c-2.25.45-4.5,2.84-4.5,5,0,1.36.9,1.52.95,1.52a.47.47,0,0,0,.34-.15c.54-.48,2.79-3.15,2.87-5.58A.91.91,0,0,1,355.18,5.57Z"/><path d="M376.69,12.28a6.87,6.87,0,0,1,.05.8c0,1.62-.76,4.06-3.89,4.06-1.4,0-2.16-.37-2.16-1.08a.83.83,0,0,1,.85-.84,1,1,0,0,1,.29,0,3.85,3.85,0,0,0,1.18.2c2,0,2-2.41,2-2.55a4.1,4.1,0,0,0,0-.62l-7.64,0a.78.78,0,0,1-.83-.79.8.8,0,0,1,.81-.83l6.67,0a3.26,3.26,0,0,0-.72-.37c-.38-.13-.54-.36-.54-.6a.88.88,0,0,1,.95-.75,2.16,2.16,0,0,1,1.06.36c.47-.31,1.43-1,1.43-1.19s-.08-.11-.2-.11-.54,0-1,0c-1.15,0-2.9,0-4.16.09h0a.75.75,0,0,1-.81-.75.78.78,0,0,1,.83-.76c.77,0,1.74,0,2.7,0,1.31,0,2.63,0,3.45,0,1,0,1.46.54,1.46,1.1,0,.88-.95,1.62-2.57,2.63a4,4,0,0,1,.25.37l5.36-.05a.78.78,0,0,1,.8.83.75.75,0,0,1-.78.79Zm3-5.76c0-.76-.4-.88-1.14-.9-1.44,0-3.06,0-4.62,0-1.28,0-2.54,0-3.66,0s-1.15.27-1.21.9V7.57h0a.84.84,0,0,1-.91.8.82.82,0,0,1-.87-.81c0-.24,0-.51,0-.8s0-.61,0-.88a1.91,1.91,0,0,1,2.11-1.73l1.51,0a.7.7,0,0,1-.23-.25,5.16,5.16,0,0,0-1.26-1.29.65.65,0,0,1-.24-.47.91.91,0,0,1,.92-.78,3.17,3.17,0,0,1,2.09,2,1,1,0,0,1-.52.79h4.73a9.1,9.1,0,0,0,1.28-2.38.85.85,0,0,1,.81-.58,1,1,0,0,1,1,.89,5.54,5.54,0,0,1-1.32,2.08l1.26,0a1.9,1.9,0,0,1,2.09,1.71c0,.26,0,.63,0,1a6.54,6.54,0,0,1,0,.66.89.89,0,0,1-.95.79c-.47,0-.9-.25-.9-.75v-1Zm-5.1-2.47a.63.63,0,0,1-.61-.43,5.2,5.2,0,0,0-1.06-1.55.6.6,0,0,1-.16-.39c0-.38.45-.7.91-.7.92,0,1.91,1.76,1.91,2.17A1,1,0,0,1,374.56,4.05Z"/><path d="M397.21,8.68s0,0,0,0a.64.64,0,0,1,0,.09,3,3,0,0,1,0,.54c0,2.67-2.48,7-6.57,7-1.67,0-3.19-.92-3.19-3.6,0-2.83,1.34-5.22,3-7.83,0-.06,0-.07,0-.09s0,0,0,0l-.07,0A6.83,6.83,0,0,1,389,5c-.92,0-1.21-.43-1.21-.9a.91.91,0,0,1,1-.88h.19a3.83,3.83,0,0,0,.69,0A6,6,0,0,0,391.32,3c1.21-.36.95-.43,1.66-.65a1.26,1.26,0,0,1,.37,0,.8.8,0,0,1,.83.82,1,1,0,0,1-.7.94c-1,.38-4.28,4.81-4.28,8.27,0,1.58.73,2.17,1.69,2.17,1.76,0,4.68-2.07,4.68-6a4.4,4.4,0,0,0-.18-1.37,7.36,7.36,0,0,0-.49-1,1.5,1.5,0,0,1-.16-.6.87.87,0,0,1,.88-.88,1.24,1.24,0,0,1,1.1.86,6.19,6.19,0,0,0,3.64,3.1,1,1,0,0,1,.68,1,.93.93,0,0,1-1,.94c-1.1,0-2.76-1.76-2.76-1.76S397.23,8.68,397.21,8.68ZM399,5.48a6,6,0,0,0-1.45-1.06.58.58,0,0,1-.42-.54.74.74,0,0,1,.76-.67c.25,0,2.29.81,2.29,1.69a.83.83,0,0,1-.73.81A.57.57,0,0,1,399,5.48Zm1.64-1.59a6.61,6.61,0,0,0-1.47-1,.59.59,0,0,1-.45-.54.72.72,0,0,1,.75-.66c.4,0,2.33.79,2.33,1.62a.8.8,0,0,1-.72.79A.56.56,0,0,1,400.68,3.89Z"/><path d="M417.08,9.19c0-2-1.57-3.71-4.18-3.71h0a.79.79,0,0,1,.5.75v.09c0,1.89-1.85,5.17-3.83,7.12a2,2,0,0,1-1.35.61c-1.28,0-2.43-1.44-2.43-3.41,0-3.25,3.2-6.57,7.25-6.57,3.64,0,5.91,2.42,5.91,5.22a5.56,5.56,0,0,1-.4,2c-1.58,4-6.48,4.55-6.73,4.55a1,1,0,0,1-1-.88c0-.39.31-.77,1-.9C415,13.56,417.08,11.55,417.08,9.19Zm-5.2-3.62c-2.25.45-4.5,2.84-4.5,5,0,1.36.9,1.52.95,1.52a.47.47,0,0,0,.34-.15c.54-.48,2.79-3.15,2.87-5.58A.91.91,0,0,1,411.88,5.57Z"/><path d="M438.19,10.66l-3.52-.05a12.47,12.47,0,0,0,.63,2.09,8.05,8.05,0,0,0,1-1.46.56.56,0,0,1,.5-.32.88.88,0,0,1,.85.8,6.51,6.51,0,0,1-1.6,2.35c.37.46.66.82,1,.82s.56-.37.68-1.36a.66.66,0,0,1,.71-.6.86.86,0,0,1,.86.88c0,.45-.52,2.87-2.22,2.87-1.13,0-1.85-1.08-2.19-1.59A10.48,10.48,0,0,1,430.34,17a.82.82,0,0,1-.77-.83.65.65,0,0,1,.56-.65,9.78,9.78,0,0,0,4-1.71,16.29,16.29,0,0,1-1-3.15l-2.27,0c0,.41-.07.81-.12,1.2a.79.79,0,0,1,.5-.2c.49,0,2,1,2,1.64a.86.86,0,0,1-.81.83.62.62,0,0,1-.47-.23,6,6,0,0,0-1.26-1.1,1.46,1.46,0,0,1-.13-.09c-.46,2-1.94,4-2.86,4A.78.78,0,0,1,427,16a.85.85,0,0,1,.32-.65,5.68,5.68,0,0,0,2.09-4.65h-.54a.66.66,0,0,1-.72-.66.83.83,0,0,1,.09-.36.63.63,0,0,1-.34.1.6.6,0,0,1-.5-.3,6.09,6.09,0,0,0-.64-.88c0,2.84.1,7.79.1,7.79v0a.78.78,0,0,1-.85.76.77.77,0,0,1-.83-.76v0l.05-6.17c-1,2.37-1.42,2.41-1.72,2.41a.88.88,0,0,1-.87-.83.86.86,0,0,1,.2-.54,16.13,16.13,0,0,0,2.41-4.63V6.47L424,6.5h0a.72.72,0,0,1-.77-.75A.77.77,0,0,1,424,5h1.22l-.05-3v0a.78.78,0,0,1,.81-.83.83.83,0,0,1,.87.83v0s0,1.42-.06,3h.81a.77.77,0,0,1,0,1.53h-.87l0,.84.22,0c.34,0,1.64,1,1.64,1.63a.8.8,0,0,1-.11.4.72.72,0,0,1,.4-.09l4.09,0a63.58,63.58,0,0,1-.45-7.35.82.82,0,0,1,.84-.83.77.77,0,0,1,.78.85V2c0,.57,0,1.2,0,1.85a37.37,37.37,0,0,0,.32,5.46l1.53,0c-.27-.54-.27-.56-.27-.6,0-.28.36-.46.72-.46s.63.07,1,1h.81a.67.67,0,0,1,.72.7.7.7,0,0,1-.72.72ZM431.57,8c-.6.11-2.41.42-2.77.42-.08,0-.54,0-.54-.63a.49.49,0,0,1,.45-.54h.09a.23.23,0,0,1,.09-.11c.19-.24.41-.52.64-.85a9.77,9.77,0,0,0-1.31-1.1.53.53,0,0,1-.23-.47.56.56,0,0,1,.59-.63.44.44,0,0,1,.16,0,7.92,7.92,0,0,0,.81-1.94.54.54,0,0,1,.58-.43.69.69,0,0,1,.74.63,9.49,9.49,0,0,1-1.16,2.41,5.68,5.68,0,0,1,.51.47,10.61,10.61,0,0,0,.84-1.7.53.53,0,0,1,.51-.36.74.74,0,0,1,.74.69,11,11,0,0,1-2,3.22c.36,0,.72-.09,1-.12a.6.6,0,0,0-.09-.18.94.94,0,0,1-.09-.31c0-.29.26-.43.53-.43a.59.59,0,0,1,.52.25,4.25,4.25,0,0,1,.52,1.64.64.64,0,0,1-.61.7c-.25,0-.49-.18-.52-.58Zm3.33.31c-.07,0-.54,0-.54-.63a.47.47,0,0,1,.43-.51l.09-.1c.22-.26.47-.58.72-.94a9.41,9.41,0,0,0-1.19-1,.52.52,0,0,1-.23-.45.6.6,0,0,1,.56-.61,7.63,7.63,0,0,0,.83-1.87.51.51,0,0,1,.55-.41c.36,0,.76.23.76.61a8.39,8.39,0,0,1-1.12,2.23c.18.14.36.27.53.43a9.62,9.62,0,0,0,.81-1.53.53.53,0,0,1,.52-.36.75.75,0,0,1,.74.67,10.83,10.83,0,0,1-2,3.17l1.1-.13-.07-.11a.61.61,0,0,1-.13-.34c0-.29.31-.47.61-.47a.64.64,0,0,1,.47.18,3.79,3.79,0,0,1,.81,1.64.68.68,0,0,1-.68.69.56.56,0,0,1-.56-.49c0-.05,0-.11,0-.16C437,8,435.19,8.27,434.9,8.27Z"/><path d="M450.49,3.44c-.2-.21-.35-.32-.47-.32s-.25.11-.43.32a28.09,28.09,0,0,1-5.78,5.4,1.36,1.36,0,0,1-.76.26.94.94,0,0,1-.41-1.8,19.48,19.48,0,0,0,5.69-5.06,2,2,0,0,1,1.56-.87,2.32,2.32,0,0,1,1.7.87,21.24,21.24,0,0,0,5.83,4.5.85.85,0,0,1,.49.77,1.09,1.09,0,0,1-1.07,1.06C455.87,8.57,452.49,5.67,450.49,3.44Zm-.92,7.76a30.36,30.36,0,0,1-1.32,3.51c1.66-.12,3.3-.32,4.87-.55a12.92,12.92,0,0,0-1.32-1.05.73.73,0,0,1-.38-.61.82.82,0,0,1,.85-.74c1.06,0,4.3,3,4.3,4.07a1,1,0,0,1-1,1,.81.81,0,0,1-.73-.48,7.27,7.27,0,0,0-.6-.92,73.71,73.71,0,0,1-9.68,1.22.85.85,0,0,1-.83-.9.76.76,0,0,1,.74-.81c.63,0,1.27,0,1.92-.07a20.64,20.64,0,0,0,1.28-3.62l-3.4,0a.77.77,0,0,1-.85-.77.82.82,0,0,1,.85-.85h11.43a.8.8,0,0,1,.86.83.79.79,0,0,1-.86.79Zm-2.05-3.31a.81.81,0,1,1,0-1.62h5.16a.81.81,0,1,1,0,1.62Z"/><path d="M468.36,9.15c-.77-.41-.94-1-.94-2,0-.28,0-.61,0-1,0-.83.05-1.48.05-2a8.32,8.32,0,0,0-.12-1.72,1.06,1.06,0,0,1,0-.24.78.78,0,0,1,.83-.79c1.1,0,1.15,1,1.15,2.25,0,.5,0,1.13-.11,2,0,.56-.09,1-.09,1.37,0,1.12.74,1.23,1.28,1.23.27,0,.31-.15.52-.22a1,1,0,0,1,.29-.05.9.9,0,0,1,.9.86,1.17,1.17,0,0,1-.67.94c-.61.38-2.05,1-2.88,1.44-1.36.76-2,1.53-2,2.2s.8,1.49,2.65,1.49a5,5,0,0,0,2.5-.58,1.61,1.61,0,0,1,.85-.28,1,1,0,0,1,1,.91c0,1.12-2.11,1.75-4,1.75-3.25,0-4.71-1.55-4.71-3.1,0-1.29,1-2.77,3.17-4l.61-.35A1.11,1.11,0,0,1,468.36,9.15Z"/><path d="M482.45,16.77a6.78,6.78,0,0,0-2.21-1.89.82.82,0,0,1-.49-.72.81.81,0,0,1,.85-.8c.63,0,3.51,1.59,3.51,2.81a1,1,0,0,1-1,1A.81.81,0,0,1,482.45,16.77Z"/><path d="M72.09,33.49c.81,0,1.69,0,2.32,0a1.26,1.26,0,0,1,1.44,1.26,1.59,1.59,0,0,1-.34,1,17.29,17.29,0,0,1-10,6.58.83.83,0,0,1-.89-.81c0-.35.24-.69.78-.81a15.14,15.14,0,0,0,5-2.13,5.63,5.63,0,0,0-1.1-.54c-.29-.11-.4-.29-.4-.47a1.06,1.06,0,0,1,1-.88,3.9,3.9,0,0,1,1.78.92A9.3,9.3,0,0,0,73.89,35c0-.11-.07-.21-.25-.21H70.92c-1.35,1.39-4.12,3.51-5,3.51a.83.83,0,0,1-.85-.81.81.81,0,0,1,.49-.7,15.41,15.41,0,0,0,5.17-4.28.86.86,0,0,1,.72-.38.84.84,0,0,1,.88.75.73.73,0,0,1-.16.45Zm-3.91,11a.88.88,0,0,1-.91-.86.84.84,0,0,1,.59-.78,14.75,14.75,0,0,0,6.39-4.52A.91.91,0,0,1,75,38a.89.89,0,0,1,.92.81.68.68,0,0,1-.2.49c-.09.11-.2.2-.29.31.92,0,1.95,0,2.67,0,1,0,1.4.49,1.4,1.1a2,2,0,0,1-.32,1c-3.89,6.55-11.58,6.75-12,6.75a.93.93,0,0,1-1-.92.85.85,0,0,1,.92-.85,14.33,14.33,0,0,0,6.3-1.69A6.15,6.15,0,0,0,72,44.17a.52.52,0,0,1-.38-.49,1.09,1.09,0,0,1,1-.94A4.15,4.15,0,0,1,74.79,44a8.29,8.29,0,0,0,2.56-2.9.26.26,0,0,0-.29-.25l-3,0C72,42.76,69,44.49,68.18,44.49Z"/><path d="M98.23,40.3l-3.82,0a10.2,10.2,0,0,0,1,2.16A9.23,9.23,0,0,0,97.13,41a.72.72,0,0,1,.5-.23.93.93,0,0,1,.89.86c0,.6-1.1,1.26-2.34,1.89a8.6,8.6,0,0,0,2.41,2.13.78.78,0,0,1,.43.7.91.91,0,0,1-.9.88c-.88,0-2.74-2-3.87-4.37l0,.5L94.39,46v.1c0,1-.55,2.15-2.55,2.15C90.63,48.22,90,48,90,47.3a.75.75,0,0,1,.74-.81.41.41,0,0,1,.16,0,5.22,5.22,0,0,0,1,.12c.55,0,.93-.21.93-1l0-5.33-3.26,0a.72.72,0,0,1-.37-.08,1,1,0,0,1,.07.29.83.83,0,0,1-.78.81.67.67,0,0,1-.52-.29,10.94,10.94,0,0,0-.72-.86c0,2.81.09,7.33.09,7.33h0a.8.8,0,0,1-.88.76.79.79,0,0,1-.88-.76h0l.07-6.5a17,17,0,0,1-1.53,2.27.94.94,0,0,1-.74.37.86.86,0,0,1-.86-.81.89.89,0,0,1,.29-.63,16.11,16.11,0,0,0,2.84-4.3v-.41l-1.75,0h0a.73.73,0,0,1-.8-.75.81.81,0,0,1,.83-.83h1.73l0-3v0a.82.82,0,0,1,.9-.78.79.79,0,0,1,.86.78v0s0,1.37,0,3h1.22a.79.79,0,0,1,0,1.58h0l-1.24,0c0,.44,0,.87,0,1.26a.46.46,0,0,1,.22.06,7.16,7.16,0,0,1,1.42,1,.52.52,0,0,1,0-.18.69.69,0,0,1,.7-.7h3.26V38H90.31a.64.64,0,0,1-.72-.61.69.69,0,0,1,.72-.69h2.45v-.88h-3c-.5,0-.74-.3-.74-.63a.69.69,0,0,1,.74-.68h1.52a4,4,0,0,0-.87-1,.57.57,0,0,1-.25-.46.8.8,0,0,1,.83-.71,2.86,2.86,0,0,1,1.8,1.79.91.91,0,0,1-.09.36H94a12.12,12.12,0,0,0,1-1.8.7.7,0,0,1,.67-.45.92.92,0,0,1,.93.79c0,.18,0,.38-.81,1.46h2a.66.66,0,1,1,0,1.31H94.25l0,.88H97A.65.65,0,1,1,97,38H94.27l0,1h3.94a.64.64,0,0,1,.67.67.63.63,0,0,1-.65.67Zm-9.42,6.31a.85.85,0,0,1-.83-.88.75.75,0,0,1,.53-.72,10.48,10.48,0,0,0,3-1.58.74.74,0,0,1,.4-.15.71.71,0,0,1,.68.72.91.91,0,0,1-.36.67A10.69,10.69,0,0,1,88.81,46.61Zm1.93-3.54a4.06,4.06,0,0,0-1.42-.88.54.54,0,0,1-.35-.51.83.83,0,0,1,.78-.76c.29,0,2.23.62,2.23,1.52a.86.86,0,0,1-.75.86A.68.68,0,0,1,90.74,43.07Z"/><path d="M110,36a46.78,46.78,0,0,1-3.64,6.89,1,1,0,0,1-.9.54.79.79,0,0,1-.84-.77,1.11,1.11,0,0,1,.19-.61A39.73,39.73,0,0,0,108,36.75a5.56,5.56,0,0,1-2.27.72c-1.19,0-1.19-.81-1.19-.88a.82.82,0,0,1,.83-.85,1.56,1.56,0,0,1,.36,0,.78.78,0,0,0,.31,0,7.29,7.29,0,0,0,2.54-.94c0-.43,0-.84.07-1.38a.79.79,0,0,1,.84-.79.82.82,0,0,1,.87.77v.38a.65.65,0,0,1,.2,0,.75.75,0,0,1,.72.74c0,.61-.78,1.08-1.28,1.37Zm-.52,11.92c-1.64,0-3-1.17-3-2.2,0-1.19,1.58-2.07,3.91-2.07l.83,0c-.13-1.44-.13-1.51-.13-1.71,0-1.17.38-2.23,2.48-3.63a.37.37,0,0,0,.17-.22c0-.11-.17-.11-.24-.11a6.3,6.3,0,0,0-1.15.22,1,1,0,0,1-.23,0,.62.62,0,0,1-.69-.6c0-.47.52-1,2.4-1,1.31,0,2.9.76,2.9,1.59a.93.93,0,0,1-.92.81c-1.44.12-3.23,1.08-3.23,3a5.84,5.84,0,0,0,.09.88c.06.36.13.74.18,1.12,1.12.34,2.87,1.13,2.87,2.16a.89.89,0,0,1-.83.93,1,1,0,0,1-.74-.35,5.74,5.74,0,0,0-1.37-1A3.55,3.55,0,0,1,109.48,47.88ZM110,45c-1.06,0-2,.36-2,.69s.63.7,1.33.7a1.8,1.8,0,0,0,1.84-1.24A5.56,5.56,0,0,0,110,45Z"/><path d="M135.43,37.29l-2.82-.06a12.62,12.62,0,0,1-2.63,6A11.21,11.21,0,0,0,135.72,46a.85.85,0,0,1,.78.85,1.08,1.08,0,0,1-1.08,1.09,11.75,11.75,0,0,1-6.58-3.4,12.41,12.41,0,0,1-6.93,3.64,1,1,0,0,1-1-1,.87.87,0,0,1,.81-.85,10.93,10.93,0,0,0,6-3.11,14.46,14.46,0,0,1-1.82-3.06c-1.37,1.26-1.84,1.29-2,1.29a.92.92,0,0,1-.94-.88,1.1,1.1,0,0,1,.71-.95,6,6,0,0,0,2.1-1.89.68.68,0,0,1,.6-.33.94.94,0,0,1,1,.81c0,.09,0,.16-.18.52a10.54,10.54,0,0,0,1.66,3.21,10.74,10.74,0,0,0,2-4.68l-1.51,0c-1.77,0-3.66,0-7.22.11h0a.78.78,0,0,1-.83-.81.85.85,0,0,1,.85-.88h5.83l0-2.5a.87.87,0,0,1,1-.83.86.86,0,0,1,.95.83l0,2.5h5.76a.81.81,0,0,1,.82.86.78.78,0,0,1-.8.83Z"/><path d="M142.94,47.23l.18-8.34c-1.77,1.84-2.13,2-2.49,2a1,1,0,0,1-.93-1,.85.85,0,0,1,.37-.71,17.83,17.83,0,0,0,5.05-6,.84.84,0,0,1,.75-.49,1,1,0,0,1,1,1,1,1,0,0,1-.15.47,28.35,28.35,0,0,1-1.89,2.73l-.1,10.34a.87.87,0,0,1-.92.9.85.85,0,0,1-.9-.88ZM153.51,44a.78.78,0,0,1,.84-.83.91.91,0,0,1,1,.92c0,1.92-.72,3.31-2.38,3.53-.48,0-1.11.09-1.71.09-2,0-3.56-.34-3.56-2.24,0-.73,0-11.32,0-11.86a.84.84,0,0,1,.89-.74.83.83,0,0,1,.88.78c0,.35,0,2.57,0,5a29.1,29.1,0,0,0,3.77-2.23.73.73,0,0,1,.45-.16,1,1,0,0,1,.43,1.84,34.64,34.64,0,0,1-4.66,2.28c0,2.33,0,4.41,0,4.74,0,.81.74.93,1.89.93,1.44,0,2.2,0,2.2-1.9V44Z"/><path d="M168.39,42.65c0,.31,0,.63,0,1a1.08,1.08,0,0,1-1,1.1.76.76,0,0,1-.74-.84v-.17a8.72,8.72,0,0,0,.08-1.2c-.38.2-2.06,1.08-2.06,2.21,0,.31.15,1.37,2,1.37a8.42,8.42,0,0,0,2.27-.38,1.65,1.65,0,0,1,.45-.07.87.87,0,0,1,.94.85c0,.37-.14,1.29-3.22,1.29s-4-1.54-4-2.86c0-2.2,2.56-3.56,3.5-4-.22-.7-.58-1.06-1.07-1.06a1.73,1.73,0,0,0-.93.32c-.76.85-1.21,1.1-1.6,1.1a.72.72,0,0,1-.78-.69,1,1,0,0,1,.42-.73,9.61,9.61,0,0,0,2.3-2.74,5.66,5.66,0,0,1-.88.07c-1.82,0-1.84-1-1.84-1.15a.77.77,0,0,1,.74-.79,1.17,1.17,0,0,1,.65.23,1.18,1.18,0,0,0,.66.15,7,7,0,0,0,1.43-.2A7.07,7.07,0,0,0,166,34a.71.71,0,0,1,.76-.63.93.93,0,0,1,1,.8,3.13,3.13,0,0,1-.11.66c.54-.27.61-.29.74-.29a.79.79,0,0,1,.77.8c0,.59-.46.95-2.34,1.4a20.39,20.39,0,0,1-1,1.8,2.41,2.41,0,0,1,2.27,1.7,20.38,20.38,0,0,1,4.15-1.46,1,1,0,0,1,1,.93.73.73,0,0,1-.48.7c-.56.24-1.16.31-2.09.6-.76.23-1.53.52-2.23.81A8,8,0,0,1,168.39,42.65Z"/><path d="M180.05,42.13a7.21,7.21,0,0,1-1.89.54.85.85,0,0,1-.88-.86.81.81,0,0,1,.63-.8c.7-.17,1.42-.39,2.14-.61V37.58h-1.71a.8.8,0,0,1,0-1.59h1.71V33.11a.83.83,0,0,1,.86-.85.81.81,0,0,1,.85.85V36H183a.8.8,0,1,1,0,1.59h-1.29v2.26c.46-.18.91-.36,1.31-.54a.85.85,0,0,1,.25,0A.75.75,0,0,1,184,40c0,.54-.25.65-2.25,1.46v2c0,.29.05,1.93.07,2.56v.07c0,1.14-.74,2-2.3,2-1,0-1.62-.16-1.62-1a.75.75,0,0,1,.7-.83.44.44,0,0,1,.16,0,3.29,3.29,0,0,0,.58.07c.37,0,.73-.13.73-.6Zm4-3a.74.74,0,0,1-.79-.74.73.73,0,0,1,.79-.73h3.24V36.1h-2.43a.73.73,0,1,1,0-1.46h2.42V33.07a.87.87,0,0,1,1.72,0v1.57h2.74a.73.73,0,1,1,0,1.46H189v1.58h3.72a.71.71,0,0,1,.76.73.72.72,0,0,1-.76.74Zm6.81,3,0,1.17.07,2.52v0c0,1-.78,2.27-2.92,2.27-.72,0-1.94,0-1.94-1a.8.8,0,0,1,.79-.85.62.62,0,0,1,.18,0,5.63,5.63,0,0,0,1,.12c.63,0,1.1-.21,1.1-1l0-3.36H184a.74.74,0,1,1,0-1.47l5.13,0v-.69a.84.84,0,0,1,1.67,0l0,.69,2,0a.74.74,0,1,1,0,1.47Zm-4.3,3.13a4.9,4.9,0,0,0-1.5-1.26.63.63,0,0,1-.38-.56.81.81,0,0,1,.83-.76c.47,0,2.49,1,2.49,2a.92.92,0,0,1-.83.94A.77.77,0,0,1,186.54,45.32Z"/><path d="M200.11,43.27a.83.83,0,0,1-.26-1.61c.62-.23,1.41-.59,2.22-.95a10.84,10.84,0,0,1,4.16-1.21,3.06,3.06,0,0,1,3.26,2.92c0,3.06-5.35,4.66-6.58,4.66a.84.84,0,0,1-.88-.82.78.78,0,0,1,.74-.76c3-.42,5-1.84,5-3.13a1.58,1.58,0,0,0-1.69-1.45,9.08,9.08,0,0,0-3.49,1.21C200.72,43.14,200.41,43.27,200.11,43.27Z"/><path d="M222.52,37.2a85.77,85.77,0,0,1-4.18,9.45.91.91,0,0,1-.86.5.85.85,0,0,1-.94-.77,1.06,1.06,0,0,1,.14-.5,55.4,55.4,0,0,0,3.91-8.14l-.2,0a5.67,5.67,0,0,1-1.53.24c-.18,0-1.58,0-1.58-1a.85.85,0,0,1,.79-.91,1.09,1.09,0,0,1,.54.14,1,1,0,0,0,.47.11,7.7,7.7,0,0,0,2.1-.51,6.74,6.74,0,0,0,.13-1.44.89.89,0,0,1,1-.84.77.77,0,0,1,.85.65,1.42,1.42,0,0,1,0,.3,2,2,0,0,1,0,.34,1.43,1.43,0,0,1,.23,0,.85.85,0,0,1,.85.83c0,.46-.33.79-1.66,1.38ZM228,47.34c-2.95,0-4.9-1.57-4.9-2.49a1,1,0,0,1,.88-1,.87.87,0,0,1,.71.39c.68.92,1.26,1.05,3.61,1.21a.89.89,0,0,1,.92.9C229.23,47.34,228.3,47.34,228,47.34Zm1-6.78a10.19,10.19,0,0,0-3.18-.82,2.4,2.4,0,0,0-.62.07l-.19,0a.71.71,0,0,1-.69-.73c0-.29.09-1,1.69-1a10.24,10.24,0,0,1,3.66.81.85.85,0,0,1,.58.8.89.89,0,0,1-.87.88A.87.87,0,0,1,229.05,40.56Z"/><path d="M236.61,39.22c-1.23,1.44-1.62,1.62-2,1.62a.83.83,0,0,1-.84-.82.87.87,0,0,1,.3-.64,16.41,16.41,0,0,0,4.31-6.18.86.86,0,0,1,.81-.58,1,1,0,0,1,1,.9,13.78,13.78,0,0,1-1.79,3.35l-.2,10.63a.84.84,0,0,1-.91.81.8.8,0,0,1-.88-.78v0Zm7,3.49-2.1-.07a1.87,1.87,0,0,1-2-1.73c0-.47-.06-1-.06-1.5s0-1.22.06-1.78a1.83,1.83,0,0,1,2-1.75c.65,0,1.37,0,2.14,0V33.38a.79.79,0,0,1,.87-.77.82.82,0,0,1,.9.77v2.47c.83,0,1.64,0,2.37,0a2,2,0,0,1,1.88,1.62c.05.56.09,1.17.09,1.75a16,16,0,0,1-.09,1.62,2,2,0,0,1-2,1.77l-2.28.07v4.8a.79.79,0,0,1-.88.73c-.45,0-.89-.24-.89-.73Zm0-5.33c-.52,0-1,0-1.51,0-.88,0-.92.57-.92,1.87s0,1.84.94,1.89l1.49.05Zm1.77,3.83c1.92,0,2.5,0,2.55-.81,0-.36,0-.81,0-1.26s0-.72,0-1c-.05-.77-.48-.77-2.55-.77Z"/><path d="M254.57,48.24a.79.79,0,0,1-.86-.74v0c.13-3.29.09-9,.13-12.89,0-1.77,1.24-1.77,3.07-1.77.69,0,1.41,0,1.75,0a1.57,1.57,0,0,1,1.64,1.43c0,.63,0,1.27,0,1.9,0,2.27,0,2.72-3.59,2.72-.47,0-.92,0-1.24,0v1.62c0,1.94,0,4.46-.07,7A.8.8,0,0,1,254.57,48.24Zm4.18-13c0-.2,0-.37,0-.55,0-.51-.12-.56-1.56-.56s-1.61,0-1.64.7c0,.13,0,.27,0,.41Zm-3.24,1.19v1.1c.25,0,.79,0,1.33,0,1.75,0,1.87-.07,1.89-.58,0-.16,0-.34,0-.54Zm7,9.8c-.49,0-1,0-1.55,0s-1.08,0-1.57,0a1.74,1.74,0,0,1-1.78-1.68c0-.25,0-.56,0-.86,0-.81,0-1.75.07-2.47a1.66,1.66,0,0,1,1.69-1.6c.47,0,1,0,1.46,0s1.19,0,1.71,0a1.68,1.68,0,0,1,1.64,1.48c.06.63.07,1.42.07,2.16,0,.46,0,.9,0,1.27A1.8,1.8,0,0,1,262.5,46.24ZM259,43.46c0,1.41,0,1.43,1.88,1.43,1.33,0,1.85,0,1.89-.72,0-.2,0-.45,0-.71Zm3.77-1.27c0-.22,0-.4,0-.56,0-.67-.38-.72-1.6-.72h-1.37a.7.7,0,0,0-.7.73c0,.16,0,.34,0,.54Zm2.52-3.32c-2.13,0-3.62,0-3.68-1.58,0-.36,0-.76,0-1.14,0-.63,0-1.27,0-1.9a1.54,1.54,0,0,1,1.61-1.43c.34,0,1.09,0,1.8,0,.52,0,1,0,1.33,0,1.33.07,1.89.8,1.89,1.6v1.36c0,2.7,0,5.49,0,7.77,0,.85,0,1.61,0,2.24,0,1.27-.63,2.39-2.68,2.39-1.26,0-1.91-.16-1.91-1a.73.73,0,0,1,.7-.8l.15,0a5.66,5.66,0,0,0,.95.11c.6,0,1.05-.22,1.06-1.1,0-.72,0-1.49,0-2.3,0-1.21,0-2.45,0-3.59v-.73C266.26,38.85,265.79,38.87,265.27,38.87Zm1.28-3.62c0-1.09,0-1.11-1.7-1.11-1.44,0-1.63,0-1.67.57,0,.17,0,.36,0,.54Zm0,1.19h-3.42c0,.2,0,.38,0,.54,0,.51.07.58,2,.58.59,0,1.17,0,1.42,0Z"/><path d="M279.22,37.2A85.77,85.77,0,0,1,275,46.65a.91.91,0,0,1-.86.5.85.85,0,0,1-.94-.77,1.06,1.06,0,0,1,.14-.5,55.4,55.4,0,0,0,3.91-8.14l-.2,0a5.67,5.67,0,0,1-1.53.24c-.18,0-1.58,0-1.58-1a.85.85,0,0,1,.79-.91,1.09,1.09,0,0,1,.54.14,1,1,0,0,0,.47.11,7.7,7.7,0,0,0,2.1-.51,6.74,6.74,0,0,0,.13-1.44.89.89,0,0,1,1-.84.77.77,0,0,1,.85.65,1.42,1.42,0,0,1,0,.3,2,2,0,0,1,0,.34,1.43,1.43,0,0,1,.23,0,.85.85,0,0,1,.85.83c0,.46-.33.79-1.66,1.38Zm5.49,10.14c-2.95,0-4.9-1.57-4.9-2.49a1,1,0,0,1,.88-1,.87.87,0,0,1,.71.39c.68.92,1.26,1.05,3.61,1.21a.89.89,0,0,1,.92.9C285.93,47.34,285,47.34,284.71,47.34Zm1-6.78a10.19,10.19,0,0,0-3.18-.82,2.4,2.4,0,0,0-.62.07l-.19,0a.71.71,0,0,1-.69-.73c0-.29.09-1,1.69-1a10.24,10.24,0,0,1,3.66.81.85.85,0,0,1,.58.8.89.89,0,0,1-.87.88A.9.9,0,0,1,285.75,40.56Z"/><path d="M298.22,35.16a1.51,1.51,0,0,1,.89-.36.73.73,0,0,1,.77.74c0,.56-.56,1.14-2.2,2-.23,1.62-.61,3.74-.63,4.82A6.83,6.83,0,0,1,301.63,40c1.26,0,3.29.72,3.29,2.61a4.29,4.29,0,0,1-1.28,2.85A9.44,9.44,0,0,1,298.3,48a.9.9,0,0,1-1-.86.89.89,0,0,1,.83-.85c3.71-.54,5-2.7,5-3.56s-1-1.19-1.63-1.19c-1.44,0-3.26,1.46-4.15,2.83-.23.37-.19.61-.68.81a1.36,1.36,0,0,1-.38.07.87.87,0,0,1-.92-.92c0-.5.17-2.23.67-6.1a4.71,4.71,0,0,1-1.08.14c-.52,0-1.8-.11-1.8-1a.83.83,0,0,1,.84-.85,1.15,1.15,0,0,1,.47.09,1.53,1.53,0,0,0,.54.09,3.21,3.21,0,0,0,1.25-.3c.32-2.68.43-3.3,1.31-3.3a.79.79,0,0,1,.85.76,10.66,10.66,0,0,1-.33,1.46Z"/><path d="M317.16,40.33c-.77-.41-.94-1-.94-2,0-.28,0-.61,0-1,0-.83.05-1.47.05-2a8.37,8.37,0,0,0-.12-1.73,1.06,1.06,0,0,1,0-.24.78.78,0,0,1,.83-.79c1.1,0,1.15,1,1.15,2.25,0,.51,0,1.14-.11,2,0,.55-.09,1-.09,1.36,0,1.12.74,1.23,1.28,1.23.27,0,.31-.15.52-.22a1,1,0,0,1,.29,0,.9.9,0,0,1,.9.86,1.18,1.18,0,0,1-.66.94c-.62.38-2.06,1-2.89,1.44-1.36.76-2,1.53-2,2.2s.8,1.49,2.65,1.49a5,5,0,0,0,2.5-.58,1.61,1.61,0,0,1,.85-.28,1,1,0,0,1,1,.91c0,1.12-2.11,1.75-4,1.75-3.26,0-4.72-1.55-4.72-3.1,0-1.29,1-2.77,3.17-4l.61-.35A1.11,1.11,0,0,1,317.16,40.33Z"/><path d="M341.48,40.37c0-2-1.57-3.71-4.18-3.71h0a.81.81,0,0,1,.5.75v.09c0,1.89-1.85,5.17-3.83,7.12a2,2,0,0,1-1.35.61c-1.28,0-2.44-1.44-2.44-3.4,0-3.26,3.21-6.58,7.26-6.58,3.64,0,5.91,2.42,5.91,5.22a5.52,5.52,0,0,1-.4,2c-1.58,4-6.48,4.55-6.73,4.55a1,1,0,0,1-1-.88c0-.39.31-.77,1-.9C339.43,44.74,341.48,42.73,341.48,40.37Zm-5.2-3.62c-2.25.45-4.5,2.84-4.5,5,0,1.35.89,1.51,1,1.51a.47.47,0,0,0,.34-.15c.54-.48,2.79-3.15,2.86-5.58A.92.92,0,0,1,336.28,36.75Z"/><path d="M350.69,40a.86.86,0,0,1-.91-.84c0-.42.32-.85,1.06-.9a12.11,12.11,0,0,0,2.93-.6c-.16-.54-.32-1-.43-1.42a5.27,5.27,0,0,0-.58-1.21.86.86,0,0,1-.12-.44,1,1,0,0,1,1-.87c.75,0,1,.63,1.35,2,.09.39.23.9.39,1.45a13.66,13.66,0,0,0,1.93-.64,3.08,3.08,0,0,1,1.15-.29c.61,0,1,.36,1,.75s-.32.8-1,1-1.06.3-1.66.48l-.9.27q.27.91.6,1.89l1-.29a27.4,27.4,0,0,1,3.08-.82,1.52,1.52,0,0,1,.29,0,.86.86,0,0,1,.95.86c0,.47-.25.9-1,1-3,.56-3.62.76-3.81.81.54,1.62,1.08,3.17,1.47,4.27a1.63,1.63,0,0,1,.11.57.94.94,0,0,1-.88,1,1.05,1.05,0,0,1-1-.88c-.34-1.17-.85-2.79-1.37-4.49-.81.27-1.53.54-2.23.8a13.6,13.6,0,0,1-2.58.73.93.93,0,0,1-1-.93,1,1,0,0,1,.9-1c.61-.12,1.55-.32,2.2-.52l2.19-.7c-.21-.67-.41-1.32-.61-1.93a14.75,14.75,0,0,1-3.53.79Z"/><path d="M374.33,41.65c.5,1.63,1.13,3.56,1.6,4.78a.93.93,0,0,1-.41,1.27.83.83,0,0,1-1.08-.65c-.4-1.28-1-3.19-1.5-4.86l-1,.41a7,7,0,0,1-1.23.43.8.8,0,1,1-.43-1.53c.58-.16.76-.2,1.12-.32.16-.06.57-.2,1.11-.42l-.3-.92c-.13-.37-.24-.64-.35-.9a.79.79,0,0,1,1.48-.55,8.47,8.47,0,0,1,.32,1c.08.25.17.54.26.86,1.26-.46,2.72-1,3.76-1.29A1,1,0,0,1,379,40.3a7,7,0,0,1-2,3c-1,.86-2-.43-1.13-1.14a4.29,4.29,0,0,0,1.24-1.54C376.31,40.91,375.27,41.29,374.33,41.65Z"/><path d="M390.73,39.5a7.44,7.44,0,0,0-2.56-1.22c-1.08-.24-.63-2,.74-1.69a11,11,0,0,1,3,1.2,1,1,0,0,1,.3,1.46A1,1,0,0,1,390.73,39.5Zm.77,6.79a4,4,0,0,1-1.73.58c-1.49.12-1.71-1.77-.56-1.89a6.6,6.6,0,0,0,1.39-.45,17.61,17.61,0,0,0,8-7.93c.6-1.13,2.42-.37,1.63,1.07A20.34,20.34,0,0,1,391.5,46.29Z"/><path d="M404.91,42.87c1.53-.59,3.73-2.43,4.12-4.14a1,1,0,0,1,1.84.54c-.6,2.23-3.48,4.68-5.2,5.4A1,1,0,1,1,404.91,42.87Zm12.51.65a11.83,11.83,0,0,0-4.12-4.14c-1-.54-.07-2,1.17-1.34s4,2.62,4.77,4.45a1.14,1.14,0,0,1-.48,1.46A1,1,0,0,1,417.42,43.52Zm.13-5a1.89,1.89,0,0,1,0-3.77,1.89,1.89,0,1,1,0,3.77Zm0-2.79a.9.9,0,0,0-.9.91.88.88,0,0,0,.9.9.91.91,0,0,0,.92-.9A.92.92,0,0,0,417.55,35.69Z"/><path d="M425.16,46.61c-1.33.51-2.25-1.18-.7-1.71A15.56,15.56,0,0,0,432.51,38c.14-.29.05-.41-.17-.4-.88.09-2.93.67-3.4.78a7.73,7.73,0,0,1-1.82.3.93.93,0,1,1,0-1.85,11.46,11.46,0,0,0,1.6-.2c.65-.11,2.83-.68,4.34-.83s2.32.92,1.73,2a24.35,24.35,0,0,1-2.27,3.38c1.69.78,3.91,2,4.93,3.42a1.11,1.11,0,0,1-.16,1.5.9.9,0,0,1-1.33-.17,14.76,14.76,0,0,0-4.56-3.47A16.74,16.74,0,0,1,425.16,46.61Z"/><path d="M446.72,47.68c-1.33.54-2.34-1.17-.79-1.73a12.19,12.19,0,0,0,7-6.59c.14-.4.05-.52-.31-.51-1.39.09-4,.47-4.88.56a17.94,17.94,0,0,1-2.14.2c-1.19,0-1.57-1.82,0-1.82.92,0,1.14,0,2-.07s4-.41,6.07-.59c1.33-.13,2.32.82,1.69,2C453.35,42.92,451.41,45.79,446.72,47.68Zm1.8-11.78c-.59.06-.68,0-1.44.06a.85.85,0,1,1-.05-1.7c.67,0,.72,0,1.26,0,.92-.08,3-.26,4.29-.45s1.94,1.49,0,1.72C451.64,35.65,449.17,35.85,448.52,35.9Z"/><path d="M464.17,44.17c-1.68,1-2.62-.83-1.37-1.44a20.47,20.47,0,0,0,7.56-7A12.28,12.28,0,0,0,471,34.3c.38-1.06,2.48-.52,1.85.81a6.77,6.77,0,0,1-.88,1.57c-.5.66-1,1.29-1.48,1.89a.62.62,0,0,1,.17.27,4.06,4.06,0,0,1,.09,1.78c-.08,1.4-.06,4.14,0,6.09a1.05,1.05,0,0,1-1,1.2c-.47.06-1-.29-.95-1.08,0-1.93.21-4.3.14-6,0-.18,0-.35,0-.51A23,23,0,0,1,464.17,44.17Z"/><path d="M483.17,45.52c3.78-1.37,6.67-5.26,7.67-7.85.13-.31-.09-.44-.32-.42-1.39.07-3.78.47-5,.61a10.47,10.47,0,0,1-2.27.2,1,1,0,1,1,.12-1.92,20.19,20.19,0,0,0,2.22-.09c1.51-.11,4-.51,6-.63,1.51-.09,2.21.9,1.67,2-1.89,3.86-4.19,7.82-9.24,9.89C482.24,48,481.61,46.09,483.17,45.52Z"/><path d="M503.26,39.7a9.65,9.65,0,0,1-2,.34.78.78,0,0,1-.85-.81.87.87,0,0,1,.9-.9,13.61,13.61,0,0,0,3-.41,7.6,7.6,0,0,0,.88-2.76.77.77,0,0,1,.81-.65.92.92,0,0,1,1,.83,6.11,6.11,0,0,1-.65,2.18h.14c2.06,0,2.11,2.22,2.11,3,0,1.61-.07,6.11-3.4,6.11-1,0-2.36-.47-2.36-1.33a1,1,0,0,1,.93-.94,1,1,0,0,1,.38.09,2.43,2.43,0,0,0,1,.27c1.17,0,1.71-1.26,1.71-4.41,0-.74-.11-1.28-.68-1.28a1.05,1.05,0,0,0-.33,0l-.29.07c-1.35,2.54-3.24,5.49-4.39,7.45a1.06,1.06,0,0,1-.93.52.83.83,0,0,1-.92-.77,1.09,1.09,0,0,1,.21-.63c.8-1.21,2.67-3.83,4-6.09Zm10,2.49a5.74,5.74,0,0,0-3.1-2.87.66.66,0,0,1-.49-.61.84.84,0,0,1,.87-.79c.92,0,4.45,2.23,4.45,3.89a1,1,0,0,1-1,.95A.84.84,0,0,1,513.24,42.19Zm-.51-4.76a6.16,6.16,0,0,0-1.51-1,.58.58,0,0,1-.45-.54.71.71,0,0,1,.74-.66c.09,0,2.36.64,2.36,1.6a.79.79,0,0,1-.7.79A.56.56,0,0,1,512.73,37.43Zm1.55-1.65a5.72,5.72,0,0,0-1.53-.92.58.58,0,0,1-.47-.56.73.73,0,0,1,.74-.68,5.38,5.38,0,0,1,2.11,1,.81.81,0,0,1-.43,1.4A.62.62,0,0,1,514.28,35.78Z"/><path d="M520.25,48A6.78,6.78,0,0,0,518,46.06a.82.82,0,0,1-.49-.72.81.81,0,0,1,.85-.8c.63,0,3.51,1.59,3.51,2.81a1,1,0,0,1-1,1A.81.81,0,0,1,520.25,48Z"/><path d="M52.22,78.73l0-3.26A19.32,19.32,0,0,1,46,78.88a.89.89,0,0,1-.94-.81.77.77,0,0,1,.63-.72,18.2,18.2,0,0,0,5.91-3.17l-1.55,0c-2,0-2.27-1-2.3-1.64,0-.44-.06-1-.06-1.49s0-1.22.06-1.73c0-.75.52-1.56,1.94-1.6.67,0,1.59,0,2.58,0V66.65H46.78A.69.69,0,0,1,46,66a.74.74,0,0,1,.77-.76h5.44V64.06a.76.76,0,0,1,.84-.76.8.8,0,0,1,.89.76v1.15h5.49a.72.72,0,1,1,0,1.44H53.93v1.06c1,0,2,0,2.81,0a1.8,1.8,0,0,1,1.87,1.48c0,.43,0,1,0,1.51s0,1.28,0,1.8a1.84,1.84,0,0,1-2,1.67h-.38l-1.73,0a20.7,20.7,0,0,0,6,2.95.75.75,0,0,1,.6.72,1,1,0,0,1-1.07,1,17.57,17.57,0,0,1-6.19-3.42c0,1,0,1.69,0,3.31,0,.49-.44.72-.89.72a.76.76,0,0,1-.84-.7Zm0-9.74c-.79,0-1.54,0-2.1,0-.9,0-.9.61-.9,1.29h3Zm0,2.58h-3c0,.86,0,1.29.92,1.33.63,0,1.35,0,2.1,0Zm1.64,0v1.35c.78,0,1.53,0,2.24,0,.9,0,.9-.6.9-1.33ZM57,70.32c0-.19,0-.39,0-.57,0-.76-.43-.76-3.1-.76v1.33Z"/><path d="M65.14,78.55a1,1,0,0,1-1-1,.8.8,0,0,1,.65-.78,7.19,7.19,0,0,0,3.33-2.08.74.74,0,0,1,.54-.27,1,1,0,0,1,.9.93.86.86,0,0,1-.24.56A10,10,0,0,1,65.14,78.55ZM72,67.3l-6.59,0a.8.8,0,0,1-.85-.81.83.83,0,0,1,.85-.87l5.69,0V64.29a.94.94,0,0,1,1.87,0V65.7l5.64,0a.84.84,0,0,1,0,1.68Zm1,9.81v0c0,1.29-1,2.21-2.85,2.21-.77,0-2,0-2-1a.87.87,0,0,1,.83-.9,1.09,1.09,0,0,1,.24,0,4.66,4.66,0,0,0,1,.14c.65,0,1-.27,1-.92V73.91c-.75,0-1.49,0-2.23-.06-1.31,0-2-.75-2-1.74,0-.33,0-.65,0-1s0-.64,0-.93a1.79,1.79,0,0,1,2-1.69c.76,0,1.68,0,2.65,0,1.19,0,2.47,0,3.62,0a1.86,1.86,0,0,1,1.93,1.54c0,.29,0,.63,0,1s0,.72,0,1a1.93,1.93,0,0,1-2,1.76c-.72,0-1.44.06-2.16.06v1.56Zm2.39-5.87c0-1-.14-1.24-.84-1.26s-1.45,0-2.25,0c-1,0-2,0-2.81,0s-.83.51-.83,1.19a4.35,4.35,0,0,0,0,.52c.07.72.25.72,3.31.72.88,0,1.76,0,2.59,0S75.42,71.78,75.42,71.24Zm2.36,7a9.17,9.17,0,0,0-3.1-2,.76.76,0,0,1-.48-.7.81.81,0,0,1,.79-.83,10.36,10.36,0,0,1,4,2.1,1.07,1.07,0,0,1,.36.78,1,1,0,0,1-.92,1A.81.81,0,0,1,77.78,78.21Z"/><path d="M95.78,71.55c0-2-1.57-3.71-4.18-3.71h0a.83.83,0,0,1,.5.76v.09c0,1.89-1.85,5.16-3.83,7.11a2,2,0,0,1-1.36.61c-1.27,0-2.43-1.44-2.43-3.4,0-3.26,3.21-6.58,7.26-6.58,3.64,0,5.91,2.42,5.91,5.23a5.51,5.51,0,0,1-.4,2c-1.58,4-6.48,4.56-6.73,4.56a1,1,0,0,1-1-.89c0-.39.31-.77,1-.9C93.73,75.92,95.78,73.91,95.78,71.55Zm-5.2-3.62c-2.25.45-4.51,2.84-4.51,5,0,1.35.9,1.51,1,1.51a.5.5,0,0,0,.34-.14c.54-.49,2.79-3.16,2.86-5.59A.92.92,0,0,1,90.58,67.93Z"/><path d="M110.05,70.4l-2.46,0c-.42.47-.85.92-1.3,1.35.38,0,.77,0,1.13,0s.72,0,1,0a1.62,1.62,0,0,1,1.53,1.5c0,.71.06,1.92.06,2.91,0,.4,0,.76,0,1a1.73,1.73,0,0,1-1.64,1.67,11.94,11.94,0,0,1-1.29,0c-2.6,0-3.19-.32-3.19-2.34,0-1,0-2.16.09-3-1,.72-1.37.9-1.69.9a.74.74,0,0,1-.74-.75A.82.82,0,0,1,102,73a16.28,16.28,0,0,0,3.71-2.64l-3.21,0a.73.73,0,1,1,0-1.46h2.63V67.25h-1.84a.73.73,0,1,1,0-1.45h1.82V64.29a.85.85,0,0,1,1.69,0V65.8h1a.72.72,0,0,1,.75.74,14.46,14.46,0,0,0,.69-1.49.73.73,0,0,1,.68-.49.91.91,0,0,1,.92.79,12.61,12.61,0,0,1-2,3.59h1.29a.78.78,0,0,1,.85.74.74.74,0,0,1-.83.72Zm-4.73,5.36c0,.42,0,.79,0,1,0,.55.1.68,1.71.68,1.11,0,1.45-.13,1.47-.7v-1Zm3.18-1.28c0-.3,0-.57,0-.77,0-.69-.24-.72-1.57-.72-1.5,0-1.58,0-1.58,1.49ZM107,68.94a13.81,13.81,0,0,0,1.21-1.8.78.78,0,0,1-.43.11h-1l0,1.69Zm6.5,6.82a.85.85,0,0,1,.79-.9.52.52,0,0,1,.18,0,2.32,2.32,0,0,0,.51.05c.86,0,1.06-.64,1.06-1.36a3.58,3.58,0,0,0-.86-2.15,2.65,2.65,0,0,1-.63-1.67,3.32,3.32,0,0,1,.39-1.5,6.69,6.69,0,0,0,.83-2c0-.38-.25-.38-1.24-.38-.29,0-.58,0-.83,0a.66.66,0,0,0-.63.7c0,1.08,0,2.18,0,3.3,0,2.39,0,4.88,0,7.4v1.48a.8.8,0,0,1-.85.79.81.81,0,0,1-.88-.79c0-7.66,0-10.07,0-12.43a1.71,1.71,0,0,1,1.79-1.91c.48,0,1,0,1.56,0,.4,0,.8,0,1.19,0,1.21,0,1.8.67,1.8,1.51,0,.69-.2,1.08-1.26,2.94a1.87,1.87,0,0,0-.27.86,1.54,1.54,0,0,0,.42,1,4.9,4.9,0,0,1,1.24,3.13,2.74,2.74,0,0,1-2.83,3C114.63,76.81,113.49,76.81,113.49,75.76Z"/><path d="M121.3,76.45a1,1,0,0,1-1-.9,1.08,1.08,0,0,1,.32-.74,9.1,9.1,0,0,0,2-3.62.88.88,0,0,1,.87-.67.93.93,0,0,1,1,.88,11.61,11.61,0,0,1-2.22,4.6A1.25,1.25,0,0,1,121.3,76.45Zm7.63,2.73c-1.85,0-3.47-.23-3.47-2.37s.09-5.51.14-8.29a.93.93,0,0,1,1.84,0v0c-.09,2.78-.16,6-.18,8,0,.78.63,1,1.78,1,1.5,0,2.52-.13,2.52-2.09a.85.85,0,0,1,.89-.92,1,1,0,0,1,1,1C133.47,79.18,130.81,79.18,128.93,79.18Zm1-11.9a11.83,11.83,0,0,0-3.33-1.62.65.65,0,0,1-.5-.65,1,1,0,0,1,1-1,12.37,12.37,0,0,1,4.07,1.67.92.92,0,0,1,.38.74,1,1,0,0,1-1.57.81Zm5.24,7.44a13,13,0,0,0-3-3.1.81.81,0,0,1-.36-.65.9.9,0,0,1,.92-.83,1.15,1.15,0,0,1,.58.18c2.07,1.35,3.74,3,3.74,3.8a1.09,1.09,0,0,1-1,1.07A1,1,0,0,1,135.16,74.72Z"/><path d="M144.25,70.88a9.65,9.65,0,0,1-2,.34.78.78,0,0,1-.85-.81.87.87,0,0,1,.9-.9,13.61,13.61,0,0,0,3-.41,7.6,7.6,0,0,0,.88-2.76.77.77,0,0,1,.81-.64.91.91,0,0,1,1,.83,6.14,6.14,0,0,1-.65,2.17h.14c2.06,0,2.11,2.22,2.11,3,0,1.6-.07,6.1-3.4,6.1-1,0-2.36-.47-2.36-1.33a1,1,0,0,1,.93-.94,1,1,0,0,1,.38.09,2.43,2.43,0,0,0,1,.27c1.17,0,1.71-1.26,1.71-4.41,0-.74-.11-1.28-.68-1.28a1.05,1.05,0,0,0-.33,0l-.29.07c-1.35,2.54-3.24,5.49-4.39,7.45a1.07,1.07,0,0,1-.94.53.84.84,0,0,1-.91-.78,1.12,1.12,0,0,1,.21-.63c.79-1.2,2.67-3.83,4-6.08Zm10,2.49a5.74,5.74,0,0,0-3.1-2.87.66.66,0,0,1-.49-.61.84.84,0,0,1,.87-.79c.92,0,4.45,2.23,4.45,3.89a1,1,0,0,1-1,1A.83.83,0,0,1,154.23,73.37Z"/><path d="M164.88,79.31c-.68,0-1-.4-1-.81a.87.87,0,0,1,.83-.85c3.19-.25,5.78-2.12,5.78-3.56a1.27,1.27,0,0,0-1.39-1.16c-1.39,0-3.94,2.27-4.21,2.6a1.33,1.33,0,0,1-1,.63c-.4,0-1.5-.4-1.5-3a7.78,7.78,0,0,1,.33-2.35,7.71,7.71,0,0,0,.18-1.51v-.3c0-1.17.54-1.77,1.78-2.45.43-.24,1-.45,1-.67s-.19-.29-.68-.45a.81.81,0,0,1-.67-.74.91.91,0,0,1,1-.81c.64,0,2.89,1.06,2.89,2.31,0,.84-.66,1-1.56,1.11a4.43,4.43,0,0,0-.87.36c-1.13.53-1.33,1-1.33,1.55,0,.09,0,.2,0,.31v.2a6.71,6.71,0,0,1-.05.72,16.54,16.54,0,0,0-.31,2.37c0,.06,0,.78.22.78a.4.4,0,0,0,.16-.06c.36-.21,1-.68,1.84-1.13a6,6,0,0,1,2.89-1,2.88,2.88,0,0,1,3.12,2.63c0,1.15-.79,2.53-2.7,3.78A11.86,11.86,0,0,1,164.88,79.31Z"/><path d="M180.05,79.13a6.78,6.78,0,0,0-2.21-1.89.82.82,0,0,1-.49-.72.8.8,0,0,1,.85-.79c.63,0,3.51,1.58,3.51,2.8a1,1,0,0,1-1,1A.81.81,0,0,1,180.05,79.13Z"/><path d="M202.34,71a9.8,9.8,0,0,1,5.22-2.07c2,0,4.2,1.49,4.2,3.51,0,3.42-5.71,5.74-6.63,5.74a.74.74,0,0,1-.78-.77,1,1,0,0,1,.71-.94c3.47-1.22,4.82-2.82,4.82-4a2.41,2.41,0,0,0-2.57-2.1,7.82,7.82,0,0,0-5.22,2.68c0,.7-.06,1.42-.06,2.09a18.84,18.84,0,0,0,.15,2.61s0,.11,0,.16a.89.89,0,0,1-.9.92c-.41,0-.82-.31-.88-1,0-.47,0-1,0-1.55s0-.95,0-1.44c-.48.67-1,1.4-1.46,2.2a1.3,1.3,0,0,1-1.06.72A.81.81,0,0,1,197,77c0-.36.23-.66.73-1.17.49-.68,1.12-1.53,1.77-2.41.34-.47.68-1,1-1.44l.05-.61,0-.38c-1.91,1.51-2.16,1.57-2.4,1.57a.81.81,0,0,1-.86-.85.9.9,0,0,1,.68-.9A19,19,0,0,0,200.79,69c.13-1.39.23-2.6.27-3.37a.86.86,0,0,1,1.71,0s-.09,1.11-.23,2.36l.18,0c.43,0,.81.21.81.7a2.09,2.09,0,0,1-.4,1.06Z"/><path d="M223.38,75.38a2.83,2.83,0,0,1-2.63-2.91,2,2,0,0,1,2.07-2.13,3.38,3.38,0,0,1,.83.11c-.05-.59-.09-1.13-.13-1.64a25.82,25.82,0,0,0-6.6,1.42,1.25,1.25,0,0,1-.35.08.88.88,0,0,1-.86-.9,1,1,0,0,1,.85-1,40.44,40.44,0,0,1,6.89-1.22v-.58c0-1.58,0-2.43,1-2.43a.93.93,0,0,1,1,.85.86.86,0,0,1,0,.16,13,13,0,0,0-.24,1.86c1.44-.1,2.9-.13,4.36-.13.75,0,1.13.45,1.13.9a1,1,0,0,1-1.06.9h-.09c-.88,0-1.78-.07-2.68-.07-.56,0-1.12,0-1.68,0,0,1.23.11,2.36.13,2.6a2.92,2.92,0,0,1,1,2.14,3.54,3.54,0,0,1-.57,1.82,8.86,8.86,0,0,1-6.23,4.07.9.9,0,0,1-1-.87c0-.36.25-.74.86-.86a7.28,7.28,0,0,0,4.23-2.22Zm-.31-3.58a.77.77,0,0,0-.81.81,1.29,1.29,0,0,0,1.14,1.31.78.78,0,0,0,.77-.77c0-.05,0-.09,0-.14a2.1,2.1,0,0,0-.13-.6A1.13,1.13,0,0,0,223.07,71.8ZM228,66.27A6.68,6.68,0,0,0,226.75,65a.66.66,0,0,1-.34-.53.71.71,0,0,1,.73-.63c.47,0,2.13,1.23,2.13,1.95a.83.83,0,0,1-.78.81A.54.54,0,0,1,228,66.27Zm2.16-1a6.23,6.23,0,0,0-1.3-1.26.63.63,0,0,1-.36-.52.71.71,0,0,1,.74-.63c.41,0,2.18,1.13,2.18,1.89a.83.83,0,0,1-.78.81A.55.55,0,0,1,230.17,65.23Z"/><path d="M238.75,70.88a9.65,9.65,0,0,1-2,.34.78.78,0,0,1-.85-.81.87.87,0,0,1,.9-.9,13.61,13.61,0,0,0,3-.41,7.6,7.6,0,0,0,.88-2.76.77.77,0,0,1,.81-.64.91.91,0,0,1,1,.83,6.14,6.14,0,0,1-.65,2.17h.14c2.06,0,2.11,2.22,2.11,3,0,1.6-.07,6.1-3.4,6.1-1,0-2.36-.47-2.36-1.33a1,1,0,0,1,.93-.94,1,1,0,0,1,.38.09,2.43,2.43,0,0,0,1,.27c1.17,0,1.71-1.26,1.71-4.41,0-.74-.11-1.28-.68-1.28a1.05,1.05,0,0,0-.33,0l-.29.07c-1.35,2.54-3.24,5.49-4.39,7.45a1.07,1.07,0,0,1-.94.53.84.84,0,0,1-.91-.78,1.12,1.12,0,0,1,.21-.63c.79-1.2,2.67-3.83,4-6.08Zm10,2.49a5.74,5.74,0,0,0-3.1-2.87.66.66,0,0,1-.49-.61.84.84,0,0,1,.87-.79c.92,0,4.45,2.23,4.45,3.89a1,1,0,0,1-1,1A.83.83,0,0,1,248.73,73.37Z"/><path d="M253.56,78.26a.76.76,0,0,1-.81-.72.94.94,0,0,1,.13-.45A9.22,9.22,0,0,0,254,73.92a.68.68,0,0,1,.72-.62.79.79,0,0,1,.83.79,11.59,11.59,0,0,1-1.21,3.76A.83.83,0,0,1,253.56,78.26Zm2.35.35L256,72.3s-2,.27-2.22.27a.68.68,0,0,1-.66-.73.62.62,0,0,1,.57-.67l.8,0c.32-.38.68-.85,1-1.35a11.55,11.55,0,0,0-2-1.66.68.68,0,0,1-.34-.59.72.72,0,0,1,.71-.72,1,1,0,0,1,.41.1l.09,0a13.2,13.2,0,0,0,1.39-3.1.69.69,0,0,1,.72-.52.86.86,0,0,1,.9.74,14.08,14.08,0,0,1-1.84,3.73,8.27,8.27,0,0,1,.81.72,19.26,19.26,0,0,0,1.37-2.62.67.67,0,0,1,.66-.45.87.87,0,0,1,.9.8c0,.5-1.54,3-2.86,4.7l1.71-.2c-.41-.58-.45-.63-.45-.81a.64.64,0,0,1,.67-.58c.9,0,1.89,2.13,1.89,2.59a.81.81,0,0,1-.76.85.71.71,0,0,1-.65-.57,2.65,2.65,0,0,0-.12-.37c-.27.06-.67.13-1.12.2l0,6.56a.82.82,0,0,1-.87.84.79.79,0,0,1-.82-.82Zm3-2.18a7.52,7.52,0,0,0-.86-2.23.78.78,0,0,1-.13-.4.64.64,0,0,1,.69-.58.85.85,0,0,1,.64.29,6.17,6.17,0,0,1,1.23,2.68.88.88,0,0,1-.87.9A.72.72,0,0,1,258.91,76.43Zm3.5-8.37c-1.25,2.3-1.64,2.35-2,2.35a.79.79,0,0,1-.85-.73.91.91,0,0,1,.23-.56,13.27,13.27,0,0,0,2.34-4.92.8.8,0,0,1,.8-.61.87.87,0,0,1,.92.81,9,9,0,0,1-.71,2.11c.72,0,1.68,0,2.42,0s2.62,0,2.75,2.13c0,.63.07,1.47.07,2.41,0,5.62-1.29,8.23-4.55,8.23a7.64,7.64,0,0,1-1.75-.24.94.94,0,0,1-.72-.93.79.79,0,0,1,.81-.85,1.67,1.67,0,0,1,.29,0,6.06,6.06,0,0,0,1.37.19c1.73,0,2.79-1.53,2.79-6.46,0-2.36,0-2.93-.9-2.93Zm.9,5.45a6.37,6.37,0,0,0-2.06-1.62.73.73,0,0,1-.45-.65.83.83,0,0,1,.85-.79c.61,0,3.2,1.35,3.2,2.43a1,1,0,0,1-.91,1A.74.74,0,0,1,263.31,73.51Z"/><path d="M282.1,76.3h0a1,1,0,0,1,1.14,1,1,1,0,0,1-1.08,1h-.07c-.49,0-1.21,0-1.91,0-.87,0-1.73,0-2.18,0a1,1,0,0,1-1.15-1,1,1,0,0,1,1.06-1H278c.2,0,.56,0,.83,0s.41-.11.41-.43c0-2,.05-4.86.05-6.65,0-.75,0-1.31,0-1.54,0-.56-.2-.85-.8-.87h-.43a1,1,0,0,1-1.1-1.06,1,1,0,0,1,.94-1H278l.7,0,.63,0h.17a1.8,1.8,0,0,1,1.92,1.88v0c0,.32-.05.85-.05,1.51,0,1.5-.07,3.69-.07,6,0,.56,0,1.13,0,1.69,0,.27.09.45.38.45Z"/><path d="M294,76.57c-.36,0-.7,0-1,0a1.6,1.6,0,0,1-1.48-1.7c0-1.26,0-3.15,0-4.91,0-1.28,0-2.49,0-3.33C291.53,65,293,65,293.94,65H295a1.57,1.57,0,0,1,1.62,1.54c0,1,0,2.39,0,3.78,0,1.67,0,3.38,0,4.55C296.62,76.57,295.07,76.57,294,76.57Zm1.12-6.68c0-1.13,0-2.21-.05-3,0-.5-.54-.52-1-.52-.65,0-1,.09-1,.54,0,.68,0,1.78,0,3ZM293,71.31c0,1.25,0,2.45,0,3.23,0,.39.2.52,1,.52s1-.13,1-.54c0-.83.05-2,.05-3.21Zm4.66-1a.7.7,0,0,1-.79-.7.77.77,0,0,1,.79-.77l3.14,0V67.35h-2.33a.71.71,0,0,1-.81-.7.77.77,0,0,1,.81-.76h2.31V64.26a.78.78,0,0,1,.84-.78.79.79,0,0,1,.87.78v1.63h2.55a.73.73,0,1,1,0,1.46h-2.57v1.52l3.55,0a.74.74,0,1,1,0,1.47Zm6.66,3.05,0,1.17.06,2.52v0c0,1-.78,2.27-2.88,2.27-1.48,0-1.91-.32-1.91-1a.79.79,0,0,1,.77-.85.62.62,0,0,1,.18,0,5.28,5.28,0,0,0,1,.13c.63,0,1.1-.22,1.1-1l0-3.36h-5a.7.7,0,0,1-.79-.7.77.77,0,0,1,.79-.77l5,0v-.69a.84.84,0,0,1,1.66,0v.69l1.81,0a.74.74,0,1,1,0,1.47ZM300.1,76.5a4.87,4.87,0,0,0-1.48-1.26.64.64,0,0,1-.4-.56.82.82,0,0,1,.83-.76c.49,0,2.49,1,2.49,2a.94.94,0,0,1-.85.93A.77.77,0,0,1,300.1,76.5Z"/><path d="M311.27,79.42a.78.78,0,0,1-.86-.74v0c.12-3.29.09-9,.12-12.89,0-1.76,1.25-1.76,3.08-1.76h1.75A1.58,1.58,0,0,1,317,65.43c0,.63,0,1.28,0,1.91,0,2.26,0,2.71-3.58,2.71-.47,0-.92,0-1.24,0v1.62c0,1.94,0,4.46-.07,7A.8.8,0,0,1,311.27,79.42Zm4.18-13c0-.19,0-.37,0-.55,0-.51-.12-.56-1.56-.56s-1.61.05-1.64.7c0,.13,0,.27,0,.41Zm-3.24,1.19v1.1c.25,0,.79,0,1.33,0,1.75,0,1.87-.07,1.89-.58,0-.16,0-.34,0-.54Zm7,9.8c-.48,0-1,0-1.54,0s-1.08,0-1.57,0a1.74,1.74,0,0,1-1.78-1.68c0-.25,0-.55,0-.86,0-.81,0-1.75.07-2.47a1.66,1.66,0,0,1,1.69-1.6c.47,0,1,0,1.46,0s1.19,0,1.71,0a1.69,1.69,0,0,1,1.64,1.48c.06.63.07,1.42.07,2.16,0,.47,0,.9,0,1.28A1.78,1.78,0,0,1,319.19,77.42Zm-3.51-2.77c0,1.4,0,1.42,1.88,1.42,1.33,0,1.85,0,1.89-.72,0-.2,0-.45,0-.7Zm3.77-1.28c0-.22,0-.4,0-.56,0-.67-.38-.72-1.6-.72-.45,0-.94,0-1.37,0a.69.69,0,0,0-.7.72c0,.16,0,.34,0,.54ZM322,70.05c-2.13,0-3.62,0-3.68-1.58,0-.36,0-.76,0-1.13,0-.63,0-1.28,0-1.91A1.55,1.55,0,0,1,319.92,64h3.13c1.33.08,1.89.8,1.89,1.61V67c0,2.7,0,5.49,0,7.78,0,.84,0,1.6,0,2.23,0,1.28-.63,2.39-2.68,2.39-1.26,0-1.91-.16-1.91-1a.72.72,0,0,1,.7-.79h.15a5.66,5.66,0,0,0,.95.11c.6,0,1.05-.21,1.06-1.1,0-.72,0-1.49,0-2.3,0-1.21,0-2.45,0-3.58V70C323,70,322.49,70.05,322,70.05Zm1.28-3.62c0-1.09,0-1.11-1.7-1.11-1.44,0-1.63,0-1.67.57,0,.17,0,.37,0,.54Zm0,1.19h-3.42c0,.2,0,.38,0,.54,0,.51.07.58,2,.58.59,0,1.17,0,1.42,0Z"/><path d="M341.48,71.55c0-2-1.57-3.71-4.18-3.71h0a.83.83,0,0,1,.5.76v.09c0,1.89-1.85,5.16-3.83,7.11a2,2,0,0,1-1.35.61c-1.28,0-2.44-1.44-2.44-3.4,0-3.26,3.21-6.58,7.26-6.58,3.64,0,5.91,2.42,5.91,5.23a5.51,5.51,0,0,1-.4,2c-1.58,4-6.48,4.56-6.73,4.56a1,1,0,0,1-1-.89c0-.39.31-.77,1-.9C339.43,75.92,341.48,73.91,341.48,71.55Zm-5.2-3.62c-2.25.45-4.5,2.84-4.5,5,0,1.35.89,1.51,1,1.51a.5.5,0,0,0,.34-.14c.54-.49,2.79-3.16,2.86-5.59A.92.92,0,0,1,336.28,67.93Z"/><path d="M353.5,77.89a1,1,0,0,1-1.08-1,.93.93,0,0,1,.9-.88c3.4-.48,7.37-2.28,7.37-4.7a2.46,2.46,0,0,0-2.63-2.27,6.94,6.94,0,0,0-2.27.49c-1.71.59-3.87,1.89-5.71,2.74a1.37,1.37,0,0,1-.59.14,1,1,0,0,1-1-1,1,1,0,0,1,.7-.92c1.73-.69,4.57-2.14,6.37-2.65a10.16,10.16,0,0,1,2.72-.45,4.15,4.15,0,0,1,4.4,4c0,1.34-.81,2.61-2.4,3.86A16.85,16.85,0,0,1,353.5,77.89Z"/><path d="M376.27,79.26a.91.91,0,0,1-.84-.6A25.55,25.55,0,0,0,371.81,73,3.24,3.24,0,0,1,371,71.1a2.79,2.79,0,0,1,.7-1.68A42.85,42.85,0,0,0,375,64.69a.85.85,0,0,1,.76-.47,1.16,1.16,0,0,1,1.13,1.06.93.93,0,0,1-.16.52C376,67,374,69.21,373.07,70.36a1,1,0,0,0-.29.67,1.52,1.52,0,0,0,.43.91c1.84,2.38,3.26,3.73,4.09,5.78a1.63,1.63,0,0,1,.09.45A1.14,1.14,0,0,1,376.27,79.26Z"/><path d="M388.46,78.53a1,1,0,0,1-.88-.77,13,13,0,0,1-.54-3.92,20.09,20.09,0,0,1,.12-2.35c.22-2,.63-3.79.76-4.91a.82.82,0,0,1,.83-.85.92.92,0,0,1,.93.89s0,.09,0,.14c-.12.77-.45,2-.7,3.35a18.08,18.08,0,0,0-.39,3.1c0,.66.1.81.14.81s.14-.11.25-.33c.51-1.1.79-1.3,1.08-1.3a.79.79,0,0,1,.76.76.78.78,0,0,1-.09.34A10.9,10.9,0,0,0,389.29,77c0,.22,0,.43,0,.65A.87.87,0,0,1,388.46,78.53ZM398,65.89c0,.53-.1,1.08-.12,1.68l1-.16a1,1,0,0,1,.23,0,.82.82,0,0,1,.92.77c0,.38-.3.78-1,.87l-1.17.16c0,1.33.07,2.65.16,3.6a19.22,19.22,0,0,1,.15,2V75a7,7,0,0,1,2.07,1.26,1,1,0,0,1,.34.74,1,1,0,0,1-.92,1,.88.88,0,0,1-.65-.32,5.89,5.89,0,0,0-1.29-1,4.18,4.18,0,0,1-3.37,1.87,2.66,2.66,0,0,1-2.79-2.25c0-1.37,1.67-1.93,3.33-1.93a8.7,8.7,0,0,1,1.67.18,4,4,0,0,0,0-.5c0-.31,0-.63-.05-1-.07-.77-.16-2.11-.22-3.51A6.56,6.56,0,0,0,393,70.79a.81.81,0,0,1-1.4-.61c0-.4.25-1.31,4.61-2.29,0-.75,0-1.47.05-2a.77.77,0,0,1,.83-.74.93.93,0,0,1,.68.27.7.7,0,0,1,.7-.65c.29,0,2.18.8,2.18,1.61a.74.74,0,0,1-.66.75.58.58,0,0,1-.44-.21,5.33,5.33,0,0,0-1.38-1,.82.82,0,0,1-.24-.15Zm-3.4,9.82c-1.4,0-1.48.45-1.48.61s.24.67,1,.67a2.65,2.65,0,0,0,2-1A6,6,0,0,0,394.56,75.71Zm6.54-10.34a5.92,5.92,0,0,0-1.41-1,.58.58,0,0,1-.41-.52.66.66,0,0,1,.7-.63c.13,0,2.22.63,2.22,1.54a.77.77,0,0,1-.69.76A.51.51,0,0,1,401.1,65.37Z"/><path d="M415.86,78.41h-.19c-3.9-.36-6.37-3.06-6.37-5.84a5,5,0,0,1,1.3-3.29.45.45,0,0,0,.09-.16,0,0,0,0,0,0,0,.89.89,0,0,0-.18.07c-2.83,1.46-3.17,1.57-3.56,1.57a1,1,0,1,1-.27-1.91c.37-.12,1.4-.43,1.94-.63.85-.3,2.34-.77,4.12-1.47a13.63,13.63,0,0,1,4.78-1.12c.9,0,1.22.41,1.22.88,0,.92-.76,1.12-1.44,1.12a2.88,2.88,0,0,1-.41,0,3.24,3.24,0,0,0-.44,0c-2.79,0-5.52,2.38-5.52,4.79,0,2.16,2.05,4,4.87,4,.91,0,1.34.52,1.34,1.06A1.1,1.1,0,0,1,415.86,78.41Zm1.54-6.32A6.63,6.63,0,0,0,415.87,71a.6.6,0,0,1-.45-.56.76.76,0,0,1,.8-.7c.23,0,2.43.83,2.43,1.77a.86.86,0,0,1-.78.84A.64.64,0,0,1,417.4,72.09Zm2.07-1.5a6.6,6.6,0,0,0-1.56-1.06.61.61,0,0,1-.47-.56.77.77,0,0,1,.79-.72c.29,0,2.45.78,2.45,1.71a.84.84,0,0,1-.76.85A.66.66,0,0,1,419.47,70.59Z"/><path d="M425.48,72.07c-1.4,1.24-1.8,1.26-1.94,1.26a.9.9,0,0,1-.87-.9.82.82,0,0,1,.44-.72,12.6,12.6,0,0,0,4.19-4.32A.8.8,0,0,1,428,67a1,1,0,0,1,.95.92c0,.31-.34.92-1.71,2.47L427,78.68a.84.84,0,0,1-.91.81.76.76,0,0,1-.82-.77v0Zm-1.73-3a.87.87,0,0,1-.9-.81,1,1,0,0,1,.6-.85,10.06,10.06,0,0,0,3.46-3.49.81.81,0,0,1,.72-.45.91.91,0,0,1,.9.88,1,1,0,0,1-.18.54C427.21,66.51,424.82,69.05,423.75,69.05Zm12.82,4.39,0,1.1.07,2.41V77c0,1.21-.7,2.29-2.84,2.29-1.75,0-2.29-.34-2.29-1a.8.8,0,0,1,.79-.85.68.68,0,0,1,.19,0,6.08,6.08,0,0,0,1.27.16c.76,0,1.14-.28,1.14-1l0-3.19H429a.75.75,0,0,1-.8-.74A.74.74,0,0,1,429,72h5.92l0-.66a.85.85,0,0,1,1.68,0V72h1.86a.71.71,0,0,1,.75.74.72.72,0,0,1-.75.74Zm-7.41-3.12a.74.74,0,1,1,0-1.47h3.52V67.28H430a.73.73,0,1,1,0-1.46h2.7V64.26a.79.79,0,0,1,.86-.78.8.8,0,0,1,.87.78v1.56h3a.73.73,0,1,1,0,1.46h-3v1.57h3.94a.74.74,0,1,1,0,1.47Zm2.55,6.13a4.64,4.64,0,0,0-1.49-1.26.64.64,0,0,1-.38-.56.8.8,0,0,1,.83-.76c.47,0,2.48,1,2.48,2a.91.91,0,0,1-.83.94A.79.79,0,0,1,431.71,76.45Z"/><path d="M445.81,74.45a.83.83,0,0,1-.26-1.61c.62-.23,1.41-.59,2.22-1a10.9,10.9,0,0,1,4.16-1.21,3.06,3.06,0,0,1,3.26,2.92c0,3.06-5.35,4.66-6.58,4.66a.84.84,0,0,1-.88-.82.78.78,0,0,1,.74-.76c3-.41,5-1.84,5-3.13a1.58,1.58,0,0,0-1.69-1.44,9.09,9.09,0,0,0-3.49,1.2C446.42,74.32,446.11,74.45,445.81,74.45Z"/><path d="M472.65,78.41h-.18c-3.91-.36-6.38-3.06-6.38-5.84a5,5,0,0,1,1.3-3.29.45.45,0,0,0,.09-.16,0,0,0,0,0,0,0,.89.89,0,0,0-.18.07c-2.83,1.46-3.17,1.57-3.56,1.57a1,1,0,1,1-.27-1.91c.37-.12,1.4-.43,1.94-.63.85-.3,2.34-.77,4.12-1.47a13.63,13.63,0,0,1,4.78-1.12c.9,0,1.22.41,1.22.88,0,.92-.76,1.12-1.44,1.12a2.88,2.88,0,0,1-.41,0,3.24,3.24,0,0,0-.44,0c-2.79,0-5.52,2.38-5.52,4.79,0,2.16,2.05,4,4.88,4,.9,0,1.33.52,1.33,1.06A1.1,1.1,0,0,1,472.65,78.41Z"/><path d="M486.14,77a3.4,3.4,0,0,1-2.14-.93c-1.82-1.57-2.34-4-2.63-5.42-.14-.69-.34-1.79-.34-1.93a.88.88,0,0,1,.9-.86.93.93,0,0,1,.9.84c.11.58.14,1.19.25,1.77.74,4.19,2.43,4.35,2.54,4.35s.34-.14.51-.57.28-1,.5-1.53a.71.71,0,0,1,.67-.51,1,1,0,0,1,.95.9c0,.06,0,.09,0,.15-.1.59-.47,1.76-.52,2.32A1.49,1.49,0,0,1,486.14,77Zm6.92-4.09a6.31,6.31,0,0,0-2.36-3.63.71.71,0,0,1-.31-.58.79.79,0,0,1,.81-.74,1.15,1.15,0,0,1,.76.31c.76.65,3,2.63,3,4.45a1,1,0,0,1-1,1A.89.89,0,0,1,493.06,72.93Z"/><path d="M505.15,79.29c-1.51,0-3-1-3-2.29,0-1.69,2.17-2.07,3.52-2.07A8.78,8.78,0,0,1,507,75v-.3c0-.27,0-.56,0-.89-.05-.55-.11-1.13-.14-1.74a6.62,6.62,0,0,1-1.37.18c-.34,0-2.18-.15-2.18-1.35,0-.35.14-.94,1.33-2,.24-.2.4-.38.4-.58,0-.49-1.53-1-2.7-1-.65,0-1-.38-1-.76a.86.86,0,0,1,1-.81c.8,0,3.77.66,4.33,1.93v-.85c0-.74,0-1.44,0-2a.83.83,0,0,1,.83-.9.92.92,0,0,1,.94.9v.08c-.09,1.2-.18,2.91-.18,4.62V70a3.14,3.14,0,0,0,.86-.63.85.85,0,0,1,1.5.58c0,.88-1.5,1.49-2.33,1.76,0,.68.07,1.33.15,1.89s.12,1.19.14,1.86c1.32.46,2.7,1.31,2.7,2.19a1,1,0,0,1-.9,1,1.06,1.06,0,0,1-.77-.41,5.13,5.13,0,0,0-1.25-1A3.59,3.59,0,0,1,505.15,79.29Zm.22-3c-1.26,0-1.66.32-1.66.67s.69.77,1.3.77a1.86,1.86,0,0,0,1.78-1.24A5.35,5.35,0,0,0,505.37,76.32Zm1.29-7.71a1.9,1.9,0,0,1-.57.76c-1,.83-1.06,1.1-1.06,1.15,0,.24.28.25.5.25a5,5,0,0,0,1.21-.19C506.7,69.93,506.68,69.26,506.66,68.61Z"/><path d="M525.87,75.38a2.83,2.83,0,0,1-2.63-2.91,2,2,0,0,1,2.07-2.13,3.38,3.38,0,0,1,.83.11c0-.59-.09-1.13-.13-1.64a25.82,25.82,0,0,0-6.6,1.42,1.25,1.25,0,0,1-.35.08.88.88,0,0,1-.86-.9,1,1,0,0,1,.85-1,40.61,40.61,0,0,1,6.89-1.22v-.58c0-1.58,0-2.43,1-2.43a.93.93,0,0,1,1,.85.86.86,0,0,1,0,.16,13,13,0,0,0-.24,1.86c1.44-.1,2.9-.13,4.36-.13.75,0,1.13.45,1.13.9a1,1,0,0,1-1.06.9H532c-.88,0-1.78-.07-2.68-.07-.56,0-1.12,0-1.68,0,0,1.23.11,2.36.13,2.6a2.92,2.92,0,0,1,1,2.14,3.54,3.54,0,0,1-.57,1.82,8.86,8.86,0,0,1-6.23,4.07.9.9,0,0,1-1-.87c0-.36.25-.74.86-.86A7.28,7.28,0,0,0,526,75.38Zm-.31-3.58a.77.77,0,0,0-.81.81,1.29,1.29,0,0,0,1.14,1.31.78.78,0,0,0,.77-.77c0-.05,0-.09,0-.14a2.1,2.1,0,0,0-.13-.6A1.13,1.13,0,0,0,525.56,71.8Z"/><path d="M538.49,79.52a2,2,0,1,1,2-2A2,2,0,0,1,538.49,79.52Zm0-3.4a1.36,1.36,0,1,0,0,2.72,1.36,1.36,0,1,0,0-2.72Z"/><rect class="cls-1" width="593.81" height="80.61"/></g></g></svg>