<svg xmlns="http://www.w3.org/2000/svg" viewBox="0 0 593.81 79.26"><defs><style>.cls-1{fill:none;}</style></defs><g id="レイヤー_2" data-name="レイヤー 2"><g id="レイヤー_2-2" data-name="レイヤー 2"><path d="M98.8,16c-1.51,0-3-1-3-2.29,0-1.69,2.16-2.07,3.51-2.07a7.68,7.68,0,0,1,1.35.11v-.31c0-.27,0-.56,0-.88-.05-.56-.11-1.14-.14-1.75A6.62,6.62,0,0,1,99.11,9c-.34,0-2.18-.14-2.18-1.35,0-.34.14-.94,1.33-2,.24-.2.4-.38.4-.58,0-.48-1.53-1-2.7-1-.65,0-1-.38-1-.76a.86.86,0,0,1,1-.81c.8,0,3.77.67,4.33,1.93V3.58c0-.74,0-1.44,0-2a.83.83,0,0,1,.83-.9.91.91,0,0,1,.94.9v.07c-.09,1.21-.18,2.92-.18,4.63v.48a3,3,0,0,0,.86-.63.92.92,0,0,1,.65-.3.89.89,0,0,1,.85.88c0,.88-1.5,1.49-2.33,1.77,0,.68.07,1.33.15,1.88s.12,1.19.14,1.86c1.32.47,2.7,1.31,2.7,2.2a1,1,0,0,1-.9,1,1,1,0,0,1-.77-.41,4.88,4.88,0,0,0-1.25-1A3.59,3.59,0,0,1,98.8,16Zm.22-3c-1.26,0-1.66.33-1.66.67s.69.77,1.3.77a1.86,1.86,0,0,0,1.78-1.24A5.79,5.79,0,0,0,99,13.05Zm1.29-7.7a1.88,1.88,0,0,1-.57.75c-1,.83-1.06,1.1-1.06,1.16,0,.23.28.25.5.25a4.6,4.6,0,0,0,1.21-.2C100.35,6.66,100.33,6,100.31,5.35Z"/><path d="M119.09,4.66a5.85,5.85,0,0,1-.88-2,.77.77,0,0,1,.83-.78,1.09,1.09,0,0,1,1,.87,9.21,9.21,0,0,0,.65,1.53c.27-.09.54-.18.81-.29a1.57,1.57,0,0,1,.52-.11.83.83,0,0,1,.85.83c0,.69-.49.83-1.37,1.08,1.56,2.79,2.46,4.45,2.46,5.58,0,.72-.36,1-.79,1a1.4,1.4,0,0,1-.93-.38,9.12,9.12,0,0,0-4.16-1c-1.44,0-2.16.7-2.16,1.21,0,.79,1.54,1.33,3.15,1.33.28,0,.57,0,.86,0h.16c.71,0,1.05.42,1.05.87a1.08,1.08,0,0,1-1.17,1c-3.68,0-5.84-1.42-5.84-3,0-.88,1-2.86,4.09-2.86a23.88,23.88,0,0,1,3.33.39l.16,0s.06,0,.06,0,0-.72-1.86-3.73a12.34,12.34,0,0,1-2,.29c-2.08,0-3.83-1.78-3.83-2.52a.81.81,0,0,1,.86-.76,1.1,1.1,0,0,1,.85.4,3.11,3.11,0,0,0,2.32,1.24,1.72,1.72,0,0,0,.34,0Z"/><path d="M132.75,14.57a11.67,11.67,0,0,1-.47-3.44c0-3.17.92-6.27,1-7.51a.88.88,0,0,1,1.76-.07.76.76,0,0,1,0,.14,42.08,42.08,0,0,0-1.17,6.43c0,.67.12.74.18.74s.08,0,.12-.13c.56-1.06.69-1.28,1.06-1.28a.78.78,0,0,1,.74.76.54.54,0,0,1-.09.32,9.48,9.48,0,0,0-1.35,3.39c0,.16,0,.32,0,.48a.84.84,0,0,1-.9.94A1,1,0,0,1,132.75,14.57Zm10-.11c-3.12,0-5.49-1.86-5.49-2.74a.89.89,0,0,1,.93-.84,1,1,0,0,1,.81.39,4.6,4.6,0,0,0,3.5,1.21,11.48,11.48,0,0,0,1.53-.11.75.75,0,0,1,.21,0,.83.83,0,0,1,.9.87C145.15,14.15,144.36,14.46,142.76,14.46Zm-2-7.91a10.12,10.12,0,0,1-2.43-.27.83.83,0,0,1,.08-1.65.65.65,0,0,1,.18,0,8.79,8.79,0,0,0,1.74.18,17.2,17.2,0,0,0,2.22-.18l.16,0a.82.82,0,0,1,.86.84C143.53,6.19,143,6.55,140.72,6.55Z"/><path d="M151.7,15.86A7,7,0,0,0,149.49,14a.82.82,0,0,1-.49-.72.81.81,0,0,1,.85-.79c.63,0,3.51,1.58,3.51,2.81a1,1,0,0,1-1,1A.82.82,0,0,1,151.7,15.86Z"/><path d="M180.61,7c0,1.13,0,2.16,0,2.83,0,1.62-1.34,1.71-2.87,1.71-1.69,0-2.77-.09-2.79-1.7,0-.68,0-1.71,0-2.84h-2.34c0,.81,0,1.64,0,2.38,0,1.31,0,2.45.06,3.13,0,1.06.61,1.1,4.52,1.1,1.57,0,3.26,0,4.66-.09h.06a.74.74,0,0,1,.75.79.82.82,0,0,1-.81.86c-1.38.08-3,.09-4.46.09s-2.74,0-3.78-.07c-1.59-.07-2.74-.7-2.78-2.45,0-.59,0-1.33,0-2.14,0-1.11,0-2.36,0-3.6l-2.07,0a.77.77,0,0,1-.86-.76.83.83,0,0,1,.86-.84h2.07c0-1.27,0-2.44,0-3.35a.82.82,0,0,1,.92-.77.83.83,0,0,1,.92.76h0c0,.89,0,2.08-.06,3.35h2.32c0-1.51,0-3,0-3.92a.81.81,0,0,1,.88-.74.74.74,0,0,1,.83.72v0c0,.84,0,2.39,0,3.92h2.3c0-1.38,0-2.79,0-3.71a.86.86,0,0,1,1.71,0c0,.94,0,2.33,0,3.71h2.61a.8.8,0,0,1,.83.82.77.77,0,0,1-.83.78Zm-4,0c0,1,0,1.89,0,2.45s.31.61,1.07.61,1.13-.11,1.16-.61,0-1.42,0-2.45Z"/><path d="M195.91,10.19a.8.8,0,0,1,.87-.79l.16,0a23,23,0,0,1-2.05-1.91,19,19,0,0,1-2,1.93.78.78,0,0,1,.75.81c0,2.1-.88,5.22-5.49,6a.65.65,0,0,1-.2,0,.82.82,0,0,1-.82-.87.7.7,0,0,1,.57-.75c3.15-.43,4.11-2.18,4.18-4.38l0,0c-1.08.77-3.55,2.3-4.2,2.3a.84.84,0,0,1-.86-.82.81.81,0,0,1,.56-.76,18.52,18.52,0,0,0,5.51-3.44c-.51,0-1,0-1.41,0-.72,0-2.41,0-2.47-1.68,0-.55,0-1.18,0-1.81s0-1.21,0-1.7c0-.77.55-1.58,1.95-1.62.76,0,2,0,3.31,0,1.6,0,3.33,0,4.49,0a1.79,1.79,0,0,1,1.85,1.5c0,.43.05,1,.05,1.64s0,1.44-.05,2a1.86,1.86,0,0,1-2,1.69h-.49c-.41,0-.88,0-1.35,0a21.09,21.09,0,0,0,5.53,3.15.8.8,0,0,1,.54.76,1,1,0,0,1-1,1c-.59,0-2.61-1.15-4.3-2.43a.92.92,0,0,1,0,.25v5.13a.87.87,0,0,1-1.73,0ZM194,2c-1,0-1.89,0-2.5,0-.88,0-.92.65-.92,1.38H194Zm0,2.72h-3.42c0,.94.08,1.42.94,1.46.67,0,1.55,0,2.48,0Zm5-1.3c0-.25,0-.46,0-.66,0-.45-.27-.7-.88-.72s-1.51,0-2.5,0V3.4Zm-3.4,1.3V6.19c.91,0,1.81,0,2.52,0,.88,0,.88-.63.88-1.46Z"/><path d="M208.35,14.57a11.67,11.67,0,0,1-.47-3.44c0-3.17.92-6.27,1-7.51a.88.88,0,0,1,1.76-.07.76.76,0,0,1,0,.14,42.08,42.08,0,0,0-1.17,6.43c0,.67.12.74.18.74s.09,0,.12-.13c.56-1.06.69-1.28,1.06-1.28a.78.78,0,0,1,.74.76.54.54,0,0,1-.09.32,9.48,9.48,0,0,0-1.35,3.39c0,.16,0,.32,0,.48a.84.84,0,0,1-.9.94A1,1,0,0,1,208.35,14.57Zm10-.11c-3.11,0-5.49-1.86-5.49-2.74a.89.89,0,0,1,.93-.84,1.06,1.06,0,0,1,.82.39,4.56,4.56,0,0,0,3.49,1.21,11.48,11.48,0,0,0,1.53-.11.75.75,0,0,1,.21,0,.84.84,0,0,1,.91.87C220.76,14.15,220,14.46,218.36,14.46Zm-2-7.91a10.14,10.14,0,0,1-2.44-.27A.83.83,0,0,1,214,4.63a.62.62,0,0,1,.18,0,8.87,8.87,0,0,0,1.74.18,17.2,17.2,0,0,0,2.22-.18l.16,0a.82.82,0,0,1,.86.84C219.13,6.19,218.63,6.55,216.33,6.55Z"/><path d="M225.57,16a1,1,0,0,1-1-1,.78.78,0,0,1,.45-.69,9.14,9.14,0,0,0,2.51-1.87c0-.81,0-1.51,0-2.2,0-1.22,0-1.26-.84-1.26H226c-.38,0-1,0-1-.77a.77.77,0,0,1,.76-.81c.65,0,1.24,0,1.83,0,1.16,0,1.7.54,1.7,1.69s0,2.29,0,3.44c1.23,1.55,3.12,1.82,5.42,1.82,1.8,0,3.75-.2,5.11-.31h.09a.84.84,0,0,1,.87.86.89.89,0,0,1-.9.89c-1.14.11-2.77.21-4.41.21-4.41,0-5.58-.75-7-2.21C228.27,14,226.46,16,225.57,16Zm2.35-11.83a5.85,5.85,0,0,0-1.84-1.46.66.66,0,0,1-.4-.57.93.93,0,0,1,.92-.85c.49,0,2.86,1.21,2.86,2.22a1,1,0,0,1-.93,1A.72.72,0,0,1,227.92,4.14Zm7.45,2.58h-2.56c-.18,3-1.15,6.24-2.39,6.24a.88.88,0,0,1-.9-.82.8.8,0,0,1,.2-.53c1.31-1.69,1.51-4,1.51-5.85,0-.74,0-1.38,0-1.87V3.82A1.65,1.65,0,0,1,232.88,2a19.76,19.76,0,0,0,4.6-1.1,1.15,1.15,0,0,1,.39-.07.86.86,0,0,1,.87.86.94.94,0,0,1-.76.89,35.46,35.46,0,0,1-4.38.9c-.66.11-.75.38-.75.7s0,.59,0,1l6.69,0a.78.78,0,1,1,0,1.56H237l0,6.14a.87.87,0,0,1-1.73,0Z"/><path d="M249.89,13.76a3.37,3.37,0,0,1-2.14-.94c-1.82-1.57-2.34-4-2.63-5.42-.14-.68-.34-1.78-.34-1.93a.88.88,0,0,1,.9-.86.93.93,0,0,1,.9.85c.11.57.14,1.18.25,1.76.74,4.2,2.43,4.36,2.54,4.36s.34-.15.51-.58.28-.95.5-1.53a.7.7,0,0,1,.67-.5,1,1,0,0,1,.95.9c0,.05,0,.09,0,.14-.1.6-.47,1.77-.52,2.32A1.5,1.5,0,0,1,249.89,13.76Zm6.92-4.09A6.34,6.34,0,0,0,254.45,6a.71.71,0,0,1-.31-.57.79.79,0,0,1,.81-.74,1.19,1.19,0,0,1,.76.3c.76.65,3,2.63,3,4.45a1,1,0,0,1-1,1A.89.89,0,0,1,256.81,9.67Z"/><path d="M265.1,15.86A7,7,0,0,0,262.89,14a.82.82,0,0,1-.49-.72.81.81,0,0,1,.85-.79c.63,0,3.51,1.58,3.51,2.81a1,1,0,0,1-1,1A.82.82,0,0,1,265.1,15.86Z"/><path d="M289.6,7.13l-2.46,0c-.42.47-.85.92-1.3,1.36.38,0,.77,0,1.13,0s.72,0,1,0a1.61,1.61,0,0,1,1.53,1.49c0,.72.06,1.93.06,2.92,0,.39,0,.75,0,1a1.74,1.74,0,0,1-1.64,1.68c-.32,0-.81.05-1.29.05-2.6,0-3.19-.33-3.19-2.34,0-1,0-2.16.09-3-1,.72-1.37.9-1.69.9a.74.74,0,0,1-.74-.76.81.81,0,0,1,.47-.7,16.32,16.32,0,0,0,3.71-2.65l-3.21,0a.73.73,0,1,1,0-1.46h2.63V4h-1.84a.72.72,0,1,1,0-1.44h1.82V1a.85.85,0,0,1,1.69,0V2.54h1a.71.71,0,0,1,.75.74,15.69,15.69,0,0,0,.69-1.5.72.72,0,0,1,.68-.48.91.91,0,0,1,.92.79,12.61,12.61,0,0,1-2.05,3.58h1.29a.78.78,0,0,1,.85.74.74.74,0,0,1-.83.72Zm-4.73,5.37c0,.41,0,.79,0,1,0,.56.11.68,1.72.68,1.11,0,1.45-.12,1.47-.7v-1Zm3.18-1.28c0-.31,0-.58,0-.78,0-.68-.24-.72-1.57-.72-1.5,0-1.59,0-1.59,1.5Zm-1.51-5.55a13.81,13.81,0,0,0,1.21-1.8.78.78,0,0,1-.43.11h-1l0,1.69ZM293,12.5a.85.85,0,0,1,.79-.9H294a2.35,2.35,0,0,0,.51.06c.86,0,1.06-.65,1.06-1.37a3.55,3.55,0,0,0-.86-2.14,2.67,2.67,0,0,1-.63-1.68A3.28,3.28,0,0,1,294.48,5a6.82,6.82,0,0,0,.83-2.05c0-.38-.25-.38-1.24-.38-.29,0-.58,0-.83,0a.64.64,0,0,0-.63.7c0,1.08,0,2.18,0,3.29,0,2.4,0,4.88,0,7.4v1.48a.8.8,0,0,1-.85.79.81.81,0,0,1-.88-.79c0-7.65,0-10.07.05-12.42a1.7,1.7,0,0,1,1.79-1.91c.48,0,1,0,1.56,0s.8,0,1.19,0c1.21,0,1.8.66,1.8,1.51,0,.68-.2,1.08-1.26,2.93a1.94,1.94,0,0,0-.27.87,1.54,1.54,0,0,0,.42,1,4.92,4.92,0,0,1,1.24,3.14,2.74,2.74,0,0,1-2.83,3C294.18,13.54,293,13.54,293,12.5Z"/><path d="M300.85,13.18a1,1,0,0,1-1-.9,1.09,1.09,0,0,1,.32-.74,9,9,0,0,0,2-3.62.87.87,0,0,1,.87-.66.93.93,0,0,1,1,.88,11.64,11.64,0,0,1-2.22,4.59A1.25,1.25,0,0,1,300.85,13.18Zm7.63,2.74c-1.85,0-3.47-.24-3.47-2.38s.09-5.51.14-8.28a.93.93,0,0,1,1.84,0v0c-.09,2.77-.16,6-.18,8,0,.77.63,1,1.78,1,1.5,0,2.52-.12,2.52-2.09a.84.84,0,0,1,.89-.91,1,1,0,0,1,1,1C313,15.92,310.36,15.92,308.48,15.92Zm1-11.9a11.85,11.85,0,0,0-3.33-1.63.64.64,0,0,1-.5-.64,1,1,0,0,1,.95-1,12.43,12.43,0,0,1,4.07,1.68.91.91,0,0,1,.38.74,1,1,0,0,1-1.57.81Zm5.25,7.43a13.2,13.2,0,0,0-3.05-3.1.8.8,0,0,1-.36-.64.9.9,0,0,1,.92-.83,1.06,1.06,0,0,1,.58.18c2.07,1.35,3.74,3,3.74,3.8a1.08,1.08,0,0,1-1,1.06A.92.92,0,0,1,314.72,11.45Z"/><path d="M323.8,7.62a10.36,10.36,0,0,1-2,.34.79.79,0,0,1-.85-.81.87.87,0,0,1,.9-.9,13.3,13.3,0,0,0,3-.42,7.55,7.55,0,0,0,.88-2.75.77.77,0,0,1,.81-.65.92.92,0,0,1,1,.83,6.11,6.11,0,0,1-.65,2.18H327c2.06,0,2.11,2.21,2.11,3,0,1.6-.07,6.1-3.4,6.1-1,0-2.36-.46-2.36-1.33a1,1,0,0,1,.93-.93.85.85,0,0,1,.38.09,2.43,2.43,0,0,0,1,.27c1.17,0,1.71-1.26,1.71-4.42,0-.73-.11-1.27-.68-1.27a1.39,1.39,0,0,0-.33,0,1.54,1.54,0,0,1-.29.07c-1.35,2.54-3.24,5.5-4.39,7.46a1.08,1.08,0,0,1-.94.52.84.84,0,0,1-.91-.77,1.09,1.09,0,0,1,.21-.63c.79-1.21,2.67-3.84,3.95-6.09Zm10,2.48a5.76,5.76,0,0,0-3.1-2.86.66.66,0,0,1-.49-.61.85.85,0,0,1,.87-.8c.92,0,4.45,2.24,4.45,3.89a1,1,0,0,1-1,1A.83.83,0,0,1,333.78,10.1Z"/><path d="M344.43,16c-.68,0-1-.39-1-.81a.86.86,0,0,1,.83-.84c3.19-.26,5.78-2.13,5.78-3.57a1.27,1.27,0,0,0-1.39-1.15c-1.38,0-3.94,2.27-4.21,2.59a1.33,1.33,0,0,1-1,.63c-.4,0-1.5-.39-1.5-3a7.73,7.73,0,0,1,.33-2.34,7.71,7.71,0,0,0,.18-1.51V5.78c0-1.17.54-1.76,1.78-2.45.43-.23.95-.45.95-.66s-.19-.29-.68-.46a.81.81,0,0,1-.67-.73.9.9,0,0,1,1-.81c.64,0,2.89,1.06,2.89,2.3,0,.85-.66,1-1.56,1.12a3.48,3.48,0,0,0-.87.36C344.16,5,344,5.44,344,6c0,.09,0,.19,0,.3v.2a6.55,6.55,0,0,1-.05.72,16.54,16.54,0,0,0-.31,2.38c0,.05,0,.77.22.77l.16,0c.36-.22,1-.69,1.83-1.14a6.1,6.1,0,0,1,2.9-1,2.89,2.89,0,0,1,3.12,2.63c0,1.15-.79,2.54-2.7,3.78A11.69,11.69,0,0,1,344.43,16Z"/><path d="M364.84,11.9c0,1.28.61,2,1.48,2,.11,0,2-.2,2-1.82,0-.92-.63-2.14-2.38-3.55a1.13,1.13,0,0,1-.48-.81.8.8,0,0,1,.86-.74,1.23,1.23,0,0,1,.76.29c2.14,1.78,3,3.48,3,4.88,0,2.12-2.1,3.46-3.81,3.46s-3-1.21-3-3.68v0c0-.45,0-.92,0-1.37-1.42-.4-2.67-.78-2.67-2.09a3.06,3.06,0,0,1,.65-1.71.83.83,0,0,0,.18-.5c0-.44-.65-1-1.71-1.37a.83.83,0,0,1-.63-.72.8.8,0,0,1,.86-.74c.58,0,3.16,1.12,3.16,2.65a2.3,2.3,0,0,1-.67,1.42,1.15,1.15,0,0,0-.34.7c0,.27.23.4.5.47l.74.18c.18-3.82.18-4.48.18-4.95,0-.74,0-1.24,0-1.91a.81.81,0,0,1,.85-.87c.93,0,1,.85,1,1.3,0,.65-.09,1.26-.12,2.09-.08,1.64-.2,3.22-.27,4.81,1,.39,1.51.72,1.51,1.26a.91.91,0,0,1-.85.93,1.2,1.2,0,0,1-.72-.3Z"/><path d="M376.77,16a1,1,0,0,1-1-1,.78.78,0,0,1,.45-.69,9,9,0,0,0,2.51-1.87c0-.81,0-1.51,0-2.2,0-1.22,0-1.26-.84-1.26h-.76c-.38,0-1,0-1-.77a.77.77,0,0,1,.76-.81c.65,0,1.24,0,1.84,0,1.15,0,1.69.54,1.69,1.69s0,2.29,0,3.44c1.23,1.55,3.12,1.82,5.42,1.82,1.8,0,3.75-.2,5.11-.31H391a.84.84,0,0,1,.87.86.89.89,0,0,1-.9.89c-1.14.11-2.77.21-4.41.21-4.41,0-5.58-.75-7-2.21C379.47,14,377.66,16,376.77,16Zm2.35-11.83a5.85,5.85,0,0,0-1.84-1.46.66.66,0,0,1-.4-.57.93.93,0,0,1,.92-.85c.49,0,2.86,1.21,2.86,2.22a1,1,0,0,1-.93,1A.74.74,0,0,1,379.12,4.14Zm7.45,2.58H384c-.18,3-1.15,6.24-2.39,6.24a.88.88,0,0,1-.9-.82.8.8,0,0,1,.2-.53c1.31-1.69,1.51-4,1.51-5.85,0-.74,0-1.38,0-1.87V3.82A1.65,1.65,0,0,1,384.08,2a19.76,19.76,0,0,0,4.6-1.1,1.15,1.15,0,0,1,.39-.07.86.86,0,0,1,.87.86.94.94,0,0,1-.76.89,35.46,35.46,0,0,1-4.38.9c-.66.11-.75.38-.75.7s0,.59,0,1l6.69,0a.78.78,0,1,1,0,1.56h-2.53l0,6.14a.78.78,0,0,1-.86.76.79.79,0,0,1-.87-.76Z"/><path d="M401.09,13.76a3.37,3.37,0,0,1-2.14-.94c-1.82-1.57-2.34-4-2.63-5.42-.14-.68-.34-1.78-.34-1.93a.88.88,0,0,1,.9-.86.93.93,0,0,1,.9.85c.11.57.15,1.18.25,1.76.74,4.2,2.43,4.36,2.54,4.36s.34-.15.51-.58.28-.95.5-1.53a.7.7,0,0,1,.67-.5,1,1,0,0,1,.95.9c0,.05,0,.09,0,.14-.1.6-.46,1.77-.52,2.32A1.5,1.5,0,0,1,401.09,13.76ZM408,9.67A6.34,6.34,0,0,0,405.65,6a.71.71,0,0,1-.31-.57.79.79,0,0,1,.81-.74,1.19,1.19,0,0,1,.76.3c.76.65,3,2.63,3,4.45a1,1,0,0,1-1,1A.89.89,0,0,1,408,9.67Z"/><path d="M416.3,15.86A7,7,0,0,0,414.09,14a.82.82,0,0,1-.49-.72.81.81,0,0,1,.85-.79c.63,0,3.51,1.58,3.51,2.81a1,1,0,0,1-1,1A.82.82,0,0,1,416.3,15.86Z"/><path d="M438.55,14.62a1,1,0,0,1-1.08-1,.93.93,0,0,1,.9-.88c3.41-.49,7.37-2.29,7.37-4.7a2.46,2.46,0,0,0-2.63-2.27,7.17,7.17,0,0,0-2.27.48c-1.71.6-3.87,1.89-5.71,2.74a1.26,1.26,0,0,1-.59.15,1,1,0,0,1-1-1,1,1,0,0,1,.7-.92c1.73-.68,4.57-2.14,6.37-2.64a10.16,10.16,0,0,1,2.72-.45,4.15,4.15,0,0,1,4.4,4c0,1.33-.81,2.61-2.4,3.85A16.69,16.69,0,0,1,438.55,14.62Z"/><path d="M461.32,16a.89.89,0,0,1-.84-.6,25.79,25.79,0,0,0-3.62-5.67A3.22,3.22,0,0,1,456,7.83a2.77,2.77,0,0,1,.7-1.67,43,43,0,0,0,3.37-4.74.85.85,0,0,1,.76-.46A1.15,1.15,0,0,1,462,2a1,1,0,0,1-.16.52c-.72,1.15-2.74,3.4-3.69,4.55a1,1,0,0,0-.29.67,1.54,1.54,0,0,0,.43.92c1.84,2.38,3.26,3.73,4.09,5.78a1.5,1.5,0,0,1,.09.45A1.13,1.13,0,0,1,461.32,16Z"/><path d="M473.51,15.27a1,1,0,0,1-.88-.78,13,13,0,0,1-.55-3.92,20,20,0,0,1,.13-2.34c.22-2,.63-3.8.76-4.92a.82.82,0,0,1,.83-.84.91.91,0,0,1,.93.88s0,.09,0,.14c-.12.78-.45,2-.7,3.35a18.2,18.2,0,0,0-.39,3.1c0,.67.1.81.14.81s.14-.11.25-.32c.51-1.1.79-1.3,1.08-1.3a.79.79,0,0,1,.76.75.82.82,0,0,1-.09.35,10.88,10.88,0,0,0-1.42,3.54c0,.22.05.44.05.65A.88.88,0,0,1,473.51,15.27ZM483,2.63c-.05.52-.1,1.08-.12,1.67l1-.16a1,1,0,0,1,.23,0,.82.82,0,0,1,.92.78c0,.38-.3.77-1,.86l-1.17.16c0,1.34.07,2.65.16,3.61a19,19,0,0,1,.15,2v.2A7.43,7.43,0,0,1,485.25,13a1,1,0,0,1,.34.74,1,1,0,0,1-.92,1,.86.86,0,0,1-.65-.33,6.53,6.53,0,0,0-1.29-1,4.18,4.18,0,0,1-3.37,1.87A2.66,2.66,0,0,1,476.57,13c0-1.37,1.67-1.92,3.33-1.92a8.7,8.7,0,0,1,1.67.18,4.26,4.26,0,0,0,0-.51c0-.3,0-.63,0-1-.07-.77-.16-2.1-.22-3.51a6.64,6.64,0,0,0-3.24,1.32.81.81,0,0,1-1.4-.62c0-.39.25-1.31,4.61-2.28,0-.76,0-1.48,0-2a.77.77,0,0,1,.83-.74.93.93,0,0,1,.68.27.69.69,0,0,1,.7-.65c.29,0,2.18.79,2.18,1.6a.75.75,0,0,1-.66.76.56.56,0,0,1-.44-.22,5.33,5.33,0,0,0-1.38-1,.8.8,0,0,1-.24-.14Zm-3.4,9.81c-1.4,0-1.48.45-1.48.61s.24.67,1,.67a2.64,2.64,0,0,0,2-1A5.62,5.62,0,0,0,479.61,12.44Zm6.54-10.33a6,6,0,0,0-1.41-1,.56.56,0,0,1-.41-.52A.67.67,0,0,1,485,0c.13,0,2.22.63,2.22,1.55a.76.76,0,0,1-.69.75A.53.53,0,0,1,486.15,2.11Z"/><path d="M491.24,16.26a2.06,2.06,0,1,1,2.05-2.05A2.05,2.05,0,0,1,491.24,16.26Zm0-3.4a1.35,1.35,0,0,0-1.37,1.35,1.37,1.37,0,0,0,2.74,0A1.36,1.36,0,0,0,491.24,12.86Z"/><path d="M105.7,39.43a7,7,0,0,0-1.46-2c-.83-.7.36-2,1.35-1.1a9.58,9.58,0,0,1,1.78,2.15,1,1,0,0,1-.34,1.35A.92.92,0,0,1,105.7,39.43Zm0,5.4a13.72,13.72,0,0,0,7.49-7.94,3.63,3.63,0,0,0,.2-1.32,1.07,1.07,0,0,1,2.13,0,4.39,4.39,0,0,1-.47,2,16.18,16.18,0,0,1-8.37,8.85C105.19,47.21,104.54,45.35,105.71,44.83ZM109,38.11A6.48,6.48,0,0,0,107.82,36c-.74-.83.63-1.93,1.49-.9a9.22,9.22,0,0,1,1.46,2.37,1,1,0,1,1-1.8.65Z"/><path d="M124.22,40.89c-1.24.82-2.31-.81-1-1.57a13.2,13.2,0,0,0,3.91-4.18,5.44,5.44,0,0,0,.7-1.47c.33-1.21,2.13-.89,1.93.3a3,3,0,0,1-.27.79c.86-.14,1.8-.36,2.61-.41,1.26-.07,2.38.81,1.69,2-2.9,5-5.52,8.45-10.39,10.34-1.55.59-2.25-1.25-.72-1.75,3.8-1.28,6.75-4.52,8.83-8.43.18-.36,0-.43-.26-.43a26.08,26.08,0,0,0-2.88.45A18.72,18.72,0,0,1,124.22,40.89Z"/><path d="M148.5,38.38a12.88,12.88,0,0,1-6.27,8.09c-1.18.61-2.37-.89-.9-1.64a11.13,11.13,0,0,0,5.24-6.2l-1.27.19a21.52,21.52,0,0,1-2.27.23c-1.52,0-1.35-1.78-.18-1.73a16.92,16.92,0,0,0,2.27-.14c.68-.06,1.33-.15,2-.22.09-.41.16-.81.21-1.21a11,11,0,0,0,0-1.89c.06-1.17,1.84-1,1.89,0a11.31,11.31,0,0,1-.12,1.73c-.06.36-.11.74-.18,1.11.54-.07,1.08-.14,1.62-.19a1.92,1.92,0,0,1,2.28,2.19c-.19,1.79-.61,4.38-1.47,5.71-1.26,1.95-3.41,2.56-5,.94-.85-.87.32-2.51,1.28-1.46.68.74,1.37.45,2.05-.43s1.15-3.59,1.26-4.5c.05-.44,0-.94-.86-.83Zm3.33-2.82c-.9-.38-.2-1.46.63-1.16a6.2,6.2,0,0,1,1.77,1.08c.7.74-.35,1.84-.94,1.14A6,6,0,0,0,151.83,35.56ZM153.45,34c-.92-.36-.27-1.45.58-1.17a5.71,5.71,0,0,1,1.8,1c.72.72-.29,1.82-.9,1.15A6.31,6.31,0,0,0,153.45,34Z"/><path d="M162,40.89c-1.24.82-2.31-.81-1.05-1.57a13.2,13.2,0,0,0,3.91-4.18,5.44,5.44,0,0,0,.7-1.47c.33-1.21,2.13-.89,1.93.3a3,3,0,0,1-.27.79c.86-.14,1.8-.36,2.61-.41,1.26-.07,2.38.81,1.69,2-2.9,5-5.53,8.45-10.39,10.34-1.55.59-2.25-1.25-.72-1.75,3.8-1.28,6.75-4.52,8.83-8.43.18-.36,0-.43-.26-.43a26.08,26.08,0,0,0-2.88.45A18.72,18.72,0,0,1,162,40.89Z"/><path d="M190.28,39.46c0-2-1.57-3.71-4.18-3.71h0a.83.83,0,0,1,.5.76v.09c0,1.89-1.85,5.17-3.83,7.11a2,2,0,0,1-1.36.62c-1.27,0-2.43-1.45-2.43-3.41,0-3.26,3.21-6.57,7.26-6.57,3.64,0,5.91,2.41,5.91,5.22a5.56,5.56,0,0,1-.4,2c-1.58,4-6.48,4.55-6.73,4.55a1,1,0,0,1-1-.88c0-.4.31-.78,1-.9C188.23,43.84,190.28,41.82,190.28,39.46Zm-5.2-3.62c-2.25.45-4.51,2.85-4.51,5,0,1.35.9,1.51,1,1.51a.46.46,0,0,0,.34-.14c.54-.49,2.79-3.15,2.86-5.58A1,1,0,0,1,185.08,35.84Z"/><path d="M204.52,43.19c0-.13-.06-.2-.18-.2-1.71,0-3.44,0-3.62,0-1.21,0-1.82-.56-1.82-1.35a2.36,2.36,0,0,1,.5-1.35c1.08-1.53,4-5.56,5.39-7.35a.85.85,0,0,1,.72-.38,1.1,1.1,0,0,1,1.06,1,1.16,1.16,0,0,1-.27.69c-.81,1-4.2,5.2-5.2,6.59a.35.35,0,0,0-.11.25c0,.23.23.23.68.23l2.65,0c.16,0,.23-.09.23-.26v-.93c0-.7,0-1.24,0-1.61v-.07a.92.92,0,0,1,.94-.95.94.94,0,0,1,.95,1c0,.82,0,1.32,0,2.51,0,.14,0,.21.2.21h1.1a.84.84,0,0,1,.9.82.94.94,0,0,1-1,.89h-.86c-.13,0-.31,0-.31.2s0,.78,0,1.12.07.27.5.27h0c.7,0,1,.41,1,.85s-.32.82-1,.82h-3c-.52,0-1.06-.19-1.06-.82a.87.87,0,0,1,1-.85H204l.21,0c.17,0,.35,0,.35-.24Z"/><path d="M224.84,43.06v3.61a.89.89,0,0,1-1.75,0V43.06h-6.8a.77.77,0,0,1-.87-.77.85.85,0,0,1,.87-.85h2.46c0-.59,0-1.26.06-2.53a1.73,1.73,0,0,1,2-1.73h2.3V35.11h-2.86a15.82,15.82,0,0,1-2.2,2.73,1.12,1.12,0,0,1-.75.35.89.89,0,0,1-.9-.85.85.85,0,0,1,.3-.63,13.7,13.7,0,0,0,3.26-4.93.83.83,0,0,1,.79-.54,1,1,0,0,1,1,.88,3.49,3.49,0,0,1-.59,1.4h8a.8.8,0,1,1,0,1.59h-4.29v2.07h3.29A.85.85,0,0,1,229,38a.79.79,0,0,1-.89.78h0c-1,0-2.19,0-3.29,0v2.7h5.33a.81.81,0,0,1,.83.83.77.77,0,0,1-.83.79Zm-1.75-4.3h-1.74c-.62,0-.78.31-.8.69,0,.55,0,1.33-.05,2h2.59Z"/><path d="M235.67,47.33a.78.78,0,0,1-.86-.74v0c.12-3.3.09-9,.12-12.89,0-1.77,1.25-1.77,3.08-1.77.69,0,1.41,0,1.75,0a1.57,1.57,0,0,1,1.64,1.42c0,.63,0,1.28,0,1.91,0,2.27,0,2.72-3.58,2.72-.47,0-.92,0-1.24,0v1.62c0,2,0,4.47-.07,7A.79.79,0,0,1,235.67,47.33Zm4.18-13c0-.2,0-.38,0-.56,0-.5-.12-.56-1.56-.56s-1.61.06-1.64.71c0,.12,0,.27,0,.41Zm-3.24,1.19v1.1h1.33c1.75,0,1.87-.07,1.89-.57,0-.16,0-.34,0-.54Zm7,9.79c-.48,0-1,.06-1.54.06s-1.08,0-1.57-.06a1.74,1.74,0,0,1-1.78-1.67c0-.25,0-.56,0-.87,0-.81,0-1.74.07-2.46a1.66,1.66,0,0,1,1.69-1.6c.47,0,1,0,1.46,0s1.19,0,1.71,0a1.68,1.68,0,0,1,1.64,1.47c.06.63.07,1.42.07,2.16,0,.47,0,.9,0,1.28A1.78,1.78,0,0,1,243.59,45.33Zm-3.51-2.77c0,1.4,0,1.42,1.88,1.42,1.33,0,1.85,0,1.89-.72,0-.2,0-.45,0-.7Zm3.77-1.28c0-.21,0-.39,0-.56,0-.66-.38-.72-1.6-.72-.45,0-.94,0-1.37,0a.7.7,0,0,0-.7.72c0,.16,0,.34,0,.54ZM246.37,38c-2.13,0-3.62,0-3.68-1.59,0-.36,0-.75,0-1.13,0-.63,0-1.28,0-1.91a1.54,1.54,0,0,1,1.61-1.42c.34,0,1.09,0,1.8,0,.52,0,1,0,1.33,0,1.33.07,1.89.79,1.89,1.6v1.35c0,2.7,0,5.49,0,7.78,0,.85,0,1.6,0,2.23,0,1.28-.63,2.4-2.68,2.4-1.26,0-1.91-.16-1.91-1a.72.72,0,0,1,.7-.79l.15,0a6.94,6.94,0,0,0,.95.11c.6,0,1.05-.22,1.06-1.1,0-.72,0-1.5,0-2.31,0-1.2,0-2.44,0-3.58v-.74C247.36,38,246.89,38,246.37,38Zm1.28-3.62c0-1.1,0-1.12-1.7-1.12-1.44,0-1.63,0-1.67.58,0,.16,0,.36,0,.54Zm0,1.19h-3.42c0,.2,0,.38,0,.54,0,.5.07.57,2,.57h1.42Z"/><path d="M256.25,46.45a1,1,0,0,1-.88-.77,13.09,13.09,0,0,1-.54-3.93,20,20,0,0,1,.12-2.34c.22-2,.63-3.8.76-4.92a.82.82,0,0,1,.83-.84.91.91,0,0,1,.93.88s0,.09,0,.14c-.12.78-.45,2-.7,3.35a18.2,18.2,0,0,0-.39,3.1c0,.67.1.81.14.81s.14-.11.25-.32c.51-1.1.79-1.3,1.08-1.3a.79.79,0,0,1,.76.76.82.82,0,0,1-.09.34A10.81,10.81,0,0,0,257.08,45c0,.21.05.43.05.64A.88.88,0,0,1,256.25,46.45Zm5.85,0a2.66,2.66,0,0,1-2.79-2.25c0-1.37,1.67-1.92,3.33-1.92a8.7,8.7,0,0,1,1.67.18,4.26,4.26,0,0,0,0-.51c0-.3,0-.63-.05-1-.07-.77-.16-2.1-.22-3.51a6.69,6.69,0,0,0-3.24,1.32.81.81,0,0,1-1.4-.62c0-.39.25-1.31,4.61-2.28,0-.76,0-1.48.05-2.05a.84.84,0,0,1,1.67,0v.09c-.05.5-.1,1.08-.12,1.67l1-.16a1,1,0,0,1,.23,0,.82.82,0,0,1,.92.78c0,.38-.3.77-1,.86l-1.17.16c0,1.34.07,2.65.16,3.61a19,19,0,0,1,.15,2v.2A7.43,7.43,0,0,1,268,44.16a1,1,0,0,1,.34.74,1,1,0,0,1-.92,1,.86.86,0,0,1-.65-.33,6.53,6.53,0,0,0-1.29-1A4.18,4.18,0,0,1,262.1,46.41Zm.25-2.79c-1.4,0-1.47.45-1.47.61s.23.67,1,.67a2.64,2.64,0,0,0,2-1A5.62,5.62,0,0,0,262.35,43.62Z"/><path d="M274.55,47a7,7,0,0,0-2.21-1.89.82.82,0,0,1-.49-.72.81.81,0,0,1,.85-.79c.63,0,3.51,1.59,3.51,2.81a1,1,0,0,1-1,1A.82.82,0,0,1,274.55,47Z"/><path d="M303.46,38.22c0,1.14,0,2.16,0,2.83,0,1.62-1.34,1.71-2.87,1.71-1.69,0-2.77-.09-2.79-1.69,0-.69,0-1.71,0-2.85h-2.34c0,.81,0,1.64,0,2.38,0,1.31,0,2.45.05,3.13,0,1.06.61,1.1,4.52,1.1,1.57,0,3.26,0,4.66-.09h.06a.74.74,0,0,1,.75.79.83.83,0,0,1-.81.87c-1.38.07-3,.09-4.46.09s-2.74,0-3.78-.08c-1.59-.07-2.74-.7-2.78-2.45,0-.59,0-1.33,0-2.14,0-1.11,0-2.36,0-3.6l-2.07,0a.77.77,0,0,1-.86-.76.83.83,0,0,1,.86-.84h2.07c0-1.27,0-2.44,0-3.34a.93.93,0,0,1,1.84,0v0c0,.88,0,2.07-.06,3.34h2.32c0-1.51,0-3,0-3.92a.81.81,0,0,1,.88-.74.75.75,0,0,1,.83.72v0c0,.85,0,2.39,0,3.92h2.3c0-1.38,0-2.79,0-3.7a.86.86,0,0,1,1.71,0c0,.93,0,2.32,0,3.7h2.61a.8.8,0,0,1,.83.82.77.77,0,0,1-.83.78Zm-4,0c0,1,0,1.89,0,2.45s.31.61,1.07.61,1.13-.11,1.17-.61,0-1.42,0-2.45Z"/><path d="M318.76,41.37a.81.81,0,0,1,.87-.79l.16,0a23,23,0,0,1-2.05-1.91,19,19,0,0,1-2,1.93.78.78,0,0,1,.75.81c0,2.1-.88,5.22-5.49,6a.65.65,0,0,1-.2,0,.82.82,0,0,1-.82-.86.71.71,0,0,1,.57-.76c3.15-.43,4.11-2.18,4.18-4.38l0,0c-1.08.77-3.55,2.3-4.2,2.3a.84.84,0,0,1-.86-.82.81.81,0,0,1,.56-.76,18.52,18.52,0,0,0,5.51-3.44c-.51,0-1,0-1.41,0-.72,0-2.41,0-2.47-1.68,0-.55,0-1.18,0-1.81s0-1.21,0-1.7c0-.77.55-1.58,1.95-1.62.76,0,2,0,3.31,0,1.61,0,3.33,0,4.49,0a1.79,1.79,0,0,1,1.85,1.5c0,.43.06,1,.06,1.64s0,1.44-.06,2a1.86,1.86,0,0,1-2,1.69H321c-.41,0-.88,0-1.35,0a20.81,20.81,0,0,0,5.53,3.15.8.8,0,0,1,.54.76,1,1,0,0,1-1,1c-.59,0-2.61-1.15-4.3-2.43a.92.92,0,0,1,.05.25V46.5a.8.8,0,0,1-.86.8.8.8,0,0,1-.87-.8Zm-1.91-8.21c-1,0-1.89,0-2.5,0-.88,0-.92.65-.92,1.38h3.42Zm0,2.72h-3.42c0,.94.08,1.42.94,1.46.67,0,1.55,0,2.48,0Zm5-1.3c0-.25,0-.46,0-.66,0-.45-.27-.7-.88-.72s-1.51,0-2.5,0v1.42Zm-3.4,1.3v1.5c.92,0,1.82,0,2.52,0,.88,0,.88-.63.88-1.46Z"/><path d="M343.39,45.33a1.23,1.23,0,0,1-.6-.16c-2.08-1.21-5-4.48-7-6.14a1.71,1.71,0,0,0-1.1-.56,1.63,1.63,0,0,0-.92.38,26.62,26.62,0,0,1-2.57,1.77,1.36,1.36,0,0,1-.56.14,1,1,0,0,1-1.05-.95,1,1,0,0,1,.69-.89c.47-.21,1.66-.88,2.61-1.47a2.91,2.91,0,0,1,3.94.3c2.2,1.79,4.81,4.27,7.22,5.71a.88.88,0,0,1,.44.77A1.06,1.06,0,0,1,343.39,45.33Z"/><path d="M350.15,47a7,7,0,0,0-2.21-1.89.82.82,0,0,1-.49-.72.81.81,0,0,1,.85-.79c.63,0,3.51,1.59,3.51,2.81a1,1,0,0,1-1,1A.84.84,0,0,1,350.15,47Z"/><path d="M377.39,47.12c-1.08,0-5.33-2.15-5.33-5.46a2.59,2.59,0,0,1,.52-1.62.33.33,0,0,0,.09-.18s0,0,0,0-1.2.65-1.47.83a1.14,1.14,0,0,1-.63.18,1,1,0,0,1-1.08-.9c0-.33.23-.67.79-.94a6.47,6.47,0,0,0,2-1.37,35.77,35.77,0,0,0,2.88-3.92s0,0-.08,0a.19.19,0,0,0-.12,0,8.06,8.06,0,0,1-2.65.88.87.87,0,0,1-.93-.86.82.82,0,0,1,.79-.81,13.58,13.58,0,0,0,3.06-.7A1.71,1.71,0,0,1,376,32a1.16,1.16,0,0,1,1.23,1.12,1.77,1.77,0,0,1-.4,1,29.88,29.88,0,0,1-2.95,3.53c-.09.09-.13.15-.13.18s0,0,.06,0a.22.22,0,0,0,.1,0,16.88,16.88,0,0,1,5-1.33,1,1,0,0,1,1,1c0,.44-.25.92-1.47.94a10.88,10.88,0,0,0-2.08.31,3.86,3.86,0,0,0-2.14,1.09,2.06,2.06,0,0,0-.63,1.48c0,1.55,1.62,3.28,3.77,3.66a1.21,1.21,0,0,1,1.13,1.15A1,1,0,0,1,377.39,47.12Z"/><path d="M393.53,46.49c-3.6,0-3.74-2.09-3.74-3.88,0-2,.22-4.66.22-6.78a17.53,17.53,0,0,0-.11-2.06c0-.05,0-.12,0-.18a.89.89,0,0,1,.94-.9,1,1,0,0,1,1,.87,12.85,12.85,0,0,1,.06,1.29c0,2.22-.38,5-.38,7.46,0,1.48.07,2.37,1.85,2.37a12.5,12.5,0,0,0,4.31-.93,1.41,1.41,0,0,1,.56-.13.85.85,0,0,1,.88.87,1.23,1.23,0,0,1-.88,1.13A13.86,13.86,0,0,1,393.53,46.49Z"/><path d="M416,46.32h-.18c-3.91-.36-6.38-3.06-6.38-5.83a5.06,5.06,0,0,1,1.3-3.3c.05-.07.09-.12.09-.16s0,0,0,0a.53.53,0,0,0-.18.07c-2.82,1.46-3.17,1.56-3.56,1.56a1,1,0,1,1-.27-1.9c.38-.13,1.4-.44,1.94-.63.85-.31,2.34-.78,4.13-1.48a13.74,13.74,0,0,1,4.77-1.12c.9,0,1.22.42,1.22.89,0,.91-.75,1.11-1.44,1.11a2.88,2.88,0,0,1-.41,0h-.44c-2.79,0-5.52,2.37-5.52,4.79,0,2.16,2,4,4.88,4,.9,0,1.33.53,1.33,1.07S416.77,46.32,416,46.32Z"/><path d="M437.71,39.68l-5.17-.06a18.55,18.55,0,0,0,5.93,4.69.86.86,0,0,1,.52.75,1.06,1.06,0,0,1-1.05,1c-.83,0-3.89-2.39-6-5.06,0,1.89.06,3.89.06,5.6,0,.47-.46.7-.92.7s-.89-.21-.89-.68v0l.08-5.44c-1.91,2.42-5.15,5.06-6.07,5.06a.86.86,0,0,1-.38-1.67,17,17,0,0,0,5.74-4.94l-4.93.06h0a.72.72,0,0,1-.75-.77.82.82,0,0,1,.77-.89l5.65,0V36H426a.72.72,0,0,1-.76-.77.79.79,0,0,1,.76-.85h4.21l0-2.32v0a.78.78,0,0,1,.87-.74.82.82,0,0,1,.92.76c0,.83,0,1.58,0,2.32h4.26a.74.74,0,0,1,.72.81.73.73,0,0,1-.72.81h-4.3c0,.63,0,1.3,0,2l5.82,0a.79.79,0,0,1,.74.85.74.74,0,0,1-.72.81Z"/><path d="M456.86,40.47l-5.26-.07a19.13,19.13,0,0,0,6.09,4.48.82.82,0,0,1,.52.76,1,1,0,0,1-1,1c-.9,0-4.31-2.57-6.36-5,0,1.71.06,3.42.06,5.15,0,.49-.45.72-.9.72s-.87-.23-.87-.7v0l0-5a20.78,20.78,0,0,1-5.81,4.86,1.17,1.17,0,0,1-.6.18.89.89,0,0,1-.91-.86.9.9,0,0,1,.55-.78,17.76,17.76,0,0,0,5.93-4.75l-5.06.07h0a.72.72,0,0,1-.76-.74.76.76,0,0,1,.78-.79l5.92,0,0-3.44h-5.09a.73.73,0,0,1-.77-.76.75.75,0,0,1,.77-.79h5.08l0-2a.79.79,0,0,1,.85-.78.81.81,0,0,1,.88.78c0,.68,0,1.35,0,2h4.77a.74.74,0,0,1,.74.78.73.73,0,0,1-.74.77h-4.79c0,1.15,0,2.29,0,3.44h.67A10.57,10.57,0,0,0,453,36.17a.64.64,0,0,1,.63-.45,1,1,0,0,1,1,.88A7.31,7.31,0,0,1,453.21,39l3.65,0a.74.74,0,0,1,.74.78.7.7,0,0,1-.72.75ZM446.45,38.4A6.9,6.9,0,0,0,445.3,37a.61.61,0,0,1-.27-.5.78.78,0,0,1,.81-.67,3,3,0,0,1,2.11,2,.94.94,0,0,1-.88.92A.73.73,0,0,1,446.45,38.4Z"/><path d="M475.69,45.33a1.23,1.23,0,0,1-.6-.16c-2.08-1.21-5-4.48-7-6.14a1.71,1.71,0,0,0-1.1-.56,1.63,1.63,0,0,0-.92.38,26.62,26.62,0,0,1-2.57,1.77,1.36,1.36,0,0,1-.56.14,1,1,0,0,1-1-.95,1,1,0,0,1,.69-.89c.47-.21,1.66-.88,2.61-1.47a2.91,2.91,0,0,1,3.94.3c2.2,1.79,4.81,4.27,7.22,5.71a.87.87,0,0,1,.43.77A1.06,1.06,0,0,1,475.69,45.33Z"/><path d="M482.45,47a7,7,0,0,0-2.21-1.89.82.82,0,0,1-.49-.72.81.81,0,0,1,.85-.79c.63,0,3.51,1.59,3.51,2.81a1,1,0,0,1-1,1A.82.82,0,0,1,482.45,47Z"/><path d="M134.86,76a2.2,2.2,0,0,1-1.27.47c-1,0-1.71-.94-1.71-2.2,0-1.76,1.84-3.87,3.71-5a17.25,17.25,0,0,1,.18-1.89,6.16,6.16,0,0,1-1.42.22c-1.26,0-1.6-.54-1.6-1a.79.79,0,0,1,.76-.85.87.87,0,0,1,.36.08,2.1,2.1,0,0,0,.73.14,5,5,0,0,0,1.48-.31c.16-.63.36-1.17.59-1.89a.9.9,0,0,1,.85-.7.82.82,0,0,1,.83.79A2.77,2.77,0,0,1,138,65c.52-.21,1-.45,1.39-.65a1.2,1.2,0,0,1,.54-.14.77.77,0,0,1,.79.76c0,.61-.41,1-3.26,2-.11.53-.21,1-.27,1.57a7.13,7.13,0,0,1,2.87-.63c2.44,0,5,1.57,5,4.12,0,3.91-5.15,6-5.92,6a.86.86,0,0,1-.94-.79c0-.32.22-.65.76-.86,2.65-1,4.25-2.88,4.25-4.49a3,3,0,0,0-3.22-2.68,2.06,2.06,0,0,0-.35,0,1.57,1.57,0,0,1,.22.9,4.81,4.81,0,0,1-1.46,2.92c-.09.1-.2.19-.29.3a1.16,1.16,0,0,1,.2.67.87.87,0,0,1-.81.93.94.94,0,0,1-.7-.37C136.1,75.13,135.43,75.6,134.86,76Zm.75-5.06c-1.08.85-2.1,2-2.1,3,0,.52.21.67.45.67s.45,0,2-1.39A9.4,9.4,0,0,1,135.61,71Zm1.69,1a2.88,2.88,0,0,0,.87-1.73.73.73,0,0,0,0-.29,1.34,1.34,0,0,1,0-.34,8.73,8.73,0,0,0-1,.45,6.85,6.85,0,0,0,.24,1.93Z"/><path d="M157.25,66.23a46.37,46.37,0,0,1-3.64,6.9,1,1,0,0,1-.9.54.79.79,0,0,1-.84-.77,1.16,1.16,0,0,1,.19-.62A39,39,0,0,0,155.25,67a5.56,5.56,0,0,1-2.27.72c-1.19,0-1.19-.81-1.19-.89a.82.82,0,0,1,.83-.84,1.56,1.56,0,0,1,.36,0,.78.78,0,0,0,.31,0,7.29,7.29,0,0,0,2.54-.94c0-.43,0-.84.07-1.38a.8.8,0,0,1,.84-.8.83.83,0,0,1,.87.78v.38a.65.65,0,0,1,.2,0,.74.74,0,0,1,.72.74c0,.61-.78,1.08-1.28,1.37Zm-.52,11.92c-1.64,0-3-1.17-3-2.19,0-1.19,1.58-2.07,3.91-2.07l.83,0c-.13-1.44-.13-1.51-.13-1.71,0-1.17.38-2.23,2.48-3.64a.33.33,0,0,0,.17-.21c0-.11-.17-.11-.24-.11a6.3,6.3,0,0,0-1.15.22h-.23a.61.61,0,0,1-.69-.59c0-.47.52-1,2.4-1,1.31,0,2.9.76,2.9,1.59a.93.93,0,0,1-.92.81c-1.44.12-3.23,1.08-3.23,3a5.84,5.84,0,0,0,.09.88c.06.36.13.74.18,1.12,1.12.34,2.87,1.13,2.87,2.16a.89.89,0,0,1-.83.93,1,1,0,0,1-.74-.36A6,6,0,0,0,160,76,3.55,3.55,0,0,1,156.73,78.15Zm.5-2.88c-1.06,0-2,.36-2,.69s.63.7,1.33.7a1.8,1.8,0,0,0,1.84-1.24A5.56,5.56,0,0,0,157.23,75.27Z"/><path d="M175.27,67.48a85.77,85.77,0,0,1-4.18,9.45.92.92,0,0,1-.87.5.86.86,0,0,1-.93-.77,1,1,0,0,1,.14-.51A55.17,55.17,0,0,0,173.34,68l-.2,0a5.63,5.63,0,0,1-1.53.23c-.18,0-1.58,0-1.58-1a.85.85,0,0,1,.79-.92,1.11,1.11,0,0,1,.54.15,1,1,0,0,0,.47.11,8.08,8.08,0,0,0,2.1-.51,6.74,6.74,0,0,0,.13-1.44.89.89,0,0,1,1-.84.77.77,0,0,1,.85.64,3,3,0,0,1,0,.31c0,.11,0,.21,0,.34a.8.8,0,0,1,.23,0A.85.85,0,0,1,177,66c0,.47-.33.8-1.66,1.39Zm5.49,10.13c-3,0-4.9-1.56-4.9-2.48a1,1,0,0,1,.88-1,.85.85,0,0,1,.7.4c.69.92,1.27,1,3.62,1.21a.89.89,0,0,1,.92.9C182,77.61,181.05,77.61,180.76,77.61Zm1-6.77a10.2,10.2,0,0,0-3.18-.83,2,2,0,0,0-.62.08l-.2,0a.71.71,0,0,1-.68-.74c0-.28.09-.95,1.69-.95a10.24,10.24,0,0,1,3.66.81A.84.84,0,0,1,183,70a.89.89,0,0,1-.86.89A.87.87,0,0,1,181.8,70.84Z"/><path d="M196.74,72.93c0,.31,0,.63,0,1a1.08,1.08,0,0,1-1,1.1.76.76,0,0,1-.74-.85V74a8.72,8.72,0,0,0,.08-1.2C194.69,73,193,73.89,193,75c0,.31.15,1.37,2,1.37a8.42,8.42,0,0,0,2.27-.38,1.6,1.6,0,0,1,.45-.07.87.87,0,0,1,.94.85c0,.37-.14,1.29-3.22,1.29s-4-1.55-4-2.86c0-2.2,2.56-3.57,3.5-4-.22-.71-.58-1.07-1.07-1.07a1.75,1.75,0,0,0-.93.33c-.76.85-1.21,1.1-1.6,1.1a.72.72,0,0,1-.78-.69,1,1,0,0,1,.41-.74,9.29,9.29,0,0,0,2.31-2.73,5.66,5.66,0,0,1-.88.07c-1.82,0-1.84-1-1.84-1.15a.76.76,0,0,1,.74-.79,1.17,1.17,0,0,1,.65.23,1.18,1.18,0,0,0,.66.14,6.66,6.66,0,0,0,1.43-.19,7.07,7.07,0,0,0,.32-1.43.71.71,0,0,1,.76-.63.93.93,0,0,1,1,.8,3.13,3.13,0,0,1-.11.66c.54-.27.61-.29.74-.29a.78.78,0,0,1,.77.8c0,.59-.47,1-2.34,1.4a20.39,20.39,0,0,1-1,1.8,2.39,2.39,0,0,1,2.26,1.69A21.32,21.32,0,0,1,200.5,69a1,1,0,0,1,1,.94.73.73,0,0,1-.48.7c-.56.24-1.16.31-2.09.6-.76.23-1.53.52-2.23.81A8,8,0,0,1,196.74,72.93Z"/><path d="M206.67,78.33a1,1,0,0,1-1-1,.78.78,0,0,1,.45-.68,9.36,9.36,0,0,0,2.51-1.88c0-.81,0-1.51,0-2.19,0-1.23,0-1.26-.84-1.26h-.76c-.38,0-1,0-1-.78a.78.78,0,0,1,.76-.81c.65,0,1.24,0,1.83,0,1.16,0,1.7.54,1.7,1.69s0,2.29,0,3.44c1.23,1.55,3.12,1.82,5.42,1.82,1.8,0,3.75-.2,5.11-.31h.09a.85.85,0,0,1,.87.87.88.88,0,0,1-.9.88c-1.14.11-2.77.22-4.41.22-4.41,0-5.58-.76-7-2.22C209.37,76.32,207.56,78.33,206.67,78.33ZM209,66.5A6,6,0,0,0,207.18,65a.65.65,0,0,1-.4-.57.93.93,0,0,1,.92-.85c.49,0,2.86,1.21,2.86,2.22a1,1,0,0,1-.93,1A.75.75,0,0,1,209,66.5Zm7.46,2.58h-2.56c-.18,3-1.15,6.25-2.39,6.25a.89.89,0,0,1-.9-.83.84.84,0,0,1,.19-.52c1.32-1.7,1.52-4.06,1.52-5.86,0-.73,0-1.38,0-1.87v-.07A1.65,1.65,0,0,1,214,64.34a20.23,20.23,0,0,0,4.6-1.09,1,1,0,0,1,.39-.08.86.86,0,0,1,.87.87.93.93,0,0,1-.76.88,33.71,33.71,0,0,1-4.38.9c-.66.11-.75.38-.75.7s0,.6,0,1l6.69,0a.79.79,0,1,1,0,1.57h-2.53l0,6.14a.87.87,0,0,1-1.73,0Z"/><path d="M230.56,77a1,1,0,0,1-1.08-1,.93.93,0,0,1,.9-.88c3.4-.49,7.37-2.29,7.37-4.7a2.46,2.46,0,0,0-2.63-2.27,6.94,6.94,0,0,0-2.27.49c-1.71.59-3.87,1.89-5.71,2.73a1.29,1.29,0,0,1-.59.15,1,1,0,0,1-1-1,1,1,0,0,1,.7-.92c1.73-.68,4.57-2.14,6.37-2.64a10.16,10.16,0,0,1,2.72-.45,4.15,4.15,0,0,1,4.4,4c0,1.33-.81,2.61-2.4,3.85A16.69,16.69,0,0,1,230.56,77Zm7.65-10.48a6.23,6.23,0,0,0-1.45-1.06.56.56,0,0,1-.42-.54.74.74,0,0,1,.76-.66c.25,0,2.28.8,2.28,1.69a.82.82,0,0,1-.72.81A.56.56,0,0,1,238.21,66.5Zm1.64-1.58a6.29,6.29,0,0,0-1.47-1,.59.59,0,0,1-.45-.54.72.72,0,0,1,.75-.66c.4,0,2.33.79,2.33,1.62a.8.8,0,0,1-.73.79A.59.59,0,0,1,239.85,64.92Z"/><path d="M248.53,65.15c0,.54-.2,1.37-.31,2.25a20.09,20.09,0,0,0-.18,2.65,13.49,13.49,0,0,0,.83,4.88,1.26,1.26,0,0,1,.07.41.92.92,0,0,1-.94.92,1,1,0,0,1-.93-.7,13.21,13.21,0,0,1-.7-4.73c0-1.27.09-2.49.16-3.43s.16-1.58.21-2.32a.9.9,0,0,1,1.79.06Zm5.61,3.53a20.63,20.63,0,0,1-3,.47.9.9,0,0,1-1-.88c0-.4.31-.79,1-.79a10.63,10.63,0,0,0,3.21-.42c0-1-.09-1.78-.14-2.23,0,0,0-.11,0-.14a.78.78,0,0,1,.86-.81,1,1,0,0,1,1,.82c0,.2,0,.42,0,.69s0,.81,0,1.33a6.4,6.4,0,0,1,1.26-.2c.61,0,.9.36.9.74a1,1,0,0,1-.94.92l-1.22.18c0,.61,0,1.28.05,2,0,.2,0,.4,0,.58a7.9,7.9,0,0,1-4.79,7.67,1.19,1.19,0,0,1-.47.11.93.93,0,0,1-.92-.89.83.83,0,0,1,.58-.75c2.65-1.12,3.89-3.39,3.89-6.45,0-.23,0-1.37,0-2.05Z"/><path d="M274.2,77.5H274c-3.9-.36-6.37-3.06-6.37-5.83a5,5,0,0,1,1.3-3.29c.05-.08.09-.13.09-.17a0,0,0,0,0,0,0,.53.53,0,0,0-.18.07c-2.83,1.46-3.17,1.57-3.56,1.57a1,1,0,1,1-.27-1.91c.37-.13,1.4-.43,1.94-.63.85-.31,2.34-.78,4.12-1.48a13.85,13.85,0,0,1,4.78-1.11c.9,0,1.22.41,1.22.88,0,.92-.76,1.11-1.44,1.11h-.41a3.24,3.24,0,0,0-.44,0c-2.79,0-5.52,2.37-5.52,4.79,0,2.16,2,4,4.88,4,.9,0,1.33.53,1.33,1.07S275,77.5,274.2,77.5Z"/><path d="M291.22,78.35a.9.9,0,0,1-.84-.59,25.32,25.32,0,0,0-3.62-5.67,3.27,3.27,0,0,1-.85-1.89,2.77,2.77,0,0,1,.7-1.68A42.85,42.85,0,0,0,290,63.79a.85.85,0,0,1,.76-.47,1.14,1.14,0,0,1,1.13,1.06,1,1,0,0,1-.16.52C291,66.05,289,68.3,288,69.46a1,1,0,0,0-.29.66,1.54,1.54,0,0,0,.43.92c1.84,2.38,3.26,3.73,4.09,5.78a1.56,1.56,0,0,1,.09.45A1.13,1.13,0,0,1,291.22,78.35Z"/><path d="M302.13,74.84s.12-.14.27-.36.34-.56.52-.86a16.77,16.77,0,0,1,1.37-2c.23-.41.43-.81.59-1.17l.06-.5a6.75,6.75,0,0,0-1.61.79,1.11,1.11,0,0,1-.64.25.73.73,0,0,1-.69-.79c0-.6.15-.79,3.13-2.09.15-1.48.26-2.77.26-3.56a.78.78,0,0,1,.81-.85.86.86,0,0,1,.9.83c0,.54-.22,2.34-.33,3.26a.73.73,0,0,1,.42.72c1.33-1.25,2.72-2.31,4.07-2.31a1.92,1.92,0,0,1,1.92,2.14c0,.11,0,.24,0,.36-.13,1.17-.65,3.08-.85,4.74a3.58,3.58,0,0,0-.06.61c0,.56.2.79.85.79a5.29,5.29,0,0,0,2-.57,1.37,1.37,0,0,1,.49-.11.8.8,0,0,1,.79.85,1,1,0,0,1-.67,1,6.59,6.59,0,0,1-2.57.56c-1.39,0-2.6-.45-2.6-2.27a4,4,0,0,1,.08-.81c.25-1.64.73-3.53.81-4.7v-.2c0-.59-.22-.81-.54-.81-1,0-3,2-4.5,3.78-.08,1-.13,1.93-.13,2.85a15.2,15.2,0,0,0,.18,2.53.71.71,0,0,1,0,.2.94.94,0,0,1-1,.94c-.95,0-1-1.06-1-2.36,0-.63,0-1.31.07-2-.39.65-.77,1.4-1.1,2a1.49,1.49,0,0,1-1.26.94.67.67,0,0,1-.72-.67,1.89,1.89,0,0,1,.54-1Z"/><path d="M330.75,73c0-1.89-2.28-1.89-2.45-1.89a5.92,5.92,0,0,0-4.3,2.39.89.89,0,0,1-.72.36.93.93,0,0,1-1-.86,1.07,1.07,0,0,1,.36-.74,47.06,47.06,0,0,0,5.23-6s0,0-.06,0l-.12,0a9.14,9.14,0,0,1-3.6,1.32.88.88,0,0,1-.94-.88.78.78,0,0,1,.76-.8,17.1,17.1,0,0,0,4.55-1.22,1.46,1.46,0,0,1,.65-.15,1.14,1.14,0,0,1,1.19,1.07,1.25,1.25,0,0,1-.42.88c-1.22,1.17-2.61,2.7-3.74,4a4.74,4.74,0,0,1,2.57-.72c1.91,0,3.8,1.17,3.8,3.17,0,2.41-2.48,4.72-5.6,4.72-2.16,0-3.29-1.25-3.29-2.31a1.85,1.85,0,0,1,2-1.69,2.56,2.56,0,0,1,2.81,2.25A3.54,3.54,0,0,0,330.75,73Zm-4.91,1.93c-.62,0-.63.39-.63.46,0,.71,1.22.8,1.67.8H327C327,75.36,326.56,74.88,325.84,74.88Z"/><path d="M347.09,77.54c-3.72,0-5.72-1.73-5.72-2.75a1,1,0,0,1,.94-1,1.11,1.11,0,0,1,.81.45,4.21,4.21,0,0,0,3.42,1.37,12.35,12.35,0,0,0,3.06-.45,2.08,2.08,0,0,1,.41-.05.9.9,0,0,1,1,.92,1.21,1.21,0,0,1-1,1.13A11.33,11.33,0,0,1,347.09,77.54Zm1.32-9.36A11.53,11.53,0,0,1,343.53,67a1,1,0,0,1-.59-.92.79.79,0,0,1,.81-.83,1.57,1.57,0,0,1,.52.11,11.6,11.6,0,0,0,4.34.93.92.92,0,0,1,.93.92C349.54,67.71,349.18,68.18,348.41,68.18Z"/><path d="M364.41,70.61c-.77-.41-.94-1-.94-2,0-.29,0-.61,0-1,0-.83.05-1.48.05-2a8.32,8.32,0,0,0-.12-1.72,1.06,1.06,0,0,1,0-.24.78.78,0,0,1,.83-.79c1.1,0,1.15,1,1.15,2.25,0,.5,0,1.13-.11,2,0,.56-.09,1-.09,1.37,0,1.12.74,1.23,1.28,1.23.27,0,.31-.15.52-.22a.74.74,0,0,1,.29-.05.9.9,0,0,1,.9.86,1.17,1.17,0,0,1-.67.94c-.61.38-2,1-2.88,1.44-1.36.75-2,1.53-2,2.19s.8,1.5,2.65,1.5a5,5,0,0,0,2.5-.58,1.55,1.55,0,0,1,.85-.29,1,1,0,0,1,1,.92c0,1.12-2.11,1.75-4,1.75-3.25,0-4.71-1.55-4.71-3.1,0-1.29,1-2.77,3.17-4l.61-.35A1.11,1.11,0,0,1,364.41,70.61Z"/><path d="M387.51,77.5h-.18c-3.91-.36-6.38-3.06-6.38-5.83a5,5,0,0,1,1.3-3.29c.05-.08.09-.13.09-.17a0,0,0,0,0,0,0,.53.53,0,0,0-.18.07c-2.82,1.46-3.17,1.57-3.56,1.57a1,1,0,1,1-.27-1.91c.38-.13,1.4-.43,1.94-.63.85-.31,2.34-.78,4.12-1.48a13.85,13.85,0,0,1,4.78-1.11c.9,0,1.22.41,1.22.88,0,.92-.76,1.11-1.44,1.11h-.41a3.24,3.24,0,0,0-.44,0c-2.79,0-5.52,2.37-5.52,4.79,0,2.16,2,4,4.88,4,.9,0,1.33.53,1.33,1.07S388.33,77.5,387.51,77.5Zm1.54-6.31a6.63,6.63,0,0,0-1.53-1.12.61.61,0,0,1-.45-.56.77.77,0,0,1,.8-.7c.23,0,2.43.83,2.43,1.76a.87.87,0,0,1-.78.85A.64.64,0,0,1,389.05,71.19Zm2.08-1.5a6.28,6.28,0,0,0-1.57-1.06c-.33-.13-.47-.34-.47-.56a.77.77,0,0,1,.79-.72c.29,0,2.45.77,2.45,1.71a.84.84,0,0,1-.76.85A.66.66,0,0,1,391.13,69.69Z"/><path d="M403,77.67c-3.6,0-3.74-2.09-3.74-3.87,0-2.06.22-4.67.22-6.79a17.23,17.23,0,0,0-.11-2.05c0-.06,0-.13,0-.18a.88.88,0,0,1,.93-.9,1,1,0,0,1,1,.86c0,.4.06.83.06,1.3,0,2.21-.38,5-.38,7.45,0,1.48.07,2.38,1.85,2.38a12.56,12.56,0,0,0,4.31-.94,1.41,1.41,0,0,1,.56-.13.85.85,0,0,1,.88.87,1.23,1.23,0,0,1-.88,1.13A13.92,13.92,0,0,1,403,77.67Z"/><path d="M421.51,73.65c-.06-2.5-.13-3.6-.31-5.38v-.11a.72.72,0,0,1,.77-.72.78.78,0,0,1,.83.76c0,.59.06,1.13.08,1.71a2.34,2.34,0,0,0,1-.35,1,1,0,0,1,.5-.16.86.86,0,0,1,.85.81c0,.72-1,1-2,1.14l-.38.05c0,.63,0,1.32,0,2.13,0,.32,0,.77,0,1.2,1.55.78,1.75,1.3,1.75,1.66a.79.79,0,0,1-1.44.57c-.2-.21-.42-.43-.65-.63a2.55,2.55,0,0,1-2.14,1.32A2.52,2.52,0,0,1,418,75.51c0-.78.72-1.46,2.12-1.46a6.17,6.17,0,0,1,1.39.18Zm-1.34,1.66c-.19,0-.72,0-.72.32s.51.65.89.65a1.07,1.07,0,0,0,1-.72A3.14,3.14,0,0,0,420.17,75.31Z"/><path d="M437.56,77.7a.81.81,0,0,1,.52-.75c3.32-1.46,4.4-3.55,4.4-5.51,0-.51-.16-3.12-1.55-3.12a2.87,2.87,0,0,0-1.42.56,4,4,0,0,1-1.89.81,1,1,0,1,1-.09-1.91,3.72,3.72,0,0,0,1.22-.45,5.61,5.61,0,0,1,2.29-.57c3.17,0,3.24,4.28,3.24,4.64,0,4.83-5,7.26-5.76,7.26A1,1,0,0,1,437.56,77.7Zm4.54-12.44a8.34,8.34,0,0,1-3.49-.77.84.84,0,0,1-.49-.74A.8.8,0,0,1,439,63a1.33,1.33,0,0,1,.48.1,5,5,0,0,0,2.11.4c.22,0,.42,0,.63,0h.07a.83.83,0,0,1,.92.81A1,1,0,0,1,442.1,65.26Z"/><path d="M453.44,78.62a2.05,2.05,0,1,1,2.05-2.05A2.05,2.05,0,0,1,453.44,78.62Zm0-3.4a1.35,1.35,0,0,0-1.37,1.35,1.37,1.37,0,1,0,2.73,0A1.35,1.35,0,0,0,453.44,75.22Z"/><rect class="cls-1" y="0.67" width="593.81" height="78.6"/></g></g></svg>