<svg xmlns="http://www.w3.org/2000/svg" viewBox="0 0 593.81 110.29"><defs><style>.cls-1{fill:#231815;}.cls-2{fill:none;}</style></defs><g id="レイヤー_2" data-name="レイヤー 2"><g id="レイヤー_2-2" data-name="レイヤー 2"><polygon class="cls-1" points="170.29 92.74 174.23 96.02 173.36 97.06 169.43 93.78 170.29 92.74"/><polygon class="cls-1" points="170.29 97.72 174.23 100.98 173.36 102.05 169.43 98.78 170.29 97.72"/><polygon class="cls-1" points="173.13 103.99 174.17 104.83 170.37 109.62 169.31 108.77 173.13 103.99"/><path class="cls-1" d="M180.05,92.26h1.34v2.46h5.21V98.5h-1.3V96.08h-3.87v2.4h-1.36v-2.4h-3.76v3.38h10.27v1.3l-4.46,3.82,4.52,3.92-.88,1-4.71-4.06-4.76,4.12H175V94.72h5.12Zm1,11.41,3.39-2.85h-6.73Zm-4.76,4.1,3.7-3.19-3.7-3.21Z"/><polygon class="cls-1" points="148.52 92.26 148.52 98.28 149.86 98.28 149.86 95.81 152.8 95.81 152.8 98.28 154.16 98.28 154.16 95.81 156.59 95.81 156.59 94.44 149.87 94.44 149.87 92.26 148.52 92.26"/><polygon class="cls-1" points="157.61 92.26 157.61 98.28 158.96 98.28 158.96 95.81 161.9 95.81 161.9 98.28 163.26 98.28 163.26 95.81 165.86 95.81 165.86 94.44 158.97 94.44 158.97 92.26 157.61 92.26"/><polygon class="cls-1" points="148.78 99.44 156.01 99.44 156.01 100.82 153.22 100.82 153.22 107 156.26 106.19 156.62 107.49 149.03 109.55 148.67 108.25 151.86 107.35 151.86 100.8 148.78 100.8 148.78 99.44"/><polygon class="cls-1" points="157.64 99.42 165.85 99.42 165.85 109.62 164.51 109.62 164.51 100.8 158.98 100.8 158.98 109.6 157.64 109.6 157.64 99.42"/><polygon class="cls-1" points="160.67 102.95 164 106.21 163.05 107.2 159.73 103.93 160.67 102.95"/><path class="cls-1" d="M210.87,92.74h4.72v1.34l-2.38,4.48,2.46,4.57v1.34h-3.49v5.15h-1.34Zm1.36,4.83L214,94.11h-1.81Zm0,5.53h1.94l-1.91-3.54Z"/><polygon class="cls-1" points="221.43 92.25 222.78 92.25 222.78 94 228.1 94 228.1 97.81 226.79 97.81 226.79 95.35 217.68 95.35 217.68 97.9 216.35 97.9 216.35 94 221.43 94 221.43 92.25"/><polygon class="cls-1" points="218.65 96.53 225.93 96.53 225.93 97.83 218.66 97.83 218.65 96.53"/><path class="cls-1" d="M223.3,107.88l0-7h-1.84L218,109.66l-1.26-.5,3.28-8.32h-3.29V99.47H227.8v1.39h-3.19v6.79a.57.57,0,0,0,.57.58h3v1.36h-3A1.74,1.74,0,0,1,223.3,107.88Z"/><polygon class="cls-1" points="239.64 92.25 240.96 92.25 240.96 97.12 248.96 97.12 248.96 98.46 241.12 98.46 248.96 108.79 247.88 109.64 240.28 99.58 232.67 109.54 231.59 108.71 239.43 98.47 231.67 98.47 231.67 97.12 239.63 97.12 239.64 92.25"/><polygon class="cls-1" points="190.1 95.08 193.44 95.08 193.44 92.24 194.78 92.24 194.78 95.08 198.05 95.08 198.05 92.25 199.39 92.25 199.39 95.08 202.96 95.08 202.96 92.25 204.3 92.25 204.3 95.08 207.49 95.08 207.49 98.56 206.12 98.56 206.12 96.45 191.46 96.45 191.46 98.49 190.1 98.49 190.1 95.08"/><path class="cls-1" d="M198.21,107.55s0,.72-.67.72h-2.8v1.38h2.68a2.11,2.11,0,0,0,2.26-2.16v-3.68h7.6v-1.4h-6.82l3.64-2.51V98.54H193.62v1.32h8.54l-3.83,2.55h-8.12v1.38h8v3.76"/><polygon class="cls-1" points="252.13 95.08 255.47 95.08 255.47 92.24 256.8 92.24 256.8 95.08 260.08 95.08 260.08 92.25 261.42 92.25 261.42 95.08 264.99 95.08 264.99 92.25 266.32 92.25 266.32 95.08 269.51 95.08 269.51 98.56 268.15 98.56 268.15 96.45 253.49 96.45 253.49 98.49 252.13 98.49 252.13 95.08"/><path class="cls-1" d="M260.24,107.55s0,.72-.68.72h-2.79v1.38h2.68a2.1,2.1,0,0,0,2.25-2.16v-3.68h7.61v-1.4h-6.82l3.64-2.51V98.54H255.65v1.32h8.54l-3.83,2.55h-8.12v1.38h8v3.76"/><path class="cls-1" d="M295.4,96.91V94.55h-6.66c-.09,0-4.8,2.43-4.8,2.43l-.06,1.43L289,95.82h5L289.26,99l-1.51-2.46-1.39.68L288,99.77l-4.05,2.29-.05,1.58S295.4,97,295.4,96.91Z"/><path class="cls-1" d="M293,100.34l-6.83,3.85.07,1.39s3.77-2,3.81-2l1.82,2.86-2.47,1.63h-5.05v1.39h5.26c.05,0,9.41-6,9.41-6.12v-3.07S293.05,100.3,293,100.34Zm4.58,1.16v1.26l-4.6,2.65-1.65-2.57,2.07-1.34Z"/><polygon class="cls-2" points="305.33 97.3 309.29 101.69 313.26 97.3 305.33 97.3"/><path class="cls-1" d="M317,95.89h-7V94h-1.55v1.92h-6.7v1.4h1.35l5,5.33-6.34,6.85,2.11-.1,5.33-5.81,5.31,5.81,2.17-.05-6.38-6.7,4.88-5.32H317Zm-7.75,5.79-4-4.39h7.93Z"/><polygon class="cls-1" points="328.2 101.22 334.58 97.95 334.52 96.36 328.2 99.62 328.2 94.44 326.72 94.42 326.72 109.19 334.85 109.19 334.85 107.75 328.2 107.75 328.2 101.22"/><polygon class="cls-1" points="322.64 94.31 319.23 102.78 320.7 102.83 321.57 100.76 321.57 109.17 323.06 109.16 323.06 97.24 324.18 94.31 322.64 94.31"/><rect class="cls-2" x="342.48" y="97.6" width="5.51" height="5.9"/><polygon class="cls-1" points="349.89 106.03 348.27 106.07 350.51 109.22 352.22 109.29 349.89 106.03"/><polygon class="cls-1" points="340.78 106.03 338.49 109.19 340.16 109.22 342.4 106.07 340.78 106.03"/><path class="cls-1" d="M352.51,103.49h-3V97.6h2.59V96.19h-2.59V94.62H348v1.57h-5.51V94.62H341v1.57H338.4V97.6H341v5.89h-3l0,1.39h14.51Zm-4.52,0h-5.51V97.6H348Z"/><path class="cls-1" d="M370.48,107.8h-6v-4.07h5.11v-1.37h-5.11v-4.1H370V96.89h-5.56V94.64l-1.47,0v2.27h-4.28l.76-2-1.54,0-2.16,5.73s1.49,0,1.49,0l.94-2.44H363v4.1h-5.7v1.37H363v4.07h-6.6v1.37h14.05Z"/><polygon class="cls-1" points="388.2 97.82 381.7 97.82 381.38 94.78 379.88 94.78 380.2 97.82 374.07 97.82 374.09 99.31 380.41 99.31 380.74 102.53 374.07 102.53 374.09 104.02 380.95 104.02 381.7 110.28 383.21 110.28 382.45 104.02 388.2 104.02 388.2 102.53 382.24 102.53 381.92 99.31 388.2 99.31 388.2 97.82"/><polygon class="cls-1" points="403.64 101.75 395.17 101.75 394.7 99.39 393.28 99.37 393.75 101.75 391.32 101.75 391.32 103.16 394 103.16 395.28 110.28 396.7 110.28 395.42 103.16 400.69 103.16 398.26 106.14 399.4 107.05 403.64 101.75"/><polygon class="cls-1" points="417.05 98.5 414.22 108.77 405.22 108.77 405.22 110.28 415.43 110.28 418.78 98.5 417.05 98.5"/><polygon class="cls-1" points="411.59 97.94 411.57 96.42 406 96.42 406.02 97.94 411.59 97.94"/><rect class="cls-2" x="430.81" y="96.96" width="1.85" height="1.75"/><polygon class="cls-1" points="435.21 108.77 433.63 108.77 431.67 101 430.02 101 432.3 110.27 435.21 110.27 435.21 108.77"/><polygon class="cls-1" points="426.94 96.36 424.41 96.31 421.16 108.77 419.23 108.81 419.23 110.27 422.48 110.28 425.73 97.81 426.94 97.81 426.94 96.36"/><path class="cls-1" d="M433.21,99.66c.25,0,.39-.11.39-.38V96.39a.35.35,0,0,0-.39-.38h-3c-.27,0-.39.13-.39.38V99.3c0,.25.12.36.39.36Zm-2.4-2.7h1.85v1.75h-1.85Z"/><polygon class="cls-1" points="446.59 103.6 450.12 99.55 450.21 96.7 439.41 96.7 439.43 98.19 448.55 98.19 448.55 99.05 438.17 110.28 440.3 110.28 445.54 104.76 450.04 110.28 451.82 110.28 446.59 103.6"/><path class="cls-1" d="M124.16,22.94a1.6,1.6,0,0,1-1.42-1.81A1.48,1.48,0,0,1,124.39,20c5.42.17,12.08-1.54,12.74-5.3.37-2.07-1.31-3.87-3.47-4.25a11.35,11.35,0,0,0-3.66.14c-2.82.45-6.54,1.88-9.63,2.69a2,2,0,0,1-1,.06,1.54,1.54,0,0,1-1.31-1.76,1.57,1.57,0,0,1,1.34-1.23c2.88-.6,7.71-2.08,10.65-2.37a15.76,15.76,0,0,1,4.35,0,6.55,6.55,0,0,1,5.75,7.37c-.37,2.07-2,3.84-4.78,5.33C131.45,22.84,124.91,23.07,124.16,22.94Z"/><path class="cls-1" d="M156.35,25.23a1.38,1.38,0,0,1-1.28-.9,37.72,37.72,0,0,0-5.44-8.53A4.88,4.88,0,0,1,148.36,13a4.1,4.1,0,0,1,1-2.51,64.84,64.84,0,0,0,5.07-7.13,1.27,1.27,0,0,1,1.14-.7,1.73,1.73,0,0,1,1.7,1.59,1.48,1.48,0,0,1-.24.79c-1.08,1.73-4.12,5.12-5.55,6.85a1.57,1.57,0,0,0-.44,1,2.36,2.36,0,0,0,.65,1.38c2.77,3.57,4.91,5.61,6.15,8.69a2.23,2.23,0,0,1,.14.68A1.7,1.7,0,0,1,156.35,25.23Z"/><path class="cls-1" d="M170.62,23.05a1.45,1.45,0,0,1-1.33-1.17,20,20,0,0,1-.81-5.9,31.33,31.33,0,0,1,.19-3.53c.33-3,1-5.71,1.14-7.39a1.23,1.23,0,0,1,1.24-1.27,1.38,1.38,0,0,1,1.41,1.32c0,.06,0,.14,0,.22-.19,1.16-.68,3.06-1.06,5a26,26,0,0,0-.6,4.66c0,1,.17,1.22.22,1.22s.22-.17.38-.49c.76-1.65,1.19-1.95,1.62-1.95A1.18,1.18,0,0,1,174.14,15a1.1,1.1,0,0,1-.13.51,16.41,16.41,0,0,0-2.14,5.34c0,.32.08.65.08,1A1.32,1.32,0,0,1,170.62,23.05Zm14.3-19c-.08.78-.16,1.62-.19,2.52l1.47-.25a2.18,2.18,0,0,1,.35,0,1.24,1.24,0,0,1,1.38,1.16c0,.57-.46,1.17-1.46,1.3-.63.08-1.22.16-1.76.25,0,2,.11,4,.24,5.41a27.88,27.88,0,0,1,.22,3v.3a10.79,10.79,0,0,1,3.11,1.9,1.49,1.49,0,0,1,.52,1.11,1.45,1.45,0,0,1-1.38,1.51,1.31,1.31,0,0,1-1-.48,9.37,9.37,0,0,0-1.95-1.58A6.26,6.26,0,0,1,179.42,23c-2.22,0-4.19-1.62-4.19-3.38,0-2.06,2.52-2.9,5-2.9a12.94,12.94,0,0,1,2.52.27c0-.25,0-.49,0-.76a14.23,14.23,0,0,0-.08-1.52c-.11-1.16-.24-3.17-.32-5.28-2.82.6-4.12,1.27-4.88,2a1.29,1.29,0,0,1-.87.38,1.31,1.31,0,0,1-1.24-1.3c0-.6.38-2,6.93-3.44,0-1.14,0-2.23.08-3.09a1.16,1.16,0,0,1,1.25-1.11,1.4,1.4,0,0,1,1,.4,1,1,0,0,1,1.06-1c.43,0,3.27,1.19,3.27,2.41a1.13,1.13,0,0,1-1,1.14.85.85,0,0,1-.65-.33A8.54,8.54,0,0,0,185.28,4a1.14,1.14,0,0,1-.36-.21ZM179.8,18.79c-2.11,0-2.22.68-2.22.92s.35,1,1.55,1a4,4,0,0,0,3-1.58A9.08,9.08,0,0,0,179.8,18.79Zm9.84-15.55a8.68,8.68,0,0,0-2.12-1.43A.85.85,0,0,1,186.9,1,1,1,0,0,1,188,.07c.19,0,3.33,1,3.33,2.33a1.14,1.14,0,0,1-1,1.14A.78.78,0,0,1,189.64,3.24Z"/><path class="cls-1" d="M215.21,22.46a1.9,1.9,0,0,1-.9-.24c-3.14-1.82-7.56-6.75-10.51-9.24a2.61,2.61,0,0,0-1.65-.84,2.43,2.43,0,0,0-1.38.57,38,38,0,0,1-3.88,2.66,2,2,0,0,1-.84.21,1.55,1.55,0,0,1-1.57-1.43,1.49,1.49,0,0,1,1-1.33c.71-.33,2.5-1.33,3.93-2.22a5.19,5.19,0,0,1,2.74-.95,5,5,0,0,1,3.19,1.41c3.31,2.68,7.24,6.42,10.87,8.59a1.32,1.32,0,0,1,.65,1.16A1.6,1.6,0,0,1,215.21,22.46Z"/><path class="cls-1" d="M222.68,25a10.38,10.38,0,0,0-3.33-2.85,1.18,1.18,0,0,1,.54-2.27c1,0,5.28,2.38,5.28,4.22a1.49,1.49,0,0,1-1.46,1.49A1.24,1.24,0,0,1,222.68,25Z"/><path class="cls-1" d="M234.57,14.15a1.25,1.25,0,0,1-1.24-1.28,1,1,0,0,1,.89-1c.24-.06.57-.17,1-.3-.19-1.84-.43-4.69-.43-5.23A2.6,2.6,0,0,1,237,3.5,40.29,40.29,0,0,0,242,2a1.56,1.56,0,0,1,.73-.19A1.22,1.22,0,0,1,243.94,3,1.3,1.3,0,0,1,243,4.23a29.11,29.11,0,0,1-4.66,1.3,1,1,0,0,0-.87,1.11v.22c.08.84.24,2.44.35,3.74,1.41-.52,2.85-1.11,3.74-1.49a12.25,12.25,0,0,0-.89-1.28.71.71,0,0,1-.17-.46,1.23,1.23,0,0,1,1.25-1,1,1,0,0,1,.76.3c.38.38,2.14,2.46,2.14,3.47a1.4,1.4,0,0,1-1.3,1.38.9.9,0,0,1-.87-.6C239.85,12.2,235.36,14.15,234.57,14.15Zm16,10.89c-1.76.05-3.79.08-5.77.08s-3.88,0-5.45-.08c-1.87-.09-2.87-1.09-2.95-2.5,0-.75-.05-1.81-.05-2.84s0-2.06.05-2.74c.08-1.16.81-2.38,2.87-2.43,1.65-.06,3.58-.06,5.56-.06s4,0,5.87.06a2.71,2.71,0,0,1,2.77,2.24c.05.68.05,1.79.05,2.88s0,2.16-.05,2.87A2.81,2.81,0,0,1,250.61,25Zm-6.86-8.62c-1.35,0-2.68,0-3.79.06s-1.16.84-1.16,2.24h4.95Zm0,4.23H238.8c0,.51,0,1,0,1.33.08,1.11.19,1.13,4.9,1.13Zm6.89-15.58c-.28,5.77-5.21,8.89-6.37,8.89a1.22,1.22,0,0,1-1.22-1.22,1,1,0,0,1,.54-.92c3.14-1.71,4.55-3.74,4.69-6.72-.84,0-1.71,0-2.57,0h0a1,1,0,0,1-1.09-1A1.11,1.11,0,0,1,245.76,3c1.22,0,2.44,0,3.63,0S251.8,3,253,3c1.87,0,3.09.79,3.09,2.87,0,5.1-1.3,7.51-4.36,7.51A7.88,7.88,0,0,1,249.5,13a1.1,1.1,0,0,1-.79-1.11,1.22,1.22,0,0,1,1.14-1.28,1.38,1.38,0,0,1,.62.17,3,3,0,0,0,1.19.32c.63,0,1.85-.38,1.85-4.93,0-1-.63-1.11-1.3-1.11Zm.46,13.65c0-.46,0-.89,0-1.19,0-.67-.27-1-1.17-1.05-1.13,0-2.46-.06-3.82-.06v2.3Zm-5,1.93v2.44c1.36,0,2.71,0,3.85-.06s1.17-.57,1.17-2.38Z"/><path class="cls-1" d="M275.47,18.29a7.76,7.76,0,0,1,.08,1.19c0,2.44-1.13,6.12-5.85,6.12-2.11,0-3.25-.56-3.25-1.62a1.26,1.26,0,0,1,1.28-1.27,1.36,1.36,0,0,1,.43.05,6,6,0,0,0,1.79.3c3,0,3-3.63,3-3.85a5.52,5.52,0,0,0-.08-.92l-11.49.06a1.16,1.16,0,0,1-1.24-1.2,1.2,1.2,0,0,1,1.22-1.24l10,.05a4.82,4.82,0,0,0-1.08-.57c-.57-.19-.82-.54-.82-.89A1.35,1.35,0,0,1,271,13.36a3.46,3.46,0,0,1,1.6.54c.7-.46,2.14-1.46,2.14-1.79,0-.1-.11-.16-.3-.16s-.81,0-1.44,0c-1.73,0-4.36.05-6.25.13h-.06a1.13,1.13,0,0,1-1.22-1.14,1.18,1.18,0,0,1,1.25-1.14c1.16,0,2.63,0,4.06,0,2,0,4,0,5.2,0,1.55,0,2.2.82,2.2,1.66,0,1.32-1.44,2.44-3.88,4a4.7,4.7,0,0,1,.38.57l8.08-.08a1.18,1.18,0,0,1,1.19,1.25,1.13,1.13,0,0,1-1.17,1.19Zm4.47-8.67c0-1.14-.59-1.32-1.7-1.35-2.17,0-4.61-.06-7-.06-1.92,0-3.82,0-5.49.06-1.49,0-1.74.4-1.82,1.35v1.6a1.27,1.27,0,0,1-1.38,1.19,1.23,1.23,0,0,1-1.3-1.22c0-.35,0-.75,0-1.19s0-.92,0-1.33c.05-1.27,1.06-2.57,3.17-2.6l2.27,0a1.3,1.3,0,0,1-.35-.38,7.65,7.65,0,0,0-1.89-1.95.93.93,0,0,1-.36-.71,1.37,1.37,0,0,1,1.38-1.16c1,0,3.15,2.06,3.15,3a1.49,1.49,0,0,1-.79,1.2c2.38,0,4.74,0,7.13,0a13.42,13.42,0,0,0,1.92-3.58,1.26,1.26,0,0,1,1.22-.86,1.49,1.49,0,0,1,1.54,1.32,8.21,8.21,0,0,1-2,3.15l1.9,0c1.6,0,3.09.9,3.14,2.58,0,.38,0,.95,0,1.46a10,10,0,0,1,0,1,1.34,1.34,0,0,1-1.43,1.19c-.71,0-1.36-.37-1.36-1.13V9.62Zm-7.66-3.71a1,1,0,0,1-.92-.65,7.66,7.66,0,0,0-1.6-2.33.9.9,0,0,1-.25-.59c0-.57.68-1.06,1.39-1.06,1.38,0,2.87,2.65,2.87,3.28A1.52,1.52,0,0,1,272.28,5.91Z"/><path class="cls-1" d="M288.72,25.63a3.09,3.09,0,1,1,3.09-3.09A3.09,3.09,0,0,1,288.72,25.63Zm0-5.12a2,2,0,1,0,0,4.09,2,2,0,1,0,0-4.09Z"/><path class="cls-1" d="M326.45,11.76c0,1.71,0,3.25,0,4.26-.05,2.43-2,2.57-4.3,2.57-2.55,0-4.18-.14-4.2-2.55,0-1,0-2.57,0-4.28h-3.52c0,1.22,0,2.47,0,3.58,0,2,0,3.68.08,4.71.08,1.6.92,1.65,6.8,1.65,2.36,0,4.91-.05,7-.13h.08a1.12,1.12,0,0,1,1.14,1.19,1.25,1.25,0,0,1-1.22,1.3c-2.09.11-4.47.14-6.72.14s-4.12,0-5.69-.11c-2.38-.11-4.12-1.06-4.17-3.69,0-.89,0-2,0-3.22,0-1.68,0-3.55,0-5.42l-3.12,0a1.16,1.16,0,0,1-1.3-1.14,1.26,1.26,0,0,1,1.3-1.27l3.12,0c0-1.93,0-3.69,0-5a1.41,1.41,0,0,1,2.77,0v0c0,1.32-.06,3.11-.08,5h3.49c0-2.28,0-4.53,0-5.91a1.21,1.21,0,0,1,1.32-1.11,1.12,1.12,0,0,1,1.25,1.08v0c0,1.27-.05,3.6-.05,5.91h3.46c0-2.09,0-4.2,0-5.58a1.29,1.29,0,0,1,2.57,0c0,1.4,0,3.49,0,5.58l3.93,0a1.2,1.2,0,0,1,1.24,1.24,1.16,1.16,0,0,1-1.24,1.17Zm-6,0c0,1.52,0,2.85,0,3.69s.46.92,1.6.92c1.3,0,1.71-.16,1.76-.92s0-2.14,0-3.69Z"/><path class="cls-1" d="M348.12,16.5a1.21,1.21,0,0,1,1.3-1.19c.08,0,.16,0,.24,0a36,36,0,0,1-3.09-2.87,28.12,28.12,0,0,1-3,2.9,1.2,1.2,0,0,1,1.14,1.21c0,3.17-1.33,7.86-8.27,9a1,1,0,0,1-.29,0,1.24,1.24,0,0,1-1.25-1.3,1.08,1.08,0,0,1,.87-1.14c4.74-.65,6.17-3.27,6.28-6.58l0-.08c-1.63,1.17-5.34,3.47-6.31,3.47a1.27,1.27,0,0,1-1.3-1.25,1.23,1.23,0,0,1,.84-1.14,27.46,27.46,0,0,0,8.28-5.17c-.75,0-1.51,0-2.11,0-1.08,0-3.63,0-3.71-2.52,0-.84,0-1.79,0-2.74s0-1.81,0-2.54c.05-1.17.81-2.39,2.93-2.44,1.13,0,3-.06,5-.06,2.41,0,5,0,6.75.06a2.7,2.7,0,0,1,2.79,2.25c0,.65.08,1.54.08,2.46s0,2.17-.08,3a2.82,2.82,0,0,1-3,2.55h-.73c-.62,0-1.33,0-2,0a31.6,31.6,0,0,0,8.32,4.74,1.21,1.21,0,0,1,.81,1.14,1.52,1.52,0,0,1-1.52,1.46c-.89,0-3.93-1.73-6.47-3.66a1.51,1.51,0,0,1,.08.38v7.72a1.3,1.3,0,0,1-2.6,0ZM345.25,4.15c-1.49,0-2.85,0-3.77,0-1.33.06-1.38,1-1.38,2.09h5.15Zm0,4.09H340.1c0,1.41.11,2.14,1.41,2.2,1,0,2.33.05,3.74.05Zm7.53-1.95c0-.38,0-.7,0-1,0-.68-.41-1.06-1.33-1.09s-2.27,0-3.76,0V6.29Zm-5.12,2v2.25c1.38,0,2.73,0,3.79-.05,1.33,0,1.33-.95,1.33-2.2Z"/><path class="cls-1" d="M382.46,22.46a1.89,1.89,0,0,1-.89-.24C378.43,20.4,374,15.47,371.06,13a2.61,2.61,0,0,0-1.65-.84,2.4,2.4,0,0,0-1.38.57,38,38,0,0,1-3.88,2.66,2.12,2.12,0,0,1-.84.21,1.55,1.55,0,0,1-1.57-1.43,1.49,1.49,0,0,1,1-1.33c.71-.33,2.49-1.33,3.93-2.22a5.19,5.19,0,0,1,2.73-.95,5,5,0,0,1,3.2,1.41c3.31,2.68,7.23,6.42,10.86,8.59a1.32,1.32,0,0,1,.65,1.16A1.6,1.6,0,0,1,382.46,22.46Z"/><path class="cls-1" d="M389.94,25a10.38,10.38,0,0,0-3.33-2.85,1.18,1.18,0,0,1,.54-2.27c1,0,5.28,2.38,5.28,4.22A1.49,1.49,0,0,1,391,25.63,1.24,1.24,0,0,1,389.94,25Z"/><path class="cls-1" d="M401.56,25.2a1.53,1.53,0,0,1-1.49-1.44,1.16,1.16,0,0,1,.68-1,13.69,13.69,0,0,0,3.76-2.81c0-1.22.06-2.28.06-3.31,0-1.84,0-1.89-1.28-1.89h-1.14c-.56,0-1.51,0-1.51-1.17a1.16,1.16,0,0,1,1.14-1.22c1,0,1.86,0,2.76,0,1.73.05,2.54.81,2.54,2.54,0,1.58-.05,3.45-.05,5.18,1.84,2.33,4.69,2.73,8.15,2.73,2.71,0,5.64-.29,7.7-.46H423a1.26,1.26,0,0,1,1.3,1.3A1.32,1.32,0,0,1,423,25c-1.71.16-4.17.33-6.64.33-6.63,0-8.4-1.14-10.54-3.33C405.62,22.16,402.89,25.2,401.56,25.2Zm3.52-17.8a8.72,8.72,0,0,0-2.76-2.19,1,1,0,0,1-.6-.87,1.39,1.39,0,0,1,1.38-1.27c.73,0,4.31,1.81,4.31,3.33A1.51,1.51,0,0,1,406,7.89,1.14,1.14,0,0,1,405.08,7.4Zm11.22,3.87h-3.85c-.27,4.56-1.74,9.4-3.6,9.4a1.33,1.33,0,0,1-1.36-1.24,1.23,1.23,0,0,1,.3-.79c2-2.54,2.27-6.09,2.27-8.8,0-1.11-.05-2.09-.05-2.82V6.91c0-1.38.49-2.52,2.55-2.76a30.09,30.09,0,0,0,6.9-1.65,1.7,1.7,0,0,1,.6-.11,1.28,1.28,0,0,1,1.3,1.3A1.4,1.4,0,0,1,420.22,5a50.88,50.88,0,0,1-6.58,1.35c-1,.16-1.14.57-1.14,1.06,0,.32,0,.89,0,1.57L422.61,9a1.18,1.18,0,1,1,0,2.35h-3.82l0,9.24a1.31,1.31,0,0,1-2.6,0Z"/><path class="cls-1" d="M434.47,22.94a1.59,1.59,0,0,1-1.41-1.81A1.46,1.46,0,0,1,434.7,20c5.43.17,12.08-1.54,12.74-5.3.37-2.07-1.31-3.87-3.47-4.25a11.35,11.35,0,0,0-3.66.14c-2.82.45-6.54,1.88-9.63,2.69a2,2,0,0,1-1,.06,1.54,1.54,0,0,1-1.31-1.76,1.58,1.58,0,0,1,1.35-1.23c2.87-.6,7.7-2.08,10.64-2.37a15.75,15.75,0,0,1,4.35,0,6.54,6.54,0,0,1,5.75,7.37c-.37,2.07-2,3.84-4.78,5.33C441.77,22.84,435.23,23.07,434.47,22.94Z"/><path class="cls-1" d="M466.66,25.23a1.36,1.36,0,0,1-1.27-.9,38.09,38.09,0,0,0-5.45-8.53A4.88,4.88,0,0,1,458.67,13a4.1,4.1,0,0,1,1.05-2.51,63.53,63.53,0,0,0,5.07-7.13,1.27,1.27,0,0,1,1.14-.7,1.73,1.73,0,0,1,1.7,1.59,1.48,1.48,0,0,1-.24.79c-1.08,1.73-4.12,5.12-5.55,6.85a1.57,1.57,0,0,0-.44,1,2.36,2.36,0,0,0,.65,1.38c2.77,3.57,4.91,5.61,6.15,8.69a2.23,2.23,0,0,1,.14.68A1.7,1.7,0,0,1,466.66,25.23Z"/><path class="cls-1" d="M479.17,25.63a3.09,3.09,0,1,1,3.09-3.09A3.09,3.09,0,0,1,479.17,25.63Zm0-5.12a2,2,0,1,0,2.06,2A2,2,0,0,0,479.17,20.51Z"/><polygon class="cls-1" points="273.25 54.96 277.06 56.67 279.66 50.87 293 50.87 283.12 72.89 286.93 74.6 299.45 46.7 276.96 46.7 273.25 54.96"/><polygon class="cls-1" points="332.46 54.96 336.27 56.67 338.88 50.87 352.22 50.87 342.34 72.89 346.15 74.6 358.67 46.7 336.18 46.7 332.46 54.96"/><rect class="cls-1" x="243.23" y="47.97" width="4.18" height="9.05" transform="translate(-1.56 97.08) rotate(-22.31)"/><rect class="cls-1" x="251.95" y="47.32" width="4.18" height="9.05" transform="translate(-0.66 100.34) rotate(-22.31)"/><rect class="cls-1" x="248.97" y="59.04" width="27.67" height="4.18" transform="translate(99.31 275.77) rotate(-65.8)"/><polygon class="cls-1" points="320.26 48.23 317.1 50.18 319.08 53.39 314.1 53.39 315.83 49.53 312.02 47.82 309.53 53.39 301.46 53.39 301.46 57.56 307.66 57.56 301.1 72.24 304.91 73.94 312.24 57.56 322.74 57.56 319.4 73.76 323.49 74.6 327.86 53.39 323.44 53.39 320.26 48.23"/><rect class="cls-1" x="323.99" y="45.66" width="3.71" height="6.22" transform="translate(22.89 178.27) rotate(-31.66)"/><rect class="cls-2" width="593.81" height="109.47"/></g></g></svg>