<svg xmlns="http://www.w3.org/2000/svg" width="151.77" height="38.208" viewBox="0 0 151.77 38.208"><path d="M4150.107,858.576l4.94,2.219,3.381-7.527h17.305l-12.818,28.568,4.941,2.217,16.243-36.2h-29.176Z" transform="translate(-4109.143 -845.845)" fill="#373737"/><path d="M4363.83,858.575l4.94,2.219,3.381-7.527h17.305l-12.818,28.568,4.941,2.216,16.243-36.2h-29.175Z" transform="translate(-4246.051 -845.845)" fill="#373737"/><g transform="translate(0 2.226)"><rect width="5.416" height="11.746" transform="translate(0 2.905) rotate(-22.314)" fill="#373737"/><rect width="5.416" height="11.746" transform="translate(11.305 2.056) rotate(-22.314)" fill="#373737"/><rect width="35.892" height="5.416" transform="translate(17.583 33.761) rotate(-65.798)" fill="#373737"/></g><g transform="translate(77.093 0)"><path d="M4275.478,852.444l-4.1,2.527,2.568,4.165h-6.453l2.24-5.01-4.944-2.211-3.229,7.22h-10.468v5.416h8.047l-8.512,19.037,4.944,2.211,9.5-21.248H4278.7l-4.327,21.012,5.3,1.092,5.667-27.519H4279.6Z" transform="translate(-4250.629 -848.448)" fill="#373737"/><rect width="4.815" height="8.068" transform="translate(27.937 2.527) rotate(-31.657)" fill="#373737"/></g></svg>